# https://github.com/mikedh/trimesh
v 0.02207351 0.01348519 0.04035155
v 0.02225937 0.01334401 0.03968802
v 0.02303566 0.01237086 0.03608990
v 0.02135432 0.01384067 0.04262646
v 0.02067407 0.01397800 0.04456761
v 0.02339172 0.01131037 0.03274224
v 0.02838615 0.00431031 -0.01651161
v 0.02849805 0.00433379 -0.01766334
v 0.02855501 0.00751027 -0.01762637
v 0.02848316 0.00379110 -0.01768574
v 0.02829714 0.00100000 -0.01701068
v 0.02837722 0.00399383 -0.01652434
v 0.02827323 0.00100000 -0.01678452
v 0.02822381 0.00008201 -0.01681853
v 0.02822030 0.00001106 -0.01682620
v 0.02818739 -0.00100000 -0.01713151
v 0.02816637 -0.00285907 -0.01833041
v 0.02823966 -0.00029876 -0.01719181
v 0.02832581 -0.00013948 -0.01798380
v 0.02832019 0.00100000 -0.01723692
v 0.02853288 0.01455230 -0.01818210
v 0.02846479 0.01362665 -0.01694804
v 0.02856091 0.01270528 -0.01794215
v 0.02847168 0.01279355 -0.01683865
v 0.02857058 0.01003513 -0.01771775
v 0.02847244 0.01008937 -0.01658581
v 0.02844927 0.00747768 -0.01647817
v 0.02816744 -0.00100000 -0.01694452
v 0.02808240 -0.00245755 -0.01714529
v 0.02808728 -0.00397729 -0.01850731
v 0.02797133 -0.00410907 -0.01741688
v 0.02780592 -0.00712446 -0.01912027
v 0.02767070 -0.00754338 -0.01814198
v 0.02763809 -0.00857302 -0.01946413
v 0.02760595 -0.00813841 -0.01829137
v 0.02697278 -0.01232558 -0.01957309
v 0.02700155 -0.01240343 -0.02059100
v 0.02691945 -0.01257995 -0.01966526
v 0.02689603 -0.01268807 -0.01970498
v 0.02688884 -0.01289319 -0.02076032
v 0.02605886 -0.01551879 -0.02086800
v 0.02583058 -0.01605547 -0.02111692
v 0.02587508 -0.01595114 -0.02151766
v 0.02591591 -0.01584671 -0.02191874
v -0.00596881 0.04755612 0.03803495
v -0.00592750 0.04762259 0.03710839
v -0.00582752 0.04766265 0.03632547
v -0.00541341 0.04770585 0.03467983
v -0.00596881 -0.02644837 0.04315263
v -0.00596881 -0.02637169 0.04499423
v -0.00596881 -0.02547063 0.04656520
v -0.00596881 -0.02487513 0.04716466
v -0.00596881 0.04421324 0.04852302
v -0.00596881 0.04534892 0.04659999
v -0.00596881 -0.02083713 0.05041678
v -0.00596881 -0.01916179 0.05115619
v -0.00596881 -0.01873532 0.05129532
v -0.00596881 -0.02339149 0.04857445
v -0.00596881 -0.02191693 0.04975116
v -0.00596881 -0.02124445 0.05018481
v -0.00596881 0.04625551 0.04448595
v -0.00596881 0.04679089 0.04273807
v -0.00596881 0.04732791 0.04004527
v -0.00596881 0.04283597 0.05029477
v -0.00596881 0.04125302 0.05185997
v -0.00596881 0.03424072 0.05521488
v -0.00596881 0.03620412 0.05473068
v -0.00596881 0.03706357 0.05442213
v -0.00596881 0.03890543 0.05353404
v -0.00596881 0.04062104 0.05237831
v -0.00596881 0.00873245 0.05898410
v -0.00596881 0.00954126 0.05896618
v -0.00596881 0.01069232 0.05885893
v -0.00596881 0.00682434 0.05883548
v -0.00596881 0.00505171 0.05841205
v -0.00376881 0.04725666 0.04052926
v -0.00376881 0.04675907 0.04288936
v -0.00376881 0.04603247 0.04511500
v -0.00376881 0.04583131 0.04560411
v -0.00376881 0.04481478 0.04761045
v -0.00376881 0.04355943 0.04945453
v -0.00376881 0.04271983 0.05045235
v -0.00376881 0.04122103 0.05190796
v -0.00376881 0.03958523 0.05313028
v -0.00376881 0.03812832 0.05395736
v -0.00376881 0.03624340 0.05472176
v -0.00376881 0.03429301 0.05520758
v -0.00376881 0.01130006 0.05876229
v -0.00376881 0.00933005 0.05897537
v -0.00376881 0.00891828 0.05898410
v -0.00376881 0.00710731 0.05887584
v -0.00376881 0.00538038 0.05851364
v -0.00376881 -0.01867229 0.05131374
v -0.00376881 -0.02037735 0.05065041
v -0.00376881 -0.02124427 0.05018111
v -0.00376881 -0.02194469 0.04972642
v -0.00376881 -0.02262896 0.04921152
v -0.00376881 -0.02465121 0.04737230
v -0.00520620 -0.02555188 0.04647668
v -0.00376881 -0.02563271 0.04638281
v -0.00376881 0.04755730 0.03803495
v -0.00376593 0.04757475 0.03781748
v -0.00358409 0.04766400 0.03630301
v -0.00323622 0.04769918 0.03512578
v -0.00314375 0.04770312 0.03489251
v -0.00376881 -0.02637169 0.04499423
v -0.01293649 -0.02250000 -0.03200000
v -0.01293649 -0.02250000 -0.03800000
v 0.01453109 -0.02825000 -0.00050000
v 0.01325000 -0.02953109 -0.00050000
v 0.01150000 -0.03000000 -0.00050000
v 0.00975000 -0.02953109 -0.02750000
v 0.01150000 -0.03000000 -0.02750000
v 0.01325000 -0.02953109 -0.02750000
v 0.01453109 -0.02825000 -0.02750000
v -0.01300000 0.03200135 -0.00892071
v -0.01300000 0.03201412 -0.00950584
v -0.02285280 0.00259799 -0.04849986
v -0.02290194 0.00212165 -0.04787901
v -0.02283231 0.00277234 -0.04100000
v -0.02300000 -0.00000000 -0.04700000
v -0.02283231 -0.00277234 -0.04100000
v -0.02298691 0.00077601 -0.04710210
v -0.02295103 0.00150000 -0.04740192
v -0.02298678 -0.00077961 -0.04710307
v -0.02295103 -0.00150000 -0.04740192
v -0.02290200 -0.00212102 -0.04787838
v -0.02150537 0.00815591 -0.04100000
v -0.02280351 0.00300000 -0.05000000
v -0.02285280 -0.00259799 -0.05150015
v -0.02290200 -0.00212099 -0.05212165
v -0.02283231 -0.00277234 -0.05500000
v -0.02295103 -0.00150000 -0.05259808
v -0.02295103 0.00150000 -0.05259808
v -0.02290198 0.00212120 -0.05212144
v -0.02283231 0.00277234 -0.05500000
v -0.02298686 -0.00077747 -0.05289751
v -0.02300000 -0.00000000 -0.05300000
v -0.02298687 0.00077698 -0.05289764
v -0.02150537 0.00815591 -0.05500000
v -0.02285279 0.00259808 -0.05150000
v -0.02285279 -0.00259808 -0.04850000
v -0.02150537 -0.00815591 -0.04100000
v -0.02150537 -0.00815591 -0.05500000
v -0.02280351 -0.00300000 -0.05000000
v -0.01892863 0.01306549 -0.05500000
v -0.01525182 0.01721575 -0.05500000
v -0.01068863 0.02036549 -0.05500000
v -0.00550426 0.02233166 -0.05500000
v 0.00000000 0.02300000 -0.05500000
v 0.00550426 0.02233166 -0.05500000
v 0.01068863 0.02036549 -0.05500000
v 0.01525182 0.01721575 -0.05500000
v 0.01892863 0.01306549 -0.05500000
v 0.02283230 0.00277234 -0.05500000
v 0.02283230 -0.00277234 -0.05500000
v 0.02150537 0.00815591 -0.05500000
v 0.02150537 -0.00815591 -0.05500000
v 0.01892863 -0.01306549 -0.05500000
v 0.01525182 -0.01721575 -0.05500000
v 0.01068863 -0.02036549 -0.05500000
v -0.00550426 -0.02233166 -0.05500000
v 0.00000000 -0.02300000 -0.05500000
v 0.00550426 -0.02233166 -0.05500000
v -0.01068863 -0.02036549 -0.05500000
v -0.01525182 -0.01721575 -0.05500000
v -0.01892863 -0.01306549 -0.05500000
v -0.01892863 -0.01306549 -0.04100000
v 0.02740807 0.03220007 -0.02321216
v 0.02721578 0.03327686 -0.02245818
v 0.02677860 0.03430449 -0.02173862
v -0.00984776 0.03674968 -0.02027064
v -0.00941421 0.03728118 -0.01989848
v 0.02609048 0.03529056 -0.02117025
v 0.02675425 0.03435269 -0.02182695
v 0.02718976 0.03332899 -0.02254375
v 0.02738131 0.03225632 -0.02329484
v 0.02605071 -0.01472352 -0.02623129
v 0.02605320 -0.01473534 -0.02618569
v 0.02541777 -0.01600292 -0.02645536
v 0.02795657 0.00875407 -0.02954927
v 0.02793410 0.01062723 -0.02949024
v 0.02481319 -0.01655775 -0.02770535
v 0.02513300 -0.01647965 -0.02650436
v 0.02491361 -0.01681551 -0.02650947
v 0.02513997 -0.01594109 -0.02785560
v 0.02604810 -0.01471169 -0.02627693
v 0.02597943 -0.01449226 -0.02711955
v 0.02583149 -0.01446754 -0.02781194
v 0.02597260 -0.01447575 -0.02718296
v 0.02588472 -0.01430047 -0.02785603
v 0.02598644 -0.01450982 -0.02705212
v 0.02598668 -0.01451044 -0.02704972
v 0.02601172 -0.01457987 -0.02678310
v 0.02839245 0.02047054 -0.02324515
v 0.02426182 -0.01681623 -0.02889890
v 0.02449405 -0.01711220 -0.02743763
v 0.02386789 -0.01749505 -0.02852026
v 0.02823836 0.00858350 -0.02817010
v 0.02810493 0.00101930 -0.02841147
v 0.02785272 -0.00275322 -0.02857893
v 0.02831315 0.00874293 -0.02771148
v 0.02790078 -0.00317397 -0.02816135
v 0.02819048 0.00110354 -0.02795226
v 0.02831900 0.00612119 -0.02777412
v 0.02839405 0.00876977 -0.02717193
v 0.02839901 0.00577306 -0.02723856
v 0.02827603 0.00109386 -0.02741231
v 0.02797073 -0.00340421 -0.02765566
v 0.02759983 -0.00655325 -0.02787444
v 0.02695220 -0.01040178 -0.02790046
v 0.02801199 -0.00356029 -0.02731227
v 0.02765536 -0.00658644 -0.02754054
v 0.02704288 -0.01000025 -0.02785832
v 0.02832806 0.00108608 -0.02704417
v 0.02844751 0.00553432 -0.02687346
v 0.02844384 0.00878781 -0.02680427
v 0.02650110 -0.01236836 -0.02782995
v 0.02770642 -0.00662158 -0.02720127
v 0.02769988 -0.00666739 -0.02720539
v 0.02708247 -0.01010770 -0.02755440
v 0.02699954 -0.01047458 -0.02759651
v 0.02650449 -0.01235704 -0.02782847
v 0.02837170 0.00098520 -0.02667480
v 0.02804882 -0.00371768 -0.02696458
v 0.02849148 0.00866742 -0.02643248
v 0.02849186 0.00529189 -0.02650266
v 0.02837590 0.00107716 -0.02667020
v 0.02835651 0.01390061 -0.02645598
v 0.02849012 0.00880581 -0.02643091
v 0.02654572 -0.01240943 -0.02757625
v 0.02704702 -0.01049684 -0.02732321
v 0.02774715 -0.00665369 -0.02690183
v 0.02852745 0.00882154 -0.02610147
v 0.02841402 0.00106855 -0.02634016
v 0.02817212 -0.00279485 -0.02657883
v 0.02664489 -0.01256465 -0.02684247
v 0.02704909 -0.01105700 -0.02660019
v 0.02718530 -0.01046779 -0.02651181
v 0.02794928 -0.00594775 -0.02594329
v 0.02813859 -0.00425024 -0.02577444
v 0.02822646 -0.00330164 -0.02568952
v 0.02848948 0.00072714 -0.02539879
v 0.02850373 0.00103932 -0.02538080
v 0.02862241 0.00566792 -0.02518956
v 0.02861769 0.00886597 -0.02514410
v 0.02850278 0.01366513 -0.02523023
v 0.02862432 0.00897119 -0.02504713
v 0.02666100 -0.01259582 -0.02669729
v 0.02706551 -0.01108536 -0.02644668
v 0.02785866 -0.00677338 -0.02585917
v 0.02719620 -0.01051963 -0.02635904
v 0.02796430 -0.00596689 -0.02576838
v 0.02716470 -0.01065993 -0.02638046
v 0.02863817 0.00585046 -0.02499302
v 0.02857678 0.01167064 -0.02508547
v 0.02814717 -0.00432714 -0.02560030
v 0.02825639 -0.00313370 -0.02549117
v 0.02721487 -0.01062268 -0.02605399
v 0.02668642 -0.01267020 -0.02640900
v 0.02787918 -0.00686209 -0.02552071
v 0.02788558 -0.00681543 -0.02551498
v 0.02816080 -0.00448045 -0.02525324
v 0.02831082 -0.00280229 -0.02509362
v 0.02853844 0.00092564 -0.02481718
v 0.02866571 0.00619822 -0.02460246
v 0.02858431 0.01267578 -0.02464769
v 0.02833215 -0.00302701 -0.02441405
v 0.02857292 0.00089690 -0.02409782
v 0.02869846 0.00878120 -0.02385711
v 0.02862635 0.01273608 -0.02395682
v 0.02798582 -0.00642407 -0.02479925
v 0.02791752 -0.00694543 -0.02486842
v 0.02723206 -0.01084773 -0.02548264
v 0.02710741 -0.01138384 -0.02558138
v 0.02672934 -0.01279108 -0.02585813
v 0.02817539 -0.00481854 -0.02447998
v 0.02799088 -0.00643889 -0.02468058
v 0.02798835 -0.00643127 -0.02474143
v 0.02668621 -0.01297575 -0.02579317
v 0.02711362 -0.01140435 -0.02547693
v 0.02711049 -0.01139381 -0.02553059
v 0.02868111 0.00411311 -0.02380384
v 0.02857747 0.00089150 -0.02396825
v 0.02854138 0.00013685 -0.02401951
v 0.02870557 0.00809822 -0.02379109
v 0.02869432 0.00488229 -0.02377775
v 0.02871012 0.00688075 -0.02373449
v 0.02862808 0.01288979 -0.02383945
v 0.02870819 0.00810046 -0.02372610
v 0.02840753 -0.00209153 -0.02419939
v 0.02790995 -0.00705478 -0.02476393
v 0.02724214 -0.01085005 -0.02537311
v 0.02720654 -0.01100793 -0.02540228
v 0.02859375 0.01499104 -0.02287918
v 0.02866699 0.01298925 -0.02271930
v 0.02870215 0.01152703 -0.02263799
v 0.02873779 0.00806706 -0.02255341
v 0.02873666 0.00669339 -0.02255830
v 0.02871865 0.00487965 -0.02259577
v 0.02870743 0.00424895 -0.02261681
v 0.02849164 -0.00117116 -0.02296252
v 0.02816231 -0.00527553 -0.02342492
v 0.02807495 -0.00607249 -0.02353645
v 0.02724918 -0.01115755 -0.02444084
v 0.02630374 -0.01439675 -0.02521469
v 0.02607997 -0.01494930 -0.02536289
v 0.02607068 -0.01484227 -0.02577449
v 0.02873853 0.00806926 -0.02248354
v 0.02677628 -0.01302728 -0.02474924
v 0.02630528 -0.01442329 -0.02510891
v 0.02725145 -0.01117231 -0.02434797
v 0.02807526 -0.00608988 -0.02340129
v 0.02795458 -0.00707649 -0.02355221
v 0.02724778 -0.01119594 -0.02432445
v 0.02860438 0.01484165 -0.02272769
v 0.02873714 0.00657209 -0.02241205
v 0.02872048 0.00495124 -0.02244561
v 0.02870800 0.00424729 -0.02246883
v 0.02857891 0.00043379 -0.02268300
v 0.02807516 -0.00608075 -0.02347212
v 0.02725634 -0.01114095 -0.02437791
v 0.02630453 -0.01440938 -0.02516434
v 0.02608061 -0.01496268 -0.02531131
v 0.02849883 -0.00105877 -0.02280717
v 0.02815821 -0.00533266 -0.02329355
v 0.02608113 -0.01497606 -0.02525975
v 0.02607490 -0.01518534 -0.02445688
v 0.02677633 -0.01322767 -0.02387652
v 0.02727775 -0.01123754 -0.02335861
v 0.02794193 -0.00722649 -0.02251966
v 0.02802705 -0.00652358 -0.02239813
v 0.02834330 -0.00318573 -0.02191220
v 0.02858516 0.00086912 -0.02150694
v 0.02871010 0.00494536 -0.02129225
v 0.02873335 0.00903137 -0.02127699
v 0.02867741 0.01312292 -0.02148755
v 0.02677249 -0.01327525 -0.02367347
v 0.02629761 -0.01467941 -0.02409362
v 0.02722085 -0.01151808 -0.02325125
v 0.02721282 -0.01155948 -0.02321085
v 0.02809530 -0.00587351 -0.02204022
v 0.02833497 -0.00321167 -0.02165612
v 0.02852765 -0.00016777 -0.02132695
v 0.02865314 0.01397292 -0.02144174
v 0.02872146 0.01055646 -0.02120119
v 0.02872803 0.00714773 -0.02099028
v 0.02802371 -0.00653994 -0.02228145
v 0.02723153 -0.01146245 -0.02330478
v 0.02607255 -0.01520980 -0.02436338
v 0.02630002 -0.01465417 -0.02419353
v 0.02873055 0.00837888 -0.02099873
v 0.02871964 0.01056438 -0.02106448
v 0.02867593 0.01314552 -0.02123282
v 0.02865253 0.01398590 -0.02131061
v 0.02864040 0.01436210 -0.02134930
v 0.02870382 0.00494339 -0.02102356
v 0.02867155 0.00348299 -0.02107850
v 0.02853205 -0.00015881 -0.02146438
v 0.02857730 0.00085475 -0.02124145
v 0.02853508 -0.00002379 -0.02131416
v 0.02606988 -0.01523424 -0.02426994
v 0.02704702 -0.01233009 -0.02258671
v 0.02605761 -0.01532407 -0.02392514
v 0.02604145 -0.01541396 -0.02358014
v 0.02852984 0.00066232 -0.02027378
v 0.02839333 -0.00183552 -0.02052477
v 0.02829210 -0.00330905 -0.02071175
v 0.02802892 -0.00624455 -0.02117545
v 0.02789713 -0.00739826 -0.02139330
v 0.02784802 -0.00778955 -0.02147206
v 0.02716779 -0.01180915 -0.02243872
v 0.02857388 0.00168431 -0.02019452
v 0.02866884 0.00493538 -0.02003257
v 0.02867408 0.00522334 -0.02002493
v 0.02870280 0.00866621 -0.02002190
v 0.02870282 0.00872299 -0.02002326
v 0.02865307 0.01351972 -0.02032235
v 0.02603991 -0.01542162 -0.02355059
v 0.02669324 -0.01363600 -0.02294836
v 0.02704555 -0.01233744 -0.02255334
v 0.02716554 -0.01181970 -0.02240570
v 0.02784604 -0.00779559 -0.02143443
v 0.02787711 -0.00754998 -0.02138453
v 0.02802572 -0.00626022 -0.02113856
v 0.02828063 -0.00343572 -0.02068825
v 0.02839108 -0.00183913 -0.02048371
v 0.02852909 0.00069071 -0.02022931
v 0.02866550 0.00486067 -0.01999230
v 0.02867220 0.00522309 -0.01998251
v 0.02870120 0.00863115 -0.01997904
v 0.02864516 0.01380290 -0.02031190
v 0.02603058 -0.01546530 -0.02338283
v 0.02713788 -0.01194045 -0.02203156
v 0.02667523 -0.01372229 -0.02258673
v 0.02602043 -0.01550894 -0.02321526
v 0.02785221 -0.00761804 -0.02095525
v 0.02798717 -0.00643940 -0.02072082
v 0.02825290 -0.00348517 -0.02022997
v 0.02850775 0.00078594 -0.01974301
v 0.02864483 0.01324806 -0.01979323
v 0.02864150 0.00485573 -0.01951035
v 0.02868008 0.00827548 -0.01949320
v 0.02868153 0.00905129 -0.01951339
v 0.02860081 0.01495918 -0.01999822
v 0.02858073 0.01491071 -0.01934471
v 0.02864633 0.00907718 -0.01883305
v 0.02820630 -0.00355734 -0.01957546
v 0.02600451 -0.01557131 -0.02297581
v 0.02664354 -0.01384638 -0.02207025
v 0.02598699 -0.01563372 -0.02273621
v 0.02709275 -0.01211213 -0.02149819
v 0.02780995 -0.00771698 -0.02034226
v 0.02715511 -0.01182353 -0.02140979
v 0.02792593 -0.00669386 -0.02012677
v 0.02860004 0.00484783 -0.01882188
v 0.02844789 0.00044380 -0.01909018
v 0.02864379 0.00833482 -0.01881093
v 0.02861754 0.01330580 -0.01913986
v 0.02031859 -0.01188546 0.03906865
v 0.02034550 -0.01247810 0.03870836
v 0.02037584 -0.01337538 0.03812668
v 0.02038728 -0.01402244 0.03767636
v 0.02063295 -0.01571546 0.03457432
v 0.02082656 -0.01593533 0.03278623
v 0.02094759 -0.01623452 0.03100558
v 0.02037192 -0.01555835 0.03641542
v 0.02038289 -0.01556390 0.03634502
v 0.02048299 -0.01561657 0.03567936
v 0.02038840 -0.01451003 0.03731683
v 0.02038702 -0.01467055 0.03719468
v 0.02038229 -0.01494796 0.03697911
v 0.02036090 -0.01555277 0.03648572
v 0.02037458 -0.01522219 0.03675951
v 0.02037897 -0.01508000 0.03687421
v 0.02035492 -0.01271624 0.03855846
v 0.02035415 -0.01269587 0.03857141
v 0.02035332 -0.01267396 0.03858528
v 0.02180141 -0.01350353 0.02940046
v 0.02159617 -0.01284034 0.03219665
v 0.02141454 -0.01256319 0.03354702
v 0.02122386 -0.01236000 0.03469022
v 0.02037862 -0.01803135 0.03083678
v 0.02035266 -0.01813321 0.03070099
v 0.02030872 -0.01828821 0.03051975
v 0.01993944 -0.01860281 0.03295035
v 0.02012614 -0.01886320 0.02971998
v 0.02023961 -0.01851441 0.03024365
v 0.01995885 -0.01841954 0.03345156
v 0.01993339 -0.01854372 0.03321631
v 0.02003015 -0.01812737 0.03384374
v 0.02011012 -0.01775112 0.03430958
v 0.02010638 -0.01777020 0.03428690
v 0.02010405 -0.01778215 0.03427254
v 0.02010159 -0.01779436 0.03425820
v 0.02011567 -0.01772241 0.03434353
v 0.02012706 -0.01766226 0.03441415
v 0.02013683 -0.01760939 0.03447530
v 0.02047344 -0.01764479 0.03125723
v 0.02015196 -0.01752468 0.03457209
v 0.02017385 -0.01739559 0.03471658
v 0.02021594 -0.01712114 0.03501289
v 0.02051569 -0.01745379 0.03145481
v 0.02021935 -0.01709709 0.03503821
v 0.02054289 -0.01732468 0.03158505
v 0.02055957 -0.01724331 0.03166587
v 0.02022475 -0.01705851 0.03507854
v 0.02023267 -0.01700040 0.03513882
v 0.02024851 -0.01687837 0.03526355
v 0.02034898 -0.01577235 0.03629775
v 0.02025916 -0.01679169 0.03535053
v 0.02027511 -0.01665282 0.03548773
v 0.02033480 -0.01598936 0.03610688
v 0.02029705 -0.01644081 0.03569181
v 0.02034246 -0.01587684 0.03620649
v 0.02033782 -0.01594617 0.03614528
v 0.02011018 -0.01693978 0.03590640
v 0.02019789 -0.01587558 0.03686744
v 0.02020926 -0.01561926 0.03708079
v 0.02021746 -0.01536062 0.03728999
v 0.02022159 -0.01516793 0.03744207
v 0.02022413 -0.01497414 0.03759195
v 0.02022505 -0.01465625 0.03783149
v 0.02022222 -0.01433556 0.03806565
v 0.02021491 -0.01396623 0.03832663
v 0.02021871 -0.01354604 0.03855801
v 0.02020374 -0.01359423 0.03858070
v 0.02013247 -0.01213179 0.03950388
v 0.02014773 -0.01216653 0.03944522
v 0.02016228 -0.01220153 0.03938691
v 0.02017626 -0.01223684 0.03932896
v 0.02012964 -0.01208498 0.03953162
v 0.02007253 -0.01121749 0.04002918
v 0.02031565 -0.01183033 0.03910226
v 0.02006845 -0.01115751 0.04006207
v 0.02007049 -0.01118746 0.04004566
v 0.02020665 -0.00992060 0.04015103
v 0.02023640 -0.01041044 0.03989661
v 0.02026759 0.00497194 0.04516102
v 0.02012861 0.00319003 0.04488866
v 0.02031009 0.00251071 0.04426007
v 0.02045023 0.00440555 0.04457579
v 0.02037017 0.00461632 0.04484998
v 0.02030647 0.00556435 0.04523796
v 0.02028758 0.00526829 0.04520036
v 0.02043166 0.00516317 0.04486717
v 0.02049086 0.00503911 0.04466558
v 0.02037002 0.00674831 0.04537158
v 0.02053104 0.00591434 0.04480127
v 0.02054441 0.00613865 0.04482090
v 0.02059455 0.00726930 0.04492491
v 0.02056508 0.00891951 0.04524017
v 0.02062577 0.00865247 0.04503068
v 0.02062257 0.00840231 0.04501382
v 0.02042917 0.00911284 0.04555976
v 0.02042945 0.00923975 0.04556683
v 0.02042939 0.00936660 0.04557362
v 0.02056600 0.00918903 0.04525644
v 0.02042895 0.00948462 0.04557992
v 0.02042920 0.00942561 0.04557680
v 0.02056087 0.00925834 0.04527434
v 0.02056566 0.00931475 0.04526439
v 0.02042845 0.00959550 0.04558520
v 0.02042773 0.00970637 0.04559024
v 0.02056484 0.00955019 0.04527689
v 0.02042511 0.00995515 0.04560118
v 0.02053281 0.01277819 0.04514819
v 0.02040953 0.01394671 0.04531281
v 0.02061352 0.01063321 0.04512118
v 0.02036390 0.01392919 0.04541094
v 0.02039300 0.01130197 0.04564036
v 0.02026868 0.01384194 0.04562129
v 0.02026338 0.01392890 0.04561846
v 0.02025803 0.01401591 0.04561548
v 0.02034931 0.01410909 0.04541089
v 0.02030045 0.02721244 0.04279091
v 0.02035287 0.02827453 0.04241478
v 0.02037316 0.02869792 0.04225487
v 0.02013140 0.02779437 0.04311939
v 0.02037280 0.02869015 0.04225786
v 0.02011947 0.02758346 0.04319254
v 0.02036310 0.02848648 0.04233543
v 0.02019105 0.02887733 0.04272186
v 0.02042143 0.02977555 0.04182175
v 0.02027003 0.03050371 0.04205246
v 0.02028527 0.03087196 0.04188801
v 0.02027780 0.03068787 0.04197084
v 0.02031131 0.03158598 0.04155464
v 0.02029892 0.03122942 0.04172356
v 0.02042878 0.03447182 0.03974758
v 0.02033488 0.03554747 0.03929566
v 0.02044165 0.03722039 0.03742398
v 0.02034472 0.03853939 0.03626734
v 0.02032438 0.03875312 0.03606244
v 0.02027906 0.03918646 0.03562663
v 0.02010316 0.04046730 0.03417033
v 0.01988897 0.04157851 0.03261536
v 0.01988308 0.04158761 0.03262100
v 0.01988100 0.04159680 0.03260653
v 0.01988069 0.04159818 0.03260436
v 0.01988781 0.04158377 0.03260697
v 0.01988225 0.04159129 0.03261520
v 0.01988689 0.04158908 0.03259714
v 0.01954244 0.04207257 0.03276248
v 0.01969194 0.04190512 0.03260000
v 0.01987729 0.04163435 0.03252171
v 0.01988019 0.04161990 0.03254680
v 0.01988543 0.04159682 0.03258333
v 0.01987141 0.04168212 0.03241769
v 0.01989489 0.04175021 0.03209120
v 0.01973279 0.04200216 0.03210136
v 0.01952887 0.04219906 0.03244356
v 0.01956286 0.04224958 0.03211005
v 0.02001213 0.04177216 0.03135413
v 0.01982049 0.04208256 0.03135011
v 0.01992479 0.04175633 0.03190625
v 0.01963732 0.04226656 0.03165891
v 0.01965113 0.04226981 0.03157248
v 0.01973613 0.04221113 0.03132725
v 0.01970460 0.04228273 0.03122930
v 0.01992475 0.04233755 0.02968192
v 0.02062365 0.04197265 0.02615386
v 0.02069867 0.04200542 0.02530476
v 0.02055153 0.04226189 0.02523512
v 0.02039889 0.04188734 0.02836540
v 0.02010722 0.04239730 0.02815788
v 0.01978447 0.04230280 0.03069165
v 0.01985902 0.04232320 0.03015869
v 0.02073666 0.04202253 0.02484974
v 0.02055287 0.04259248 0.02300163
v 0.02088005 0.04209511 0.02292236
v 0.02090901 0.04211180 0.02247908
v 0.02057846 0.04260775 0.02259596
v 0.02056582 0.04260011 0.02279899
v 0.02101436 0.04218297 0.02058882
v 0.02067228 0.04267295 0.02086412
v 0.02086818 0.04245064 0.02024483
v 0.02103660 0.04220160 0.02009387
v 0.02104265 0.04220701 0.01994912
v 0.02104845 0.04221238 0.01980545
v 0.02088324 0.04245144 0.02000182
v 0.02109152 0.04226484 0.01841480
v 0.02107776 0.04224446 0.01895507
v 0.02109198 0.04226565 0.01839335
v 0.02110612 0.04231057 0.01720279
v 0.02076483 0.04279830 0.01753461
v 0.02108573 0.04236867 0.01592372
v 0.02109213 0.04235802 0.01615609
v 0.02112360 0.04228964 0.01701280
v 0.02138643 0.04173999 0.01870964
v 0.02110956 0.04207252 0.02018802
v 0.02140201 0.04171544 0.01866401
v 0.02128939 0.04201716 0.01688648
v 0.02135657 0.04189746 0.01694907
v 0.02117908 0.04211747 0.01848146
v 0.02149078 0.04160427 0.01793963
v 0.02145734 0.04138513 0.02066716
v 0.02174540 0.04098564 0.01909397
v 0.02244702 0.03922227 0.02106347
v 0.02230022 0.03948012 0.02188949
v 0.02308298 0.03642382 0.02569221
v 0.02335439 0.03578434 0.02404589
v 0.02205567 0.03986033 0.02299163
v 0.02192554 0.04004651 0.02350375
v 0.02183582 0.04016990 0.02383881
v 0.02177894 0.04024627 0.02404562
v 0.02172204 0.04032123 0.02424894
v 0.02170219 0.04034702 0.02431906
v 0.02285804 0.03683700 0.02670341
v 0.02034143 0.03875466 0.03599042
v 0.02066858 0.03876852 0.03459667
v 0.02035824 0.03875683 0.03591838
v 0.02166115 0.03831419 0.03088107
v 0.02087271 0.03874075 0.03375755
v 0.02086947 0.03874145 0.03377063
v 0.02217231 0.03780273 0.02918602
v 0.02218465 0.03778830 0.02914479
v 0.02186556 0.03494399 0.03460317
v 0.02204020 0.03482880 0.03408441
v 0.02301013 0.03380599 0.03092562
v 0.02349242 0.03291592 0.02873968
v 0.02381149 0.03191055 0.02623164
v 0.02057758 0.04026981 0.03214975
v 0.01992058 0.04159538 0.03240006
v 0.01990395 0.04159227 0.03249780
v 0.02126293 0.04087906 0.02583909
v 0.02121621 0.04093109 0.02600288
v 0.02066645 0.04144771 0.02816101
v 0.02049240 0.04155344 0.02900864
v 0.02026809 0.04162201 0.03026909
v 0.02145514 0.04065536 0.02517504
v 0.02133891 0.04079245 0.02557532
v 0.02078624 0.04191572 0.02497098
v 0.02102821 0.04164512 0.02408677
v 0.02114953 0.04149873 0.02364906
v 0.02123129 0.04139657 0.02335134
v 0.02095894 0.04200573 0.02263834
v 0.02128241 0.04133124 0.02316272
v 0.02097216 0.04199045 0.02259084
v 0.02096309 0.04200812 0.02257485
v 0.02110005 0.04208363 0.02022973
v 0.02110462 0.04207829 0.02020986
v 0.02109033 0.04209506 0.02027119
v 0.02314617 0.02974249 0.03285100
v 0.02360689 0.02873274 0.03028356
v 0.02201223 0.03095057 0.03669600
v 0.02220509 0.03081481 0.03613044
v 0.02054230 0.02720314 0.04211288
v 0.02116553 0.02709149 0.04038088
v 0.02210492 0.02658554 0.03767249
v 0.02297956 0.02555994 0.03442267
v 0.02190777 0.02673175 0.03827410
v 0.02183132 0.00918113 0.04144941
v 0.02066472 0.00950551 0.04498015
v 0.02233719 0.00882834 0.03959233
v 0.02332563 0.00685926 0.03255217
v 0.02293990 0.00806061 0.03658877
v 0.02308222 0.00261365 0.03265557
v 0.02229778 0.00418366 0.03848173
v 0.02272276 0.00359807 0.03616198
v 0.02277915 0.00349151 0.03576872
v 0.02129075 0.00485515 0.04224925
v 0.02131533 0.00484578 0.04216877
v 0.02050857 0.00503569 0.04461479
v 0.02052644 0.00503363 0.04456390
v 0.02101240 0.00494100 0.04312196
v 0.02256536 -0.00578246 0.03140992
v 0.02254812 -0.00573632 0.03158329
v 0.02255683 -0.00575937 0.03149663
v 0.02235143 -0.00988219 0.03002566
v 0.02229922 -0.00970332 0.03071091
v 0.02226963 -0.00961880 0.03103834
v 0.02223426 -0.00952839 0.03139150
v 0.02198469 -0.00906759 0.03326391
v 0.02181542 -0.00884763 0.03422707
v 0.02015028 0.04283239 0.02561174
v 0.02041987 0.04315701 0.01991215
v 0.02056379 0.04293299 0.02001491
v 0.01937339 0.04184549 0.03416218
v 0.01946252 0.04139469 0.03488018
v 0.01951869 0.04107442 0.03534860
v 0.01957645 0.04071126 0.03584433
v 0.01969686 0.03982294 0.03692169
v 0.01979735 0.03891101 0.03786281
v 0.01984682 0.03838512 0.03833951
v 0.01994493 0.03715964 0.03929583
v 0.01998041 0.03665110 0.03963798
v 0.02009791 0.03470954 0.04069646
v 0.02013136 0.03408863 0.04096029
v 0.02024384 0.03409488 0.04059079
v 0.01870488 0.04249670 0.03484111
v 0.01896058 0.04226640 0.03461895
v 0.01914798 0.04307197 0.03129011
v 0.01955883 0.04394467 0.02334116
v 0.01878129 0.04476430 0.02308799
v 0.01866543 0.04440126 0.02721836
v 0.01259418 0.04650731 0.03122056
v 0.01330680 0.04614071 0.03219140
v 0.01503355 0.04574477 0.03171622
v 0.01362464 0.04593402 0.03271364
v 0.01434311 0.04529544 0.03425334
v 0.01471277 0.04476465 0.03546976
v 0.01303135 0.04695965 0.02776138
v 0.01080645 0.04724547 0.02814066
v 0.01088241 0.04705628 0.02957139
v 0.00842390 0.04759595 0.02453336
v 0.00836327 0.04741076 0.02814549
v 0.01787026 0.04506750 0.02715789
v 0.01793347 0.04543727 0.02298488
v 0.01700223 0.04562186 0.02718236
v 0.01702674 0.04598377 0.02299856
v 0.01510073 0.04644474 0.02740651
v 0.01508265 0.04677358 0.02326453
v 0.01300377 0.04725601 0.02369738
v 0.01078537 0.04750644 0.02416064
v 0.01681215 0.04374874 0.03567381
v 0.01692322 0.04492213 0.03149929
v 0.01631696 0.04398493 0.03576797
v 0.01482030 0.04453784 0.03597456
v 0.01820719 0.04289398 0.03517605
v 0.01850967 0.04377677 0.03129928
v 0.01763632 0.04328332 0.03543994
v 0.01732782 0.04346928 0.03554270
v 0.01937708 0.04360265 0.02742512
v 0.01136446 0.04693638 0.02996355
v 0.01063011 0.04754608 0.02044030
v 0.01285351 0.04733296 0.01996780
v 0.01966199 0.04414237 0.01951919
v 0.01879977 0.04497688 0.01928779
v 0.01697885 0.04613982 0.01923180
v 0.01691642 0.04616971 0.01923671
v 0.01496577 0.04688956 0.01951849
v 0.01399645 0.04712877 0.01971590
v 0.01888285 -0.01986171 0.03487316
v 0.01899595 -0.01960126 0.03528719
v 0.01893552 -0.01960132 0.03556526
v 0.01886321 -0.01996672 0.03454790
v 0.01887127 -0.01995060 0.03457427
v 0.01886248 -0.01995407 0.03460385
v 0.01890543 -0.01986065 0.03476680
v 0.01891816 -0.01986168 0.03469916
v 0.01903999 -0.01960748 0.03505058
v 0.01938691 0.01362884 0.04738311
v 0.01938906 0.01132020 0.04765537
v 0.01970428 0.03031542 0.04361346
v 0.01961428 0.03257230 0.04312124
v 0.01911830 0.02794807 0.04530790
v 0.01979088 0.02796612 0.04392020
v 0.01938693 0.00676313 0.04730050
v 0.01938810 0.00903326 0.04764897
v 0.01938521 0.00449622 0.04668133
v 0.01917523 -0.01375221 0.04117831
v 0.01895097 -0.01685763 0.04001261
v 0.02002898 -0.01545575 0.03793094
v 0.01907707 -0.01545310 0.04063374
v 0.02019153 -0.01375378 0.03853029
v 0.01995580 -0.01603403 0.03769033
v 0.01943797 -0.01684493 0.03869971
v 0.01982891 -0.01685887 0.03729710
v 0.01924365 -0.01798316 0.03797745
v 0.01973338 -0.01736889 0.03701407
v 0.01917963 -0.01928204 0.03544748
v 0.01931905 -0.01891124 0.03583954
v 0.01918672 -0.01889787 0.03646755
v 0.01962624 -0.01785571 0.03670489
v 0.01901980 -0.01889992 0.03711654
v 0.01887322 -0.01994988 0.03456745
v 0.01886507 -0.01996560 0.03454324
v 0.01879505 -0.01962226 0.03608350
v 0.01865732 -0.02008389 0.03502447
v 0.01878633 -0.02001215 0.03473408
v 0.01588200 -0.02092893 0.03812528
v 0.01645895 -0.02081895 0.03775851
v 0.01740993 -0.01998868 0.03865112
v 0.01706118 -0.02067688 0.03727117
v 0.01731117 -0.02060809 0.03702851
v 0.01500000 -0.01384786 0.04547129
v 0.01620345 -0.01381929 0.04481111
v 0.01500000 -0.01602214 0.04487102
v 0.01617647 -0.01557152 0.04434526
v 0.01500000 -0.01736095 0.04423310
v 0.01613891 -0.01704755 0.04372326
v 0.01500000 -0.01845189 0.04339229
v 0.01608976 -0.01829065 0.04284428
v 0.01500000 -0.01940522 0.04224093
v 0.01602804 -0.01934656 0.04160648
v 0.01595299 -0.02026107 0.03990760
v 0.01623945 0.00681944 0.05022317
v 0.01623946 0.00909297 0.05059545
v 0.01623899 0.01137750 0.05061255
v 0.01623496 0.01367855 0.05034469
v 0.01500000 0.02864577 0.04916168
v 0.01590727 0.03034329 0.04852961
v 0.01500000 0.03115681 0.04886538
v 0.01587473 0.03269709 0.04803848
v 0.01500000 0.03312583 0.04836441
v 0.01588014 0.03498906 0.04710227
v 0.01500000 0.03499362 0.04756954
v 0.01592758 0.03718716 0.04564615
v 0.01500000 0.03686879 0.04639024
v 0.01500000 0.03874926 0.04479101
v 0.01600667 0.03923950 0.04372141
v 0.01500000 0.03944509 0.04408202
v 0.01610563 0.04109234 0.04139142
v 0.01500000 0.04139268 0.04169426
v 0.01500000 0.04043696 0.04294679
v 0.01621287 0.04269201 0.03871930
v 0.01499924 0.04369345 0.03778086
v 0.01500000 0.04364124 0.03788901
v 0.01500000 0.04349601 0.03818509
v 0.01500000 0.04213766 0.04058878
v 0.01914549 0.04120627 0.03639894
v 0.01924304 0.03996342 0.03819431
v 0.01934550 0.03843646 0.03983393
v 0.01943781 0.03666981 0.04123456
v 0.01952531 0.03470236 0.04234402
v 0.02021038 0.03251677 0.04149082
v 0.01868772 0.04146016 0.03718811
v 0.01872225 0.04013459 0.03926642
v 0.01877289 0.03854684 0.04108005
v 0.01882526 0.03673055 0.04259617
v 0.01888401 0.03472527 0.04377048
v 0.01895455 0.03257057 0.04456677
v 0.01903482 0.03030097 0.04504190
v 0.01756877 0.04208634 0.03820032
v 0.01751876 0.04060332 0.04065682
v 0.01748426 0.03887314 0.04277544
v 0.01746671 0.03693648 0.04451743
v 0.01747272 0.03483682 0.04583696
v 0.01750833 0.03261683 0.04669788
v 0.01756935 0.03030855 0.04717039
v 0.01793742 0.01365420 0.04920171
v 0.01794130 0.01134959 0.04947211
v 0.01794150 0.00906390 0.04945748
v 0.01794125 0.00679203 0.04908976
v 0.01794087 0.00452111 0.04844707
v 0.01785222 -0.01378024 0.04328742
v 0.01779809 -0.01550265 0.04278792
v 0.01772574 -0.01693855 0.04216719
v 0.01763544 -0.01813291 0.04133455
v 0.01752827 -0.01913339 0.04019685
v 0.01883524 -0.01998349 0.03461700
v 0.01885479 -0.01997180 0.03456891
v 0.01879709 -0.01800724 0.03925244
v 0.01861852 -0.01894589 0.03828651
v 0.01843701 -0.01971726 0.03702316
v 0.01839620 -0.02021351 0.03554120
v 0.01816090 0.04176594 0.03777317
v 0.01814780 0.04035725 0.04006740
v 0.01815259 0.03869811 0.04204402
v 0.01816840 0.03682295 0.04367646
v 0.01820030 0.03477244 0.04492242
v 0.01825349 0.03258703 0.04574784
v 0.01832457 0.03029975 0.04621745
v 0.02002065 -0.01756905 0.03526674
v 0.02007232 -0.01723400 0.03561518
v 0.02009200 -0.01708753 0.03576177
v 0.01992694 -0.01805650 0.03472251
v 0.01983093 -0.01845779 0.03423410
v 0.01972594 -0.01882629 0.03374235
v 0.01993017 -0.01804158 0.03473990
v 0.01994569 -0.01796819 0.03482477
v 0.01996074 -0.01789437 0.03490897
v 0.01967604 -0.01971850 0.02961040
v 0.01987843 -0.01938741 0.02943967
v 0.01968351 -0.01910119 0.03299052
v 0.01924384 -0.01990717 0.03251047
v 0.01954617 -0.01937347 0.03285556
v 0.01930435 -0.02032536 0.02929435
v 0.01891448 -0.02085129 0.02910309
v 0.01892143 -0.02034048 0.03240860
v 0.01967756 -0.01901582 0.03338239
v 0.02001832 -0.01791222 0.03450722
v 0.01616037 -0.02265558 0.02985492
v 0.01631485 -0.02178273 0.03418712
v 0.01861317 -0.02066637 0.03249805
v 0.01827088 -0.02094390 0.03274985
v 0.01742898 -0.02140778 0.03346479
v 0.01727026 -0.02220894 0.02945873
v 0.01816170 -0.02161709 0.02915574
v 0.01817455 -0.02236308 0.02136185
v 0.01855038 -0.02125612 0.02910054
v 0.00947710 0.04183320 -0.02916002
v 0.01071823 0.04181379 -0.02911973
v 0.00841703 0.04439735 -0.02471918
v 0.00905386 0.04440784 -0.02463239
v 0.00997594 0.04313905 -0.02715388
v 0.00355410 0.04478765 -0.02396925
v 0.00666618 0.04413772 -0.02533371
v 0.00432362 0.04371156 -0.02589829
v 0.00747201 0.04304936 -0.02730853
v 0.00506730 0.04264227 -0.02756723
v 0.00827773 0.04174636 -0.02923031
v 0.00284674 0.04573376 -0.02194183
v 0.00782100 0.04433253 -0.02491089
v 0.00865326 0.04321462 -0.02708451
v 0.01747631 0.04325221 -0.02279290
v 0.01544197 0.04409780 -0.02235544
v 0.01321272 0.04478179 -0.02202351
v 0.01109672 0.04531347 -0.02161229
v 0.01048773 0.04545309 -0.02138863
v 0.00977891 0.04560807 -0.02102633
v 0.01129761 0.04306112 -0.02712164
v 0.00977716 0.04430774 -0.02479367
v 0.01050787 0.04418907 -0.02496609
v 0.01338459 0.04132397 -0.02925932
v 0.01204362 0.04160870 -0.02920261
v 0.01271718 0.04277034 -0.02730930
v 0.01198532 0.04387248 -0.02533776
v 0.00976513 0.04505382 -0.02274402
v 0.01123807 0.04472639 -0.02336306
v 0.01339166 0.04352525 -0.02555481
v 0.01411944 0.04386646 -0.02421771
v 0.01465877 0.04321320 -0.02555662
v 0.01539320 0.04203561 -0.02746924
v 0.01573252 0.04131117 -0.02840887
v 0.01602940 0.04053736 -0.02927441
v 0.02678279 0.02929141 -0.03004634
v 0.02707932 0.02796378 -0.02993876
v 0.02712068 0.02777184 -0.02990024
v 0.02646562 0.03062434 -0.02991619
v 0.02613124 0.03193812 -0.02959703
v 0.02365404 0.03545391 -0.02949404
v 0.02542461 0.03441057 -0.02858663
v 0.02286365 0.03745577 -0.02824283
v 0.02469040 0.03651336 -0.02740504
v 0.02207264 0.03902826 -0.02700534
v 0.02394106 0.03811707 -0.02636150
v 0.02127867 0.04024581 -0.02580515
v 0.02313707 0.03932050 -0.02548634
v 0.02222766 0.04027170 -0.02474966
v 0.02219317 0.04030235 -0.02472593
v 0.02197233 0.04049208 -0.02458009
v 0.02185887 0.04058564 -0.02450902
v 0.02180135 0.04063217 -0.02447394
v 0.02177238 0.04065539 -0.02445650
v 0.02175785 0.04066699 -0.02444781
v 0.02172887 0.04069003 -0.02443059
v 0.02168486 0.04072474 -0.02440474
v 0.02162573 0.04077094 -0.02437052
v 0.02150591 0.04086300 -0.02430293
v 0.02126046 0.04104565 -0.02417117
v 0.02116519 0.04111458 -0.02412224
v 0.01916482 0.04138088 -0.02584663
v 0.01996681 0.04190747 -0.02358860
v 0.02167265 0.03641730 -0.03030284
v 0.01780306 0.04114579 -0.02749143
v 0.01703178 0.04234435 -0.02579144
v 0.02000561 0.04013096 -0.02735873
v 0.01854598 0.03956108 -0.02916973
v 0.02084220 0.03850395 -0.02885303
v 0.02410392 -0.01850073 -0.02123014
v 0.02364805 -0.01911807 -0.01860075
v 0.02423271 -0.01758704 -0.02692423
v 0.02485119 -0.01701344 -0.02606562
v 0.02351458 -0.01808812 -0.02792103
v 0.02399556 -0.01800906 -0.02622734
v 0.02475678 -0.01727266 -0.02540863
v 0.02448028 -0.01787442 -0.02357074
v 0.02524937 -0.01703724 -0.01734683
v 0.02521257 -0.01708695 -0.01715581
v 0.02460358 -0.01803956 -0.01782284
v 0.02530267 -0.01686026 -0.02279719
v 0.02592448 -0.01582347 -0.02200808
v 0.02581915 -0.01608100 -0.02101902
v 0.02580750 -0.01610653 -0.02092119
v 0.02577008 -0.01618568 -0.02061718
v 0.02573069 -0.01626483 -0.02031316
v 0.02564489 -0.01642548 -0.01969764
v 0.02561196 -0.01648356 -0.01947379
v 0.02554069 -0.01660373 -0.01901136
v 0.02546512 -0.01672420 -0.01854988
v 0.02545570 -0.01673876 -0.01849423
v 0.02528551 -0.01698749 -0.01753806
v 0.02544639 -0.01675302 -0.01843832
v 0.02536788 -0.01687025 -0.01798791
v 0.02545841 -0.01633592 -0.02481341
v 0.02596120 -0.01571705 -0.02241653
v 0.02593284 -0.01580024 -0.02209739
v 0.02837912 0.02059058 -0.02348458
v 0.02832115 0.02106277 -0.02433179
v 0.02816426 0.02216052 -0.02592248
v 0.02794741 0.02349391 -0.02740320
v 0.02781722 0.02423667 -0.02806674
v 0.02759849 0.02541654 -0.02891534
v 0.02735194 0.02666531 -0.02955445
v 0.02702288 -0.01234020 -0.02078901
v 0.02690594 -0.01284713 -0.02096099
v 0.02709911 -0.01198363 -0.02067186
v 0.02765876 -0.00853350 -0.01968938
v 0.02774214 -0.00785144 -0.01952513
v 0.02783368 -0.00703118 -0.01933954
v 0.02818965 -0.00283320 -0.01857667
v 0.02854212 0.01478981 -0.01846111
v 0.02858927 0.01002298 -0.01797008
v 0.02858664 0.00911131 -0.01792554
v 0.02857702 0.00768774 -0.01788486
v 0.02853195 0.00483620 -0.01790364
v 0.02850522 0.00379772 -0.01794229
v 0.02838315 0.00057355 -0.01816700
v 0.02835452 -0.00001278 -0.01822480
v 0.02836697 0.00046338 -0.01805081
v 0.02844514 0.01299526 -0.01659176
v 0.02604804 -0.01554345 -0.02077193
v 0.02690802 -0.01260427 -0.01955817
v 0.02686798 -0.01275751 -0.01948920
v 0.02763517 -0.00764524 -0.01790437
v 0.02794440 -0.00408010 -0.01713944
v 0.02819675 -0.00041148 -0.01685444
v 0.02824088 0.00074841 -0.01661655
v 0.02839354 0.00591031 -0.01619170
v 0.02677560 -0.01297204 -0.01882001
v 0.02642476 -0.01436811 -0.01940767
v 0.02689354 -0.01239885 -0.01859653
v 0.02689590 -0.01238671 -0.01859190
v 0.02751892 -0.00795938 -0.01716941
v 0.02736964 -0.00849405 -0.01649266
v 0.02680145 -0.01256011 -0.01788575
v 0.02633835 -0.01453279 -0.01874187
v 0.02630260 -0.01460087 -0.01850375
v 0.02663481 -0.01326832 -0.01789949
v 0.02676268 -0.01263550 -0.01763415
v 0.02660342 -0.01288139 -0.01656872
v 0.02649383 -0.01344631 -0.01682220
v 0.02646283 -0.01359440 -0.01689060
v 0.02569239 -0.01620342 -0.01824281
v 0.02615325 -0.01485038 -0.01750532
v 0.02647376 -0.01347643 -0.01669592
v 0.02644086 -0.01363399 -0.01676932
v 0.02613140 -0.01488985 -0.01738971
v 0.02625506 -0.01395102 -0.01579050
v 0.02591542 -0.01531353 -0.01651762
v 0.02596683 -0.01513529 -0.01641760
v 0.02584088 -0.01541811 -0.01610773
v 0.02514062 -0.01718156 -0.01679248
v 0.02506628 -0.01727612 -0.01642939
v 0.02568862 -0.01562653 -0.01533420
v 0.02500645 -0.01735012 -0.01614537
v 0.02556461 -0.01578338 -0.01472588
v 0.02494528 -0.01742400 -0.01586177
v 0.02490312 -0.01747397 -0.01566980
v 0.02490388 -0.01747306 -0.01567325
v 0.02492428 -0.01744899 -0.01576578
v 0.02479422 -0.01759975 -0.01518682
v 0.02484915 -0.01753687 -0.01542824
v 0.02464866 -0.01776132 -0.01456644
v 0.02472217 -0.01768060 -0.01487638
v 0.02456453 -0.01785167 -0.01421953
v 0.02447855 -0.01794197 -0.01387285
v 0.02440348 -0.01801922 -0.01357613
v 0.02432714 -0.01809637 -0.01327977
v 0.02349497 -0.01919680 -0.01246128
v 0.02273529 -0.02009789 -0.01293188
v 0.02843477 0.02002031 -0.02221197
v 0.02845340 0.01968028 -0.02118005
v 0.02842823 0.01934769 -0.01924607
v 0.00202929 0.04675715 -0.01924607
v 0.01240370 0.04730526 0.01521362
v 0.01533190 0.04670057 0.01482906
v 0.02048697 0.04322500 0.01529235
v 0.01936185 0.04449684 0.01488348
v 0.01810492 0.04546566 0.01470973
v 0.01675025 0.04618304 0.01471146
v 0.02813893 0.02024547 -0.01533042
v 0.02803358 0.02083159 -0.01456666
v 0.02791246 0.02152772 -0.01389742
v 0.02819834 0.01994910 -0.01585603
v -0.00001669 0.04858284 -0.01015296
v 0.00061239 0.04820141 -0.01344876
v 0.00094774 0.04791497 -0.01498415
v -0.00050924 0.04866331 -0.00701512
v 0.02834748 0.01941293 -0.01760781
v 0.02827766 0.01962150 -0.01668692
v 0.02833461 0.01944441 -0.01741871
f 121 122 120
f 120 122 71
f 68 120 67
f 67 120 66
f 66 120 73
f 110 106 111
f 111 106 50
f 94 55 95
f 146 172 147
f 140 172 146
f 61 120 54
f 83 70 84
f 117 172 140
f 140 128 117
f 117 128 116
f 72 120 71
f 72 73 120
f 125 122 121
f 125 126 122
f 129 128 140
f 120 128 129
f 57 75 122
f 106 110 895
f 793 106 895
f 902 110 109
f 60 95 55
f 60 55 122
f 157 154 942
f 971 153 152
f 152 970 971
f 116 128 63
f 83 84 820
f 120 64 53
f 53 54 120
f 69 120 68
f 69 70 120
f 69 84 70
f 65 64 120
f 120 70 65
f 65 70 83
f 68 67 86
f 86 814 816
f 136 129 140
f 136 132 138
f 120 129 136
f 126 125 133
f 123 138 121
f 120 124 123
f 121 120 123
f 156 155 205
f 56 55 94
f 122 55 56
f 56 57 122
f 94 799 93
f 93 56 94
f 57 56 93
f 777 778 779
f 162 113 108
f 807 806 106
f 97 98 803
f 803 98 100
f 106 806 100
f 100 50 106
f 908 149 148
f 908 148 914
f 150 149 910
f 910 908 911
f 149 908 910
f 903 904 150
f 914 148 1077
f 1077 148 147
f 147 1090 1077
f 926 151 927
f 927 151 150
f 150 904 927
f 923 927 904
f 154 153 943
f 62 63 128
f 62 120 61
f 62 128 120
f 45 117 116
f 116 63 45
f 45 63 101
f 944 942 154
f 154 943 944
f 816 814 815
f 815 850 849
f 851 850 815
f 818 820 84
f 83 820 821
f 90 809 810
f 810 809 854
f 54 53 80
f 87 67 66
f 87 86 67
f 66 73 87
f 87 73 88
f 88 814 87
f 814 86 87
f 68 86 85
f 85 69 68
f 84 69 85
f 85 818 84
f 85 86 816
f 816 818 85
f 119 124 120
f 132 133 137
f 138 132 137
f 137 133 125
f 121 138 137
f 137 125 121
f 122 126 127
f 126 133 127
f 161 160 114
f 114 164 161
f 113 164 114
f 49 113 111
f 111 50 49
f 50 107 49
f 107 108 49
f 139 124 134
f 139 123 124
f 138 123 139
f 139 136 138
f 134 136 139
f 92 93 799
f 75 57 92
f 57 93 92
f 901 902 109
f 894 895 110
f 110 902 900
f 900 899 110
f 223 158 156
f 785 783 878
f 781 780 785
f 781 779 778
f 778 780 781
f 122 132 145
f 165 108 166
f 162 108 165
f 166 108 167
f 792 106 793
f 793 807 792
f 792 807 106
f 806 807 861
f 861 860 806
f 773 778 775
f 806 860 804
f 98 97 58
f 803 100 805
f 805 100 806
f 805 804 803
f 806 804 805
f 857 772 771
f 911 908 909
f 912 911 150
f 150 910 912
f 912 910 911
f 150 911 913
f 913 903 150
f 911 903 913
f 926 927 928
f 927 923 928
f 937 151 926
f 926 936 937
f 152 151 937
f 937 970 152
f 1088 1089 173
f 1091 1088 173
f 173 1089 1090
f 147 172 173
f 173 1090 147
f 945 943 153
f 938 155 157
f 77 62 61
f 172 117 46
f 117 45 46
f 169 938 177
f 948 175 946
f 946 944 943
f 946 945 948
f 943 945 946
f 169 642 1086
f 170 642 169
f 641 642 170
f 813 815 814
f 813 852 851
f 851 815 813
f 820 818 817
f 849 848 817
f 817 815 849
f 816 815 817
f 817 818 816
f 823 821 822
f 874 850 851
f 812 814 88
f 88 810 812
f 89 810 88
f 90 810 89
f 88 73 89
f 73 72 89
f 89 72 71
f 71 90 89
f 853 810 854
f 81 53 64
f 81 80 53
f 135 136 134
f 134 124 135
f 124 119 135
f 120 136 141
f 136 135 141
f 141 135 119
f 142 132 122
f 122 127 142
f 131 133 132
f 131 127 133
f 163 113 162
f 163 164 113
f 115 114 160
f 115 977 979
f 112 108 113
f 113 49 112
f 112 49 108
f 155 182 181
f 271 1001 289
f 199 181 182
f 199 205 155
f 155 181 199
f 91 809 90
f 91 90 71
f 91 808 809
f 92 808 91
f 1073 901 109
f 1072 901 1073
f 1073 115 973
f 109 110 1073
f 110 114 1073
f 114 115 1073
f 902 901 890
f 890 901 1072
f 1072 889 890
f 895 894 898
f 110 899 898
f 898 894 110
f 902 890 891
f 891 890 889
f 160 159 198
f 198 115 160
f 976 115 198
f 783 880 879
f 879 878 783
f 690 439 1037
f 690 1027 691
f 1037 439 1042
f 144 145 132
f 865 861 794
f 794 807 793
f 794 861 807
f 864 780 778
f 778 773 864
f 865 780 864
f 864 773 860
f 864 861 865
f 860 861 864
f 803 804 801
f 95 96 801
f 94 95 801
f 801 799 94
f 801 97 803
f 801 96 97
f 775 772 858
f 858 772 857
f 51 100 98
f 122 50 51
f 97 96 59
f 59 58 97
f 95 60 59
f 59 96 95
f 59 60 122
f 122 58 59
f 855 808 798
f 854 809 855
f 809 808 855
f 500 771 772
f 911 909 916
f 916 903 911
f 920 1089 1088
f 933 919 918
f 935 936 926
f 926 928 935
f 153 971 966
f 966 945 153
f 971 945 966
f 1002 1003 169
f 169 1001 1002
f 1002 229 1003
f 405 1075 1076
f 1076 1075 169
f 169 1092 1076
f 169 940 939
f 939 938 169
f 939 940 155
f 155 938 939
f 169 1003 1004
f 1004 1005 169
f 1004 199 182
f 1004 182 155
f 155 1005 1004
f 1006 940 169
f 169 1005 1006
f 155 940 1006
f 1006 1005 155
f 101 63 76
f 63 62 76
f 62 77 76
f 717 76 77
f 721 77 78
f 78 77 61
f 47 173 172
f 172 46 47
f 1091 173 47
f 47 48 1091
f 102 45 101
f 102 46 45
f 101 76 724
f 724 102 101
f 1091 105 726
f 726 735 1091
f 948 945 947
f 947 945 971
f 970 937 967
f 967 937 936
f 936 935 967
f 967 935 968
f 968 965 964
f 964 967 968
f 942 177 941
f 941 177 938
f 157 942 941
f 941 938 157
f 1085 642 1084
f 1085 1086 642
f 1085 1084 169
f 169 1086 1085
f 169 177 176
f 176 170 169
f 176 177 942
f 942 944 176
f 944 946 176
f 176 946 175
f 175 170 176
f 622 621 641
f 641 170 622
f 622 170 621
f 621 170 619
f 619 620 621
f 691 1028 687
f 852 813 811
f 811 853 852
f 810 853 811
f 811 813 814
f 814 812 811
f 811 812 810
f 820 817 819
f 819 817 848
f 822 821 819
f 819 821 820
f 768 765 844
f 82 81 64
f 64 65 82
f 82 65 83
f 83 821 82
f 821 823 82
f 118 119 120
f 120 141 118
f 118 141 119
f 130 142 127
f 127 131 130
f 132 142 130
f 130 131 132
f 972 115 979
f 973 115 972
f 979 983 972
f 283 287 300
f 227 234 245
f 267 271 256
f 1001 271 267
f 267 1002 1001
f 356 1075 405
f 205 199 202
f 202 1004 1003
f 199 1004 202
f 226 234 227
f 979 977 978
f 978 983 979
f 211 223 156
f 156 214 211
f 1030 678 14
f 1013 17 30
f 797 92 799
f 797 808 92
f 798 808 797
f 74 91 71
f 71 122 74
f 122 75 74
f 75 92 74
f 92 91 74
f 775 778 774
f 774 776 775
f 774 778 777
f 775 776 487
f 777 779 478
f 889 1070 884
f 446 892 886
f 880 892 446
f 793 895 795
f 895 898 795
f 795 794 793
f 867 898 897
f 899 900 897
f 897 898 899
f 786 780 865
f 976 198 974
f 974 115 976
f 977 115 974
f 974 978 977
f 426 463 1053
f 878 879 451
f 451 879 449
f 882 883 785
f 473 478 779
f 876 781 785
f 1036 690 1037
f 1027 690 1036
f 40 1033 410
f 122 145 143
f 145 144 143
f 143 50 122
f 865 794 866
f 866 786 865
f 789 786 866
f 867 789 866
f 800 858 857
f 800 855 798
f 800 797 799
f 798 797 800
f 859 773 775
f 775 858 859
f 860 773 859
f 859 804 860
f 98 58 52
f 52 51 98
f 52 58 122
f 122 51 52
f 50 100 99
f 99 51 50
f 100 51 99
f 772 495 501
f 904 903 907
f 903 916 907
f 907 923 904
f 925 923 907
f 915 916 909
f 915 907 916
f 915 908 914
f 915 909 908
f 1090 1089 921
f 1089 920 921
f 929 923 925
f 929 928 923
f 723 717 732
f 917 968 918
f 917 965 968
f 1091 735 746
f 968 935 934
f 918 968 934
f 934 933 918
f 169 1075 1074
f 1074 195 169
f 1075 356 1074
f 1074 356 345
f 1000 1001 169
f 169 195 1000
f 289 1001 1000
f 1084 642 665
f 665 642 641
f 720 77 721
f 721 78 722
f 722 78 739
f 739 78 79
f 54 80 79
f 61 54 79
f 79 78 61
f 103 47 46
f 46 102 103
f 76 717 745
f 745 717 723
f 723 724 745
f 949 964 951
f 822 846 824
f 80 81 825
f 825 831 80
f 825 824 831
f 845 736 827
f 831 824 827
f 827 846 845
f 827 824 846
f 969 964 949
f 967 964 969
f 969 947 971
f 969 971 970
f 970 967 969
f 621 620 629
f 636 639 640
f 641 621 640
f 621 629 640
f 633 639 636
f 871 848 849
f 675 2 673
f 667 640 639
f 849 850 873
f 850 874 873
f 874 844 873
f 529 673 4
f 763 844 874
f 852 853 763
f 763 853 764
f 851 852 763
f 763 874 851
f 768 844 535
f 535 528 768
f 770 853 854
f 764 853 770
f 982 972 983
f 973 972 982
f 1072 1073 982
f 982 1073 973
f 361 344 359
f 366 344 361
f 359 320 334
f 334 361 359
f 297 271 289
f 309 298 297
f 283 300 301
f 299 300 287
f 299 298 309
f 255 287 283
f 283 245 255
f 221 214 210
f 210 213 221
f 210 214 156
f 247 267 256
f 1002 267 247
f 256 229 247
f 229 1002 247
f 205 202 206
f 206 229 217
f 1003 229 206
f 206 202 1003
f 230 226 217
f 234 226 230
f 217 229 230
f 230 229 256
f 256 234 230
f 310 280 276
f 306 280 310
f 983 978 997
f 184 180 997
f 997 411 983
f 222 214 221
f 222 211 214
f 15 14 678
f 18 14 15
f 678 28 1029
f 1029 15 678
f 18 15 1029
f 29 687 1028
f 678 687 29
f 29 28 678
f 18 1029 16
f 16 1029 28
f 28 29 16
f 16 29 17
f 387 417 1013
f 302 285 320
f 1013 417 1021
f 366 373 388
f 388 387 366
f 400 388 373
f 417 387 400
f 387 388 400
f 32 30 33
f 31 30 17
f 31 29 1028
f 17 29 31
f 31 33 30
f 1027 33 31
f 31 1028 691
f 691 1027 31
f 486 487 776
f 445 446 448
f 1055 1046 1057
f 1046 1054 1057
f 445 448 1057
f 1071 889 1072
f 1072 1070 1071
f 1071 1070 889
f 1072 982 1066
f 880 446 450
f 450 446 449
f 450 879 880
f 449 879 450
f 796 898 867
f 796 795 898
f 794 795 796
f 867 866 796
f 796 866 794
f 784 786 789
f 784 783 785
f 785 780 784
f 780 786 784
f 196 198 159
f 159 183 196
f 186 159 158
f 186 183 159
f 158 189 186
f 186 180 184
f 184 183 186
f 185 183 184
f 463 426 465
f 425 426 439
f 439 426 1048
f 463 455 459
f 459 455 451
f 1053 463 459
f 459 1054 1053
f 443 451 449
f 449 446 443
f 443 459 451
f 1054 459 443
f 443 1057 1054
f 475 478 476
f 478 473 476
f 476 429 475
f 476 473 429
f 785 883 875
f 875 876 785
f 779 781 477
f 477 473 779
f 474 473 477
f 1053 1054 1052
f 1052 1054 1046
f 1039 1024 1033
f 1039 1040 1046
f 1046 1024 1039
f 41 411 410
f 410 1033 41
f 1033 1024 41
f 338 339 329
f 394 414 412
f 412 381 394
f 1007 414 1009
f 412 414 1007
f 1032 1039 1033
f 35 1036 1037
f 1027 1036 35
f 35 33 1027
f 32 33 35
f 1009 414 1010
f 168 107 50
f 50 143 168
f 856 800 857
f 855 800 856
f 857 771 856
f 771 855 856
f 858 800 802
f 802 859 858
f 804 859 802
f 802 801 804
f 799 801 802
f 802 800 799
f 506 508 504
f 495 498 497
f 497 502 495
f 498 502 497
f 503 500 772
f 772 501 503
f 503 502 506
f 495 502 503
f 503 501 495
f 914 906 905
f 905 915 914
f 925 907 924
f 907 915 924
f 915 905 924
f 924 905 906
f 922 1077 1090
f 1090 921 922
f 922 921 1077
f 734 724 723
f 735 724 734
f 932 935 928
f 932 934 935
f 928 929 932
f 933 934 932
f 345 356 355
f 405 1076 406
f 406 1076 1092
f 6 27 26
f 26 665 6
f 11 14 18
f 1016 26 9
f 9 26 27
f 296 297 289
f 671 2 3
f 3 2 675
f 6 665 3
f 169 1084 1087
f 1084 665 1087
f 169 1087 1093
f 21 1093 22
f 22 1093 1087
f 22 1087 665
f 718 717 77
f 77 720 718
f 738 722 739
f 738 827 736
f 721 722 738
f 738 736 737
f 47 103 104
f 48 47 104
f 104 103 735
f 1091 48 104
f 104 105 1091
f 104 726 105
f 735 726 104
f 102 724 727
f 727 103 102
f 727 724 735
f 735 103 727
f 725 724 76
f 76 745 725
f 725 745 724
f 948 947 950
f 951 1081 950
f 950 175 948
f 950 174 175
f 947 969 950
f 949 951 950
f 950 969 949
f 1080 950 1081
f 174 950 1080
f 175 174 1080
f 824 825 826
f 826 823 822
f 822 824 826
f 826 825 81
f 826 82 823
f 81 82 826
f 711 838 712
f 716 741 744
f 742 741 737
f 616 618 171
f 175 614 171
f 171 614 616
f 171 618 620
f 171 170 175
f 171 619 170
f 620 619 171
f 714 716 744
f 715 716 714
f 639 633 634
f 636 650 643
f 643 633 636
f 870 871 841
f 848 871 870
f 553 639 631
f 689 687 678
f 678 681 689
f 670 2 671
f 640 667 664
f 664 665 641
f 641 640 664
f 671 3 664
f 664 3 665
f 664 670 671
f 667 670 664
f 548 837 549
f 672 670 667
f 672 669 4
f 4 670 672
f 539 765 768
f 539 543 765
f 536 539 528
f 543 539 536
f 669 672 544
f 765 543 545
f 872 871 849
f 849 873 872
f 527 529 4
f 674 529 525
f 673 529 674
f 534 535 844
f 1056 982 1055
f 1058 982 1056
f 1056 448 1058
f 1055 1057 1056
f 1063 982 1060
f 1060 982 1058
f 389 402 373
f 1019 400 373
f 417 400 1019
f 360 373 366
f 366 361 360
f 361 334 360
f 319 334 320
f 320 301 319
f 319 301 300
f 300 299 317
f 317 347 335
f 352 347 317
f 317 336 352
f 317 299 309
f 309 336 317
f 287 255 266
f 246 245 234
f 246 255 245
f 246 266 255
f 246 234 256
f 205 206 207
f 207 206 217
f 156 205 200
f 200 201 156
f 306 310 323
f 311 323 310
f 191 189 158
f 306 323 307
f 364 339 365
f 365 997 364
f 367 344 366
f 366 387 367
f 367 387 368
f 408 387 1013
f 1013 30 408
f 285 302 291
f 19 17 1013
f 1013 1021 19
f 19 16 17
f 18 16 19
f 428 427 470
f 475 429 470
f 470 429 428
f 470 427 433
f 470 478 475
f 433 478 470
f 776 774 485
f 774 484 485
f 484 423 485
f 483 484 774
f 430 423 483
f 483 423 484
f 482 483 774
f 430 483 482
f 480 774 777
f 435 480 434
f 42 41 1024
f 983 987 988
f 988 987 1024
f 1068 1066 884
f 1072 1066 1068
f 867 897 790
f 790 789 867
f 862 791 896
f 902 891 896
f 896 790 897
f 791 790 896
f 896 900 902
f 896 897 900
f 782 880 783
f 782 892 880
f 783 784 782
f 782 784 789
f 789 756 782
f 886 892 888
f 892 782 888
f 888 782 762
f 888 885 886
f 884 885 888
f 887 888 762
f 887 891 889
f 889 884 887
f 884 888 887
f 198 196 197
f 197 196 183
f 197 974 198
f 183 185 197
f 197 185 974
f 978 974 975
f 974 185 975
f 975 997 978
f 184 997 975
f 975 185 184
f 466 465 426
f 424 473 474
f 429 473 424
f 1043 1042 439
f 1051 426 1053
f 1046 1040 1047
f 463 465 456
f 878 451 893
f 451 455 893
f 883 882 893
f 444 446 445
f 444 443 446
f 445 1057 444
f 1057 443 444
f 781 876 877
f 877 477 781
f 876 875 462
f 477 877 471
f 411 41 998
f 983 411 998
f 339 338 380
f 329 310 315
f 341 338 329
f 329 315 341
f 382 381 372
f 382 394 381
f 372 414 382
f 414 394 382
f 412 1007 1008
f 1008 1007 40
f 1008 381 412
f 410 381 1008
f 1008 40 410
f 1033 40 1026
f 1026 1032 1033
f 1040 1039 1041
f 1039 1032 1041
f 1041 1047 1040
f 1037 1042 1038
f 1038 35 1037
f 1042 1041 1038
f 1038 1035 34
f 34 35 1038
f 1038 1041 1032
f 498 492 494
f 679 695 680
f 498 494 683
f 683 494 679
f 675 673 683
f 683 679 675
f 771 500 499
f 500 503 499
f 508 770 769
f 769 504 508
f 769 855 771
f 771 499 769
f 854 855 769
f 769 770 854
f 1077 921 930
f 930 924 906
f 914 1077 930
f 930 906 914
f 753 734 733
f 723 732 733
f 733 734 723
f 747 746 735
f 735 734 747
f 747 734 753
f 753 1078 747
f 1091 746 747
f 747 1088 1091
f 747 1078 1088
f 918 919 1079
f 1079 1078 753
f 919 920 1079
f 1079 920 1088
f 1088 1078 1079
f 392 356 405
f 392 355 356
f 378 354 392
f 392 354 355
f 377 352 353
f 352 336 353
f 353 354 378
f 665 26 1023
f 1023 26 24
f 1023 22 665
f 24 22 1023
f 13 676 678
f 11 676 13
f 13 678 1030
f 1030 14 13
f 14 11 13
f 8 1031 7
f 1017 418 1016
f 1016 9 1017
f 8 1019 1018
f 1018 1031 8
f 1018 1017 9
f 27 1031 1018
f 1018 9 27
f 1016 418 407
f 21 419 1014
f 1014 419 406
f 1092 21 1014
f 1014 406 1092
f 195 1074 316
f 316 1074 345
f 345 296 316
f 6 3 677
f 677 27 6
f 677 1031 27
f 676 7 677
f 677 7 1031
f 677 681 678
f 678 676 677
f 677 680 681
f 677 3 675
f 675 679 677
f 679 680 677
f 1094 21 1092
f 1094 1093 21
f 1094 1092 169
f 169 1093 1094
f 719 718 720
f 719 732 717
f 717 718 719
f 737 730 719
f 719 730 732
f 719 720 721
f 721 738 719
f 719 738 737
f 828 738 739
f 827 738 828
f 739 79 828
f 963 964 965
f 965 1082 963
f 1081 1082 749
f 749 1082 750
f 729 749 750
f 715 749 729
f 572 712 699
f 699 712 832
f 832 712 838
f 838 833 832
f 711 741 740
f 741 742 740
f 740 838 711
f 737 736 743
f 743 742 737
f 743 736 845
f 845 742 743
f 841 836 835
f 631 639 635
f 639 634 635
f 644 643 650
f 556 634 633
f 633 643 556
f 845 846 869
f 840 870 841
f 841 835 840
f 840 869 870
f 848 870 847
f 822 819 847
f 847 819 848
f 847 846 822
f 847 869 846
f 870 869 847
f 639 553 552
f 843 873 844
f 843 844 765
f 843 872 873
f 681 680 694
f 694 680 695
f 694 695 423
f 510 508 506
f 510 511 508
f 1 670 4
f 2 670 1
f 4 673 1
f 1 673 2
f 666 710 709
f 709 837 666
f 666 837 548
f 548 549 666
f 666 549 546
f 666 545 544
f 666 672 667
f 666 544 672
f 639 552 638
f 638 552 706
f 638 667 639
f 638 666 667
f 768 528 541
f 541 539 768
f 528 539 541
f 543 536 537
f 547 666 546
f 545 666 547
f 5 527 4
f 528 527 5
f 4 669 5
f 5 536 528
f 532 763 764
f 514 511 673
f 529 527 531
f 525 529 531
f 531 532 764
f 531 527 528
f 528 532 531
f 844 763 767
f 767 534 844
f 763 534 767
f 1059 1057 448
f 448 1056 1059
f 1059 1056 1057
f 1058 448 447
f 447 1060 1058
f 1063 1060 447
f 447 448 446
f 447 446 886
f 886 885 447
f 335 347 357
f 418 402 390
f 402 389 390
f 373 402 416
f 416 1019 373
f 416 1018 1019
f 1017 1018 416
f 416 402 418
f 418 1017 416
f 1020 1021 417
f 417 1019 1020
f 358 319 335
f 334 319 358
f 335 357 358
f 358 360 334
f 373 360 358
f 358 389 373
f 335 319 318
f 318 319 300
f 318 317 335
f 300 317 318
f 271 297 270
f 270 297 298
f 259 261 293
f 254 259 250
f 283 301 284
f 284 269 283
f 284 301 320
f 320 285 284
f 285 269 284
f 227 235 228
f 228 215 227
f 208 207 216
f 216 215 208
f 227 215 216
f 216 226 227
f 217 226 216
f 216 207 217
f 204 200 205
f 205 207 204
f 204 207 208
f 201 200 204
f 328 311 351
f 329 339 351
f 351 310 329
f 351 311 310
f 409 396 339
f 410 411 409
f 409 339 410
f 411 997 409
f 997 396 409
f 393 396 997
f 339 396 393
f 158 223 218
f 218 191 158
f 327 997 180
f 327 328 997
f 327 311 328
f 339 364 362
f 362 364 997
f 368 387 399
f 387 408 399
f 399 386 368
f 399 408 398
f 369 342 386
f 326 333 342
f 285 291 265
f 265 269 285
f 283 269 265
f 481 482 774
f 774 480 481
f 428 429 440
f 440 427 428
f 433 427 440
f 440 434 433
f 429 424 440
f 440 690 691
f 439 690 440
f 440 425 439
f 440 424 425
f 479 434 480
f 777 478 479
f 479 480 777
f 479 478 433
f 433 434 479
f 981 1046 1055
f 981 980 1046
f 1055 982 981
f 982 980 981
f 994 996 1046
f 1046 980 994
f 982 996 994
f 994 980 982
f 991 990 1046
f 1046 992 991
f 991 992 982
f 983 990 991
f 991 982 983
f 1046 996 995
f 995 996 982
f 43 983 44
f 43 42 983
f 44 41 43
f 41 42 43
f 986 987 983
f 1024 987 986
f 989 990 983
f 983 988 989
f 1046 990 989
f 989 1024 1046
f 989 988 1024
f 1069 884 1070
f 1069 1068 884
f 1069 1070 1072
f 1072 1068 1069
f 1065 1064 982
f 885 1064 1065
f 1065 447 885
f 1067 1066 982
f 982 1064 1067
f 1067 1064 885
f 884 1066 1067
f 1067 885 884
f 754 791 862
f 754 790 791
f 789 790 754
f 754 756 789
f 762 782 755
f 755 782 756
f 755 754 762
f 756 754 755
f 1042 1043 1044
f 1044 1041 1042
f 439 1048 1044
f 1044 1043 439
f 1049 1048 426
f 426 1051 1049
f 1049 1044 1048
f 1050 1052 1046
f 1046 1047 1050
f 1053 1052 1050
f 1047 1049 1050
f 1050 1051 1053
f 1050 1049 1051
f 463 456 452
f 456 893 452
f 457 456 465
f 465 466 457
f 458 883 457
f 457 426 458
f 457 466 426
f 883 893 457
f 457 893 456
f 878 893 881
f 881 893 882
f 785 878 881
f 881 882 785
f 425 467 464
f 464 462 425
f 464 467 876
f 876 462 464
f 461 462 875
f 425 462 461
f 426 425 461
f 425 471 469
f 469 471 877
f 425 424 472
f 472 471 425
f 472 424 474
f 474 477 472
f 477 471 472
f 983 998 999
f 999 998 41
f 410 339 395
f 339 380 395
f 395 381 410
f 395 380 381
f 305 315 310
f 349 315 330
f 314 331 330
f 330 331 371
f 330 414 372
f 371 414 330
f 372 341 330
f 340 315 349
f 340 341 315
f 349 330 340
f 340 330 341
f 338 341 363
f 381 380 363
f 363 380 338
f 372 381 363
f 363 341 372
f 39 1026 40
f 1034 1038 1032
f 1035 1038 1034
f 371 331 370
f 397 413 1010
f 398 413 397
f 397 370 398
f 415 413 398
f 398 408 415
f 415 408 30
f 1010 413 1011
f 34 1010 1011
f 413 415 1011
f 32 35 1011
f 1011 35 34
f 493 492 498
f 772 492 493
f 775 487 488
f 487 489 488
f 488 772 775
f 488 492 772
f 489 494 488
f 488 494 492
f 438 679 421
f 421 487 438
f 421 491 487
f 490 494 489
f 490 489 487
f 487 491 490
f 686 502 498
f 511 510 686
f 504 769 505
f 505 769 499
f 506 504 505
f 505 503 506
f 505 499 503
f 931 921 920
f 931 930 921
f 931 929 925
f 925 924 931
f 924 930 931
f 931 920 919
f 919 933 931
f 933 932 931
f 931 932 929
f 1083 751 750
f 750 1082 1083
f 965 917 1083
f 1083 1082 965
f 1083 917 918
f 918 1079 1083
f 752 733 751
f 751 1083 752
f 752 1083 1079
f 753 733 752
f 752 1079 753
f 345 355 337
f 355 354 337
f 337 296 345
f 297 296 337
f 401 353 378
f 378 392 401
f 406 419 401
f 405 406 401
f 401 392 405
f 346 336 309
f 346 353 336
f 309 297 346
f 297 337 346
f 354 353 346
f 346 337 354
f 12 676 11
f 12 7 676
f 419 407 404
f 404 401 419
f 404 391 377
f 377 353 404
f 353 401 404
f 23 407 419
f 23 419 21
f 21 22 23
f 23 22 24
f 195 316 295
f 289 1000 295
f 295 1000 195
f 295 296 289
f 295 316 296
f 831 827 830
f 80 831 830
f 830 79 80
f 964 954 953
f 953 954 1081
f 962 961 964
f 964 963 962
f 962 1082 961
f 962 963 1082
f 606 1080 748
f 748 1080 1081
f 1081 749 748
f 715 714 748
f 748 749 715
f 606 605 608
f 608 1080 606
f 613 614 175
f 731 729 750
f 730 729 731
f 750 751 731
f 751 733 731
f 732 730 731
f 731 733 732
f 728 729 730
f 728 730 737
f 728 716 715
f 715 729 728
f 737 741 728
f 741 716 728
f 712 572 713
f 713 741 711
f 711 712 713
f 713 572 573
f 744 741 713
f 713 581 744
f 574 644 650
f 576 644 574
f 697 748 714
f 606 748 697
f 838 740 868
f 845 869 868
f 868 742 845
f 868 740 742
f 706 835 707
f 707 638 706
f 551 638 707
f 623 629 620
f 623 624 629
f 623 617 624
f 620 618 623
f 618 617 623
f 702 832 833
f 643 644 557
f 557 556 643
f 869 840 839
f 839 833 838
f 838 868 839
f 839 868 869
f 834 704 833
f 833 839 834
f 834 839 840
f 834 840 835
f 834 835 706
f 705 552 553
f 553 704 705
f 706 552 705
f 705 834 706
f 704 834 705
f 631 635 555
f 555 635 634
f 634 556 555
f 766 843 765
f 766 549 837
f 709 836 766
f 766 837 709
f 546 549 766
f 766 547 546
f 765 545 766
f 545 547 766
f 872 843 842
f 842 836 841
f 842 766 836
f 843 766 842
f 841 871 842
f 871 872 842
f 681 694 693
f 515 770 508
f 666 638 550
f 669 537 668
f 668 537 536
f 668 5 669
f 536 5 668
f 538 545 543
f 544 545 538
f 669 544 538
f 530 532 528
f 528 535 530
f 535 534 530
f 511 514 512
f 508 511 512
f 512 515 508
f 525 531 526
f 526 531 764
f 764 770 526
f 377 391 376
f 376 391 347
f 376 352 377
f 376 347 352
f 418 390 403
f 391 404 403
f 347 391 403
f 403 407 418
f 403 404 407
f 374 390 389
f 389 358 374
f 374 358 357
f 20 12 11
f 20 11 18
f 18 19 20
f 266 246 248
f 248 270 266
f 248 246 256
f 256 271 248
f 271 270 248
f 298 299 288
f 288 299 287
f 287 266 288
f 253 257 263
f 208 215 236
f 264 265 291
f 261 259 251
f 220 239 221
f 220 233 239
f 221 213 220
f 276 280 260
f 280 194 260
f 239 254 238
f 254 250 238
f 276 260 275
f 275 260 250
f 275 250 259
f 379 997 365
f 379 393 997
f 365 339 379
f 339 393 379
f 191 218 231
f 231 218 223
f 223 211 231
f 211 222 231
f 231 238 237
f 180 307 324
f 324 327 180
f 324 307 323
f 323 311 324
f 311 327 324
f 350 351 339
f 339 362 350
f 328 351 350
f 997 328 350
f 350 362 997
f 343 367 368
f 368 386 343
f 344 367 343
f 386 342 343
f 342 333 343
f 359 344 343
f 343 333 359
f 359 333 325
f 325 333 302
f 325 320 359
f 325 302 320
f 304 278 277
f 314 278 304
f 436 695 679
f 487 486 436
f 422 485 423
f 423 695 422
f 695 436 422
f 422 436 486
f 422 486 776
f 776 485 422
f 435 434 441
f 434 440 441
f 441 693 694
f 440 693 441
f 993 992 1046
f 1046 995 993
f 982 992 993
f 993 995 982
f 983 42 985
f 985 986 983
f 985 42 1024
f 1024 986 985
f 1061 1065 982
f 447 1065 1061
f 761 887 762
f 1041 1044 1045
f 1044 1049 1045
f 1047 1041 1045
f 1045 1049 1047
f 454 455 463
f 454 893 455
f 460 461 875
f 460 883 458
f 460 875 883
f 458 426 460
f 426 461 460
f 468 467 425
f 425 469 468
f 876 467 468
f 468 877 876
f 468 469 877
f 44 983 984
f 983 999 984
f 984 41 44
f 984 999 41
f 292 278 314
f 292 273 278
f 293 261 292
f 261 273 292
f 314 330 322
f 322 292 314
f 322 305 293
f 293 292 322
f 40 1007 37
f 37 39 40
f 37 1007 1009
f 1026 39 1025
f 1032 1026 1025
f 1025 1034 1032
f 398 370 385
f 385 370 369
f 385 369 386
f 385 399 398
f 386 399 385
f 383 397 1010
f 383 414 371
f 383 1010 414
f 32 1011 1012
f 1012 1011 415
f 1012 30 32
f 1012 415 30
f 496 498 495
f 496 493 498
f 496 495 772
f 772 493 496
f 679 494 420
f 420 421 679
f 491 421 420
f 420 490 491
f 494 490 420
f 498 683 682
f 682 686 498
f 511 686 682
f 673 511 682
f 682 683 673
f 502 686 685
f 1016 407 1015
f 407 23 1015
f 827 828 829
f 829 830 827
f 829 828 79
f 79 830 829
f 952 951 964
f 964 953 952
f 952 1081 951
f 952 953 1081
f 964 961 960
f 960 959 964
f 961 1082 960
f 1082 959 960
f 175 608 609
f 609 608 605
f 609 613 175
f 605 613 609
f 175 1080 607
f 607 608 175
f 1080 608 607
f 604 605 606
f 606 697 604
f 604 697 602
f 564 572 699
f 699 565 564
f 564 565 572
f 581 713 588
f 588 713 587
f 588 574 581
f 573 572 571
f 572 565 571
f 577 713 573
f 573 571 577
f 587 713 580
f 593 697 714
f 592 595 593
f 595 663 598
f 602 697 603
f 600 611 603
f 551 707 708
f 708 638 551
f 708 550 638
f 708 836 709
f 709 710 708
f 708 835 836
f 708 707 835
f 710 666 708
f 666 550 708
f 646 647 636
f 696 714 744
f 696 593 714
f 585 574 650
f 581 574 585
f 658 617 659
f 659 617 611
f 624 617 625
f 625 617 658
f 832 702 701
f 701 702 556
f 554 704 553
f 554 555 704
f 704 555 703
f 833 704 703
f 703 702 833
f 556 702 703
f 703 555 556
f 688 689 681
f 681 693 688
f 688 693 689
f 687 689 692
f 689 693 692
f 691 687 692
f 692 440 691
f 692 693 440
f 543 537 542
f 542 537 669
f 533 530 534
f 532 530 533
f 533 534 763
f 763 532 533
f 673 674 518
f 518 512 673
f 513 514 673
f 673 512 513
f 513 512 514
f 524 523 525
f 525 526 524
f 770 523 524
f 524 526 770
f 375 374 357
f 390 374 375
f 375 357 347
f 347 403 375
f 375 403 390
f 10 1020 1019
f 10 20 1020
f 12 20 10
f 10 1019 8
f 8 7 10
f 7 12 10
f 1022 20 19
f 1020 20 1022
f 1022 19 1021
f 1021 1020 1022
f 290 270 298
f 298 288 290
f 272 253 263
f 272 263 277
f 215 228 224
f 224 236 215
f 224 228 235
f 235 236 224
f 209 204 208
f 208 236 209
f 213 210 209
f 263 257 258
f 258 264 263
f 277 263 268
f 263 264 268
f 268 264 291
f 268 291 302
f 302 333 268
f 265 264 243
f 264 258 243
f 243 236 235
f 243 258 236
f 252 251 259
f 252 254 239
f 252 259 254
f 239 233 252
f 233 251 252
f 250 260 249
f 249 238 250
f 237 238 249
f 249 260 194
f 276 275 282
f 274 259 293
f 274 275 259
f 232 231 222
f 238 231 232
f 232 222 221
f 221 239 232
f 239 238 232
f 191 231 190
f 189 191 190
f 190 231 237
f 190 186 189
f 308 307 180
f 180 179 308
f 306 307 308
f 308 179 306
f 180 194 187
f 187 194 280
f 187 280 306
f 303 304 277
f 277 268 303
f 333 326 303
f 303 268 333
f 332 326 342
f 437 679 438
f 437 436 679
f 438 487 437
f 487 436 437
f 431 441 430
f 430 482 431
f 482 481 431
f 430 441 442
f 442 441 694
f 442 423 430
f 442 694 423
f 1062 982 1063
f 1062 1061 982
f 1063 447 1062
f 447 1061 1062
f 762 754 760
f 760 761 762
f 891 887 788
f 463 452 453
f 453 454 463
f 453 452 893
f 893 454 453
f 315 305 312
f 305 322 312
f 312 330 315
f 312 322 330
f 39 37 38
f 38 1025 39
f 1035 1034 36
f 1034 1025 36
f 1025 38 36
f 34 1035 36
f 36 37 1009
f 36 38 37
f 1009 1010 36
f 36 1010 34
f 370 397 384
f 397 383 384
f 371 370 384
f 384 383 371
f 506 502 507
f 509 686 510
f 509 685 686
f 509 510 506
f 506 507 509
f 25 26 1016
f 1016 1015 25
f 24 26 25
f 25 23 24
f 25 1015 23
f 955 954 964
f 964 956 955
f 955 956 1082
f 955 1082 1081
f 1081 954 955
f 964 959 958
f 958 959 1082
f 615 613 605
f 605 604 615
f 614 613 615
f 616 614 615
f 615 604 602
f 602 603 615
f 615 603 611
f 575 588 587
f 574 588 575
f 587 580 575
f 575 580 579
f 576 574 575
f 575 577 571
f 579 580 578
f 578 575 579
f 577 575 578
f 713 577 578
f 578 580 713
f 597 593 595
f 595 598 597
f 594 590 592
f 592 593 594
f 594 696 590
f 593 696 594
f 661 598 663
f 663 659 661
f 636 647 648
f 581 585 586
f 744 581 586
f 586 696 744
f 660 595 592
f 660 663 595
f 660 659 663
f 647 646 653
f 653 646 652
f 627 628 637
f 637 628 651
f 636 640 637
f 637 640 629
f 629 624 637
f 624 625 637
f 651 652 637
f 637 646 636
f 652 646 637
f 700 701 556
f 699 832 700
f 832 701 700
f 645 557 644
f 645 563 557
f 569 571 565
f 569 565 699
f 557 563 561
f 631 555 632
f 632 553 631
f 519 523 770
f 525 523 519
f 770 515 516
f 516 517 770
f 540 538 543
f 543 542 540
f 669 538 540
f 540 542 669
f 522 674 525
f 522 518 674
f 286 288 266
f 286 290 288
f 266 270 286
f 270 290 286
f 253 272 262
f 261 251 262
f 262 251 253
f 262 273 261
f 262 272 273
f 278 273 279
f 273 272 279
f 277 278 279
f 279 272 277
f 201 204 203
f 204 209 203
f 156 201 203
f 203 210 156
f 203 209 210
f 233 220 219
f 219 220 213
f 233 219 225
f 242 258 257
f 236 258 242
f 265 243 244
f 244 245 283
f 283 265 244
f 244 243 235
f 227 245 244
f 244 235 227
f 193 249 194
f 193 194 180
f 193 192 237
f 237 249 193
f 180 186 193
f 186 192 193
f 281 305 310
f 281 310 276
f 276 282 281
f 294 282 275
f 275 274 294
f 294 281 282
f 294 274 293
f 293 305 294
f 305 281 294
f 188 192 186
f 186 190 188
f 237 192 188
f 188 190 237
f 178 179 180
f 180 187 178
f 306 179 178
f 178 187 306
f 348 332 342
f 342 369 348
f 369 370 348
f 348 370 331
f 331 332 348
f 326 332 313
f 313 331 314
f 313 332 331
f 435 441 432
f 441 431 432
f 432 431 481
f 432 480 435
f 432 481 480
f 887 761 787
f 787 788 887
f 761 760 787
f 502 685 684
f 684 507 502
f 685 509 684
f 684 509 507
f 957 956 964
f 964 958 957
f 1082 956 957
f 957 958 1082
f 616 615 610
f 610 615 611
f 611 617 610
f 593 597 596
f 600 597 599
f 599 597 598
f 599 611 600
f 600 603 601
f 601 597 600
f 598 661 662
f 611 599 662
f 662 599 598
f 662 659 611
f 662 661 659
f 649 650 636
f 636 648 649
f 649 585 650
f 649 648 585
f 592 590 591
f 590 696 591
f 647 653 582
f 582 648 647
f 585 648 582
f 696 586 582
f 582 586 585
f 651 628 655
f 654 652 651
f 654 653 652
f 651 655 654
f 654 655 659
f 627 637 626
f 626 637 625
f 658 627 626
f 626 625 658
f 556 557 558
f 558 700 556
f 699 700 558
f 571 569 570
f 576 575 570
f 570 575 571
f 570 644 576
f 570 569 644
f 563 645 568
f 566 645 644
f 644 569 566
f 566 569 699
f 555 554 630
f 630 632 555
f 630 554 553
f 553 632 630
f 770 517 520
f 520 519 770
f 212 209 236
f 236 225 212
f 212 225 219
f 213 209 212
f 212 219 213
f 233 225 240
f 240 251 233
f 253 251 240
f 241 242 257
f 236 242 241
f 241 225 236
f 241 240 225
f 257 253 241
f 253 240 241
f 321 303 326
f 326 313 321
f 304 303 321
f 314 304 321
f 321 313 314
f 759 760 754
f 759 754 862
f 612 617 618
f 612 610 617
f 612 618 616
f 616 610 612
f 697 593 698
f 593 596 698
f 698 596 597
f 597 601 698
f 698 603 697
f 698 601 603
f 696 582 584
f 584 591 696
f 656 655 628
f 656 627 658
f 656 628 627
f 658 659 656
f 659 655 656
f 657 654 659
f 591 654 657
f 659 660 657
f 657 660 592
f 592 591 657
f 653 654 589
f 589 654 591
f 591 584 589
f 567 568 645
f 645 566 567
f 521 520 517
f 517 516 521
f 521 522 525
f 518 522 521
f 525 519 521
f 519 520 521
f 521 516 515
f 515 512 521
f 512 518 521
f 758 787 760
f 760 759 758
f 788 787 758
f 863 759 862
f 862 896 863
f 583 584 582
f 583 589 584
f 583 582 653
f 653 589 583
f 560 567 566
f 560 566 699
f 568 567 560
f 788 758 757
f 757 758 759
f 759 863 757
f 757 863 896
f 757 896 891
f 891 788 757
f 562 561 563
f 699 558 562
f 557 561 562
f 562 558 557
f 563 568 559
f 568 560 559
f 559 562 563
f 559 560 699
f 699 562 559
f 114 110 111
f 111 113 114
f 147 148 144
f 144 151 152
f 144 160 161
f 144 149 150
f 144 146 147
f 144 154 157
f 152 153 144
f 157 155 144
f 144 136 140
f 156 158 144
f 150 151 144
f 140 146 144
f 144 153 154
f 144 155 156
f 144 165 166
f 144 159 160
f 148 149 144
f 132 136 144
f 161 164 144
f 166 167 144
f 158 159 144
f 162 165 144
f 144 163 162
f 164 163 144
f 168 167 108
f 168 108 107
f 168 144 167
f 168 143 144