# https://github.com/mikedh/trimesh
v -0.00750000 0.03141690 0.00250000
v 0.00750000 0.03141690 0.00250000
v -0.00800000 0.00074060 0.00433722
v -0.00800000 0.00650000 0.00335378
v 0.00800000 0.00650000 0.00335378
v 0.00800000 0.00074060 0.00433722
v 0.00576615 0.01085494 0.00586487
v 0.00519705 0.01143122 0.00623382
v 0.00519452 0.01139243 0.00623532
v -0.00569861 0.02733434 0.00579516
v -0.00609867 0.02772463 0.00543193
v -0.00632590 0.02801416 0.00516878
v -0.00517598 0.02681130 0.00615620
v -0.00535515 0.02697631 0.00604367
v -0.00511410 0.01122413 0.00615746
v -0.00515631 0.01128027 0.00613134
v -0.00459441 0.01113123 0.00628407
v -0.00489705 0.01113123 0.00623973
v -0.00504722 0.01117151 0.00619022
v -0.00502944 0.01116202 0.00619724
v 0.00487080 0.01113122 0.00625222
v 0.00576888 0.02649152 0.00581566
v 0.00579389 0.02736362 0.00579422
v 0.00519017 0.02676471 0.00620434
v 0.00519705 0.02670085 0.00620021
v 0.00646666 0.02829636 0.00510059
v 0.00627810 0.02799566 0.00533643
v 0.00489705 0.01113122 0.00625178
v 0.00517421 0.01131642 0.00624186
v 0.00515069 0.01127103 0.00624609
v 0.00508392 0.01119653 0.00625135
v 0.00499604 0.01114803 0.00625168
v 0.00448480 0.02700085 0.00623819
v 0.00489705 0.02700084 0.00623685
v 0.00611318 0.02804676 0.00547539
v 0.00641432 0.02863865 0.00510011
v 0.00569772 0.02748902 0.00584286
v 0.00517421 0.02681565 0.00621107
v 0.00515232 0.02685845 0.00621717
v 0.00499720 0.02698364 0.00623269
v 0.00561814 0.02762502 0.00583096
v 0.00508515 0.02693455 0.00622748
v 0.00601147 0.02818311 0.00548092
v -0.00606096 0.02811616 0.00542613
v -0.00508558 0.02693420 0.00618818
v -0.00570739 0.02761794 0.00575454
v -0.00633282 0.02858559 0.00510045
v -0.00635389 0.02850233 0.00510033
v -0.00637596 0.02826220 0.00510069
v -0.00627531 0.02871038 0.00510029
v -0.00562941 0.02774270 0.00574357
v -0.00476954 0.02700085 0.00622525
v -0.00489705 0.02700085 0.00621620
v -0.00499718 0.02698364 0.00620335
v 0.00646989 0.02889913 0.00496640
v 0.00662639 0.02931485 0.00465166
v 0.00675887 0.02918896 0.00450117
v 0.00657731 0.02878503 0.00489715
v 0.00666401 0.02865818 0.00478112
v 0.00672127 0.02877790 0.00466071
v 0.00648164 0.02832226 0.00507953
v -0.00638213 0.02886781 0.00496685
v -0.00648992 0.02875250 0.00489587
v -0.00656283 0.02859921 0.00480218
v -0.00658203 0.02895027 0.00472206
v -0.00654340 0.02928714 0.00464427
v -0.00750000 0.03160824 0.00246194
v -0.00750000 0.03177045 0.00235355
v -0.00720826 0.04206018 -0.01050000
v -0.00747247 0.04099606 -0.01050000
v -0.00750000 0.04050000 -0.01050000
v -0.00679693 0.04278373 -0.01050000
v 0.00750000 0.04050000 -0.01150000
v 0.00550000 0.04350000 -0.01150000
v -0.00550000 0.04350000 -0.01150000
v -0.00615611 0.04333398 -0.01150000
v -0.00679693 0.04278373 -0.01150000
v -0.00720826 0.04206018 -0.01150000
v -0.00747247 0.04099607 -0.01150000
v -0.00750000 0.04050000 -0.01150000
v 0.00732165 0.04173839 -0.01150000
v 0.00691421 0.04262132 -0.01150000
v 0.00633120 0.04322864 -0.01150000
v 0.00569453 0.04348578 -0.01150000
v -0.00750000 0.00700000 -0.01328156
v 0.00750000 0.00700000 -0.01328156
v 0.00750000 0.03177045 0.00235355
v 0.00750000 0.03160824 0.00246194
v 0.00750000 0.04050000 -0.01050000
v 0.00691421 0.04262133 -0.01050000
v 0.00732165 0.04173839 -0.01050000
v 0.00800000 -0.00413254 0.00151067
v 0.00800000 -0.00337145 0.00282724
v 0.00800000 -0.00220764 0.00380609
v 0.00800000 -0.00078011 0.00433029
v 0.00800000 0.00650000 -0.01010065
v 0.00800000 -0.00439998 0.00001364
v 0.00800000 -0.00414183 -0.00148502
v 0.00800000 -0.00338892 -0.00280629
v 0.00800000 -0.00223119 -0.00379233
v -0.00800000 -0.00078011 0.00433029
v -0.00800000 -0.00413254 0.00151067
v -0.00800000 -0.00337145 0.00282724
v -0.00800000 -0.00220764 0.00380609
v -0.00800000 0.00650000 -0.01010065
v -0.00800000 -0.00223119 -0.00379233
v -0.00800000 -0.00338892 -0.00280629
v -0.00800000 -0.00414183 -0.00148502
v -0.00800000 -0.00439998 0.00001364
v -0.00614952 0.03937500 -0.01300000
v -0.00625000 0.03900000 -0.01300000
v 0.00614952 0.03937500 -0.01300000
v 0.00625000 0.03900000 -0.01300000
v 0.00260000 0.04240000 -0.01400000
v -0.00130000 0.04240000 -0.01400000
v 0.00260000 0.04080000 -0.01400000
v -0.00130000 0.04080000 -0.01400000
v -0.00530000 0.03929435 0.00224353
v 0.00530000 0.03929435 0.00224353
v -0.00530000 0.04018981 0.00192736
v 0.00530000 0.04018981 0.00192736
v -0.00530000 0.04103423 0.00149290
v 0.00530000 0.04103423 0.00149290
v -0.00530000 0.04181208 0.00094815
v 0.00530000 0.04181208 0.00094815
v -0.00530000 0.04250904 0.00030313
v 0.00530000 0.04250904 0.00030313
v -0.00530000 0.04311229 -0.00043029
v 0.00530000 0.04311229 -0.00043029
v -0.00530000 0.04361071 -0.00123860
v 0.00530000 0.04361071 -0.00123860
v -0.00530000 0.04399513 -0.00210695
v 0.00530000 0.04399513 -0.00210695
v -0.00530000 0.04425851 -0.00301933
v 0.00530000 0.04425851 -0.00301933
v -0.00530000 0.04439596 -0.00395896
v 0.00530000 0.04439596 -0.00395896
v -0.00530000 0.04440496 -0.00490855
v 0.00530000 0.04440496 -0.00490855
v -0.00530000 0.04428536 -0.00585063
v 0.00530000 0.04428536 -0.00585063
v 0.00547321 0.04015019 0.00183554
v 0.00547321 0.04098255 0.00140729
v 0.00547321 0.04174929 0.00087032
v 0.00547321 0.04243629 0.00023451
v 0.00547321 0.04303092 -0.00048843
v 0.00547321 0.04352223 -0.00128520
v 0.00547321 0.04390117 -0.00214113
v 0.00547321 0.04416076 -0.00304048
v 0.00547321 0.04429626 -0.00396669
v 0.00547321 0.04430514 -0.00490272
v 0.00540000 0.03928716 0.00221771
v 0.00540000 0.04017920 0.00190276
v 0.00540000 0.04102039 0.00146996
v 0.00540000 0.04179526 0.00092730
v 0.00540000 0.04248954 0.00028475
v 0.00540000 0.04309048 -0.00044587
v 0.00540000 0.04358700 -0.00125109
v 0.00540000 0.04396996 -0.00211610
v 0.00540000 0.04423231 -0.00302500
v 0.00540000 0.04436924 -0.00396103
v 0.00540000 0.04437821 -0.00490699
v -0.00540000 0.03928716 0.00221771
v -0.00540000 0.04017920 0.00190276
v -0.00540000 0.04102039 0.00146996
v -0.00540000 0.04179526 0.00092730
v -0.00540000 0.04248954 0.00028475
v -0.00540000 0.04309048 -0.00044587
v -0.00540000 0.04358700 -0.00125109
v -0.00540000 0.04396996 -0.00211610
v -0.00540000 0.04423231 -0.00302500
v -0.00540000 0.04436924 -0.00396103
v -0.00540000 0.04437821 -0.00490699
v -0.00540000 0.04425907 -0.00584546
v -0.00547320 0.04015019 0.00183554
v -0.00547320 0.04098255 0.00140729
v -0.00547320 0.04174929 0.00087032
v -0.00547320 0.04243629 0.00023451
v -0.00547320 0.04303092 -0.00048843
v -0.00547320 0.04352223 -0.00128520
v -0.00547320 0.04390117 -0.00214113
v -0.00547320 0.04416076 -0.00304048
v -0.00547320 0.04429626 -0.00396669
v -0.00547320 0.04430514 -0.00490272
f 115 85 111
f 75 115 76
f 86 73 96
f 113 86 114
f 113 73 86
f 101 95 17
f 101 15 3
f 18 101 17
f 110 115 111
f 114 86 116
f 140 75 76
f 70 79 71
f 52 17 33
f 17 34 33
f 5 96 89
f 89 96 73
f 73 113 81
f 81 89 73
f 3 15 16
f 101 18 20
f 85 115 117
f 138 140 174
f 174 140 76
f 83 82 114
f 151 82 83
f 138 174 173
f 173 174 76
f 111 85 80
f 80 79 111
f 85 105 80
f 80 71 79
f 80 105 71
f 77 173 76
f 76 115 77
f 115 110 77
f 72 77 78
f 78 77 110
f 78 110 111
f 111 79 78
f 70 71 68
f 67 176 68
f 71 105 4
f 4 68 71
f 67 68 4
f 3 1 4
f 4 1 67
f 138 173 136
f 119 33 34
f 17 95 21
f 95 28 21
f 21 34 17
f 34 21 31
f 100 99 86
f 86 96 100
f 87 88 5
f 5 89 87
f 87 143 88
f 2 6 5
f 5 88 2
f 112 81 113
f 82 81 112
f 112 113 114
f 114 82 112
f 15 101 19
f 101 20 19
f 114 74 84
f 84 83 114
f 141 84 74
f 139 84 141
f 72 78 69
f 177 176 165
f 177 68 176
f 45 20 18
f 35 152 43
f 42 41 152
f 152 119 42
f 88 143 142
f 32 28 95
f 95 31 32
f 32 21 28
f 32 31 21
f 30 31 95
f 30 42 31
f 6 2 60
f 135 133 159
f 83 84 162
f 162 84 139
f 151 83 162
f 162 161 151
f 135 159 160
f 137 162 139
f 161 162 137
f 135 160 137
f 137 160 161
f 151 161 150
f 150 160 149
f 161 160 150
f 155 125 123
f 123 154 155
f 127 125 155
f 166 124 126
f 166 177 165
f 166 122 124
f 165 122 166
f 52 33 118
f 33 119 118
f 13 19 20
f 20 45 13
f 15 19 13
f 13 16 15
f 3 16 13
f 53 17 52
f 52 118 53
f 12 49 3
f 40 119 34
f 40 42 119
f 34 31 40
f 31 42 40
f 95 6 7
f 29 30 95
f 57 2 88
f 57 60 2
f 90 150 149
f 90 81 82
f 90 82 151
f 151 150 90
f 171 134 136
f 181 171 182
f 181 182 69
f 184 77 72
f 173 77 184
f 54 18 17
f 17 53 54
f 54 45 18
f 54 53 118
f 41 42 37
f 37 23 35
f 35 43 37
f 152 41 37
f 37 43 152
f 9 29 95
f 95 7 9
f 9 7 8
f 8 24 9
f 6 26 27
f 35 23 27
f 27 23 6
f 6 60 59
f 131 129 158
f 158 133 131
f 158 159 133
f 91 87 89
f 89 81 91
f 81 90 91
f 91 90 149
f 149 160 148
f 148 160 159
f 148 91 149
f 147 91 148
f 159 158 148
f 148 158 147
f 85 107 106
f 106 105 85
f 172 136 173
f 172 171 136
f 173 184 172
f 169 130 132
f 128 130 169
f 51 46 45
f 14 13 45
f 45 46 14
f 3 13 14
f 11 12 3
f 49 12 11
f 48 11 44
f 49 11 48
f 44 46 163
f 46 51 163
f 163 51 45
f 45 54 163
f 163 54 118
f 8 7 25
f 25 24 8
f 23 24 25
f 39 37 42
f 42 30 39
f 30 29 39
f 23 37 38
f 38 24 23
f 37 39 38
f 38 9 24
f 29 9 38
f 38 39 29
f 61 26 6
f 6 59 61
f 35 27 36
f 36 27 26
f 36 152 35
f 36 55 152
f 152 55 153
f 153 121 119
f 153 119 152
f 143 154 153
f 153 142 143
f 123 121 153
f 153 154 123
f 88 142 56
f 56 57 88
f 142 153 56
f 56 153 55
f 156 129 127
f 127 155 156
f 155 145 156
f 144 145 155
f 144 154 143
f 144 155 154
f 143 87 144
f 87 145 144
f 182 171 183
f 171 172 183
f 72 69 183
f 69 182 183
f 183 184 72
f 183 172 184
f 170 169 132
f 181 169 170
f 171 181 170
f 132 134 170
f 134 171 170
f 70 68 179
f 3 14 10
f 10 14 46
f 10 11 3
f 10 46 44
f 44 11 10
f 49 48 63
f 44 163 50
f 164 118 120
f 164 163 118
f 120 122 164
f 164 122 165
f 165 176 164
f 62 163 164
f 164 63 62
f 22 25 7
f 23 25 22
f 22 7 6
f 6 23 22
f 58 56 55
f 55 36 58
f 57 56 58
f 58 61 59
f 60 57 58
f 58 59 60
f 26 61 58
f 58 36 26
f 157 158 129
f 129 156 157
f 157 156 145
f 147 158 157
f 128 169 168
f 180 169 181
f 180 181 69
f 180 168 169
f 179 168 180
f 180 69 70
f 70 179 180
f 3 49 64
f 49 63 64
f 64 1 3
f 47 163 62
f 47 50 163
f 62 63 47
f 47 63 48
f 47 48 44
f 44 50 47
f 175 176 67
f 175 164 176
f 67 66 175
f 63 164 175
f 175 66 63
f 147 157 146
f 146 91 147
f 146 157 145
f 87 91 146
f 146 145 87
f 126 128 167
f 128 168 167
f 167 166 126
f 65 64 63
f 63 66 65
f 1 64 65
f 65 66 67
f 67 1 65
f 177 166 178
f 166 167 178
f 68 177 178
f 178 179 68
f 178 168 179
f 178 167 168
f 115 75 74
f 114 115 74
f 86 85 117
f 117 116 86
f 117 115 114
f 114 116 117
f 141 74 75
f 75 140 141
f 141 140 138
f 138 139 141
f 69 78 79
f 69 79 70
f 132 133 134
f 134 133 135
f 124 122 125
f 125 122 123
f 125 127 126
f 126 124 125
f 130 133 132
f 131 133 130
f 131 130 129
f 129 130 128
f 126 127 129
f 129 128 126
f 123 122 121
f 121 122 120
f 5 6 94
f 94 100 96
f 94 96 5
f 97 98 94
f 94 6 95
f 94 92 97
f 99 100 94
f 94 98 99
f 93 92 94
f 101 104 94
f 95 101 94
f 137 139 138
f 138 136 137
f 137 134 135
f 136 134 137
f 118 121 120
f 119 121 118
f 99 98 107
f 98 108 107
f 86 99 107
f 107 85 86
f 103 94 104
f 93 94 103
f 103 92 93
f 103 102 92
f 109 98 97
f 109 108 98
f 97 92 109
f 92 102 109
f 3 4 106
f 106 101 3
f 106 107 108
f 106 4 105
f 106 104 101
f 106 103 104
f 108 109 106
f 102 103 106
f 106 109 102