# https://github.com/mikedh/trimesh
v 0.00879087 0.00778777 0.00640072
v 0.00886941 0.00774259 0.00634583
v 0.00876232 0.00778687 0.00634228
v 0.00940652 0.00729052 0.00637996
v 0.00935000 0.00742545 0.00646986
v 0.00946628 0.00725927 0.00646674
v 0.00954604 0.00710162 0.00647564
v 0.00925863 0.00747136 0.00636034
v 0.00914788 0.00762300 0.00649934
v 0.00921483 0.00756702 0.00648715
v 0.00889854 0.00777128 0.00656045
v 0.00903865 0.00765902 0.00637114
v 0.00886132 0.00778649 0.00657123
v 0.00896186 0.00770749 0.00638249
v 0.00884517 0.00778708 0.00652063
v 0.00890494 0.00773603 0.00638289
v 0.00882516 0.00778749 0.00647207
v 0.00937179 0.00755091 0.02432481
v 0.00953316 0.00745423 0.02309120
v 0.00934915 0.00757323 0.02196310
v 0.00964747 0.00737150 0.02229001
v 0.00923443 0.00761397 0.02565074
v 0.00916923 0.00763790 0.02653138
v 0.00925822 0.00763055 0.01947320
v 0.00973368 0.00733185 0.01466746
v 0.00944073 0.00754132 0.01688538
v 0.00916860 0.00767809 0.01714520
v 0.00980104 0.00727245 0.01433016
v 0.01015290 0.00689275 0.01234582
v 0.01033809 0.00664254 0.01096193
v 0.01063923 0.00615246 0.00910218
v 0.01046282 0.00646110 0.00882765
v 0.01078693 0.00581860 0.01508136
v 0.01022872 0.00676614 0.01857529
v 0.00972470 0.00730943 0.02177033
v 0.00986998 0.00717823 0.02082230
v 0.01012172 0.00690280 0.01923537
v 0.01079599 0.00581950 0.00937030
v 0.00949409 -0.00726346 0.02777706
v 0.00951394 -0.00716750 0.02782639
v 0.00947072 -0.00730536 0.02777851
v 0.00940545 -0.00734835 0.02786259
v 0.00925611 -0.00753037 0.02788077
v 0.00914860 -0.00767693 0.02774468
v 0.00921931 -0.00761736 0.02775792
v 0.00891744 -0.00781723 0.02768945
v 0.00903320 -0.00771883 0.02786778
v 0.00886156 -0.00784071 0.02767357
v 0.00895535 -0.00776721 0.02785564
v 0.00883704 -0.00784165 0.02774534
v 0.00889939 -0.00779467 0.02785547
v 0.00882884 -0.00784180 0.02776440
v 0.00883089 -0.00784156 0.02776119
v 0.00886407 -0.00780126 0.02789233
v 0.00879157 -0.00784194 0.02784406
v 0.00875430 -0.00784011 0.02792253
v 0.01077563 -0.00535080 0.02546253
v 0.01079028 0.00517882 0.02546253
v 0.01048971 -0.00591384 0.02603000
v 0.01050229 0.00575257 0.02603725
v 0.00871363 0.00768515 0.02806310
v 0.00886948 0.00765067 0.02794466
v 0.00879087 0.00769632 0.02789023
v 0.00917279 0.00751247 0.02779481
v 0.00914803 0.00753228 0.02779024
v 0.00920707 0.00746169 0.02786032
v 0.00886132 0.00769649 0.02771971
v 0.00903887 0.00756717 0.02791874
v 0.00884524 0.00769672 0.02777016
v 0.00896213 0.00761574 0.02790781
v 0.00882516 0.00769665 0.02781887
v 0.00890499 0.00764442 0.02790755
v 0.00950514 0.00707092 0.02784332
v 0.00949368 0.00711996 0.02781749
v 0.00944024 0.00721053 0.02782072
v 0.00932826 0.00736045 0.02781626
v 0.00925874 0.00737946 0.02792791
v 0.00979938 0.00684712 0.02735364
v 0.01020427 0.00642867 0.02657810
v 0.01019997 0.00662526 0.02641656
v 0.00955408 0.00700703 0.02779536
v 0.01056893 0.00605584 0.02573691
v 0.01074953 0.00568172 0.02541491
v 0.01074600 0.00575569 0.02534756
v 0.01074574 0.00578503 0.02530220
v 0.01074660 0.00580316 0.02526033
v 0.01046267 0.00638532 0.02544468
v 0.01075303 0.00581951 0.02516258
v 0.01076406 0.00581951 0.02495382
v 0.01075702 0.00559020 0.02545412
v 0.01076565 0.00551955 0.02546253
v 0.00968266 0.00693431 0.02756760
v 0.00941434 0.00734503 0.02764474
v 0.00900083 0.00768245 0.02729457
v 0.00918319 0.00759053 0.02743468
v 0.00929719 0.00754439 0.02732448
v 0.00910005 0.00765868 0.02714740
v 0.00942646 0.00747215 0.02721418
v 0.00916787 0.00763602 0.02703770
v 0.00961853 0.00733963 0.02700471
v 0.00939146 0.00752834 0.02685823
v 0.00991175 0.00707629 0.02660653
v 0.00965495 0.00734722 0.02658258
v 0.00996365 0.00705759 0.02618919
v 0.01015079 0.00680200 0.02623620
v 0.00950016 0.00730046 0.02752892
v 0.00959336 0.00723428 0.02741206
v 0.00974223 0.00711566 0.02719554
v 0.01055408 0.00623721 0.02337369
v 0.01048700 0.00634889 0.02446276
v 0.00991353 0.00718829 0.00802835
v 0.01010957 0.00693262 0.00798701
v 0.00987504 0.00719574 0.00763184
v 0.01075402 0.00581951 0.00895814
v 0.01052286 0.00621303 0.00845666
v 0.01016377 0.00675320 0.00780335
v 0.00957212 0.00749200 0.00761193
v 0.00958562 0.00745008 0.00725095
v 0.00935314 0.00763323 0.00739626
v 0.00940323 0.00743972 0.00662795
v 0.00916969 0.00768306 0.00684189
v 0.00899389 0.00777015 0.00698233
v 0.00977956 0.00695169 0.00689437
v 0.00966606 0.00703637 0.00668869
v 0.01017132 0.00655218 0.00763905
v 0.01074137 0.00581072 0.00888599
v 0.01072778 0.00577088 0.00879443
v 0.01071773 0.00570328 0.00872102
v 0.01071399 0.00565921 0.00869268
v 0.01071182 0.00561676 0.00867434
v 0.01071238 0.00551955 0.00865819
v 0.01071507 0.00541890 0.00865819
v 0.00971700 0.00722493 0.00705581
v 0.00939257 0.00757961 0.00705062
v 0.00917169 0.00771843 0.00725686
v 0.00956938 0.00734161 0.00684772
v 0.00925811 0.00765158 0.00694441
v 0.00912177 0.00773689 0.00717605
v 0.00953800 0.00751073 0.00861267
v 0.01074613 -0.00534569 0.00865819
v 0.00954617 -0.00706394 0.00639495
v 0.00941026 -0.00724108 0.00629134
v 0.00942016 -0.00729464 0.00638367
v 0.00921152 -0.00750962 0.00633903
v 0.00917291 -0.00756642 0.00640993
v 0.00886156 -0.00775055 0.00648513
v 0.00873338 -0.00771812 0.00610087
v 0.00879157 -0.00775033 0.00631464
v 0.00895433 -0.00769514 0.00637936
v 0.00926613 -0.00741962 0.00626657
v 0.00892248 -0.00768476 0.00627843
v 0.00888649 -0.00769110 0.00624073
v 0.00897705 -0.00765645 0.00628002
v 0.00883089 -0.00775065 0.00639750
v 0.00905189 -0.00760725 0.00627074
v 0.00987674 -0.00717265 0.00755143
v 0.00958397 -0.00742461 0.00716582
v 0.00971656 -0.00719678 0.00697354
v 0.01073946 -0.00552123 0.00865819
v 0.01074197 -0.00575563 0.00877095
v 0.01052675 -0.00619591 0.00839172
v 0.01073678 -0.00568011 0.00870372
v 0.01073614 -0.00558760 0.00866560
v 0.01017393 -0.00652853 0.00756879
v 0.01016653 -0.00673092 0.00773014
v 0.01011269 -0.00691211 0.00791114
v 0.00978006 -0.00692092 0.00681595
v 0.00966515 -0.00700390 0.00660752
v 0.00956563 -0.00731311 0.00676211
v 0.00940684 -0.00739928 0.00654306
v 0.00917605 -0.00764514 0.00675312
v 0.00938511 -0.00755417 0.00696245
v 0.00895234 -0.00774438 0.00680319
v 0.00957784 -0.00746514 0.00754285
v 0.00916957 -0.00769076 0.00718224
v 0.00916074 -0.00769408 0.00717176
v 0.00991614 -0.00716925 0.00795635
v 0.01074652 -0.00578673 0.00881855
v 0.01046297 -0.00645000 0.00876530
v 0.01020893 -0.00682527 0.00837308
v 0.01075094 -0.00580445 0.00885923
v 0.01076465 -0.00582119 0.00895814
v 0.01063590 -0.00614499 0.00904443
v 0.01079459 -0.00582119 0.00930734
v 0.00989797 -0.00723227 0.02658152
v 0.01013689 -0.00695998 0.02621637
v 0.01018823 -0.00678252 0.02639856
v 0.00941213 -0.00748793 0.02760807
v 0.01082413 -0.00582119 0.02481887
v 0.01079576 -0.00582119 0.02516258
v 0.01065213 -0.00618218 0.02510167
v 0.01056352 -0.00634759 0.02524477
v 0.01046297 -0.00652080 0.02540454
v 0.01050222 -0.00645492 0.02534253
v 0.01055459 -0.00622069 0.02572857
v 0.00991240 -0.00725080 0.02621233
v 0.01019390 -0.00658443 0.02656170
v 0.00957965 -0.00739067 0.02738233
v 0.00926415 -0.00770408 0.02729101
v 0.00940436 -0.00762899 0.02718088
v 0.00916551 -0.00777657 0.02697966
v 0.00934131 -0.00769625 0.02684777
v 0.00900739 -0.00782235 0.02721637
v 0.00903602 -0.00781620 0.02716937
v 0.00903809 -0.00781575 0.02716603
v 0.00905621 -0.00781142 0.02714093
v 0.00918134 -0.00773198 0.02739593
v 0.00955137 -0.00715102 0.02776157
v 0.00967517 -0.00708614 0.02753988
v 0.00979200 -0.00699878 0.02732771
v 0.01078543 -0.00581255 0.02523414
v 0.01077511 -0.00577297 0.02532567
v 0.01076836 -0.00570546 0.02539931
v 0.01076631 -0.00566087 0.02542805
v 0.01076560 -0.00561864 0.02544631
v 0.01076899 -0.00552123 0.02546253
v 0.00973131 -0.00727032 0.02716760
v 0.00960254 -0.00749503 0.02697400
v 0.00959025 -0.00753713 0.02660482
v 0.00953457 -0.00757122 0.02562522
v 0.00978871 -0.00734407 0.01984513
v 0.00973176 -0.00739352 0.01956149
v 0.01013060 -0.00698325 0.02174799
v 0.01031985 -0.00673307 0.02311123
v 0.01045834 -0.00652673 0.02501328
v 0.01044061 -0.00655353 0.02453439
v 0.01081380 -0.00582119 0.01932408
v 0.00988766 -0.00722201 0.01351757
v 0.01005954 -0.00703894 0.01460249
v 0.01014820 -0.00693305 0.01515227
v 0.01039811 -0.00658755 0.01668666
v 0.00963106 -0.00744326 0.01183101
v 0.00926758 -0.00766813 0.01176470
v 0.00940080 -0.00759222 0.01016271
v 0.00916551 -0.00769602 0.00805339
v 0.00916951 -0.00769215 0.00750050
v 0.00918127 -0.00768901 0.00783316
v 0.00923104 -0.00767167 0.00859052
v 0.00916551 -0.00770096 0.00921223
v 0.00926420 -0.00768625 0.01567723
v 0.01080251 -0.00582119 0.01340718
v 0.01072733 -0.00597915 0.01271617
v 0.01059227 -0.00623618 0.01130952
v 0.01049800 -0.00639663 0.00996638
v 0.00050000 -0.00550000 -0.00650000
v 0.00050000 -0.00569134 -0.00646194
v 0.00050000 0.00550000 -0.00650000
v 0.00050000 -0.00569134 0.04046194
v 0.00050000 -0.00550000 0.04050000
v 0.00050000 0.00575000 0.04043302
v 0.00050000 0.00550000 0.04050000
v 0.00635000 0.00797320 0.02938660
v 0.00638660 0.00797320 0.02935000
v 0.00630000 0.00800000 0.02930000
v 0.00127441 0.00575000 -0.00638225
v 0.00125053 0.00593301 -0.00620081
v 0.00198821 0.00593301 -0.00605407
v 0.00270043 0.00593301 -0.00581231
v 0.00337500 0.00593301 -0.00547965
v 0.00400038 0.00593301 -0.00506178
v 0.00456586 0.00593301 -0.00456586
v 0.00506178 0.00593301 -0.00400038
v 0.00547965 0.00593301 -0.00337500
v 0.00203558 0.00575000 -0.00623085
v 0.00277047 0.00575000 -0.00598139
v 0.00346651 0.00575000 -0.00563814
v 0.00411179 0.00575000 -0.00520698
v 0.00469527 0.00575000 -0.00469527
v 0.00520697 0.00575000 -0.00411179
v 0.00563814 0.00575000 -0.00346651
v 0.00598139 0.00575000 -0.00277047
v 0.00128316 0.00550000 -0.00644867
v 0.00205291 0.00550000 -0.00629556
v 0.00279610 0.00550000 -0.00604328
v 0.00350000 0.00550000 -0.00569615
v 0.00415257 0.00550000 -0.00526012
v 0.00474264 0.00550000 -0.00474264
v 0.00526012 0.00550000 -0.00415257
v 0.00569615 0.00550000 -0.00350000
v 0.00604328 0.00550000 -0.00279610
v 0.00205291 -0.00550000 -0.00629556
v 0.00279610 -0.00550000 -0.00604328
v 0.00278154 -0.00569134 -0.00600811
v 0.00590798 -0.00585355 -0.00274006
v 0.00523218 -0.00596194 -0.00366194
v 0.00452439 -0.00596194 -0.00452439
v 0.00366194 -0.00596194 -0.00523218
v 0.00267798 -0.00596194 -0.00575811
v 0.00536705 -0.00585355 -0.00375206
v 0.00463909 -0.00585355 -0.00463909
v 0.00375206 -0.00585355 -0.00536705
v 0.00274006 -0.00585355 -0.00590798
v 0.00600811 -0.00569134 -0.00278154
v 0.00545717 -0.00569134 -0.00381228
v 0.00471573 -0.00569134 -0.00471573
v 0.00381228 -0.00569134 -0.00545717
v 0.00604328 -0.00550000 -0.00279610
v 0.00569615 -0.00550000 -0.00350000
v 0.00548882 -0.00550000 -0.00383342
v 0.00474264 -0.00550000 -0.00474264
v 0.00383342 -0.00550000 -0.00548882
v 0.00350000 -0.00550000 -0.00569615
v 0.00167054 -0.00550000 -0.00638471
v 0.00166312 -0.00569134 -0.00634738
v 0.00164197 -0.00585355 -0.00624108
v 0.00161033 -0.00596194 -0.00608198
v 0.00604328 -0.00550000 0.03679610
v 0.00600812 -0.00569134 0.03678153
v 0.00205291 -0.00550000 0.04029556
v 0.00167054 -0.00550000 0.04038471
v 0.00166312 -0.00569134 0.04034738
v 0.00164197 -0.00585355 0.04024108
v 0.00274006 -0.00585355 0.03990798
v 0.00161033 -0.00596194 0.04008199
v 0.00267798 -0.00596194 0.03975811
v 0.00366194 -0.00596194 0.03923218
v 0.00452439 -0.00596194 0.03852439
v 0.00523218 -0.00596194 0.03766194
v 0.00375206 -0.00585355 0.03936705
v 0.00463909 -0.00585355 0.03863909
v 0.00536705 -0.00585355 0.03775206
v 0.00590798 -0.00585355 0.03674006
v 0.00278154 -0.00569134 0.04000811
v 0.00381228 -0.00569134 0.03945717
v 0.00471573 -0.00569134 0.03871573
v 0.00545717 -0.00569134 0.03781228
v 0.00279610 -0.00550000 0.04004328
v 0.00350000 -0.00550000 0.03969615
v 0.00383342 -0.00550000 0.03948882
v 0.00474264 -0.00550000 0.03874264
v 0.00548882 -0.00550000 0.03783342
v 0.00569615 -0.00550000 0.03750000
v 0.00547965 0.00593301 0.03737500
v 0.00506178 0.00593301 0.03800038
v 0.00456586 0.00593301 0.03856586
v 0.00400038 0.00593301 0.03906178
v 0.00337500 0.00593301 0.03947965
v 0.00270043 0.00593301 0.03981230
v 0.00198821 0.00593301 0.04005408
v 0.00125053 0.00593301 0.04020081
v 0.00598139 0.00575000 0.03677047
v 0.00563814 0.00575000 0.03746651
v 0.00520697 0.00575000 0.03811179
v 0.00469527 0.00575000 0.03869527
v 0.00411179 0.00575000 0.03920697
v 0.00346651 0.00575000 0.03963814
v 0.00277046 0.00575000 0.03998139
v 0.00203558 0.00575000 0.04023085
v 0.00127441 0.00575000 0.04038225
v 0.00604328 0.00550000 0.03679610
v 0.00569615 0.00550000 0.03750000
v 0.00526012 0.00550000 0.03815257
v 0.00474264 0.00550000 0.03874264
v 0.00415257 0.00550000 0.03926012
v 0.00350000 0.00550000 0.03969615
v 0.00279610 0.00550000 0.04004328
v 0.00205291 0.00550000 0.04029556
v 0.00128316 0.00550000 0.04044867
v 0.00630000 -0.00798478 0.00512346
v 0.00630000 -0.00800000 0.00520000
v -0.01234523 -0.00780000 0.04050000
v 0.00630000 -0.00800000 0.02900000
v 0.00628284 -0.00797321 0.02928284
v 0.00627716 -0.00800000 0.02911481
v 0.00621213 -0.00800000 0.02921213
v 0.00635000 0.00797320 0.00511340
v 0.00630000 0.00800000 0.00520000
v -0.01234523 0.00780000 0.04050000
v -0.01356439 -0.00780000 0.04050000
v -0.01356439 0.00780000 0.04050000
v -0.01357685 -0.00794142 0.04044142
v -0.01356763 -0.00787654 0.04048477
v -0.01474929 -0.00800000 0.03479917
v -0.01360693 -0.00800000 0.04030000
v -0.01366854 -0.00800000 0.04001040
v -0.01420104 -0.00800000 0.03749176
v -0.01359065 -0.00798478 0.04037654
v -0.01800000 -0.00700000 0.03870000
v -0.01800000 -0.00700000 0.03950000
v -0.01724736 0.00800558 -0.00680134
v -0.01724702 0.00800558 -0.00676082
v -0.01704943 0.00800558 -0.00701662
v -0.01664555 0.00800558 -0.00701662
v -0.01650335 0.00800558 -0.00699759
v -0.01507644 0.00800558 -0.00500000
v -0.01365506 0.00800558 -0.00584506
v -0.01352238 0.00800558 -0.00626923
v -0.01352761 0.00800558 -0.00635467
v -0.01356809 0.00800558 -0.00643009
v -0.01363639 0.00800558 -0.00648168
v -0.01372000 0.00800558 -0.00650000
v -0.01650335 -0.00800000 -0.00699759
v -0.01664555 -0.00800000 -0.00701662
v -0.01704943 -0.00800000 -0.00701662
v -0.01724736 -0.00800000 -0.00680133
v -0.00886496 -0.00800000 -0.00516723
v -0.00882524 -0.00798478 -0.00523265
v -0.01013780 -0.00800000 -0.00578953
v -0.01011056 -0.00798478 -0.00586106
v -0.01147662 -0.00794142 -0.00631041
v -0.01148836 -0.00798478 -0.00624660
v -0.01150221 -0.00800000 -0.00617132
v -0.01234523 -0.00800000 0.04030000
v -0.01234523 -0.00798478 0.04037654
v -0.01234523 -0.00794142 0.04044142
v -0.01234523 -0.00787654 0.04048477
v -0.01093897 -0.00787654 0.04035996
v -0.01094660 -0.00794142 0.04031729
v -0.00835573 -0.00798478 0.03929144
v -0.00961419 -0.00798478 0.03988791
v -0.01095803 -0.00798478 0.04025342
v -0.00839450 -0.00800000 0.03922545
v -0.00964073 -0.00800000 0.03981612
v -0.01097151 -0.00800000 0.04017808
v -0.01194869 0.00790000 -0.00641466
v -0.00841142 0.00797320 -0.00499186
v -0.00922977 0.00797320 -0.00548874
v -0.01010221 0.00797320 -0.00588299
v -0.01101594 0.00797320 -0.00616880
v -0.01195754 0.00797320 -0.00634199
v -0.00846840 0.00800000 -0.00490968
v -0.00927639 0.00800000 -0.00540028
v -0.01013780 0.00800000 -0.00578953
v -0.01103996 0.00800000 -0.00607173
v -0.01196964 0.00800000 -0.00624272
v -0.01234523 0.00794142 0.04044142
v -0.01234523 0.00790000 0.04047321
v -0.01140635 0.00790000 0.04041773
v -0.01234523 0.00800000 0.04030000
v -0.01234523 0.00797320 0.04040000
v -0.01141498 0.00797320 0.04034504
v -0.01049766 0.00797320 0.04018092
v -0.00960605 0.00797320 0.03990992
v -0.00875256 0.00797320 0.03953582
v -0.00794906 0.00797320 0.03906382
v -0.01142675 0.00800000 0.04024573
v -0.01052105 0.00800000 0.04008369
v -0.00964073 0.00800000 0.03981612
v -0.00879804 0.00800000 0.03944675
v -0.00800471 0.00800000 0.03898073
v -0.01356528 0.00784081 0.04049579
v -0.01356763 0.00787658 0.04048476
v -0.01357054 0.00790359 0.04047108
v -0.01358010 0.00795522 0.04042612
v -0.01359290 0.00798880 0.04036599
v -0.01360693 0.00800000 0.04030000
v -0.01800000 0.00700000 0.03870000
v -0.01800000 0.00700000 0.03950000
v -0.01726106 -0.00800000 -0.00675421
v -0.01726191 -0.00799539 -0.00680098
v -0.01726191 0.00800097 -0.00680098
v -0.01726106 0.00800557 -0.00675421
v -0.01722914 0.00800558 -0.00500000
v -0.01611887 0.00800000 0.02424222
v -0.01611887 -0.00800000 0.02424222
v -0.01577852 -0.00800000 0.02807816
v -0.01577852 0.00800000 0.02807816
v -0.01546689 -0.00800000 0.03055643
v -0.01546689 0.00800000 0.03055643
v -0.01515059 0.00800000 0.03260510
v -0.01515059 -0.00800000 0.03260510
v -0.01474929 0.00800000 0.03479917
v -0.01366854 0.00800000 0.04001040
v -0.01420104 0.00800000 0.03749176
v -0.01649028 0.00800000 0.01848372
v -0.01681733 0.00800000 0.01204371
v -0.01719533 0.00800000 -0.00192437
v -0.01714469 0.00800000 0.00136454
v -0.01702842 0.00800000 0.00629912
v -0.01714469 -0.00800000 0.00136454
v -0.01702842 -0.00800000 0.00629912
v -0.01681733 -0.00800000 0.01204371
v -0.01649028 -0.00800000 0.01848372
v -0.01719533 -0.00800000 -0.00192437
v 0.00899610 -0.00778134 0.01707941
f 377 379 374
f 378 447 451
f 451 450 378
f 360 48 362
f 173 48 360
f 462 460 448
f 456 379 455
f 458 379 456
f 458 461 379
f 379 461 373
f 281 303 273
f 273 303 272
f 247 383 272
f 448 460 459
f 459 457 448
f 454 465 448
f 448 457 454
f 448 469 468
f 448 465 466
f 466 469 448
f 464 462 448
f 48 173 203
f 409 412 365
f 372 369 379
f 449 379 378
f 378 450 449
f 471 472 379
f 379 470 471
f 379 472 473
f 473 455 379
f 379 373 376
f 185 218 196
f 260 366 3
f 416 366 260
f 89 58 33
f 255 272 383
f 273 272 255
f 283 281 282
f 282 302 283
f 395 449 450
f 452 447 448
f 452 451 447
f 448 446 463
f 463 464 448
f 445 446 448
f 448 444 445
f 475 203 173
f 48 206 46
f 49 51 46
f 202 199 201
f 201 199 206
f 200 199 202
f 196 218 219
f 219 200 202
f 218 200 219
f 219 174 232
f 233 234 202
f 359 148 360
f 147 148 359
f 363 409 365
f 316 409 363
f 365 56 363
f 363 56 316
f 410 413 412
f 412 409 410
f 365 364 55
f 55 56 365
f 364 52 55
f 52 51 55
f 371 379 377
f 371 372 379
f 474 470 379
f 379 449 474
f 306 288 399
f 306 292 288
f 249 361 248
f 248 361 406
f 248 406 407
f 375 374 379
f 379 376 375
f 316 56 317
f 223 180 224
f 261 268 260
f 260 3 261
f 130 131 280
f 280 131 132
f 280 132 140
f 38 227 241
f 189 227 38
f 38 58 189
f 33 58 38
f 58 89 91
f 91 350 58
f 91 60 350
f 380 382 451
f 451 452 380
f 380 452 381
f 247 272 245
f 245 272 303
f 420 255 415
f 256 255 420
f 273 255 264
f 264 256 257
f 255 256 264
f 394 395 450
f 450 451 394
f 451 382 394
f 448 468 467
f 467 452 448
f 468 452 467
f 453 468 469
f 453 452 468
f 469 466 453
f 453 466 465
f 465 454 453
f 453 454 457
f 457 459 453
f 453 459 460
f 460 462 453
f 462 464 453
f 464 463 453
f 453 463 446
f 381 452 453
f 448 370 441
f 441 442 448
f 370 368 441
f 443 444 448
f 448 442 443
f 205 475 206
f 205 206 48
f 48 203 205
f 206 199 207
f 207 46 206
f 49 46 207
f 48 46 50
f 50 362 48
f 50 364 362
f 50 52 364
f 53 51 52
f 53 46 51
f 52 50 53
f 53 50 46
f 221 228 196
f 196 219 221
f 202 234 220
f 220 219 202
f 234 174 220
f 174 219 220
f 202 201 240
f 240 233 202
f 146 173 360
f 360 396 397
f 397 359 360
f 399 288 397
f 147 359 286
f 297 280 140
f 315 409 316
f 315 410 409
f 446 445 429
f 399 397 398
f 398 397 396
f 401 306 399
f 401 398 402
f 399 398 401
f 305 401 400
f 306 401 305
f 292 306 305
f 411 403 414
f 404 403 411
f 411 414 413
f 413 410 411
f 318 317 56
f 186 185 196
f 224 193 186
f 196 223 186
f 186 223 224
f 189 58 57
f 58 350 307
f 307 57 58
f 158 167 165
f 229 223 196
f 158 156 157
f 157 156 174
f 174 156 177
f 180 229 177
f 232 174 177
f 196 228 177
f 177 229 196
f 228 221 177
f 140 182 159
f 159 297 140
f 270 280 279
f 262 261 3
f 262 12 263
f 263 270 262
f 262 270 269
f 262 269 268
f 268 261 262
f 132 131 114
f 140 132 114
f 114 38 140
f 88 91 89
f 90 91 83
f 336 344 335
f 433 338 434
f 440 435 254
f 254 386 440
f 386 385 440
f 419 256 420
f 257 256 419
f 420 425 419
f 419 425 424
f 419 424 423
f 366 416 367
f 367 3 366
f 367 254 13
f 384 425 420
f 420 415 384
f 384 255 383
f 384 415 255
f 387 386 254
f 254 367 387
f 387 367 388
f 259 258 417
f 417 416 259
f 259 416 260
f 260 268 267
f 267 259 260
f 266 259 267
f 268 276 267
f 267 276 275
f 275 266 267
f 274 266 275
f 258 259 265
f 265 259 266
f 257 258 265
f 265 264 257
f 266 274 265
f 265 274 273
f 273 264 265
f 203 475 204
f 204 205 203
f 475 205 204
f 197 307 210
f 222 219 232
f 222 221 219
f 232 177 222
f 222 177 221
f 238 174 234
f 238 175 174
f 234 233 238
f 233 240 238
f 238 240 201
f 206 475 176
f 176 201 206
f 176 239 201
f 176 475 173
f 171 175 176
f 173 146 176
f 176 146 171
f 360 148 154
f 154 146 360
f 147 286 285
f 288 292 291
f 359 397 287
f 287 286 359
f 287 397 288
f 288 291 287
f 293 297 167
f 410 315 314
f 312 411 314
f 314 411 410
f 433 438 432
f 392 305 400
f 393 305 392
f 400 401 392
f 392 401 402
f 393 245 246
f 246 245 303
f 408 405 404
f 404 411 408
f 406 405 408
f 407 406 408
f 408 312 407
f 408 411 312
f 54 51 49
f 49 318 54
f 54 318 56
f 54 55 51
f 56 55 54
f 317 318 321
f 321 320 317
f 326 320 321
f 321 318 49
f 324 330 329
f 350 341 342
f 342 351 350
f 352 351 342
f 344 336 345
f 331 330 326
f 352 330 331
f 331 351 352
f 325 320 326
f 326 330 325
f 330 324 325
f 353 330 352
f 344 345 353
f 184 38 241
f 184 182 140
f 140 38 184
f 224 180 231
f 180 179 231
f 193 179 244
f 193 244 194
f 243 191 192
f 192 244 243
f 192 194 244
f 57 307 216
f 166 156 158
f 158 165 166
f 180 177 166
f 166 177 156
f 166 179 180
f 164 165 167
f 167 297 164
f 165 164 161
f 179 166 161
f 161 166 165
f 180 223 230
f 230 229 180
f 223 229 230
f 172 157 174
f 174 175 172
f 172 175 171
f 171 145 172
f 263 12 8
f 8 270 263
f 280 270 271
f 271 270 4
f 4 6 271
f 2 262 3
f 277 276 268
f 298 299 279
f 297 293 298
f 312 314 313
f 313 314 315
f 249 248 310
f 123 125 280
f 123 271 124
f 280 271 123
f 116 125 123
f 13 11 15
f 15 367 13
f 112 113 111
f 87 88 89
f 83 91 84
f 91 88 84
f 435 336 252
f 252 253 254
f 254 435 252
f 335 253 252
f 252 336 335
f 439 438 433
f 433 434 439
f 439 385 438
f 439 440 385
f 439 434 435
f 435 440 439
f 337 434 338
f 337 336 435
f 435 434 337
f 338 347 337
f 337 347 346
f 346 345 337
f 337 345 336
f 418 258 257
f 257 419 418
f 418 419 423
f 418 423 417
f 417 258 418
f 421 367 416
f 421 416 417
f 198 200 218
f 198 188 200
f 42 188 198
f 44 207 199
f 199 200 44
f 185 186 187
f 197 210 187
f 308 210 307
f 326 321 308
f 237 238 201
f 175 238 237
f 239 176 235
f 283 302 296
f 296 292 283
f 296 291 292
f 428 250 349
f 437 432 438
f 438 385 437
f 304 305 393
f 393 246 304
f 304 246 303
f 303 281 304
f 304 281 283
f 283 292 304
f 292 305 304
f 352 342 343
f 343 353 352
f 344 353 343
f 335 344 343
f 351 331 332
f 332 308 307
f 332 331 326
f 326 308 332
f 329 330 354
f 330 353 354
f 354 355 329
f 354 353 345
f 354 345 346
f 346 355 354
f 183 191 243
f 243 244 183
f 183 244 179
f 182 184 183
f 183 161 182
f 179 161 183
f 226 231 179
f 226 193 224
f 224 231 226
f 190 191 189
f 189 57 190
f 57 216 190
f 59 307 197
f 297 159 163
f 163 164 297
f 4 270 5
f 270 8 5
f 5 6 4
f 136 6 5
f 124 6 133
f 133 6 136
f 133 123 124
f 116 123 133
f 112 116 133
f 133 113 112
f 7 6 124
f 124 271 7
f 7 271 6
f 12 262 14
f 262 2 14
f 268 269 278
f 278 277 268
f 278 270 279
f 269 270 278
f 279 299 278
f 329 355 328
f 328 324 329
f 346 347 356
f 356 355 346
f 323 313 324
f 323 328 327
f 324 328 323
f 324 313 319
f 319 315 316
f 319 313 315
f 316 317 319
f 317 320 319
f 320 325 319
f 319 325 324
f 358 251 249
f 249 310 358
f 349 250 358
f 358 250 251
f 3 367 1
f 11 14 16
f 16 14 2
f 16 2 3
f 3 1 16
f 128 114 131
f 128 127 114
f 115 125 116
f 115 116 112
f 112 32 115
f 115 128 125
f 127 128 115
f 38 114 31
f 33 38 31
f 114 115 31
f 31 115 32
f 31 89 33
f 113 133 118
f 118 133 136
f 75 342 341
f 341 74 75
f 77 342 75
f 112 111 29
f 88 87 82
f 83 84 82
f 82 90 83
f 367 421 390
f 423 424 390
f 417 423 422
f 422 421 417
f 423 390 422
f 422 390 421
f 49 207 47
f 207 44 47
f 47 321 49
f 43 188 42
f 321 47 43
f 153 285 289
f 289 155 153
f 153 155 145
f 236 237 201
f 175 237 236
f 201 239 236
f 239 235 236
f 236 176 175
f 236 235 176
f 168 167 158
f 168 293 167
f 289 293 284
f 284 150 289
f 144 155 289
f 289 150 144
f 145 155 144
f 144 172 145
f 348 356 347
f 349 358 348
f 250 428 427
f 368 251 427
f 251 250 427
f 427 443 442
f 442 441 427
f 427 441 368
f 431 340 432
f 349 340 431
f 431 428 349
f 334 342 333
f 334 343 342
f 335 343 334
f 191 183 242
f 242 183 184
f 242 184 241
f 241 227 242
f 242 227 189
f 189 191 242
f 225 179 193
f 193 226 225
f 225 226 179
f 195 192 191
f 191 190 195
f 194 192 195
f 193 194 195
f 197 187 195
f 195 186 193
f 195 187 186
f 197 214 215
f 215 214 216
f 215 59 197
f 215 216 307
f 307 59 215
f 216 214 213
f 212 190 213
f 213 190 216
f 213 195 212
f 213 214 197
f 197 195 213
f 160 159 182
f 309 323 327
f 17 15 11
f 11 16 17
f 17 16 1
f 367 15 17
f 17 1 367
f 129 131 130
f 129 128 131
f 125 128 129
f 130 280 129
f 280 125 129
f 114 127 126
f 126 115 114
f 127 115 126
f 109 31 32
f 109 87 89
f 89 31 109
f 117 111 113
f 113 118 117
f 136 5 120
f 120 118 136
f 120 5 8
f 122 11 13
f 122 138 11
f 13 254 122
f 119 137 135
f 135 137 138
f 92 341 350
f 104 87 34
f 104 111 36
f 36 103 104
f 88 82 86
f 388 367 389
f 367 390 389
f 424 425 391
f 391 390 424
f 425 384 391
f 217 187 210
f 185 187 217
f 218 185 217
f 217 198 218
f 41 308 42
f 41 39 308
f 42 198 41
f 198 217 41
f 41 217 39
f 188 43 45
f 200 188 45
f 45 44 200
f 45 47 44
f 45 43 47
f 322 308 321
f 321 43 322
f 42 308 322
f 322 43 42
f 147 285 152
f 285 153 152
f 152 148 147
f 294 295 299
f 299 298 294
f 294 293 289
f 294 298 293
f 276 277 300
f 300 295 296
f 277 278 300
f 300 278 299
f 299 295 300
f 289 285 290
f 290 285 286
f 290 294 289
f 295 294 290
f 286 287 290
f 290 287 291
f 291 296 290
f 296 295 290
f 293 142 143
f 143 284 293
f 150 284 143
f 143 142 158
f 293 168 141
f 141 142 293
f 141 168 158
f 158 142 141
f 339 340 349
f 349 348 339
f 432 340 339
f 339 347 338
f 339 348 347
f 339 338 433
f 433 432 339
f 356 348 357
f 357 348 358
f 357 358 310
f 310 309 357
f 385 429 436
f 436 437 385
f 432 437 436
f 436 431 432
f 426 427 428
f 428 431 426
f 444 443 426
f 443 427 426
f 211 190 212
f 212 195 211
f 211 195 190
f 182 161 181
f 162 160 161
f 162 161 164
f 164 163 162
f 162 163 159
f 159 160 162
f 311 309 310
f 311 310 248
f 323 309 311
f 407 312 311
f 311 248 407
f 312 313 311
f 313 323 311
f 32 87 110
f 110 109 32
f 87 109 110
f 134 137 119
f 119 117 134
f 134 117 118
f 118 120 134
f 121 14 11
f 11 138 121
f 138 137 121
f 137 134 9
f 9 121 137
f 12 14 9
f 14 121 9
f 27 135 138
f 350 60 79
f 60 91 79
f 91 90 79
f 90 82 79
f 341 92 81
f 104 34 37
f 37 34 29
f 37 111 104
f 37 29 111
f 29 34 30
f 30 32 112
f 112 29 30
f 30 87 32
f 30 34 87
f 103 101 98
f 85 82 84
f 85 86 82
f 85 84 88
f 88 86 85
f 209 217 210
f 39 217 209
f 209 208 39
f 210 308 209
f 308 208 209
f 308 39 40
f 40 208 308
f 39 208 40
f 149 154 148
f 171 146 149
f 146 154 149
f 149 145 171
f 149 153 145
f 276 300 301
f 301 300 296
f 301 296 302
f 301 302 275
f 275 276 301
f 158 157 169
f 169 143 158
f 430 445 444
f 444 426 430
f 430 426 431
f 430 429 445
f 430 436 429
f 431 436 430
f 161 160 178
f 178 181 161
f 178 160 182
f 182 181 178
f 25 21 103
f 111 117 25
f 117 21 25
f 10 8 12
f 12 9 10
f 10 120 8
f 10 134 120
f 10 9 134
f 335 334 61
f 61 253 335
f 254 253 61
f 61 63 254
f 99 101 22
f 78 92 350
f 350 79 78
f 73 92 74
f 73 81 92
f 73 74 341
f 341 81 73
f 139 117 119
f 119 26 139
f 103 21 19
f 19 21 117
f 19 101 103
f 19 26 101
f 117 139 19
f 19 139 26
f 148 152 151
f 151 149 148
f 151 152 153
f 153 149 151
f 157 172 170
f 170 169 157
f 172 144 170
f 170 144 150
f 150 143 170
f 143 169 170
f 103 36 35
f 35 25 103
f 28 36 111
f 111 25 28
f 28 35 36
f 25 35 28
f 63 61 62
f 334 70 62
f 62 61 334
f 94 122 254
f 254 67 94
f 99 22 23
f 23 27 138
f 105 87 104
f 105 82 87
f 107 75 74
f 107 106 75
f 333 342 66
f 66 342 77
f 98 64 66
f 96 64 98
f 96 98 101
f 96 101 99
f 99 95 96
f 72 62 70
f 70 95 72
f 63 62 72
f 27 23 24
f 24 23 22
f 135 27 24
f 119 135 24
f 24 20 119
f 97 23 138
f 138 122 97
f 122 94 97
f 99 23 97
f 97 95 99
f 67 95 97
f 97 94 67
f 18 22 101
f 119 20 18
f 18 24 22
f 20 24 18
f 18 26 119
f 101 26 18
f 80 78 79
f 80 79 82
f 82 105 80
f 102 105 104
f 104 103 102
f 102 80 105
f 333 66 68
f 68 334 333
f 68 70 334
f 68 66 64
f 93 106 98
f 98 66 93
f 64 96 65
f 65 96 95
f 65 68 64
f 65 95 70
f 70 68 65
f 69 95 67
f 69 72 95
f 69 67 254
f 78 80 108
f 92 78 108
f 80 102 108
f 74 92 108
f 108 107 74
f 103 98 100
f 100 102 103
f 98 106 100
f 106 107 100
f 107 108 100
f 100 108 102
f 76 66 77
f 76 93 66
f 77 75 76
f 75 106 76
f 106 93 76
f 63 72 71
f 72 69 71
f 254 63 71
f 71 69 254
f 448 447 379
f 379 447 378
f 448 379 370
f 379 369 370
f 369 372 361
f 361 372 406
f 245 393 383
f 245 383 247
f 394 382 383
f 383 393 394
f 385 453 429
f 429 453 446
f 406 372 405
f 372 371 405
f 405 371 377
f 377 404 405
f 403 404 377
f 377 374 403
f 274 282 281
f 274 281 273
f 275 302 274
f 302 282 274
f 251 370 369
f 251 368 370
f 369 361 251
f 251 361 249
f 456 455 392
f 392 403 374
f 360 362 392
f 365 412 392
f 392 396 360
f 392 364 365
f 392 473 472
f 392 458 456
f 362 364 392
f 449 395 392
f 472 471 392
f 392 398 396
f 412 413 392
f 461 458 392
f 392 373 461
f 392 394 393
f 374 375 392
f 392 471 470
f 455 473 392
f 470 474 392
f 413 414 392
f 392 376 373
f 392 474 449
f 392 375 376
f 395 394 392
f 402 398 392
f 414 403 392
f 280 297 298
f 279 280 298
f 332 307 350
f 350 351 332
f 356 328 355
f 327 328 356
f 391 385 386
f 391 380 381
f 382 380 391
f 391 384 383
f 383 382 391
f 381 453 391
f 391 453 385
f 386 387 391
f 391 387 388
f 388 389 391
f 391 389 390
f 327 356 357
f 357 309 327