# https://github.com/mikedh/trimesh
v 0.00691304 -0.00503212 0.01722403
v 0.00687804 -0.00507556 0.01724662
v 0.00685901 -0.00518207 0.01649681
v 0.00695735 -0.00497255 0.01722174
v 0.00698947 -0.00504974 0.01604684
v 0.00698622 -0.00505676 0.01600550
v 0.00678922 -0.00532009 0.01552453
v 0.00698699 -0.00505653 0.01599361
v 0.00703341 -0.00502306 0.01551096
v 0.00708872 -0.00490624 0.01617769
v 0.00723722 -0.00468255 0.01622451
v 0.00714789 -0.00468255 0.01728148
v 0.00696473 -0.00496209 0.01722373
v 0.00703836 -0.00497777 0.01614475
v 0.00700423 -0.00502703 0.01609338
v 0.00675594 -0.00458255 0.01979568
v 0.00667256 -0.00471331 0.01979711
v 0.00676822 -0.00458254 0.01974649
v 0.00668474 -0.00472417 0.01972028
v 0.00662416 -0.00467249 0.02008448
v 0.00650173 -0.00458278 0.02071758
v 0.00588472 -0.00418255 0.02313777
v 0.00571901 -0.00418255 0.02353394
v 0.00585515 -0.00424012 0.02312874
v 0.00482547 0.00453224 0.02478677
v 0.00476890 0.00457587 0.02480896
v 0.00434961 0.00431720 0.02600311
v 0.00455471 -0.00373254 0.02638827
v 0.00437536 -0.00373241 0.02670318
v 0.00453254 -0.00377813 0.02638126
v 0.00427115 -0.00426660 0.02621374
v 0.00427334 -0.00423717 0.02625401
v 0.00384989 -0.00396663 0.02730424
v 0.00429075 -0.00419170 0.02629069
v 0.00439375 -0.00402563 0.02633752
v 0.00394391 -0.00386187 0.02728082
v 0.00432906 -0.00412625 0.02631713
v 0.00393267 -0.00387953 0.02727846
v 0.00389068 -0.00393112 0.02728396
v 0.00401695 -0.00373254 0.02730385
v 0.00485223 -0.00749480 0.00669056
v 0.00420614 -0.00748901 0.00767687
v 0.00370778 -0.00748159 0.00839998
v 0.00313988 -0.00746866 0.00916566
v 0.00258674 -0.00745082 0.00984246
v 0.00182345 -0.00741734 0.01066147
v 0.00105283 -0.00737352 0.01136149
v 0.00103462 -0.00737237 0.01137657
v -0.00877104 0.00181018 0.01643051
v -0.00876056 0.00199697 0.01636095
v -0.01045070 0.00110255 0.00890652
v -0.00871602 0.00240611 0.01627089
v -0.01029980 0.00241332 0.00881939
v -0.01039244 0.00176056 0.00887287
v -0.00883519 0.00109877 0.01647590
v -0.01048242 -0.00000000 0.00892483
v -0.00887189 -0.00000000 0.01650209
v -0.00860426 0.00306097 0.01618448
v -0.01018122 0.00301623 0.00875093
v -0.00849311 0.00352762 0.01610573
v -0.01000615 0.00368072 0.00864985
v -0.00843564 0.00372174 0.01606799
v -0.00976947 0.00434400 0.00851321
v -0.00817980 0.00436290 0.01591737
v -0.00973343 0.00442887 0.00849239
v -0.00780637 0.00495897 0.01572859
v -0.00944740 0.00499501 0.00832726
v -0.00881824 -0.00132498 0.01646383
v -0.00876056 -0.00199697 0.01636095
v -0.01043506 -0.00132114 0.00889748
v -0.00871602 -0.00240611 0.01627089
v -0.01031906 -0.00229623 0.00883051
v -0.01029980 -0.00241332 0.00881939
v -0.01047201 -0.00066115 0.00891882
v -0.00877104 -0.00181018 0.01643051
v -0.00944740 -0.00499501 0.00832726
v -0.00780637 -0.00495897 0.01572859
v -0.00948249 -0.00493440 0.00834751
v -0.00793743 -0.00477923 0.01579189
v -0.00976098 -0.00436432 0.00850830
v -0.00817634 -0.00436984 0.01591549
v -0.00843564 -0.00372174 0.01606799
v -0.00999940 -0.00370275 0.00864595
v -0.00849311 -0.00352762 0.01610573
v -0.01018119 -0.00301637 0.00875091
v -0.00866040 -0.00598555 0.00787288
v -0.00895374 0.00567825 0.00804224
v -0.00907915 0.00552820 0.00811465
v -0.00932027 0.00519809 0.00825386
v -0.00641647 0.00714425 0.00657735
v -0.00709268 0.00695783 0.00696775
v -0.00825963 0.00632837 0.00764150
v -0.00775123 0.00666290 0.00734797
v -0.00763902 0.00672331 0.00728319
v -0.00729479 0.00688167 0.00708445
v -0.00883819 0.00580597 0.00797554
v -0.00866044 0.00598552 0.00787291
v -0.00838116 0.00623254 0.00771166
v -0.00854144 -0.00609562 0.00780420
v -0.00841180 -0.00620731 0.00772936
v -0.00791537 -0.00656601 0.00744274
v -0.00821149 -0.00636454 0.00761370
v -0.00729480 -0.00688167 0.00708445
v -0.00775123 -0.00666289 0.00734797
v -0.00641647 -0.00714425 0.00657735
v -0.00684515 -0.00703678 0.00682485
v -0.00710482 -0.00695357 0.00697477
v -0.00721100 -0.00691463 0.00703607
v -0.00898071 -0.00564704 0.00805781
v -0.00910420 -0.00549665 0.00812911
v 0.00485223 0.00749480 0.00669056
v 0.00436939 0.00749080 0.00743169
v 0.00370778 0.00748159 0.00839998
v 0.00316403 0.00746932 0.00913452
v 0.00258674 0.00745082 0.00984246
v 0.00248575 0.00744697 0.00995838
v 0.00172999 0.00741255 0.01075295
v 0.00105283 0.00737352 0.01136149
v -0.00656960 0.00594865 0.01529763
v -0.00625919 0.00610365 0.01517266
v -0.00637660 0.00604775 0.01522014
v -0.00691928 0.00574117 0.01543894
v -0.00717128 0.00556253 0.01554432
v -0.00726476 0.00548829 0.01558472
v -0.00758090 0.00519460 0.01572886
v -0.00762775 0.00514411 0.01575143
v -0.00798503 0.00464825 0.01593680
v -0.00823814 0.00415184 0.01608301
v -0.00828608 0.00403455 0.01611209
v -0.00853639 0.00320549 0.01627094
v -0.00852978 -0.00323416 0.01626660
v -0.00626532 -0.00610081 0.01517514
v -0.00637660 -0.00604775 0.01522014
v -0.00826702 -0.00408231 0.01610047
v -0.00785555 -0.00484564 0.01586678
v -0.00762775 -0.00514411 0.01575143
v -0.00724366 -0.00550548 0.01557553
v -0.00691146 -0.00574627 0.01543574
v -0.00656960 -0.00594865 0.01529763
v 0.00512923 0.00749646 0.00209320
v -0.00541647 0.00747826 0.00413909
v -0.00541647 0.00749520 0.00290676
v -0.00541647 0.00749646 0.00194465
v 0.00518530 0.00749670 0.00545798
v 0.00515968 0.00749675 0.00589202
v 0.00513509 0.00749669 0.00601778
v 0.00509829 0.00749656 0.00615731
v -0.00541647 0.00745394 0.00471037
v -0.00556014 0.00736405 0.00558963
v -0.00547944 0.00739785 0.00534320
v -0.00546061 0.00740727 0.00526317
v -0.00541647 0.00744517 0.00484530
v 0.00492948 0.00749533 0.00656067
v 0.00242739 0.00560000 -0.00390600
v 0.00189538 0.00560000 -0.00405891
v 0.00254300 0.00560000 -0.00386417
v 0.00331388 0.00560000 -0.00347366
v 0.00391776 0.00560000 -0.00295928
v 0.00131184 0.00560000 -0.00417043
v 0.00001746 0.00560000 -0.00426992
v 0.00438531 0.00560000 -0.00231134
v 0.00461140 0.00560000 -0.00184181
v -0.00635512 0.00715751 0.00654045
v -0.00772593 0.00505147 0.01571617
v -0.00503300 0.00749646 -0.00153129
v -0.00510480 0.00749646 -0.00131084
v 0.00478332 0.00749646 -0.00135322
v 0.00001370 0.00749646 -0.00426991
v -0.00072344 0.00749646 -0.00424997
v -0.00269023 0.00749646 -0.00388409
v -0.00314792 0.00749646 -0.00369519
v -0.00354919 0.00749646 -0.00347238
v 0.00130947 0.00749646 -0.00417042
v -0.00144270 0.00749646 -0.00417633
v -0.00257125 0.00749646 -0.00392408
v 0.00391755 0.00749646 -0.00295928
v 0.00331331 0.00749646 -0.00347366
v 0.00438527 0.00749646 -0.00231134
v 0.00254182 0.00749646 -0.00386417
v 0.00461139 0.00749646 -0.00184181
v 0.00242611 0.00749646 -0.00390599
v 0.00189360 0.00749646 -0.00405890
v -0.00419679 0.00749646 -0.00294168
v -0.00468129 0.00749646 -0.00229780
v 0.00489943 0.00749646 -0.00091003
v 0.00507581 0.00749646 0.00029444
v -0.00541713 0.00749646 0.00134699
v -0.00533614 0.00749646 -0.00017888
v 0.00242676 0.00653911 -0.00390600
v 0.00254242 0.00653911 -0.00386417
v 0.00331360 0.00653911 -0.00347366
v 0.00391765 0.00653911 -0.00295928
v 0.00438529 0.00653911 -0.00231134
v 0.00001562 0.00653911 -0.00426992
v 0.00131067 0.00653911 -0.00417042
v 0.00189451 0.00653911 -0.00405891
v -0.00791727 0.00477748 0.01585133
v -0.00541647 -0.00749646 0.00194465
v -0.00541647 -0.00749520 0.00290675
v -0.00541647 -0.00747826 0.00413909
v -0.00541647 -0.00745394 0.00471037
v 0.00507634 -0.00749646 0.00615706
v 0.00508131 -0.00749646 0.00589444
v 0.00508624 -0.00749646 0.00563201
v 0.00509582 -0.00749646 0.00510860
v 0.00511279 -0.00749646 0.00407313
v 0.00512667 -0.00749646 0.00281885
v 0.00512923 -0.00749646 0.00209320
v 0.00242739 -0.00560000 -0.00390600
v 0.00189538 -0.00560000 -0.00405891
v 0.00131184 -0.00560000 -0.00417043
v 0.00001746 -0.00560000 -0.00426992
v 0.00438531 -0.00560000 -0.00231134
v 0.00391776 -0.00560000 -0.00295928
v 0.00331388 -0.00560000 -0.00347366
v 0.00254300 -0.00560000 -0.00386417
v 0.00461140 -0.00560000 -0.00184181
v -0.00541647 -0.00744517 0.00484530
v -0.00546118 -0.00740697 0.00526581
v -0.00553059 -0.00737560 0.00551121
v 0.00507497 -0.00749637 0.00623004
v 0.00489302 -0.00749508 0.00662463
v -0.00772593 -0.00505147 0.01571617
v 0.00130947 -0.00749646 -0.00417042
v 0.00391755 -0.00749646 -0.00295928
v 0.00438527 -0.00749646 -0.00231134
v 0.00461139 -0.00749646 -0.00184181
v 0.00478332 -0.00749646 -0.00135322
v 0.00189360 -0.00749646 -0.00405890
v 0.00242611 -0.00749646 -0.00390599
v 0.00254182 -0.00749646 -0.00386417
v 0.00331331 -0.00749646 -0.00347366
v -0.00257125 -0.00749646 -0.00392408
v -0.00144270 -0.00749646 -0.00417633
v -0.00072344 -0.00749646 -0.00424997
v 0.00001370 -0.00749646 -0.00426991
v -0.00314792 -0.00749646 -0.00369519
v -0.00269023 -0.00749646 -0.00388409
v -0.00510480 -0.00749646 -0.00131084
v -0.00503300 -0.00749646 -0.00153129
v -0.00468129 -0.00749646 -0.00229780
v -0.00419679 -0.00749646 -0.00294168
v -0.00354919 -0.00749646 -0.00347238
v 0.00507581 -0.00749646 0.00029444
v 0.00489943 -0.00749646 -0.00091003
v -0.00533614 -0.00749646 -0.00017888
v -0.00541713 -0.00749646 0.00134699
v 0.00242676 -0.00653911 -0.00390600
v 0.00189451 -0.00653911 -0.00405891
v 0.00131067 -0.00653911 -0.00417042
v 0.00001562 -0.00653911 -0.00426992
v 0.00438529 -0.00653911 -0.00231134
v 0.00391765 -0.00653911 -0.00295928
v 0.00331360 -0.00653911 -0.00347366
v 0.00254242 -0.00653911 -0.00386417
v 0.00110122 0.00736800 0.01151517
v 0.00509613 0.00734920 0.00754120
v 0.00535064 -0.00720589 0.00751159
v 0.00527629 -0.00727456 0.00753562
v 0.00518117 -0.00731685 0.00760652
v 0.00509896 -0.00734818 0.00754665
v 0.00530674 -0.00724733 0.00758468
v 0.00531668 -0.00724058 0.00756818
v 0.00533591 -0.00722042 0.00758660
v 0.00575399 -0.00675775 0.00809814
v 0.00615873 -0.00628263 0.00865610
v 0.00325655 -0.00732845 0.01088816
v 0.00410441 -0.00734185 0.00932995
v 0.00321274 -0.00732725 0.01097093
v 0.00179800 -0.00717774 0.01418427
v 0.00169895 -0.00719749 0.01414356
v 0.00280638 -0.00731146 0.01175826
v 0.00242276 -0.00728549 0.01254206
v 0.00166775 -0.00719267 0.01421549
v 0.00095661 -0.00719336 0.01440921
v -0.00022915 -0.00713826 0.01471026
v 0.00031192 -0.00727494 0.01305296
v 0.00108358 -0.00730831 0.01283739
v 0.00045114 -0.00717649 0.01453476
v 0.00164320 -0.00731276 0.01272471
v 0.00200980 -0.00734946 0.01194190
v 0.00061878 -0.00732503 0.01223238
v 0.00141576 -0.00735226 0.01203808
v 0.00110122 -0.00736800 0.01151517
v -0.00083454 -0.00718265 0.01363418
v -0.00209448 -0.00705283 0.01413671
v -0.00042540 -0.00712499 0.01476315
v -0.00251508 -0.00691929 0.01534506
v -0.00338983 -0.00678578 0.01558806
v -0.00447313 -0.00655442 0.01589452
v -0.00575166 -0.00628929 0.01512278
v -0.00550567 -0.00638616 0.01502262
v -0.00542456 -0.00624863 0.01617861
v -0.00622911 -0.00586855 0.01643523
v -0.00803967 -0.00446342 0.01613332
v -0.00803459 0.00447263 0.01613094
v -0.00692718 0.00569294 0.01561102
v -0.00622911 0.00586855 0.01643523
v -0.00542456 0.00624863 0.01617862
v -0.00556691 0.00636690 0.01504209
v -0.00447313 0.00655441 0.01589453
v -0.00083454 0.00718265 0.01363418
v -0.00209448 0.00705283 0.01413671
v -0.00337932 0.00687089 0.01461094
v 0.00061878 0.00732502 0.01223239
v 0.00025019 0.00726294 0.01322360
v -0.00022916 0.00713826 0.01471026
v -0.00116615 0.00706651 0.01496787
v -0.00225479 0.00695252 0.01527261
v -0.00338983 0.00678578 0.01558806
v 0.00169895 0.00719749 0.01414356
v 0.00242276 0.00728549 0.01254206
v 0.00164320 0.00731275 0.01272472
v 0.00095660 0.00719336 0.01440922
v 0.00166775 0.00719267 0.01421549
v 0.00108358 0.00730831 0.01283740
v 0.00045113 0.00717649 0.01453477
v 0.00141576 0.00735226 0.01203809
v 0.00200979 0.00734946 0.01194190
v 0.00321274 0.00732725 0.01097093
v 0.00410408 0.00734185 0.00933054
v 0.00325655 0.00732845 0.01088816
v -0.00075282 0.00693454 0.01675716
v 0.00073507 0.00702001 0.01645094
v -0.00012819 0.00680177 0.01871284
v -0.00015356 0.00679401 0.01878418
v -0.00238288 0.00676651 0.01706089
v -0.00424199 0.00639482 0.01743524
v -0.00399291 0.00615741 0.01934636
v -0.00332108 0.00661288 0.01724582
v -0.00324374 0.00636548 0.01923849
v -0.00250202 0.00651256 0.01913586
v -0.00391833 0.00368616 0.02932745
v -0.00397135 0.00340355 0.02968601
v -0.00288169 0.00395026 0.03020987
v -0.00286145 0.00415562 0.02994464
v -0.00278961 0.00460577 0.02913390
v -0.00330755 0.00429709 0.02905726
v -0.00263509 0.00509683 0.02768831
v -0.00317206 0.00480903 0.02766448
v -0.00386585 0.00393593 0.02889624
v -0.00378068 0.00441147 0.02763993
v -0.00431172 0.00354710 0.02877164
v -0.00437185 0.00312182 0.02944655
v -0.00457846 0.00289602 0.02928165
v -0.00468192 0.00241489 0.02955782
v -0.00476879 0.00168642 0.02986120
v -0.00406488 0.00270151 0.03029331
v -0.00445888 0.00250758 0.02996714
v -0.00453182 0.00173385 0.03036446
v -0.00413004 0.00186212 0.03073100
v -0.00410178 0.00229470 0.03053679
v -0.00290815 0.00356871 0.03059724
v -0.00292710 0.00314189 0.03092136
v -0.00293995 0.00267645 0.03118487
v -0.00294814 0.00217908 0.03139045
v -0.00415937 0.00094826 0.03096281
v -0.00295544 0.00111479 0.03164216
v -0.00416528 -0.00000000 0.03102734
v -0.00295640 -0.00000000 0.03171637
v -0.00457144 0.00088339 0.03057932
v -0.00481973 0.00086268 0.03003622
v -0.00458253 -0.00000000 0.03063933
v -0.00483630 -0.00000000 0.03008600
v -0.00295544 -0.00111479 0.03164216
v -0.00415937 -0.00094826 0.03096281
v -0.00294815 -0.00217909 0.03139045
v -0.00413004 -0.00186213 0.03073100
v -0.00457144 -0.00088340 0.03057932
v -0.00481973 -0.00086269 0.03003622
v -0.00453182 -0.00173386 0.03036446
v -0.00476879 -0.00168642 0.02986120
v -0.00293995 -0.00267645 0.03118487
v -0.00410178 -0.00229470 0.03053679
v -0.00292691 -0.00314725 0.03091784
v -0.00406488 -0.00270151 0.03029331
v -0.00290775 -0.00357600 0.03059084
v -0.00397135 -0.00340355 0.02968601
v -0.00288168 -0.00395025 0.03020987
v -0.00445888 -0.00250758 0.02996714
v -0.00468192 -0.00241490 0.02955782
v -0.00437185 -0.00312183 0.02944655
v -0.00457846 -0.00289603 0.02928165
v -0.00317206 -0.00480903 0.02766448
v -0.00263509 -0.00509683 0.02768831
v -0.00272730 -0.00484363 0.02852082
v -0.00378068 -0.00441148 0.02763993
v -0.00381845 -0.00417150 0.02834840
v -0.00386585 -0.00393594 0.02889624
v -0.00278961 -0.00460577 0.02913390
v -0.00391833 -0.00368617 0.02932745
v -0.00286145 -0.00415563 0.02994464
v -0.00431172 -0.00354710 0.02877164
v -0.00399291 -0.00615741 0.01934636
v -0.00424198 -0.00639482 0.01743524
v -0.00250202 -0.00651256 0.01913586
v -0.00324374 -0.00636548 0.01923849
v -0.00075282 -0.00693454 0.01675716
v -0.00238288 -0.00676651 0.01706089
v 0.00016059 -0.00684855 0.01822706
v 0.00092190 -0.00702821 0.01624615
v 0.00176640 -0.00717323 0.01425591
v -0.00002354 -0.00679483 0.01874763
v -0.00012819 -0.00680177 0.01871284
v 0.00073506 -0.00702001 0.01645094
v -0.00015356 -0.00679401 0.01878418
v -0.00004821 -0.00678722 0.01881900
v -0.00069887 -0.00653002 0.02093670
v 0.00160430 -0.00642697 0.01997326
v 0.00363974 -0.00626035 0.01918855
v -0.00120040 -0.00621114 0.02308465
v 0.00117650 -0.00616215 0.02204733
v 0.00327564 -0.00604204 0.02118056
v -0.00135128 -0.00620648 0.02305373
v -0.00082829 -0.00653149 0.02090256
v -0.00136860 -0.00619321 0.02313580
v -0.00162326 -0.00581657 0.02540454
v -0.00156191 -0.00588421 0.02503452
v 0.00075398 -0.00579874 0.02440630
v -0.00121696 -0.00619812 0.02316663
v 0.00040010 -0.00532747 0.02666406
v -0.00195051 -0.00533102 0.02765748
v -0.00181437 -0.00556724 0.02665474
v 0.00284057 -0.00571105 0.02351101
v 0.00243125 -0.00525186 0.02580074
v -0.00216617 -0.00531485 0.02762205
v -0.00179671 -0.00580469 0.02537376
v -0.00236474 -0.00522152 0.02769866
v -0.00217874 -0.00529325 0.02770392
v -0.00260439 -0.00426373 0.03004629
v -0.00246133 -0.00453615 0.02970875
v -0.00253054 -0.00410079 0.03033930
v -0.00253367 -0.00472590 0.02919647
v -0.00237394 -0.00485619 0.02904382
v -0.00253158 -0.00409122 0.03035063
v -0.00253260 -0.00408161 0.03036192
v -0.00207125 -0.00531331 0.02772471
v -0.00196101 -0.00530946 0.02773960
v -0.00250048 -0.00411033 0.03034918
v -0.00244689 -0.00412301 0.03036323
v -0.00236244 -0.00413295 0.03037709
v -0.00231290 -0.00456422 0.02973949
v -0.00224367 -0.00488057 0.02906997
v -0.00218784 -0.00411777 0.03037626
v -0.00215957 -0.00455075 0.02974773
v -0.00210953 -0.00487114 0.02908292
v 0.00021536 -0.00473805 0.02838484
v 0.00215848 -0.00465834 0.02760718
v 0.00207213 -0.00429663 0.02833887
v 0.00201933 -0.00390443 0.02893355
v 0.00203431 -0.00404514 0.02874000
v 0.00227519 -0.00496983 0.02677896
v -0.00250145 -0.00410074 0.03036053
v -0.00244777 -0.00411348 0.03037468
v -0.00236314 -0.00412344 0.03038858
v -0.00218816 -0.00410827 0.03038754
v -0.00250243 -0.00409114 0.03037189
v -0.00244864 -0.00410390 0.03038611
v -0.00236382 -0.00411388 0.03040003
v -0.00218846 -0.00409872 0.03039882
v -0.00238294 -0.00371684 0.03080812
v -0.00256243 -0.00368400 0.03076398
v -0.00238775 -0.00226688 0.03164025
v -0.00257915 -0.00224653 0.03158407
v -0.00239068 -0.00277807 0.03142932
v -0.00258016 -0.00275211 0.03137606
v -0.00239057 -0.00326641 0.03115300
v -0.00257658 -0.00323589 0.03110369
v -0.00218827 -0.00226108 0.03162082
v -0.00219309 -0.00277002 0.03141192
v -0.00219652 -0.00325540 0.03113927
v -0.00219589 -0.00370308 0.03079989
v 0.00199453 -0.00347584 0.02941428
v 0.00199175 -0.00301718 0.02979202
v 0.00200440 -0.00253611 0.03007861
v 0.00202590 -0.00204030 0.03028589
v -0.00218818 -0.00224958 0.03162478
v -0.00257786 -0.00000000 0.03192020
v -0.00257767 -0.00111953 0.03184769
v -0.00257911 -0.00223518 0.03158798
v -0.00257804 -0.00168019 0.03174583
v -0.00238507 -0.00169433 0.03180447
v -0.00238769 -0.00225546 0.03164420
v -0.00218401 -0.00169021 0.03178383
v -0.00218127 -0.00112551 0.03188653
v -0.00238355 -0.00112816 0.03190790
v -0.00217939 -0.00000000 0.03195943
v -0.00238271 -0.00000000 0.03198144
v 0.00209518 -0.00000000 0.03056362
v 0.00023770 -0.00000000 0.03117379
v 0.00207240 -0.00102723 0.03051056
v 0.00021545 -0.00100000 0.03112444
v -0.00023772 -0.00000000 0.03132865
v -0.00024882 -0.00100000 0.03127557
v -0.00001667 -0.00100000 0.03120003
v -0.00218130 0.00113230 0.03188559
v -0.00024882 0.00100000 0.03127557
v -0.00001667 0.00100000 0.03120003
v 0.00021545 0.00100000 0.03112444
v 0.00207240 0.00102723 0.03051056
v -0.00218393 0.00167772 0.03178669
v 0.00202590 0.00204029 0.03028589
v -0.00218643 0.00203889 0.03169224
v -0.00218818 0.00224959 0.03162478
v -0.00233136 0.00225647 0.03164648
v -0.00240738 0.00225456 0.03164197
v -0.00240632 0.00204327 0.03170994
v -0.00223042 0.00204207 0.03170348
v -0.00222811 0.00168022 0.03179827
v -0.00222570 0.00113389 0.03189752
v -0.00257767 0.00112628 0.03184676
v -0.00240356 0.00113461 0.03190459
v -0.00257802 0.00166780 0.03174866
v -0.00240490 0.00168121 0.03180503
v -0.00257860 0.00202616 0.03165497
v -0.00257911 0.00223517 0.03158798
v -0.00257914 0.00224652 0.03158406
v 0.00199453 0.00347584 0.02941428
v -0.00219608 0.00316157 0.03119867
v 0.00199175 0.00301718 0.02979202
v -0.00219300 0.00275997 0.03141674
v 0.00200440 0.00253611 0.03007861
v -0.00218828 0.00226107 0.03162081
v 0.00201933 0.00390442 0.02893355
v -0.00218784 0.00411777 0.03037626
v -0.00218815 0.00410826 0.03038754
v -0.00218846 0.00409872 0.03039882
v -0.00219346 0.00389287 0.03062204
v -0.00233141 0.00226792 0.03164252
v -0.00229053 0.00317172 0.03121400
v -0.00239104 0.00317198 0.03121327
v -0.00248941 0.00316165 0.03119546
v -0.00254915 0.00225165 0.03159845
v -0.00222084 0.00410513 0.03040206
v -0.00227742 0.00411241 0.03040445
v -0.00228207 0.00390601 0.03063046
v -0.00236382 0.00411388 0.03040003
v -0.00237574 0.00390750 0.03062715
v -0.00253261 0.00408161 0.03036193
v -0.00246754 0.00389650 0.03061163
v -0.00255087 0.00387455 0.03058577
v -0.00257792 0.00314223 0.03116308
v -0.00222009 0.00412417 0.03037938
v -0.00222047 0.00411467 0.03039074
v -0.00227643 0.00413145 0.03038161
v -0.00227693 0.00412195 0.03039305
v -0.00236244 0.00413294 0.03037709
v -0.00236314 0.00412344 0.03038858
v -0.00253054 0.00410079 0.03033930
v -0.00253158 0.00409122 0.03035063
v -0.00215957 0.00455074 0.02974773
v -0.00231290 0.00456422 0.02973949
v -0.00224367 0.00488057 0.02906997
v -0.00210953 0.00487113 0.02908292
v -0.00207125 0.00531331 0.02772471
v -0.00196101 0.00530946 0.02773960
v -0.00246133 0.00453615 0.02970875
v -0.00237394 0.00485619 0.02904382
v -0.00217873 0.00529325 0.02770392
v -0.00236474 0.00522152 0.02769866
v -0.00253367 0.00472590 0.02919647
v -0.00260439 0.00426372 0.03004629
v 0.00207213 0.00429662 0.02833887
v 0.00021536 0.00473805 0.02838484
v 0.00040010 0.00532746 0.02666406
v -0.00195051 0.00533102 0.02765748
v 0.00213084 0.00456101 0.02782502
v 0.00215645 0.00465159 0.02762284
v 0.00234687 0.00511262 0.02631647
v 0.00243125 0.00525185 0.02580074
v 0.00075398 0.00579874 0.02440630
v 0.00118213 0.00616197 0.02204492
v -0.00120040 0.00621114 0.02308465
v -0.00121696 0.00619812 0.02316663
v -0.00140247 0.00604105 0.02413015
v -0.00172699 0.00568985 0.02606330
v 0.00284057 0.00571105 0.02351102
v 0.00327564 0.00604204 0.02118056
v -0.00216617 0.00531484 0.02762205
v -0.00136860 0.00619321 0.02313580
v -0.00179671 0.00580469 0.02537376
v 0.00160430 0.00642697 0.01997326
v -0.00069887 0.00653001 0.02093671
v -0.00002354 0.00679482 0.01874763
v -0.00004821 0.00678722 0.01881900
v 0.00363974 0.00626034 0.01918855
v -0.00135127 0.00620648 0.02305373
v -0.00082829 0.00653149 0.02090256
v 0.00176640 0.00717323 0.01425591
v 0.00163390 0.00715362 0.01455824
v 0.00070039 0.00698163 0.01679931
v 0.00179800 0.00717774 0.01418427
v 0.00518157 0.00731669 0.00760689
v 0.00617512 0.00627227 0.00862854
v 0.00620679 0.00623839 0.00855934
v 0.00532387 0.00722981 0.00760056
v 0.00527670 0.00727431 0.00753603
v 0.00533408 0.00722525 0.00753921
v 0.00622027 0.00621889 0.00866809
v 0.00629395 0.00613112 0.00863730
v 0.00705544 0.00496712 0.00930366
v 0.00667877 0.00561291 0.00905602
v 0.00663424 0.00567753 0.00902525
v 0.00670048 0.00557226 0.00896010
v 0.00723451 0.00455889 0.00941913
v 0.00741918 0.00401016 0.00954075
v 0.00764129 0.00302253 0.00969353
v 0.00752879 0.00358456 0.00961528
v 0.00745528 0.00433266 0.01108184
v 0.00764964 0.00382139 0.01108887
v 0.00782178 0.00319682 0.01109591
v 0.00764638 0.00299314 0.00969710
v 0.00782940 0.00150189 0.00982684
v 0.00789039 -0.00000000 0.00987064
v 0.00796470 0.00244679 0.01110272
v 0.00806110 0.00168482 0.01110794
v 0.00814348 -0.00000000 0.01111301
v 0.00806011 -0.00169460 0.01110788
v 0.00782177 -0.00319682 0.01109592
v 0.00774376 -0.00310108 0.01038140
v 0.00796260 -0.00246025 0.01110261
v 0.00764638 -0.00299314 0.00969709
v 0.00782940 -0.00150189 0.00982684
v 0.00764129 -0.00302253 0.00969353
v 0.00741918 -0.00401015 0.00954075
v 0.00705544 -0.00496712 0.00930366
v 0.00705890 -0.00493306 0.00921386
v 0.00742341 -0.00423847 0.01029088
v 0.00765808 -0.00379535 0.01108919
v 0.00745770 -0.00432717 0.01108192
v 0.00670048 -0.00557226 0.00896010
v 0.00629395 -0.00613112 0.00863730
v 0.00685395 -0.00533796 0.00917337
v 0.00667877 -0.00561291 0.00905602
v 0.00640052 -0.00599095 0.00885458
v 0.00773178 -0.00375189 0.01296112
v 0.00739534 -0.00451903 0.01321264
v 0.00800169 -0.00234095 0.01127920
v 0.00796413 -0.00257511 0.01134629
v 0.00783610 -0.00321731 0.01127972
v 0.00816581 -0.00001237 0.01127976
v 0.00816580 -0.00001830 0.01127979
v 0.00737818 -0.00452412 0.01127991
v 0.00753135 -0.00418746 0.01128010
v 0.00764234 -0.00389261 0.01127890
v 0.00710568 -0.00498699 0.01127900
v 0.00816564 -0.00007170 0.01127988
v 0.00812489 -0.00118969 0.01127976
v 0.00816061 -0.00041108 0.01132820
v 0.00816465 -0.00019111 0.01129447
v 0.00787924 -0.00322693 0.01275579
v 0.00808109 -0.00170477 0.01151480
v 0.00809622 -0.00172704 0.01208229
v 0.00805251 -0.00217726 0.01229232
v 0.00802379 -0.00241159 0.01240006
v 0.00736132 -0.00457892 0.01322921
v 0.00730401 -0.00467496 0.01325467
v 0.00745905 -0.00434050 0.01118222
v 0.00766293 -0.00380756 0.01118535
v 0.00782930 -0.00320739 0.01118863
v 0.00715410 -0.00490804 0.01117862
v 0.00797222 -0.00246852 0.01119212
v 0.00807102 -0.00170037 0.01119525
v 0.00815529 0.00000000 0.01119822
v 0.00816582 0.00000000 0.01127978
v 0.00812693 0.00115951 0.01127949
v 0.00814586 0.00082860 0.01127839
v 0.00807197 0.00169053 0.01119500
v 0.00816314 0.00030329 0.01127969
v 0.00816139 0.00038744 0.01127896
v 0.00797431 0.00245499 0.01119188
v 0.00782927 0.00320732 0.01118803
v 0.00783611 0.00321732 0.01127987
v 0.00796706 0.00256084 0.01127930
v 0.00801850 0.00222438 0.01127977
v 0.00812114 0.00124149 0.01127909
v 0.00812347 0.00172516 0.01256731
v 0.00814304 0.00157009 0.01263636
v 0.00803625 -0.00240206 0.01352236
v 0.00813504 -0.00161456 0.01314137
v 0.00816976 -0.00138951 0.01356446
v 0.00723428 -0.00478232 0.01374361
v 0.00723169 -0.00478624 0.01374717
v 0.00720028 -0.00483280 0.01381056
v 0.00718373 -0.00485645 0.01388894
v 0.00728618 -0.00470162 0.01369708
v 0.00736626 -0.00456781 0.01368014
v 0.00747603 -0.00436114 0.01373314
v 0.00800718 -0.00257552 0.01357112
v 0.00799606 -0.00263624 0.01361111
v 0.00787842 -0.00318896 0.01384494
v 0.00772326 -0.00374564 0.01388963
v 0.00817571 0.00128076 0.01276844
v 0.00822737 0.00069358 0.01304902
v 0.00826556 -0.00004768 0.01342550
v 0.00827257 -0.00037343 0.01359707
v 0.00753916 0.00416833 0.01127970
v 0.00745753 0.00435842 0.01127973
v 0.00737423 0.00453193 0.01127978
v 0.00718384 0.00486819 0.01127974
v 0.00802151 -0.00249283 0.01353256
v 0.00822204 -0.00090188 0.01358094
v 0.00716662 -0.00487969 0.01407195
v 0.00708694 -0.00498545 0.01441816
v 0.00713596 -0.00491917 0.01440492
v 0.00710981 -0.00494993 0.01469150
v 0.00708447 -0.00497679 0.01496576
v 0.00745659 0.00434591 0.01118153
v 0.00729769 0.00469123 0.01352157
v 0.00748267 0.00437260 0.01359684
v 0.00808928 0.00203844 0.01343273
v 0.00813076 0.00166784 0.01355216
v 0.00797084 0.00295505 0.01378413
v 0.00789928 0.00336657 0.01389901
v 0.00786433 0.00347421 0.01386243
v 0.00760752 0.00412196 0.01366352
v 0.00823952 0.00027914 0.01358645
v 0.00817311 0.00121387 0.01356552
v 0.00716880 0.00487970 0.01407291
v 0.00718644 0.00485636 0.01388979
v 0.00720469 0.00483082 0.01380773
v 0.00723625 0.00478452 0.01374682
v 0.00708306 0.00499163 0.01449480
v 0.00703300 0.00502516 0.01553857
v 0.00680410 0.00530580 0.01552529
v 0.00728200 0.00471430 0.01370320
v 0.00736117 0.00458600 0.01368133
v 0.00748601 0.00436188 0.01373614
v 0.00770789 0.00387534 0.01388427
v 0.00649538 0.00550291 0.01660460
v 0.00600578 0.00580900 0.01674196
v 0.00687225 0.00516839 0.01649277
v 0.00683966 0.00520177 0.01650271
v 0.00714911 0.00468255 0.01728186
v 0.00723867 0.00468255 0.01622497
v 0.00696638 0.00496204 0.01722425
v 0.00709031 0.00490623 0.01617819
v 0.00692930 0.00501423 0.01722158
v 0.00707093 0.00493383 0.01616976
v 0.00690999 0.00503927 0.01722712
v 0.00703033 0.00499161 0.01613418
v 0.00689063 0.00506258 0.01723768
v 0.00700089 0.00503436 0.01608199
v 0.00698894 0.00505334 0.01603311
v 0.00698850 0.00505653 0.01599409
v 0.00645585 0.00501704 0.01962731
v 0.00642635 0.00506054 0.01957866
v 0.00595383 0.00527654 0.02028905
v 0.00683308 0.00511374 0.01732846
v 0.00672485 0.00512232 0.01799136
v 0.00664589 0.00515212 0.01826387
v 0.00642002 0.00509040 0.01949197
v 0.00685930 0.00509375 0.01726600
v 0.00684171 0.00510880 0.01729677
v 0.00650822 0.00495098 0.01966422
v 0.00663564 0.00465875 0.02008088
v 0.00668339 0.00469895 0.01979781
v 0.00651610 0.00494158 0.01966699
v 0.00669516 0.00470950 0.01972358
v 0.00641649 0.00508283 0.01953282
v 0.00628633 0.00544586 0.01836778
v 0.00577447 0.00574073 0.01851065
v 0.00447232 0.00613463 0.01890238
v 0.00517685 0.00596587 0.01868263
v 0.00577165 0.00539086 0.02034282
v 0.00483820 0.00577573 0.02062658
v 0.00605038 0.00499063 0.02097400
v 0.00576341 0.00489140 0.02199399
v 0.00544355 0.00498103 0.02249856
v 0.00574862 0.00488605 0.02204403
v 0.00610319 0.00500735 0.02077560
v 0.00611341 0.00500655 0.02074888
v 0.00613478 0.00499640 0.02071824
v 0.00616634 0.00497468 0.02069218
v 0.00621503 0.00493278 0.02067317
v 0.00627588 0.00486843 0.02067638
v 0.00653356 0.00458255 0.02061650
v 0.00649324 0.00458255 0.02074492
v 0.00556014 0.00465390 0.02303493
v 0.00551400 0.00471668 0.02300046
v 0.00512330 0.00478972 0.02366477
v 0.00576305 0.00418250 0.02343386
v 0.00586413 0.00422547 0.02313128
v 0.00557031 0.00464146 0.02303864
v 0.00549096 0.00475792 0.02295768
v 0.00548485 0.00478242 0.02291397
v 0.00549168 0.00479275 0.02287423
v 0.00507492 0.00463239 0.02410764
v 0.00509634 0.00462724 0.02407540
v 0.00506844 0.00463122 0.02412296
v 0.00513620 0.00460446 0.02404145
v 0.00519278 0.00455759 0.02401925
v 0.00524750 0.00449713 0.02402199
v 0.00546485 0.00418255 0.02409052
v 0.00494546 0.00525395 0.02269255
v 0.00436657 0.00546178 0.02290674
v 0.00367453 0.00561120 0.02317344
v 0.00461909 0.00468048 0.02486881
v 0.00321152 0.00516343 0.02546573
v 0.00383706 0.00502815 0.02519683
v 0.00434411 0.00483573 0.02498194
v 0.00675606 0.00458253 0.01980062
v 0.00676942 0.00458255 0.01974655
v 0.00427316 0.00423793 0.02625320
v 0.00427116 0.00426660 0.02621373
v 0.00384953 0.00396634 0.02730515
v 0.00432727 0.00412893 0.02631654
v 0.00429035 0.00419250 0.02629022
v 0.00391077 0.00390846 0.02727933
v 0.00386491 0.00395453 0.02729583
v 0.00394453 0.00386084 0.02728102
v 0.00439775 0.00401912 0.02633879
v 0.00432906 0.00412625 0.02631713
v 0.00401694 0.00373254 0.02730385
v 0.00443384 0.00373254 0.02660184
v 0.00453997 0.00376354 0.02638362
v 0.00325656 0.00376507 0.02834346
v 0.00343303 0.00372155 0.02819154
v 0.00350551 0.00404837 0.02768492
v 0.00377470 0.00398745 0.02739293
v 0.00374192 0.00432920 0.02693165
v 0.00378556 0.00399133 0.02737159
v 0.00381116 0.00398727 0.02733787
v 0.00428584 0.00427967 0.02616917
v 0.00284794 0.00458241 0.02733123
v 0.00336003 0.00448057 0.02710284
v 0.00317857 0.00416078 0.02785937
v 0.00296855 0.00381635 0.02852894
v 0.00455520 0.00373254 0.02638843
v 0.00588658 0.00418255 0.02313836
v 0.00312419 0.00343914 0.02882654
v 0.00271232 0.00298195 0.02950505
v 0.00273227 0.00302078 0.02946547
v 0.00277900 0.00307530 0.02939752
v 0.00290900 0.00340987 0.02902452
v 0.00273929 0.00285074 0.02958274
v 0.00271104 0.00292778 0.02954470
v 0.00282234 0.00273628 0.02961018
v 0.00290871 0.00249330 0.02969816
v 0.00299164 0.00258052 0.02959020
v 0.00303812 0.00254620 0.02957301
v 0.00261453 0.00201022 0.03007525
v 0.00293760 0.00200284 0.02990620
v 0.00324198 0.00201872 0.02963603
v 0.00353878 0.00206672 0.02922811
v 0.00343748 0.00102445 0.02969236
v 0.00384269 0.00107014 0.02907279
v 0.00377516 0.00176453 0.02898580
v 0.00266780 0.00100993 0.03029804
v 0.00269353 -0.00000000 0.03034851
v 0.00308434 0.00100669 0.03006304
v 0.00311330 -0.00000000 0.03011073
v 0.00347185 -0.00000000 0.02973474
v 0.00388654 -0.00000000 0.02910503
v 0.00410349 0.00128513 0.02858666
v 0.00433654 0.00076860 0.02828080
v 0.00443937 0.00020921 0.02814700
v 0.00444717 -0.00000000 0.02813686
v 0.00385527 -0.00089607 0.02908438
v 0.00343748 -0.00102445 0.02969236
v 0.00308434 -0.00100670 0.03006304
v 0.00266780 -0.00100993 0.03029804
v 0.00377516 -0.00176453 0.02898580
v 0.00353877 -0.00206672 0.02922812
v 0.00324198 -0.00201872 0.02963603
v 0.00293760 -0.00200285 0.02990620
v 0.00261453 -0.00201023 0.03007525
v 0.00410349 -0.00128513 0.02858666
v 0.00437941 -0.00060708 0.02822499
v 0.00418762 -0.00113902 0.02847567
v 0.00271939 -0.00289575 0.02956269
v 0.00276098 -0.00281472 0.02959485
v 0.00290871 -0.00249331 0.02969816
v 0.00287186 -0.00268451 0.02961182
v 0.00303812 -0.00254620 0.02957301
v 0.00277940 -0.00307615 0.02939663
v 0.00273227 -0.00302078 0.02946547
v 0.00272047 -0.00300312 0.02948507
v 0.00270877 -0.00295527 0.02952630
v 0.00290900 -0.00340987 0.02902452
v 0.00296854 -0.00381636 0.02852894
v 0.00312414 -0.00343928 0.02882645
v 0.00325656 -0.00376507 0.02834346
v 0.00343260 -0.00372167 0.02819195
v 0.00322611 -0.00239598 0.02947478
v 0.00434960 -0.00431720 0.02600315
v 0.00476890 -0.00457587 0.02480896
v 0.00482555 -0.00453218 0.02478673
v 0.00321152 -0.00516343 0.02546573
v 0.00383706 -0.00502815 0.02519683
v 0.00358454 -0.00476891 0.02621171
v 0.00317857 -0.00416079 0.02785937
v 0.00428589 -0.00427961 0.02616918
v 0.00374192 -0.00432920 0.02693165
v 0.00382592 -0.00398147 0.02732261
v 0.00379370 -0.00399236 0.02735797
v 0.00350551 -0.00404837 0.02768492
v 0.00377397 -0.00398850 0.02739269
v 0.00461909 -0.00468048 0.02486881
v 0.00434411 -0.00483573 0.02498194
v 0.00336003 -0.00448057 0.02710284
v 0.00494546 -0.00525396 0.02269255
v 0.00543996 -0.00497890 0.02251244
v 0.00595383 -0.00527654 0.02028905
v 0.00577165 -0.00539086 0.02034282
v 0.00483820 -0.00577573 0.02062658
v 0.00436657 -0.00546178 0.02290674
v 0.00367453 -0.00561120 0.02317344
v 0.00546485 -0.00418255 0.02409052
v 0.00524755 -0.00449707 0.02402200
v 0.00511547 -0.00461767 0.02405649
v 0.00508629 -0.00463073 0.02408836
v 0.00548489 -0.00477928 0.02292127
v 0.00548931 -0.00479153 0.02288242
v 0.00549168 -0.00479275 0.02287421
v 0.00574830 -0.00488593 0.02204512
v 0.00516147 -0.00458534 0.02402853
v 0.00549280 -0.00475380 0.02296310
v 0.00551882 -0.00470940 0.02300598
v 0.00506845 -0.00463122 0.02412293
v 0.00557030 -0.00464147 0.02303864
v 0.00521769 -0.00453216 0.02401725
v 0.00614271 -0.00499145 0.02071030
v 0.00611763 -0.00500504 0.02074135
v 0.00618344 -0.00496095 0.02068319
v 0.00623928 -0.00490879 0.02067087
v 0.00627593 -0.00486836 0.02067640
v 0.00649490 -0.00458033 0.02074496
v 0.00610325 -0.00500729 0.02077562
v 0.00602656 -0.00498282 0.02106251
v 0.00576354 -0.00489143 0.02199358
v 0.00649538 -0.00550291 0.01660460
v 0.00628633 -0.00544587 0.01836778
v 0.00633762 -0.00561477 0.01664947
v 0.00577447 -0.00574074 0.01851065
v 0.00447232 -0.00613463 0.01890238
v 0.00517685 -0.00596588 0.01868263
v 0.00600578 -0.00580900 0.01674196
v 0.00667727 -0.00512192 0.01825475
v 0.00642008 -0.00509034 0.01949200
v 0.00641877 -0.00508990 0.01949838
v 0.00641697 -0.00508093 0.01953808
v 0.00642737 -0.00505888 0.01958102
v 0.00651615 -0.00494152 0.01966701
v 0.00646021 -0.00501123 0.01963189
v 0.00686127 -0.00509195 0.01726331
v 0.00684339 -0.00510753 0.01729273
v 0.00683304 -0.00511379 0.01732844
v 0.00672464 -0.00512233 0.01799254
v 0.00649907 0.00216995 0.02232474
v 0.00649575 0.00185782 0.02249221
v 0.00648222 0.00165317 0.02261423
v 0.00640448 0.00110010 0.02299089
v 0.00634628 0.00082479 0.02319765
v 0.00620158 0.00027704 0.02363178
v 0.00591681 -0.00058056 0.02431409
v 0.00573152 0.00191048 0.02442192
v 0.00747760 0.00253044 0.01814928
v 0.00745530 0.00052007 0.01936053
v 0.00752784 0.00132288 0.01880074
v 0.00752965 0.00194094 0.01843516
v 0.00751642 0.00216787 0.01831777
v 0.00708832 -0.00130444 0.02074348
v 0.00727105 -0.00052761 0.02017473
v 0.00735455 -0.00011183 0.01984807
v 0.00690979 -0.00193731 0.02113550
v 0.00671524 -0.00251784 0.02141514
v 0.00616747 -0.00206335 0.02329629
v 0.00638224 -0.00147382 0.02295427
v 0.00661870 -0.00073081 0.02242232
v 0.00686683 0.00019962 0.02167750
v 0.00703289 0.00106757 0.02100616
v 0.00709079 0.00166113 0.02060694
v 0.00709232 0.00219728 0.02031781
v 0.00735809 -0.00225010 0.01912056
v 0.00779445 0.00134193 0.01677535
v 0.00779845 0.00108880 0.01692642
v 0.00778488 0.00048260 0.01731373
v 0.00776445 0.00015056 0.01753959
v 0.00753237 -0.00151472 0.01870106
v 0.00755521 -0.00140000 0.01862682
v 0.00777702 -0.00172236 0.01659681
v 0.00766318 -0.00234070 0.01693447
f 176 177 145
f 145 177 179
f 148 306 305
f 347 49 362
f 58 347 346
f 145 180 178
f 178 176 145
f 181 182 145
f 145 179 181
f 173 159 160
f 145 182 173
f 145 174 175
f 370 57 68
f 82 80 134
f 302 306 148
f 363 369 366
f 145 593 597
f 761 730 731
f 730 597 731
f 228 614 245
f 614 623 245
f 167 180 145
f 120 94 121
f 318 116 117
f 117 118 318
f 320 111 112
f 56 184 241
f 83 80 82
f 84 83 82
f 73 71 72
f 70 241 72
f 88 66 164
f 97 98 166
f 166 98 92
f 55 57 362
f 362 49 55
f 52 347 58
f 346 345 62
f 177 176 191
f 176 157 191
f 182 159 195
f 195 173 182
f 159 173 195
f 171 172 145
f 75 370 68
f 68 70 75
f 70 72 75
f 362 57 364
f 57 370 364
f 364 370 369
f 369 363 364
f 317 306 307
f 306 302 307
f 302 308 307
f 553 556 555
f 554 556 553
f 814 818 845
f 827 817 819
f 819 817 818
f 835 524 518
f 518 524 527
f 359 363 366
f 357 363 359
f 344 345 349
f 349 345 346
f 361 363 357
f 361 347 362
f 362 364 361
f 361 364 363
f 351 361 357
f 351 355 352
f 488 510 512
f 488 512 478
f 551 524 563
f 525 524 551
f 354 355 542
f 352 355 354
f 617 623 614
f 614 613 617
f 710 728 716
f 716 699 710
f 716 728 735
f 735 736 734
f 734 714 735
f 733 730 749
f 737 736 735
f 735 724 737
f 724 739 737
f 732 725 733
f 145 725 144
f 144 186 145
f 144 140 186
f 600 725 724
f 140 144 600
f 598 725 145
f 733 725 598
f 593 147 257
f 257 321 763
f 593 257 764
f 764 257 763
f 313 311 312
f 320 112 312
f 312 112 113
f 312 113 114
f 326 585 325
f 317 307 325
f 325 308 326
f 325 307 308
f 622 245 623
f 605 186 601
f 605 606 186
f 605 610 606
f 601 697 605
f 697 610 605
f 607 615 612
f 186 606 185
f 145 186 185
f 185 167 145
f 185 607 612
f 612 613 185
f 614 167 185
f 185 613 614
f 180 167 162
f 162 161 180
f 587 332 580
f 332 587 588
f 588 587 573
f 145 172 183
f 183 184 145
f 165 166 145
f 145 184 165
f 256 118 305
f 305 318 256
f 256 318 118
f 316 305 306
f 316 318 305
f 313 318 316
f 316 314 313
f 316 306 317
f 317 314 316
f 319 115 116
f 319 318 313
f 116 318 319
f 114 115 319
f 319 312 114
f 313 312 319
f 153 257 147
f 321 257 153
f 153 111 320
f 146 593 145
f 146 147 593
f 56 241 74
f 74 241 70
f 74 57 56
f 74 70 68
f 68 57 74
f 73 72 240
f 240 72 241
f 80 83 240
f 239 76 240
f 100 102 137
f 239 102 100
f 110 76 239
f 127 345 344
f 579 560 559
f 553 555 559
f 559 555 579
f 125 97 96
f 96 126 125
f 96 97 166
f 121 94 93
f 93 119 121
f 123 92 98
f 49 347 50
f 347 52 50
f 346 62 60
f 60 62 61
f 129 62 345
f 166 165 67
f 67 165 65
f 67 65 64
f 64 127 67
f 67 127 197
f 193 178 180
f 180 161 193
f 182 181 196
f 181 155 196
f 196 159 182
f 196 155 159
f 158 193 161
f 178 193 158
f 225 232 254
f 254 215 225
f 253 215 214
f 225 215 253
f 253 226 225
f 253 214 226
f 156 191 157
f 177 191 156
f 224 250 229
f 224 236 251
f 251 212 224
f 145 173 168
f 145 175 170
f 170 171 145
f 69 72 71
f 69 75 72
f 854 846 853
f 852 853 846
f 791 25 792
f 792 25 793
f 818 817 831
f 845 818 831
f 831 841 845
f 828 817 827
f 827 563 828
f 828 563 524
f 828 524 835
f 835 831 828
f 828 831 817
f 815 845 829
f 815 814 845
f 542 355 533
f 348 349 352
f 352 354 348
f 344 349 348
f 356 351 357
f 355 351 356
f 361 351 350
f 347 361 350
f 352 349 350
f 350 351 352
f 350 346 347
f 350 349 346
f 513 356 357
f 515 356 513
f 357 359 358
f 358 359 360
f 358 513 357
f 527 524 526
f 524 525 526
f 531 540 532
f 542 533 532
f 552 554 553
f 551 554 552
f 353 348 354
f 353 354 542
f 977 960 978
f 717 718 977
f 717 978 696
f 977 978 717
f 696 695 717
f 717 695 694
f 694 718 717
f 675 615 671
f 671 674 675
f 615 674 671
f 672 610 673
f 673 610 714
f 673 674 672
f 714 674 673
f 697 716 715
f 714 610 715
f 715 610 697
f 735 714 715
f 698 716 697
f 699 716 698
f 697 708 698
f 601 699 698
f 698 708 601
f 741 739 724
f 741 732 739
f 739 732 738
f 736 737 738
f 738 737 739
f 594 144 725
f 145 597 596
f 596 598 145
f 596 597 730
f 596 730 733
f 733 598 596
f 593 764 762
f 762 597 593
f 762 731 597
f 761 731 762
f 566 555 556
f 790 25 791
f 592 312 311
f 584 325 585
f 625 245 624
f 245 622 624
f 672 674 611
f 611 674 615
f 611 610 672
f 606 610 611
f 608 185 606
f 607 185 608
f 606 611 608
f 615 607 608
f 608 611 615
f 94 120 95
f 147 146 143
f 143 146 145
f 148 90 152
f 303 308 152
f 152 302 148
f 152 308 302
f 326 308 323
f 583 585 326
f 326 588 583
f 583 588 573
f 579 555 576
f 555 566 576
f 300 95 120
f 91 95 300
f 63 165 61
f 65 165 63
f 61 62 63
f 62 129 63
f 64 65 63
f 63 129 64
f 322 153 320
f 321 153 322
f 320 763 322
f 763 321 322
f 73 240 85
f 85 240 83
f 83 84 85
f 84 131 85
f 85 71 73
f 85 131 71
f 80 240 78
f 78 240 76
f 137 102 138
f 102 101 138
f 99 137 86
f 99 100 137
f 99 86 239
f 239 100 99
f 133 104 132
f 132 293 133
f 239 86 109
f 109 110 239
f 76 110 79
f 79 78 76
f 64 345 296
f 296 127 64
f 345 127 296
f 343 164 66
f 343 126 164
f 66 197 343
f 343 127 344
f 197 127 343
f 126 96 87
f 88 164 87
f 164 126 87
f 87 166 88
f 87 96 166
f 98 97 124
f 124 123 98
f 124 97 125
f 125 342 124
f 342 123 124
f 92 123 122
f 119 93 122
f 122 93 92
f 54 50 52
f 49 50 54
f 54 165 184
f 54 55 49
f 58 346 130
f 130 60 58
f 346 60 130
f 128 345 64
f 64 129 128
f 128 129 345
f 88 166 89
f 166 67 89
f 89 66 88
f 89 197 66
f 89 67 197
f 229 250 211
f 250 224 211
f 211 224 212
f 231 230 248
f 248 209 231
f 230 210 248
f 210 209 248
f 192 158 157
f 192 157 176
f 176 178 192
f 178 158 192
f 214 213 252
f 226 214 252
f 252 227 226
f 252 213 227
f 227 213 217
f 228 227 217
f 215 254 216
f 216 254 232
f 190 179 177
f 177 156 190
f 154 190 156
f 179 190 154
f 194 173 160
f 194 168 173
f 169 174 145
f 145 168 169
f 81 134 80
f 80 78 81
f 78 79 81
f 81 79 295
f 772 771 773
f 829 845 848
f 848 855 829
f 845 846 848
f 856 855 847
f 854 856 847
f 847 846 854
f 847 848 846
f 855 848 847
f 829 855 782
f 782 855 856
f 835 518 834
f 834 831 835
f 849 842 502
f 502 842 522
f 843 842 849
f 816 815 829
f 815 816 812
f 818 814 811
f 814 815 811
f 815 812 811
f 522 520 519
f 344 348 334
f 334 353 335
f 348 353 334
f 517 533 355
f 355 356 517
f 360 478 511
f 511 358 360
f 511 478 512
f 512 513 511
f 513 358 511
f 538 540 531
f 531 536 538
f 527 526 534
f 558 552 553
f 553 559 558
f 558 559 560
f 558 337 561
f 335 549 562
f 958 962 714
f 714 734 958
f 958 803 962
f 734 803 958
f 981 959 965
f 714 962 713
f 713 674 714
f 675 674 713
f 667 617 613
f 613 666 667
f 667 666 694
f 616 666 613
f 612 615 616
f 616 613 612
f 616 615 675
f 609 697 601
f 601 708 609
f 609 708 697
f 729 716 735
f 735 715 729
f 729 715 716
f 745 741 724
f 724 725 745
f 725 732 745
f 745 732 744
f 723 600 724
f 595 600 144
f 144 594 595
f 595 594 725
f 791 781 789
f 789 790 791
f 311 590 589
f 589 592 311
f 315 590 311
f 313 314 315
f 315 311 313
f 590 315 591
f 696 649 650
f 681 983 690
f 640 651 645
f 679 681 690
f 680 681 654
f 244 245 625
f 621 624 622
f 221 199 198
f 198 202 221
f 141 90 148
f 141 91 90
f 141 115 114
f 116 115 141
f 117 116 141
f 141 118 117
f 148 305 141
f 305 118 141
f 94 95 188
f 145 166 188
f 188 93 94
f 166 92 188
f 92 93 188
f 90 310 163
f 151 152 90
f 90 163 151
f 580 332 330
f 330 331 580
f 332 588 327
f 327 330 332
f 310 330 327
f 572 583 573
f 585 583 572
f 565 576 566
f 565 566 556
f 565 569 570
f 556 554 565
f 299 329 328
f 299 300 120
f 579 329 299
f 299 120 121
f 299 560 579
f 41 42 199
f 43 44 199
f 199 42 43
f 857 856 854
f 854 853 859
f 859 869 854
f 690 983 691
f 691 651 690
f 406 408 415
f 285 201 277
f 287 286 285
f 44 43 273
f 133 293 294
f 71 131 372
f 372 69 71
f 369 370 372
f 372 371 369
f 370 75 372
f 75 69 372
f 288 406 399
f 399 406 415
f 103 132 104
f 106 198 199
f 107 198 106
f 106 201 105
f 105 290 106
f 106 290 107
f 86 137 136
f 136 109 86
f 341 342 125
f 125 126 341
f 126 343 341
f 119 122 298
f 121 119 298
f 298 299 121
f 560 299 298
f 340 123 342
f 53 52 58
f 53 54 52
f 165 54 53
f 55 54 51
f 56 57 51
f 57 55 51
f 51 184 56
f 51 54 184
f 249 211 210
f 229 211 249
f 249 230 229
f 249 210 230
f 209 216 255
f 231 209 255
f 232 231 255
f 255 216 232
f 189 154 155
f 189 155 181
f 189 181 179
f 179 154 189
f 830 782 856
f 974 803 802
f 962 803 974
f 974 830 950
f 518 520 833
f 833 834 518
f 851 843 849
f 851 852 846
f 849 850 851
f 850 852 851
f 845 841 844
f 841 843 844
f 844 846 845
f 844 851 846
f 843 851 844
f 834 838 840
f 841 831 840
f 831 834 840
f 836 838 834
f 836 833 837
f 834 833 836
f 522 838 836
f 836 520 522
f 837 520 836
f 842 843 839
f 522 842 839
f 839 838 522
f 839 840 838
f 839 843 841
f 841 840 839
f 820 819 818
f 823 822 820
f 794 812 816
f 829 782 794
f 794 816 829
f 794 782 793
f 793 25 794
f 25 27 794
f 528 519 520
f 528 520 518
f 528 518 527
f 527 534 528
f 528 534 536
f 516 356 515
f 516 517 356
f 515 533 516
f 533 517 516
f 564 554 551
f 551 563 564
f 564 565 554
f 569 565 564
f 827 819 826
f 766 764 763
f 766 762 764
f 544 526 525
f 544 534 526
f 535 538 536
f 536 534 535
f 534 544 535
f 540 539 541
f 541 353 542
f 335 353 541
f 541 539 335
f 542 532 541
f 541 532 540
f 335 539 550
f 550 549 335
f 561 337 557
f 557 558 561
f 552 558 557
f 557 562 549
f 979 978 960
f 960 959 979
f 959 981 979
f 696 978 979
f 979 981 696
f 982 981 983
f 982 681 702
f 983 681 982
f 982 702 696
f 696 981 982
f 712 713 976
f 977 718 976
f 718 712 976
f 675 713 677
f 617 667 670
f 694 695 670
f 670 667 694
f 668 616 675
f 743 745 744
f 741 745 743
f 744 732 743
f 732 741 743
f 749 742 753
f 753 742 732
f 753 732 733
f 740 738 732
f 732 742 740
f 750 740 742
f 750 742 749
f 738 740 750
f 736 738 750
f 750 734 736
f 750 730 761
f 750 749 730
f 600 723 603
f 186 140 603
f 140 600 603
f 727 728 710
f 735 728 727
f 725 600 599
f 599 595 725
f 600 595 599
f 781 790 788
f 788 789 781
f 790 789 788
f 325 584 324
f 584 591 324
f 317 325 324
f 324 314 317
f 324 315 314
f 324 591 315
f 647 650 617
f 696 650 647
f 681 679 655
f 655 654 681
f 679 701 655
f 627 244 625
f 626 244 627
f 631 244 633
f 633 244 626
f 633 626 643
f 624 621 620
f 625 624 620
f 618 622 623
f 618 621 622
f 632 9 7
f 142 143 91
f 91 141 142
f 113 112 142
f 114 113 142
f 142 141 114
f 142 112 111
f 111 153 142
f 142 153 147
f 147 143 142
f 91 143 187
f 187 95 91
f 187 188 95
f 187 143 145
f 145 188 187
f 149 163 310
f 310 327 309
f 303 152 309
f 152 151 309
f 309 308 303
f 309 323 308
f 326 323 309
f 309 588 326
f 309 327 588
f 328 331 301
f 331 330 301
f 301 330 310
f 91 300 301
f 301 299 328
f 300 299 301
f 90 91 301
f 301 310 90
f 582 591 584
f 582 584 585
f 585 572 582
f 580 575 574
f 574 587 580
f 573 587 574
f 576 575 581
f 581 331 328
f 580 331 581
f 581 575 580
f 328 329 581
f 579 576 581
f 581 329 579
f 571 565 570
f 571 574 575
f 571 575 576
f 576 565 571
f 571 572 573
f 573 574 571
f 932 7 3
f 905 906 935
f 905 933 904
f 935 933 905
f 937 906 936
f 935 906 937
f 936 261 937
f 936 906 413
f 631 633 634
f 634 244 631
f 208 244 634
f 634 632 208
f 634 635 632
f 704 634 705
f 635 634 704
f 964 981 965
f 904 933 940
f 933 932 949
f 967 966 22
f 22 928 967
f 967 928 966
f 966 928 16
f 16 18 975
f 975 966 16
f 277 201 282
f 44 273 281
f 281 273 280
f 44 281 45
f 105 219 220
f 277 279 276
f 276 285 277
f 287 285 276
f 405 279 275
f 404 279 405
f 404 276 279
f 287 276 404
f 398 406 288
f 288 286 398
f 398 286 287
f 287 404 398
f 398 404 406
f 201 285 218
f 218 285 286
f 218 286 288
f 288 219 218
f 105 201 218
f 218 219 105
f 272 43 42
f 272 273 43
f 42 41 272
f 133 294 139
f 139 294 138
f 139 138 101
f 139 104 133
f 139 101 104
f 137 138 384
f 384 387 137
f 368 371 374
f 368 367 366
f 366 369 368
f 369 371 368
f 397 416 427
f 292 290 293
f 107 290 292
f 288 399 289
f 289 219 288
f 289 220 219
f 289 290 105
f 105 220 289
f 488 478 479
f 479 486 488
f 479 478 360
f 487 510 488
f 484 486 482
f 373 374 375
f 373 368 374
f 367 368 373
f 246 103 104
f 104 101 246
f 246 102 239
f 246 101 102
f 135 79 77
f 77 79 110
f 342 341 338
f 338 340 342
f 337 340 338
f 333 341 343
f 333 343 344
f 344 334 333
f 333 338 341
f 339 558 560
f 560 298 339
f 337 558 339
f 339 340 337
f 339 298 122
f 122 340 339
f 297 122 123
f 123 340 297
f 297 340 122
f 59 53 58
f 58 60 59
f 59 60 61
f 61 165 59
f 165 53 59
f 773 771 767
f 769 768 767
f 784 792 793
f 950 830 951
f 951 830 952
f 957 830 856
f 952 830 957
f 768 784 778
f 961 974 960
f 962 974 961
f 961 960 977
f 977 976 961
f 961 713 962
f 961 976 713
f 832 520 837
f 837 833 832
f 832 833 520
f 496 501 510
f 499 501 496
f 496 498 499
f 497 498 496
f 510 487 496
f 496 487 497
f 500 501 499
f 849 502 500
f 502 501 500
f 514 513 512
f 515 513 514
f 809 811 812
f 818 811 809
f 809 820 818
f 809 810 820
f 823 820 806
f 820 810 806
f 531 529 521
f 522 519 521
f 521 502 522
f 531 532 506
f 506 529 531
f 506 532 533
f 569 564 568
f 824 27 821
f 821 805 824
f 821 826 819
f 822 805 821
f 819 820 821
f 821 820 822
f 578 766 763
f 578 582 572
f 591 582 578
f 762 766 765
f 761 762 765
f 543 525 551
f 543 544 525
f 552 557 547
f 547 557 549
f 711 713 712
f 711 677 713
f 693 718 694
f 693 712 718
f 694 666 693
f 693 711 712
f 695 665 669
f 669 670 695
f 617 670 669
f 666 616 676
f 616 668 676
f 676 693 666
f 774 747 773
f 773 767 774
f 774 767 775
f 746 774 775
f 747 774 746
f 773 747 760
f 733 749 754
f 754 753 733
f 749 753 754
f 759 803 734
f 734 750 759
f 802 803 759
f 719 603 723
f 719 724 735
f 719 723 724
f 709 727 700
f 710 699 700
f 700 727 710
f 722 700 721
f 709 700 722
f 721 719 722
f 664 647 617
f 664 669 665
f 617 669 664
f 641 695 696
f 641 665 695
f 641 664 665
f 647 664 641
f 640 645 659
f 659 629 640
f 645 629 659
f 643 626 658
f 658 644 643
f 689 679 690
f 689 701 679
f 690 651 689
f 651 655 689
f 689 655 701
f 702 681 653
f 653 681 680
f 680 654 653
f 639 651 640
f 639 655 651
f 628 629 645
f 626 627 628
f 625 629 628
f 628 627 625
f 628 644 626
f 645 644 628
f 625 620 619
f 619 629 625
f 619 620 621
f 648 618 623
f 623 617 648
f 617 650 648
f 648 650 649
f 648 649 696
f 696 702 648
f 702 653 648
f 208 632 265
f 150 151 163
f 163 149 150
f 310 151 150
f 150 149 310
f 304 151 310
f 310 309 304
f 304 309 151
f 221 261 222
f 222 199 221
f 222 41 199
f 938 933 935
f 7 932 263
f 221 202 263
f 263 205 206
f 405 275 274
f 274 275 280
f 936 413 410
f 410 272 936
f 273 272 410
f 643 656 661
f 661 633 643
f 646 634 661
f 661 634 633
f 637 656 643
f 3 7 8
f 8 7 9
f 860 859 853
f 853 852 860
f 859 860 863
f 981 964 980
f 975 983 980
f 983 981 980
f 944 940 939
f 939 940 933
f 933 949 939
f 948 932 3
f 948 949 932
f 18 16 17
f 945 940 944
f 944 926 945
f 277 282 278
f 280 275 278
f 278 279 277
f 278 275 279
f 401 410 413
f 405 274 401
f 274 410 401
f 293 290 395
f 395 394 293
f 395 290 397
f 397 427 395
f 395 427 394
f 434 433 386
f 386 433 390
f 386 384 138
f 374 371 380
f 394 427 426
f 293 394 426
f 426 427 423
f 132 103 291
f 103 292 291
f 293 132 291
f 291 292 293
f 396 289 399
f 396 399 415
f 396 416 397
f 397 290 396
f 290 289 396
f 482 486 481
f 486 479 481
f 366 367 481
f 247 198 107
f 110 109 223
f 223 77 110
f 109 136 223
f 336 334 335
f 336 333 334
f 335 562 336
f 338 333 336
f 562 557 336
f 336 557 337
f 337 338 336
f 780 781 791
f 858 955 857
f 858 956 955
f 869 956 858
f 854 869 858
f 858 857 854
f 968 869 22
f 756 758 776
f 768 778 776
f 775 767 776
f 776 767 768
f 830 778 783
f 783 778 784
f 782 830 783
f 793 782 783
f 783 784 793
f 510 501 509
f 509 512 510
f 509 514 512
f 807 806 810
f 531 521 530
f 530 521 519
f 530 536 531
f 530 528 536
f 519 528 530
f 515 514 507
f 507 533 515
f 507 506 533
f 502 521 523
f 523 504 502
f 523 521 529
f 529 504 523
f 569 568 825
f 827 826 825
f 825 563 827
f 801 800 826
f 826 821 801
f 796 766 797
f 766 578 797
f 586 589 590
f 590 591 586
f 591 578 586
f 592 589 586
f 312 592 586
f 586 578 763
f 586 763 320
f 320 312 586
f 769 765 795
f 795 766 796
f 795 765 766
f 795 781 769
f 795 801 781
f 796 800 795
f 800 801 795
f 769 767 748
f 748 765 769
f 748 767 771
f 771 772 748
f 748 772 773
f 773 760 748
f 761 765 748
f 545 543 551
f 551 552 545
f 552 547 545
f 549 550 548
f 548 547 549
f 548 545 547
f 677 711 678
f 711 693 678
f 693 676 678
f 678 676 668
f 675 677 678
f 678 668 675
f 751 750 761
f 758 759 751
f 751 759 750
f 757 758 756
f 757 759 758
f 757 756 802
f 802 759 757
f 721 603 720
f 720 719 721
f 603 719 720
f 602 603 721
f 721 700 602
f 186 603 602
f 604 699 601
f 604 700 699
f 604 602 700
f 601 186 604
f 186 602 604
f 735 727 726
f 726 719 735
f 726 722 719
f 726 727 709
f 709 722 726
f 696 647 642
f 642 641 696
f 647 641 642
f 626 644 630
f 630 658 626
f 644 658 630
f 662 639 640
f 662 619 621
f 640 629 660
f 629 619 660
f 660 662 640
f 619 662 660
f 618 648 663
f 208 265 207
f 632 7 266
f 266 265 632
f 7 265 266
f 264 265 7
f 7 263 264
f 264 263 206
f 260 261 221
f 935 937 260
f 260 937 261
f 205 263 204
f 934 932 933
f 933 938 934
f 413 412 409
f 409 401 413
f 273 410 270
f 657 682 646
f 646 661 657
f 657 661 656
f 643 644 688
f 688 637 643
f 6 5 3
f 3 8 6
f 6 8 5
f 3 5 15
f 5 8 15
f 865 860 861
f 861 860 852
f 861 852 850
f 850 862 861
f 489 862 850
f 489 850 849
f 849 500 489
f 489 500 499
f 488 486 485
f 485 487 488
f 486 484 485
f 859 863 868
f 863 28 868
f 963 980 964
f 963 966 975
f 975 980 963
f 969 956 869
f 869 968 969
f 22 966 969
f 969 968 22
f 856 857 953
f 953 957 856
f 952 957 953
f 965 959 972
f 952 953 972
f 2 13 949
f 949 948 2
f 20 17 16
f 944 17 20
f 944 939 19
f 19 17 944
f 19 939 949
f 18 17 19
f 200 282 201
f 46 47 200
f 200 45 46
f 200 106 199
f 201 106 200
f 199 44 200
f 44 45 200
f 283 278 282
f 283 47 46
f 280 278 283
f 283 281 280
f 46 45 283
f 283 45 281
f 428 429 434
f 434 386 428
f 428 426 429
f 428 294 293
f 293 426 428
f 375 374 376
f 374 380 376
f 376 380 382
f 388 389 136
f 137 387 388
f 388 136 137
f 390 389 388
f 388 386 390
f 387 384 388
f 384 386 388
f 136 389 393
f 393 223 136
f 77 223 393
f 135 77 393
f 393 79 135
f 295 79 393
f 393 382 295
f 382 380 383
f 383 81 295
f 295 382 383
f 134 81 383
f 82 134 383
f 391 389 390
f 390 392 391
f 382 393 391
f 391 393 389
f 434 442 431
f 431 433 434
f 390 433 431
f 431 392 390
f 414 396 415
f 416 396 414
f 414 420 416
f 482 481 480
f 480 481 367
f 366 481 365
f 365 481 479
f 365 479 360
f 365 359 366
f 360 359 365
f 442 446 445
f 445 446 447
f 434 429 443
f 443 442 434
f 443 446 442
f 906 905 902
f 902 907 906
f 908 413 906
f 906 907 908
f 108 247 107
f 107 292 108
f 108 292 103
f 246 247 108
f 103 246 108
f 779 780 791
f 791 792 779
f 792 784 779
f 769 781 787
f 756 776 777
f 777 776 778
f 802 756 777
f 777 974 802
f 830 974 777
f 777 778 830
f 755 776 758
f 758 751 755
f 755 746 775
f 775 776 755
f 514 509 508
f 508 507 514
f 813 809 812
f 812 794 813
f 810 809 813
f 813 807 810
f 813 794 27
f 27 807 813
f 823 806 808
f 806 807 808
f 808 807 27
f 529 506 505
f 506 507 505
f 507 508 505
f 505 504 529
f 505 508 504
f 826 800 799
f 799 825 826
f 569 825 799
f 570 569 799
f 799 800 796
f 796 797 799
f 563 825 567
f 567 825 568
f 567 564 563
f 567 568 564
f 25 790 26
f 26 27 25
f 798 821 27
f 798 801 821
f 27 26 798
f 781 801 798
f 798 790 781
f 798 26 790
f 577 797 578
f 572 571 577
f 577 578 572
f 577 571 570
f 570 799 577
f 577 799 797
f 761 748 752
f 752 748 760
f 752 751 761
f 747 746 752
f 752 760 747
f 746 755 752
f 752 755 751
f 537 550 539
f 537 548 550
f 537 539 540
f 540 538 537
f 538 535 537
f 652 648 653
f 652 663 648
f 652 653 654
f 638 662 621
f 621 618 638
f 618 663 638
f 639 662 638
f 638 652 654
f 663 652 638
f 654 655 638
f 655 639 638
f 268 222 261
f 268 267 222
f 268 261 936
f 936 267 268
f 936 272 269
f 269 267 936
f 269 272 41
f 41 222 269
f 222 267 269
f 206 207 258
f 258 264 206
f 258 207 265
f 265 264 258
f 221 263 259
f 259 260 221
f 259 934 938
f 259 938 935
f 935 260 259
f 932 934 259
f 203 263 202
f 203 204 263
f 408 412 411
f 415 408 411
f 411 414 415
f 420 414 411
f 418 427 416
f 416 420 418
f 401 409 400
f 400 404 405
f 405 401 400
f 402 410 274
f 402 270 410
f 684 685 646
f 705 634 703
f 685 684 703
f 703 634 646
f 646 685 703
f 703 682 705
f 682 657 686
f 705 682 686
f 14 8 9
f 14 15 8
f 3 15 14
f 636 688 644
f 636 692 688
f 636 644 645
f 636 645 651
f 651 691 636
f 691 692 636
f 865 861 866
f 866 861 862
f 490 489 499
f 492 485 484
f 489 490 492
f 864 28 863
f 864 860 865
f 864 863 860
f 22 869 870
f 870 868 28
f 869 859 870
f 859 868 870
f 857 955 954
f 954 953 857
f 973 959 960
f 973 972 959
f 960 974 973
f 973 974 950
f 950 951 973
f 973 951 952
f 952 972 973
f 971 972 953
f 953 954 971
f 971 963 964
f 971 964 965
f 965 972 971
f 1 2 3
f 3 14 1
f 947 948 3
f 928 931 927
f 927 926 944
f 944 20 927
f 927 930 926
f 927 931 930
f 929 930 904
f 904 924 929
f 926 930 925
f 925 945 926
f 942 924 904
f 48 47 282
f 282 200 48
f 48 200 47
f 282 47 284
f 284 283 282
f 47 283 284
f 294 428 385
f 385 428 386
f 138 294 385
f 385 386 138
f 375 376 377
f 381 383 380
f 371 372 381
f 381 380 371
f 381 131 84
f 381 372 131
f 381 84 82
f 82 383 381
f 392 431 430
f 482 480 483
f 464 480 367
f 463 483 464
f 464 483 480
f 437 426 423
f 423 422 437
f 429 426 437
f 437 443 429
f 447 446 421
f 421 422 423
f 446 443 438
f 438 421 446
f 422 421 438
f 443 437 438
f 438 437 422
f 903 931 916
f 903 902 905
f 903 905 904
f 904 930 903
f 930 931 903
f 780 779 770
f 770 787 780
f 770 784 768
f 770 779 784
f 770 768 769
f 769 787 770
f 781 780 785
f 780 787 785
f 503 509 501
f 503 508 509
f 503 501 502
f 502 504 503
f 504 508 503
f 823 808 804
f 804 822 823
f 804 805 822
f 824 805 804
f 804 27 824
f 804 808 27
f 545 548 546
f 548 537 546
f 546 537 535
f 543 545 546
f 546 535 544
f 544 543 546
f 262 263 932
f 932 259 262
f 262 259 263
f 406 404 407
f 408 406 407
f 407 412 408
f 407 409 412
f 271 402 274
f 270 402 271
f 273 270 271
f 280 273 271
f 271 274 280
f 682 703 683
f 683 703 684
f 646 682 683
f 683 684 646
f 707 9 632
f 632 635 707
f 635 704 707
f 688 692 11
f 705 686 11
f 470 471 475
f 475 476 470
f 499 498 493
f 493 490 499
f 493 498 497
f 497 487 493
f 493 492 490
f 862 489 491
f 489 492 491
f 491 492 484
f 484 476 491
f 491 476 862
f 487 485 494
f 494 493 487
f 902 903 900
f 966 963 970
f 970 969 966
f 963 971 970
f 955 956 970
f 956 969 970
f 970 954 955
f 970 971 954
f 4 1 14
f 13 2 4
f 2 1 4
f 946 2 948
f 948 947 946
f 3 2 946
f 946 947 3
f 928 927 21
f 21 927 20
f 21 16 928
f 21 20 16
f 930 929 923
f 923 925 930
f 923 929 924
f 924 942 923
f 904 940 941
f 941 942 904
f 940 942 941
f 945 925 943
f 940 945 943
f 943 942 940
f 925 923 943
f 943 923 942
f 378 377 376
f 378 376 382
f 382 391 378
f 378 391 392
f 468 373 375
f 451 444 445
f 423 427 417
f 427 418 417
f 419 418 420
f 419 425 421
f 419 417 418
f 419 411 412
f 420 411 419
f 419 421 423
f 423 417 419
f 786 787 781
f 781 785 786
f 786 785 787
f 404 400 403
f 403 407 404
f 403 400 409
f 409 407 403
f 706 704 705
f 706 707 704
f 705 11 706
f 706 11 707
f 10 11 13
f 13 4 10
f 10 4 14
f 10 14 9
f 9 707 10
f 707 11 10
f 688 11 687
f 687 11 686
f 637 688 687
f 656 637 687
f 687 657 656
f 687 686 657
f 13 11 12
f 18 19 12
f 949 13 12
f 12 19 949
f 975 18 12
f 12 983 975
f 12 691 983
f 12 692 691
f 12 11 692
f 867 476 475
f 867 866 862
f 862 476 867
f 477 476 484
f 477 484 482
f 482 483 477
f 485 492 495
f 495 494 485
f 492 493 495
f 493 494 495
f 885 864 865
f 28 909 23
f 22 870 23
f 23 870 28
f 379 436 377
f 379 378 392
f 377 378 379
f 392 430 379
f 377 436 462
f 375 377 462
f 462 468 375
f 373 468 466
f 367 373 466
f 466 464 367
f 461 472 467
f 467 472 471
f 467 462 461
f 468 462 467
f 449 445 447
f 449 451 445
f 907 902 890
f 902 900 890
f 425 419 424
f 413 908 424
f 424 412 413
f 424 419 412
f 915 903 916
f 916 931 921
f 921 931 928
f 469 470 476
f 476 477 469
f 463 470 469
f 469 483 463
f 469 477 483
f 864 885 40
f 910 23 909
f 922 921 910
f 432 379 430
f 458 459 461
f 461 462 458
f 442 445 441
f 445 444 441
f 463 464 465
f 464 466 465
f 465 470 463
f 465 466 468
f 468 467 465
f 471 470 465
f 465 467 471
f 448 449 447
f 901 894 897
f 451 449 881
f 475 471 474
f 471 472 474
f 472 473 474
f 460 473 472
f 460 472 461
f 461 459 460
f 889 424 908
f 425 424 889
f 889 908 907
f 907 890 889
f 916 921 919
f 919 915 916
f 918 915 919
f 22 23 24
f 24 928 22
f 24 921 928
f 23 910 24
f 24 910 921
f 28 864 29
f 864 40 29
f 35 29 36
f 36 29 40
f 882 881 883
f 436 379 435
f 379 432 435
f 457 462 436
f 457 458 462
f 436 435 457
f 459 458 454
f 447 421 452
f 452 448 447
f 421 425 452
f 425 889 452
f 901 448 452
f 892 881 449
f 892 448 901
f 449 448 892
f 901 897 892
f 892 897 883
f 883 881 892
f 451 881 450
f 473 460 450
f 444 451 450
f 475 474 872
f 456 459 444
f 456 460 459
f 444 450 456
f 456 450 460
f 891 889 890
f 891 890 900
f 901 452 891
f 891 452 889
f 891 894 901
f 900 894 891
f 903 915 914
f 914 920 903
f 917 921 922
f 917 919 921
f 28 29 30
f 30 29 35
f 30 909 28
f 30 35 909
f 39 35 38
f 35 36 38
f 898 897 894
f 894 896 898
f 898 33 39
f 909 35 37
f 37 886 909
f 37 35 39
f 39 33 37
f 31 896 894
f 32 896 31
f 439 435 432
f 439 432 430
f 439 454 458
f 459 454 455
f 444 459 455
f 455 441 444
f 442 441 440
f 440 431 442
f 441 455 440
f 440 455 454
f 454 439 440
f 440 430 431
f 440 439 430
f 877 474 473
f 913 915 918
f 913 914 915
f 911 917 920
f 918 919 911
f 919 917 911
f 895 896 32
f 895 898 896
f 33 898 895
f 883 897 884
f 897 898 884
f 884 36 40
f 884 38 36
f 884 882 883
f 39 38 884
f 884 898 39
f 884 40 885
f 885 882 884
f 922 910 888
f 888 917 922
f 886 887 888
f 920 917 888
f 888 887 920
f 888 910 909
f 909 886 888
f 899 887 886
f 899 894 900
f 899 886 894
f 920 887 899
f 899 900 903
f 903 920 899
f 32 886 34
f 886 37 34
f 34 895 32
f 34 37 33
f 33 895 34
f 893 886 32
f 32 31 893
f 894 886 893
f 893 31 894
f 453 457 435
f 435 439 453
f 458 457 453
f 453 439 458
f 865 866 875
f 875 885 865
f 875 882 885
f 871 872 474
f 871 877 872
f 881 882 880
f 473 450 880
f 880 450 881
f 876 874 872
f 872 877 876
f 876 880 882
f 876 877 473
f 473 880 876
f 882 875 876
f 876 875 874
f 920 914 912
f 914 913 912
f 912 911 920
f 912 913 918
f 918 911 912
f 873 875 866
f 874 875 873
f 866 867 873
f 872 874 873
f 873 867 475
f 475 872 873
f 879 871 474
f 877 871 879
f 474 877 878
f 878 879 474
f 877 879 878
f 167 614 228
f 183 243 242
f 172 243 183
f 242 241 183
f 183 241 184
f 158 215 157
f 214 215 158
f 214 158 213
f 213 158 161
f 233 175 174
f 174 234 233
f 170 233 238
f 175 233 170
f 237 170 238
f 171 170 237
f 237 243 172
f 172 171 237
f 155 210 211
f 159 155 211
f 160 159 211
f 211 212 160
f 217 213 161
f 161 162 217
f 217 167 228
f 217 162 167
f 157 215 216
f 216 156 157
f 156 216 154
f 154 216 209
f 154 210 155
f 154 209 210
f 160 212 194
f 194 212 251
f 251 236 194
f 236 168 194
f 169 236 235
f 169 168 236
f 235 234 169
f 169 234 174
f 229 230 203
f 245 244 203
f 238 233 203
f 203 227 228
f 225 226 203
f 203 232 225
f 228 245 203
f 226 227 203
f 203 231 232
f 239 240 203
f 203 224 229
f 242 243 203
f 203 241 242
f 203 230 231
f 235 236 203
f 203 234 235
f 203 237 238
f 203 240 241
f 236 224 203
f 203 233 234
f 198 247 203
f 243 237 203
f 203 244 208
f 202 198 203
f 203 246 239
f 208 207 203
f 206 205 203
f 203 247 246
f 203 207 206
f 205 204 203