# https://github.com/mikedh/trimesh
v 0.00778777 0.00640072 0.00879087
v 0.00774259 0.00634583 0.00886941
v 0.00778687 0.00634228 0.00876232
v 0.00729052 0.00637996 0.00940652
v 0.00742545 0.00646986 0.00935000
v 0.00725927 0.00646674 0.00946628
v 0.00710162 0.00647564 0.00954604
v 0.00747136 0.00636034 0.00925863
v 0.00762300 0.00649934 0.00914788
v 0.00756702 0.00648715 0.00921483
v 0.00777128 0.00656045 0.00889854
v 0.00765902 0.00637114 0.00903865
v 0.00778649 0.00657123 0.00886132
v 0.00770749 0.00638249 0.00896186
v 0.00778708 0.00652063 0.00884517
v 0.00773603 0.00638289 0.00890494
v 0.00778749 0.00647207 0.00882516
v 0.00755091 0.02432481 0.00937179
v 0.00745423 0.02309120 0.00953316
v 0.00757323 0.02196310 0.00934915
v 0.00737150 0.02229001 0.00964747
v 0.00761397 0.02565074 0.00923443
v 0.00763790 0.02653138 0.00916923
v 0.00763055 0.01947320 0.00925822
v 0.00733185 0.01466746 0.00973368
v 0.00754132 0.01688538 0.00944073
v 0.00767809 0.01714520 0.00916860
v 0.00727245 0.01433016 0.00980104
v 0.00689275 0.01234582 0.01015290
v 0.00664254 0.01096193 0.01033809
v 0.00615246 0.00910218 0.01063923
v 0.00646110 0.00882765 0.01046282
v 0.00581860 0.01508136 0.01078693
v 0.00676614 0.01857529 0.01022872
v 0.00730943 0.02177033 0.00972470
v 0.00717823 0.02082230 0.00986998
v 0.00690280 0.01923537 0.01012172
v 0.00581950 0.00937030 0.01079599
v -0.00726346 0.02777706 0.00949409
v -0.00716750 0.02782639 0.00951394
v -0.00730536 0.02777851 0.00947072
v -0.00734835 0.02786259 0.00940545
v -0.00753037 0.02788077 0.00925611
v -0.00767693 0.02774468 0.00914860
v -0.00761736 0.02775792 0.00921931
v -0.00781723 0.02768945 0.00891744
v -0.00771883 0.02786778 0.00903320
v -0.00784071 0.02767357 0.00886156
v -0.00776721 0.02785564 0.00895535
v -0.00784165 0.02774534 0.00883704
v -0.00779467 0.02785547 0.00889939
v -0.00784180 0.02776440 0.00882884
v -0.00784156 0.02776119 0.00883089
v -0.00780126 0.02789233 0.00886407
v -0.00784194 0.02784406 0.00879157
v -0.00784011 0.02792253 0.00875430
v -0.00535080 0.02546253 0.01077563
v 0.00517882 0.02546253 0.01079028
v -0.00591384 0.02603000 0.01048971
v 0.00575257 0.02603725 0.01050229
v 0.00768515 0.02806310 0.00871363
v 0.00765067 0.02794466 0.00886948
v 0.00769632 0.02789023 0.00879087
v 0.00751247 0.02779481 0.00917279
v 0.00753228 0.02779024 0.00914803
v 0.00746169 0.02786032 0.00920707
v 0.00769649 0.02771971 0.00886132
v 0.00756717 0.02791874 0.00903887
v 0.00769672 0.02777016 0.00884524
v 0.00761574 0.02790781 0.00896213
v 0.00769665 0.02781887 0.00882516
v 0.00764442 0.02790755 0.00890499
v 0.00707092 0.02784332 0.00950514
v 0.00711996 0.02781749 0.00949368
v 0.00721053 0.02782072 0.00944024
v 0.00736045 0.02781626 0.00932826
v 0.00737946 0.02792791 0.00925874
v 0.00684712 0.02735364 0.00979938
v 0.00642867 0.02657810 0.01020427
v 0.00662526 0.02641656 0.01019997
v 0.00700703 0.02779536 0.00955408
v 0.00605584 0.02573691 0.01056893
v 0.00568172 0.02541491 0.01074953
v 0.00575569 0.02534756 0.01074600
v 0.00578503 0.02530220 0.01074574
v 0.00580316 0.02526033 0.01074660
v 0.00638532 0.02544468 0.01046267
v 0.00581951 0.02516258 0.01075303
v 0.00581951 0.02495382 0.01076406
v 0.00559020 0.02545412 0.01075702
v 0.00551955 0.02546253 0.01076565
v 0.00693431 0.02756760 0.00968266
v 0.00734503 0.02764474 0.00941434
v 0.00768245 0.02729457 0.00900083
v 0.00759053 0.02743468 0.00918319
v 0.00754439 0.02732448 0.00929719
v 0.00765868 0.02714740 0.00910005
v 0.00747215 0.02721418 0.00942646
v 0.00763602 0.02703770 0.00916787
v 0.00733963 0.02700471 0.00961853
v 0.00752834 0.02685823 0.00939146
v 0.00707629 0.02660653 0.00991175
v 0.00734722 0.02658258 0.00965495
v 0.00705759 0.02618919 0.00996365
v 0.00680200 0.02623620 0.01015079
v 0.00730046 0.02752892 0.00950016
v 0.00723428 0.02741206 0.00959336
v 0.00711566 0.02719554 0.00974223
v 0.00623721 0.02337369 0.01055408
v 0.00634889 0.02446276 0.01048700
v 0.00718829 0.00802835 0.00991353
v 0.00693262 0.00798701 0.01010957
v 0.00719574 0.00763184 0.00987504
v 0.00581951 0.00895814 0.01075402
v 0.00621303 0.00845666 0.01052286
v 0.00675320 0.00780335 0.01016377
v 0.00749200 0.00761193 0.00957212
v 0.00745008 0.00725095 0.00958562
v 0.00763323 0.00739626 0.00935314
v 0.00743972 0.00662795 0.00940323
v 0.00768306 0.00684189 0.00916969
v 0.00777015 0.00698233 0.00899389
v 0.00695169 0.00689437 0.00977956
v 0.00703637 0.00668869 0.00966606
v 0.00655218 0.00763905 0.01017132
v 0.00581072 0.00888599 0.01074137
v 0.00577088 0.00879443 0.01072778
v 0.00570328 0.00872102 0.01071773
v 0.00565921 0.00869268 0.01071399
v 0.00561676 0.00867434 0.01071182
v 0.00551955 0.00865819 0.01071238
v 0.00541890 0.00865819 0.01071507
v 0.00722493 0.00705581 0.00971700
v 0.00757961 0.00705062 0.00939257
v 0.00771843 0.00725686 0.00917169
v 0.00734161 0.00684772 0.00956938
v 0.00765158 0.00694441 0.00925811
v 0.00773689 0.00717605 0.00912177
v 0.00751073 0.00861267 0.00953800
v -0.00534569 0.00865819 0.01074613
v -0.00706394 0.00639495 0.00954617
v -0.00724108 0.00629134 0.00941026
v -0.00729464 0.00638367 0.00942016
v -0.00750962 0.00633903 0.00921152
v -0.00756642 0.00640993 0.00917291
v -0.00775055 0.00648513 0.00886156
v -0.00771812 0.00610087 0.00873338
v -0.00775033 0.00631464 0.00879157
v -0.00769514 0.00637936 0.00895433
v -0.00741962 0.00626657 0.00926613
v -0.00768476 0.00627843 0.00892248
v -0.00769110 0.00624073 0.00888649
v -0.00765645 0.00628002 0.00897705
v -0.00775065 0.00639750 0.00883089
v -0.00760725 0.00627074 0.00905189
v -0.00717265 0.00755143 0.00987674
v -0.00742461 0.00716582 0.00958397
v -0.00719678 0.00697354 0.00971656
v -0.00552123 0.00865819 0.01073946
v -0.00575563 0.00877095 0.01074197
v -0.00619591 0.00839172 0.01052675
v -0.00568011 0.00870372 0.01073678
v -0.00558760 0.00866560 0.01073614
v -0.00652853 0.00756879 0.01017393
v -0.00673092 0.00773014 0.01016653
v -0.00691211 0.00791114 0.01011269
v -0.00692092 0.00681595 0.00978006
v -0.00700390 0.00660752 0.00966515
v -0.00731311 0.00676211 0.00956563
v -0.00739928 0.00654306 0.00940684
v -0.00764514 0.00675312 0.00917605
v -0.00755417 0.00696245 0.00938511
v -0.00774438 0.00680319 0.00895234
v -0.00746514 0.00754285 0.00957784
v -0.00769076 0.00718224 0.00916957
v -0.00769408 0.00717176 0.00916074
v -0.00716925 0.00795635 0.00991614
v -0.00578673 0.00881855 0.01074652
v -0.00645000 0.00876530 0.01046297
v -0.00682527 0.00837308 0.01020893
v -0.00580445 0.00885923 0.01075094
v -0.00582119 0.00895814 0.01076465
v -0.00614499 0.00904443 0.01063590
v -0.00582119 0.00930734 0.01079459
v -0.00723227 0.02658152 0.00989797
v -0.00695998 0.02621637 0.01013689
v -0.00678252 0.02639856 0.01018823
v -0.00748793 0.02760807 0.00941213
v -0.00582119 0.02481887 0.01082413
v -0.00582119 0.02516258 0.01079576
v -0.00618218 0.02510167 0.01065213
v -0.00634759 0.02524477 0.01056352
v -0.00652080 0.02540454 0.01046297
v -0.00645492 0.02534253 0.01050222
v -0.00622069 0.02572857 0.01055459
v -0.00725080 0.02621233 0.00991240
v -0.00658443 0.02656170 0.01019390
v -0.00739067 0.02738233 0.00957965
v -0.00770408 0.02729101 0.00926415
v -0.00762899 0.02718088 0.00940436
v -0.00777657 0.02697966 0.00916551
v -0.00769625 0.02684777 0.00934131
v -0.00782235 0.02721637 0.00900739
v -0.00781620 0.02716937 0.00903602
v -0.00781575 0.02716603 0.00903809
v -0.00781142 0.02714093 0.00905621
v -0.00773198 0.02739593 0.00918134
v -0.00715102 0.02776157 0.00955137
v -0.00708614 0.02753988 0.00967517
v -0.00699878 0.02732771 0.00979200
v -0.00581255 0.02523414 0.01078543
v -0.00577297 0.02532567 0.01077511
v -0.00570546 0.02539931 0.01076836
v -0.00566087 0.02542805 0.01076631
v -0.00561864 0.02544631 0.01076560
v -0.00552123 0.02546253 0.01076899
v -0.00727032 0.02716760 0.00973131
v -0.00749503 0.02697400 0.00960254
v -0.00753713 0.02660482 0.00959025
v -0.00757122 0.02562522 0.00953457
v -0.00734407 0.01984513 0.00978871
v -0.00739352 0.01956149 0.00973176
v -0.00698325 0.02174799 0.01013060
v -0.00673307 0.02311123 0.01031985
v -0.00652673 0.02501328 0.01045834
v -0.00655353 0.02453439 0.01044061
v -0.00582119 0.01932408 0.01081380
v -0.00722201 0.01351757 0.00988766
v -0.00703894 0.01460249 0.01005954
v -0.00693305 0.01515227 0.01014820
v -0.00658755 0.01668666 0.01039811
v -0.00744326 0.01183101 0.00963106
v -0.00766813 0.01176470 0.00926758
v -0.00759222 0.01016271 0.00940080
v -0.00769602 0.00805339 0.00916551
v -0.00769215 0.00750050 0.00916951
v -0.00768901 0.00783316 0.00918127
v -0.00767167 0.00859052 0.00923104
v -0.00770096 0.00921223 0.00916551
v -0.00768625 0.01567723 0.00926420
v -0.00582119 0.01340718 0.01080251
v -0.00597915 0.01271617 0.01072733
v -0.00623618 0.01130952 0.01059227
v -0.00639663 0.00996638 0.01049800
v -0.00550000 -0.00650000 0.00050000
v -0.00569134 -0.00646194 0.00050000
v 0.00550000 -0.00650000 0.00050000
v -0.00569134 0.04046194 0.00050000
v -0.00550000 0.04050000 0.00050000
v 0.00575000 0.04043302 0.00050000
v 0.00550000 0.04050000 0.00050000
v 0.00797320 0.02938660 0.00635000
v 0.00797320 0.02935000 0.00638660
v 0.00800000 0.02930000 0.00630000
v 0.00575000 -0.00638225 0.00127441
v 0.00593301 -0.00620081 0.00125053
v 0.00593301 -0.00605407 0.00198821
v 0.00593301 -0.00581231 0.00270043
v 0.00593301 -0.00547965 0.00337500
v 0.00593301 -0.00506178 0.00400038
v 0.00593301 -0.00456586 0.00456586
v 0.00593301 -0.00400038 0.00506178
v 0.00593301 -0.00337500 0.00547965
v 0.00575000 -0.00623085 0.00203558
v 0.00575000 -0.00598139 0.00277047
v 0.00575000 -0.00563814 0.00346651
v 0.00575000 -0.00520698 0.00411179
v 0.00575000 -0.00469527 0.00469527
v 0.00575000 -0.00411179 0.00520697
v 0.00575000 -0.00346651 0.00563814
v 0.00575000 -0.00277047 0.00598139
v 0.00550000 -0.00644867 0.00128316
v 0.00550000 -0.00629556 0.00205291
v 0.00550000 -0.00604328 0.00279610
v 0.00550000 -0.00569615 0.00350000
v 0.00550000 -0.00526012 0.00415257
v 0.00550000 -0.00474264 0.00474264
v 0.00550000 -0.00415257 0.00526012
v 0.00550000 -0.00350000 0.00569615
v 0.00550000 -0.00279610 0.00604328
v -0.00550000 -0.00629556 0.00205291
v -0.00550000 -0.00604328 0.00279610
v -0.00569134 -0.00600811 0.00278154
v -0.00585355 -0.00274006 0.00590798
v -0.00596194 -0.00366194 0.00523218
v -0.00596194 -0.00452439 0.00452439
v -0.00596194 -0.00523218 0.00366194
v -0.00596194 -0.00575811 0.00267798
v -0.00585355 -0.00375206 0.00536705
v -0.00585355 -0.00463909 0.00463909
v -0.00585355 -0.00536705 0.00375206
v -0.00585355 -0.00590798 0.00274006
v -0.00569134 -0.00278154 0.00600811
v -0.00569134 -0.00381228 0.00545717
v -0.00569134 -0.00471573 0.00471573
v -0.00569134 -0.00545717 0.00381228
v -0.00550000 -0.00279610 0.00604328
v -0.00550000 -0.00350000 0.00569615
v -0.00550000 -0.00383342 0.00548882
v -0.00550000 -0.00474264 0.00474264
v -0.00550000 -0.00548882 0.00383342
v -0.00550000 -0.00569615 0.00350000
v -0.00550000 -0.00638471 0.00167054
v -0.00569134 -0.00634738 0.00166312
v -0.00585355 -0.00624108 0.00164197
v -0.00596194 -0.00608198 0.00161033
v -0.00550000 0.03679610 0.00604328
v -0.00569134 0.03678153 0.00600812
v -0.00550000 0.04029556 0.00205291
v -0.00550000 0.04038471 0.00167054
v -0.00569134 0.04034738 0.00166312
v -0.00585355 0.04024108 0.00164197
v -0.00585355 0.03990798 0.00274006
v -0.00596194 0.04008199 0.00161033
v -0.00596194 0.03975811 0.00267798
v -0.00596194 0.03923218 0.00366194
v -0.00596194 0.03852439 0.00452439
v -0.00596194 0.03766194 0.00523218
v -0.00585355 0.03936705 0.00375206
v -0.00585355 0.03863909 0.00463909
v -0.00585355 0.03775206 0.00536705
v -0.00585355 0.03674006 0.00590798
v -0.00569134 0.04000811 0.00278154
v -0.00569134 0.03945717 0.00381228
v -0.00569134 0.03871573 0.00471573
v -0.00569134 0.03781228 0.00545717
v -0.00550000 0.04004328 0.00279610
v -0.00550000 0.03969615 0.00350000
v -0.00550000 0.03948882 0.00383342
v -0.00550000 0.03874264 0.00474264
v -0.00550000 0.03783342 0.00548882
v -0.00550000 0.03750000 0.00569615
v 0.00593301 0.03737500 0.00547965
v 0.00593301 0.03800038 0.00506178
v 0.00593301 0.03856586 0.00456586
v 0.00593301 0.03906178 0.00400038
v 0.00593301 0.03947965 0.00337500
v 0.00593301 0.03981230 0.00270043
v 0.00593301 0.04005408 0.00198821
v 0.00593301 0.04020081 0.00125053
v 0.00575000 0.03677047 0.00598139
v 0.00575000 0.03746651 0.00563814
v 0.00575000 0.03811179 0.00520697
v 0.00575000 0.03869527 0.00469527
v 0.00575000 0.03920697 0.00411179
v 0.00575000 0.03963814 0.00346651
v 0.00575000 0.03998139 0.00277046
v 0.00575000 0.04023085 0.00203558
v 0.00575000 0.04038225 0.00127441
v 0.00550000 0.03679610 0.00604328
v 0.00550000 0.03750000 0.00569615
v 0.00550000 0.03815257 0.00526012
v 0.00550000 0.03874264 0.00474264
v 0.00550000 0.03926012 0.00415257
v 0.00550000 0.03969615 0.00350000
v 0.00550000 0.04004328 0.00279610
v 0.00550000 0.04029556 0.00205291
v 0.00550000 0.04044867 0.00128316
v -0.00798478 0.00512346 0.00630000
v -0.00800000 0.00520000 0.00630000
v -0.00780000 0.04050000 -0.01234523
v -0.00800000 0.02900000 0.00630000
v -0.00797321 0.02928284 0.00628284
v -0.00800000 0.02911481 0.00627716
v -0.00800000 0.02921213 0.00621213
v 0.00797320 0.00511340 0.00635000
v 0.00800000 0.00520000 0.00630000
v 0.00780000 0.04050000 -0.01234523
v -0.00780000 0.04050000 -0.01356439
v 0.00780000 0.04050000 -0.01356439
v -0.00794142 0.04044142 -0.01357685
v -0.00787654 0.04048477 -0.01356763
v -0.00800000 0.03479917 -0.01474929
v -0.00800000 0.04030000 -0.01360693
v -0.00800000 0.04001040 -0.01366854
v -0.00800000 0.03749176 -0.01420104
v -0.00798478 0.04037654 -0.01359065
v -0.00700000 0.03870000 -0.01800000
v -0.00700000 0.03950000 -0.01800000
v 0.00800558 -0.00680134 -0.01724736
v 0.00800558 -0.00676082 -0.01724702
v 0.00800558 -0.00701662 -0.01704943
v 0.00800558 -0.00701662 -0.01664555
v 0.00800558 -0.00699759 -0.01650335
v 0.00800558 -0.00500000 -0.01507644
v 0.00800558 -0.00584506 -0.01365506
v 0.00800558 -0.00626923 -0.01352238
v 0.00800558 -0.00635467 -0.01352761
v 0.00800558 -0.00643009 -0.01356809
v 0.00800558 -0.00648168 -0.01363639
v 0.00800558 -0.00650000 -0.01372000
v -0.00800000 -0.00699759 -0.01650335
v -0.00800000 -0.00701662 -0.01664555
v -0.00800000 -0.00701662 -0.01704943
v -0.00800000 -0.00680133 -0.01724736
v -0.00800000 -0.00516723 -0.00886496
v -0.00798478 -0.00523265 -0.00882524
v -0.00800000 -0.00578953 -0.01013780
v -0.00798478 -0.00586106 -0.01011056
v -0.00794142 -0.00631041 -0.01147662
v -0.00798478 -0.00624660 -0.01148836
v -0.00800000 -0.00617132 -0.01150221
v -0.00800000 0.04030000 -0.01234523
v -0.00798478 0.04037654 -0.01234523
v -0.00794142 0.04044142 -0.01234523
v -0.00787654 0.04048477 -0.01234523
v -0.00787654 0.04035996 -0.01093897
v -0.00794142 0.04031729 -0.01094660
v -0.00798478 0.03929144 -0.00835573
v -0.00798478 0.03988791 -0.00961419
v -0.00798478 0.04025342 -0.01095803
v -0.00800000 0.03922545 -0.00839450
v -0.00800000 0.03981612 -0.00964073
v -0.00800000 0.04017808 -0.01097151
v 0.00790000 -0.00641466 -0.01194869
v 0.00797320 -0.00499186 -0.00841142
v 0.00797320 -0.00548874 -0.00922977
v 0.00797320 -0.00588299 -0.01010221
v 0.00797320 -0.00616880 -0.01101594
v 0.00797320 -0.00634199 -0.01195754
v 0.00800000 -0.00490968 -0.00846840
v 0.00800000 -0.00540028 -0.00927639
v 0.00800000 -0.00578953 -0.01013780
v 0.00800000 -0.00607173 -0.01103996
v 0.00800000 -0.00624272 -0.01196964
v 0.00794142 0.04044142 -0.01234523
v 0.00790000 0.04047321 -0.01234523
v 0.00790000 0.04041773 -0.01140635
v 0.00800000 0.04030000 -0.01234523
v 0.00797320 0.04040000 -0.01234523
v 0.00797320 0.04034504 -0.01141498
v 0.00797320 0.04018092 -0.01049766
v 0.00797320 0.03990992 -0.00960605
v 0.00797320 0.03953582 -0.00875256
v 0.00797320 0.03906382 -0.00794906
v 0.00800000 0.04024573 -0.01142675
v 0.00800000 0.04008369 -0.01052105
v 0.00800000 0.03981612 -0.00964073
v 0.00800000 0.03944675 -0.00879804
v 0.00800000 0.03898073 -0.00800471
v 0.00784081 0.04049579 -0.01356528
v 0.00787658 0.04048476 -0.01356763
v 0.00790359 0.04047108 -0.01357054
v 0.00795522 0.04042612 -0.01358010
v 0.00798880 0.04036599 -0.01359290
v 0.00800000 0.04030000 -0.01360693
v 0.00700000 0.03870000 -0.01800000
v 0.00700000 0.03950000 -0.01800000
v -0.00800000 -0.00675421 -0.01726106
v -0.00799539 -0.00680098 -0.01726191
v 0.00800097 -0.00680098 -0.01726191
v 0.00800557 -0.00675421 -0.01726106
v 0.00800558 -0.00500000 -0.01722914
v 0.00800000 0.02424222 -0.01611887
v -0.00800000 0.02424222 -0.01611887
v -0.00800000 0.02807816 -0.01577852
v 0.00800000 0.02807816 -0.01577852
v -0.00800000 0.03055643 -0.01546689
v 0.00800000 0.03055643 -0.01546689
v 0.00800000 0.03260510 -0.01515059
v -0.00800000 0.03260510 -0.01515059
v 0.00800000 0.03479917 -0.01474929
v 0.00800000 0.04001040 -0.01366854
v 0.00800000 0.03749176 -0.01420104
v 0.00800000 0.01848372 -0.01649028
v 0.00800000 0.01204371 -0.01681733
v 0.00800000 -0.00192437 -0.01719533
v 0.00800000 0.00136454 -0.01714469
v 0.00800000 0.00629912 -0.01702842
v -0.00800000 0.00136454 -0.01714469
v -0.00800000 0.00629912 -0.01702842
v -0.00800000 0.01204371 -0.01681733
v -0.00800000 0.01848372 -0.01649028
v -0.00800000 -0.00192437 -0.01719533
v -0.00778134 0.01707941 0.00899610
f 378 447 451
f 451 450 378
f 396 397 360
f 296 302 301
f 412 409 410
f 449 379 378
f 378 450 449
f 379 376 375
f 375 374 379
f 423 422 417
f 417 422 416
f 197 210 187
f 275 301 302
f 297 167 293
f 263 262 12
f 474 470 379
f 379 449 474
f 371 379 377
f 379 374 377
f 408 406 405
f 405 404 408
f 367 416 421
f 421 416 422
f 397 396 398
f 398 399 397
f 57 189 58
f 365 56 363
f 365 55 56
f 363 409 365
f 409 412 365
f 208 39 209
f 188 198 42
f 43 188 42
f 56 55 54
f 48 362 360
f 289 293 284
f 155 289 144
f 155 153 289
f 144 145 155
f 155 145 153
f 297 293 298
f 366 416 367
f 260 416 366
f 262 261 3
f 3 261 260
f 260 366 3
f 3 366 367
f 280 132 140
f 159 297 140
f 297 280 140
f 291 292 296
f 252 254 435
f 13 15 367
f 367 254 13
f 372 369 379
f 372 379 371
f 361 248 249
f 406 248 361
f 452 447 448
f 452 451 447
f 387 254 367
f 387 386 254
f 331 351 352
f 316 409 363
f 363 56 316
f 407 406 408
f 407 248 406
f 413 412 410
f 414 413 411
f 411 413 410
f 408 404 411
f 411 403 414
f 404 403 411
f 379 458 461
f 379 455 456
f 456 458 379
f 379 470 471
f 471 472 379
f 473 455 379
f 379 472 473
f 154 146 360
f 360 148 154
f 359 148 360
f 360 397 359
f 397 287 359
f 286 359 287
f 289 153 285
f 58 350 307
f 307 57 58
f 307 197 59
f 210 197 307
f 195 197 187
f 161 183 179
f 183 191 243
f 52 55 364
f 55 365 364
f 217 209 39
f 210 209 217
f 187 210 217
f 45 43 47
f 188 43 45
f 50 48 46
f 362 48 50
f 50 364 362
f 52 364 50
f 187 217 185
f 141 142 293
f 156 174 157
f 167 165 158
f 142 141 158
f 156 157 158
f 270 278 269
f 269 262 270
f 262 263 270
f 299 295 300
f 300 278 299
f 296 301 300
f 300 295 296
f 279 270 280
f 278 270 279
f 299 278 279
f 279 298 299
f 299 298 294
f 294 295 299
f 294 293 289
f 294 298 293
f 164 165 167
f 161 165 164
f 164 167 297
f 166 179 180
f 156 158 166
f 166 158 165
f 166 165 161
f 161 179 166
f 220 174 219
f 123 125 280
f 115 31 114
f 114 126 115
f 114 140 132
f 399 306 288
f 288 306 292
f 288 287 397
f 397 399 288
f 288 291 287
f 292 291 288
f 347 337 338
f 338 339 347
f 440 435 254
f 254 386 440
f 386 385 440
f 253 254 252
f 253 61 254
f 252 335 253
f 253 335 61
f 431 432 436
f 381 452 453
f 448 466 469
f 469 466 453
f 457 453 454
f 448 457 454
f 79 78 350
f 79 80 78
f 410 409 315
f 409 316 315
f 317 316 56
f 329 354 355
f 373 376 379
f 379 461 373
f 149 154 148
f 146 154 149
f 153 145 149
f 290 294 289
f 295 294 290
f 289 285 290
f 290 285 286
f 296 295 290
f 290 291 296
f 287 291 290
f 290 286 287
f 286 285 147
f 148 359 147
f 359 286 147
f 450 451 394
f 401 392 400
f 401 306 399
f 399 398 401
f 400 392 305
f 305 401 400
f 306 401 305
f 292 306 305
f 332 351 331
f 57 307 216
f 308 209 210
f 210 307 308
f 208 209 308
f 307 332 308
f 191 195 192
f 192 243 191
f 180 179 231
f 182 183 161
f 182 184 183
f 182 160 159
f 159 140 182
f 140 184 182
f 242 191 183
f 183 184 242
f 189 191 242
f 242 227 189
f 244 179 183
f 183 243 244
f 243 192 244
f 193 179 244
f 46 49 51
f 51 49 54
f 51 55 52
f 51 54 55
f 52 50 53
f 53 50 46
f 53 51 52
f 46 51 53
f 360 146 173
f 173 48 360
f 234 174 220
f 46 48 206
f 199 206 201
f 229 223 196
f 224 223 180
f 180 231 224
f 177 229 196
f 177 174 156
f 180 229 177
f 177 166 180
f 156 166 177
f 245 247 272
f 168 293 167
f 168 141 293
f 167 158 168
f 168 158 141
f 169 158 157
f 280 270 271
f 271 123 280
f 124 123 271
f 301 275 276
f 276 300 301
f 196 185 218
f 218 219 196
f 218 217 198
f 218 185 217
f 367 15 17
f 12 262 14
f 262 3 2
f 3 16 2
f 2 14 262
f 16 14 2
f 131 132 280
f 280 130 131
f 131 114 132
f 280 125 129
f 129 130 280
f 129 131 130
f 101 26 18
f 26 119 18
f 87 30 34
f 34 30 29
f 34 104 87
f 103 104 36
f 337 435 434
f 434 338 337
f 439 385 438
f 439 440 385
f 435 440 439
f 439 434 435
f 336 335 252
f 252 435 336
f 336 435 337
f 353 352 343
f 445 446 448
f 448 444 445
f 459 457 448
f 448 460 459
f 459 453 457
f 459 460 453
f 462 460 448
f 453 460 462
f 437 432 438
f 437 436 432
f 438 385 437
f 385 436 437
f 448 469 468
f 468 469 453
f 453 452 468
f 453 466 465
f 465 454 453
f 465 466 448
f 448 454 465
f 87 104 105
f 91 350 58
f 58 89 91
f 351 350 342
f 342 352 351
f 342 343 352
f 98 103 101
f 101 96 98
f 314 411 410
f 410 315 314
f 56 54 318
f 318 317 56
f 54 49 318
f 331 352 330
f 330 352 353
f 353 354 330
f 354 329 330
f 316 317 319
f 319 315 316
f 422 423 390
f 390 421 422
f 367 421 390
f 152 285 153
f 152 147 285
f 148 147 152
f 395 449 450
f 450 394 395
f 393 305 392
f 402 401 398
f 392 401 402
f 40 39 208
f 208 308 40
f 40 308 39
f 41 308 42
f 39 308 41
f 42 198 41
f 198 217 41
f 41 217 39
f 322 43 42
f 42 308 322
f 159 160 162
f 161 164 162
f 162 160 161
f 181 182 161
f 241 242 184
f 227 242 241
f 193 244 194
f 194 244 192
f 194 195 193
f 194 192 195
f 176 173 146
f 201 206 176
f 48 173 203
f 47 49 207
f 207 49 46
f 46 206 207
f 206 199 207
f 219 218 200
f 188 45 200
f 198 188 200
f 200 218 198
f 180 223 230
f 230 229 180
f 223 229 230
f 196 223 186
f 223 224 186
f 186 224 193
f 186 185 196
f 187 185 186
f 186 195 187
f 193 195 186
f 193 224 226
f 226 224 231
f 226 231 179
f 273 265 274
f 296 292 283
f 283 282 302
f 283 302 296
f 275 274 266
f 266 274 265
f 273 272 255
f 144 289 150
f 289 284 150
f 142 158 143
f 158 169 143
f 293 142 143
f 143 284 293
f 143 150 284
f 170 169 157
f 144 150 170
f 170 143 169
f 150 143 170
f 278 300 277
f 300 276 277
f 1 16 3
f 1 17 16
f 1 3 367
f 367 17 1
f 15 13 11
f 11 14 16
f 11 17 15
f 16 17 11
f 128 125 115
f 128 129 125
f 114 131 128
f 131 129 128
f 109 89 31
f 87 89 109
f 31 89 33
f 33 89 58
f 135 24 119
f 122 13 254
f 254 94 122
f 122 11 13
f 138 11 122
f 137 135 119
f 138 135 137
f 19 26 101
f 101 103 19
f 99 96 101
f 119 24 20
f 20 18 119
f 24 18 20
f 8 263 12
f 8 270 263
f 124 271 7
f 7 6 124
f 271 6 7
f 125 123 116
f 115 125 116
f 28 36 111
f 111 25 28
f 111 36 104
f 37 34 29
f 104 34 37
f 29 111 37
f 37 111 104
f 35 36 28
f 103 36 35
f 28 25 35
f 35 25 103
f 338 434 433
f 438 432 433
f 433 439 438
f 434 439 433
f 339 338 433
f 433 432 339
f 251 427 368
f 430 445 444
f 431 436 430
f 340 432 431
f 431 349 340
f 339 432 340
f 340 349 339
f 428 349 431
f 250 427 251
f 250 428 427
f 349 428 250
f 347 339 348
f 339 349 348
f 348 356 347
f 358 251 249
f 358 348 349
f 358 250 251
f 349 250 358
f 355 354 346
f 346 337 347
f 347 356 346
f 346 356 355
f 335 336 344
f 353 343 344
f 344 343 335
f 61 335 334
f 335 343 334
f 343 342 334
f 67 94 254
f 254 69 67
f 448 370 441
f 441 442 448
f 370 368 441
f 427 442 441
f 441 368 427
f 443 444 448
f 448 442 443
f 443 442 427
f 446 445 429
f 429 436 385
f 429 430 436
f 445 430 429
f 453 462 464
f 464 462 448
f 467 452 448
f 448 468 467
f 467 468 452
f 60 79 350
f 350 91 60
f 60 91 79
f 80 79 82
f 87 105 82
f 82 105 80
f 341 342 350
f 75 342 341
f 408 411 312
f 411 314 312
f 312 407 408
f 321 49 47
f 321 318 49
f 47 43 321
f 43 322 321
f 317 318 321
f 321 322 308
f 451 452 380
f 452 381 380
f 388 387 367
f 153 149 151
f 151 152 153
f 151 149 148
f 148 152 151
f 246 393 245
f 383 272 247
f 384 255 383
f 383 255 272
f 197 195 213
f 190 191 189
f 189 57 190
f 190 195 191
f 190 211 195
f 57 216 190
f 216 213 190
f 159 162 163
f 163 162 164
f 163 297 159
f 163 164 297
f 160 182 178
f 182 181 178
f 161 160 178
f 178 181 161
f 172 157 174
f 172 170 157
f 172 145 144
f 144 170 172
f 173 176 475
f 475 176 206
f 475 203 173
f 47 207 44
f 44 207 199
f 44 45 47
f 44 200 45
f 199 200 44
f 225 179 193
f 193 226 225
f 225 226 179
f 221 222 177
f 196 219 221
f 219 222 221
f 174 177 232
f 177 222 232
f 232 219 174
f 232 222 219
f 303 246 245
f 245 272 303
f 303 272 273
f 259 258 417
f 417 416 259
f 259 416 260
f 259 266 265
f 265 258 259
f 418 423 417
f 417 258 418
f 257 258 265
f 257 418 258
f 269 278 268
f 278 277 268
f 268 262 269
f 268 261 262
f 268 277 276
f 260 261 268
f 126 114 127
f 114 128 127
f 115 126 127
f 127 128 115
f 87 109 110
f 38 184 140
f 140 114 38
f 38 241 184
f 38 114 31
f 31 33 38
f 227 241 38
f 189 227 38
f 58 189 38
f 38 33 58
f 12 14 9
f 103 25 21
f 21 19 103
f 97 122 94
f 138 122 97
f 94 67 97
f 24 135 27
f 27 135 138
f 101 18 22
f 22 99 101
f 22 18 24
f 4 271 270
f 4 6 271
f 115 116 112
f 113 111 112
f 29 30 112
f 112 111 29
f 113 112 133
f 133 112 116
f 133 118 113
f 136 118 133
f 133 116 123
f 133 123 124
f 124 6 133
f 6 136 133
f 426 430 444
f 444 443 426
f 426 443 427
f 431 430 426
f 426 428 431
f 427 428 426
f 345 354 353
f 353 344 345
f 345 346 354
f 345 344 336
f 345 336 337
f 337 346 345
f 95 67 69
f 69 72 95
f 95 97 67
f 96 99 95
f 99 97 95
f 254 61 63
f 61 334 62
f 62 63 61
f 72 63 62
f 463 446 453
f 453 464 463
f 448 446 463
f 463 464 448
f 79 91 90
f 90 82 79
f 78 80 108
f 248 407 311
f 407 312 311
f 317 321 320
f 320 319 317
f 320 325 319
f 319 325 324
f 324 330 329
f 324 325 330
f 326 332 331
f 331 330 326
f 330 325 326
f 326 320 321
f 325 320 326
f 326 308 332
f 326 321 308
f 367 390 389
f 389 388 367
f 305 393 304
f 393 246 304
f 246 303 304
f 292 305 304
f 304 283 292
f 382 394 451
f 451 380 382
f 59 197 215
f 215 307 59
f 215 216 307
f 211 190 212
f 212 190 213
f 195 211 212
f 212 213 195
f 201 240 202
f 220 219 202
f 202 234 220
f 219 200 202
f 202 199 201
f 202 200 199
f 174 234 238
f 238 240 201
f 171 149 145
f 145 172 171
f 146 149 171
f 171 176 146
f 205 475 206
f 205 206 48
f 48 203 205
f 228 177 196
f 196 221 228
f 228 221 177
f 282 283 281
f 281 303 273
f 283 304 281
f 281 304 303
f 264 257 265
f 264 265 273
f 273 255 264
f 260 268 267
f 267 259 260
f 266 259 267
f 267 268 276
f 267 276 275
f 275 266 267
f 121 9 14
f 137 9 121
f 14 11 121
f 121 11 138
f 138 137 121
f 10 8 12
f 12 9 10
f 134 137 119
f 134 9 137
f 134 10 9
f 25 111 117
f 117 111 113
f 113 118 117
f 117 134 119
f 118 134 117
f 117 21 25
f 19 21 117
f 138 97 23
f 23 97 99
f 23 27 138
f 24 27 23
f 23 22 24
f 99 22 23
f 32 112 30
f 32 30 87
f 32 31 115
f 115 112 32
f 87 110 32
f 32 109 31
f 32 110 109
f 71 72 69
f 71 63 72
f 71 69 254
f 254 63 71
f 333 334 342
f 333 68 334
f 77 342 75
f 70 62 334
f 334 68 70
f 72 62 70
f 70 95 72
f 75 341 74
f 103 98 100
f 78 108 92
f 92 81 341
f 108 74 92
f 350 78 92
f 92 341 350
f 249 248 310
f 248 311 310
f 310 358 249
f 214 213 216
f 216 215 214
f 197 213 214
f 214 215 197
f 233 238 234
f 240 238 233
f 234 202 233
f 233 202 240
f 174 238 175
f 175 172 174
f 176 171 175
f 175 171 172
f 203 475 204
f 204 205 203
f 475 205 204
f 425 420 384
f 418 257 419
f 423 418 419
f 420 425 419
f 415 255 384
f 384 420 415
f 415 420 255
f 255 420 256
f 256 264 255
f 257 264 256
f 256 419 257
f 420 419 256
f 270 8 5
f 5 4 270
f 5 136 6
f 6 4 5
f 10 134 120
f 136 5 120
f 120 118 136
f 120 134 118
f 8 10 120
f 120 5 8
f 139 119 26
f 139 117 119
f 26 19 139
f 19 117 139
f 68 333 66
f 66 93 98
f 66 333 342
f 342 77 66
f 82 90 83
f 83 90 91
f 88 89 87
f 87 82 88
f 88 91 89
f 341 81 73
f 73 74 341
f 81 92 73
f 73 92 74
f 108 100 107
f 75 74 107
f 107 74 108
f 102 100 108
f 80 105 102
f 102 108 80
f 102 105 104
f 102 104 103
f 103 100 102
f 358 310 357
f 356 348 357
f 348 358 357
f 176 175 236
f 391 425 384
f 424 390 423
f 423 419 424
f 424 419 425
f 424 391 390
f 425 391 424
f 93 66 76
f 76 66 77
f 76 77 75
f 96 95 65
f 95 70 65
f 65 70 68
f 84 85 82
f 82 83 84
f 84 88 85
f 84 83 91
f 91 88 84
f 82 85 86
f 86 88 82
f 85 88 86
f 75 107 106
f 106 76 75
f 93 76 106
f 98 93 106
f 106 100 98
f 106 107 100
f 328 329 355
f 328 324 329
f 309 357 310
f 309 310 311
f 313 314 315
f 313 312 314
f 315 319 313
f 313 311 312
f 319 324 313
f 239 236 201
f 201 176 239
f 237 175 238
f 237 236 175
f 237 238 201
f 201 236 237
f 68 66 64
f 64 65 68
f 64 66 98
f 64 98 96
f 96 65 64
f 311 313 323
f 327 309 323
f 323 309 311
f 323 313 324
f 323 328 327
f 324 328 323
f 176 236 235
f 235 239 176
f 236 239 235
f 448 447 379
f 379 447 378
f 448 379 369
f 369 370 448
f 405 377 404
f 371 377 405
f 371 405 372
f 372 405 406
f 361 372 406
f 369 372 361
f 404 377 403
f 403 377 374
f 297 298 279
f 279 280 297
f 332 307 350
f 332 350 351
f 402 398 396
f 402 396 360
f 402 456 455
f 402 375 376
f 360 362 402
f 470 474 402
f 412 413 402
f 402 403 374
f 374 375 402
f 376 373 402
f 402 365 412
f 402 474 449
f 362 364 402
f 402 471 470
f 455 473 402
f 402 413 414
f 414 403 402
f 402 461 458
f 458 456 402
f 472 471 402
f 402 473 472
f 402 393 392
f 402 364 365
f 402 373 461
f 449 395 402
f 402 395 394
f 394 393 402
f 302 282 274
f 274 275 302
f 370 369 368
f 368 361 249
f 369 361 368
f 249 251 368
f 429 385 453
f 453 446 429
f 245 393 383
f 383 247 245
f 382 393 394
f 382 383 393
f 281 274 282
f 273 274 281
f 453 385 391
f 391 380 381
f 391 385 386
f 386 387 391
f 391 381 453
f 391 382 380
f 387 388 391
f 383 382 391
f 384 383 391
f 391 389 390
f 388 389 391
f 356 327 328
f 355 356 328
f 309 327 356
f 356 357 309