# https://github.com/mikedh/trimesh
v 0.00250000 -0.00750000 0.03141690
v 0.00250000 0.00750000 0.03141690
v 0.00433722 -0.00800000 0.00074060
v 0.00335378 -0.00800000 0.00650000
v 0.00335378 0.00800000 0.00650000
v 0.00433722 0.00800000 0.00074060
v 0.00586487 0.00576615 0.01085494
v 0.00623382 0.00519705 0.01143122
v 0.00623532 0.00519452 0.01139243
v 0.00579516 -0.00569861 0.02733434
v 0.00543193 -0.00609867 0.02772463
v 0.00516878 -0.00632590 0.02801416
v 0.00615620 -0.00517598 0.02681130
v 0.00604367 -0.00535515 0.02697631
v 0.00615746 -0.00511410 0.01122413
v 0.00613134 -0.00515631 0.01128027
v 0.00628407 -0.00459441 0.01113123
v 0.00623973 -0.00489705 0.01113123
v 0.00619022 -0.00504722 0.01117151
v 0.00619724 -0.00502944 0.01116202
v 0.00625222 0.00487080 0.01113122
v 0.00581566 0.00576888 0.02649152
v 0.00579422 0.00579389 0.02736362
v 0.00620434 0.00519017 0.02676471
v 0.00620021 0.00519705 0.02670085
v 0.00510059 0.00646666 0.02829636
v 0.00533643 0.00627810 0.02799566
v 0.00625178 0.00489705 0.01113122
v 0.00624186 0.00517421 0.01131642
v 0.00624609 0.00515069 0.01127103
v 0.00625135 0.00508392 0.01119653
v 0.00625168 0.00499604 0.01114803
v 0.00623819 0.00448480 0.02700085
v 0.00623685 0.00489705 0.02700084
v 0.00547539 0.00611318 0.02804676
v 0.00510011 0.00641432 0.02863865
v 0.00584286 0.00569772 0.02748902
v 0.00621107 0.00517421 0.02681565
v 0.00621717 0.00515232 0.02685845
v 0.00623269 0.00499720 0.02698364
v 0.00583096 0.00561814 0.02762502
v 0.00622748 0.00508515 0.02693455
v 0.00548092 0.00601147 0.02818311
v 0.00542613 -0.00606096 0.02811616
v 0.00618818 -0.00508558 0.02693420
v 0.00575454 -0.00570739 0.02761794
v 0.00510045 -0.00633282 0.02858559
v 0.00510033 -0.00635389 0.02850233
v 0.00510069 -0.00637596 0.02826220
v 0.00510029 -0.00627531 0.02871038
v 0.00574357 -0.00562941 0.02774270
v 0.00622525 -0.00476954 0.02700085
v 0.00621620 -0.00489705 0.02700085
v 0.00620335 -0.00499718 0.02698364
v 0.00496640 0.00646989 0.02889913
v 0.00465166 0.00662639 0.02931485
v 0.00450117 0.00675887 0.02918896
v 0.00489715 0.00657731 0.02878503
v 0.00478112 0.00666401 0.02865818
v 0.00466071 0.00672127 0.02877790
v 0.00507953 0.00648164 0.02832226
v 0.00496685 -0.00638213 0.02886781
v 0.00489587 -0.00648992 0.02875250
v 0.00480218 -0.00656283 0.02859921
v 0.00472206 -0.00658203 0.02895027
v 0.00464427 -0.00654340 0.02928714
v 0.00246194 -0.00750000 0.03160824
v 0.00235355 -0.00750000 0.03177045
v -0.01050000 -0.00720826 0.04206018
v -0.01050000 -0.00747247 0.04099606
v -0.01050000 -0.00750000 0.04050000
v -0.01050000 -0.00679693 0.04278373
v -0.01150000 0.00750000 0.04050000
v -0.01150000 0.00550000 0.04350000
v -0.01150000 -0.00550000 0.04350000
v -0.01150000 -0.00615611 0.04333398
v -0.01150000 -0.00679693 0.04278373
v -0.01150000 -0.00720826 0.04206018
v -0.01150000 -0.00747247 0.04099607
v -0.01150000 -0.00750000 0.04050000
v -0.01150000 0.00732165 0.04173839
v -0.01150000 0.00691421 0.04262132
v -0.01150000 0.00633120 0.04322864
v -0.01150000 0.00569453 0.04348578
v -0.01328156 -0.00750000 0.00700000
v -0.01328156 0.00750000 0.00700000
v 0.00235355 0.00750000 0.03177045
v 0.00246194 0.00750000 0.03160824
v -0.01050000 0.00750000 0.04050000
v -0.01050000 0.00691421 0.04262133
v -0.01050000 0.00732165 0.04173839
v 0.00151067 0.00800000 -0.00413254
v 0.00282724 0.00800000 -0.00337145
v 0.00380609 0.00800000 -0.00220764
v 0.00433029 0.00800000 -0.00078011
v -0.01010065 0.00800000 0.00650000
v 0.00001364 0.00800000 -0.00439998
v -0.00148502 0.00800000 -0.00414183
v -0.00280629 0.00800000 -0.00338892
v -0.00379233 0.00800000 -0.00223119
v 0.00433029 -0.00800000 -0.00078011
v 0.00151067 -0.00800000 -0.00413254
v 0.00282724 -0.00800000 -0.00337145
v 0.00380609 -0.00800000 -0.00220764
v -0.01010065 -0.00800000 0.00650000
v -0.00379233 -0.00800000 -0.00223119
v -0.00280629 -0.00800000 -0.00338892
v -0.00148502 -0.00800000 -0.00414183
v 0.00001364 -0.00800000 -0.00439998
v -0.01300000 -0.00614952 0.03937500
v -0.01300000 -0.00625000 0.03900000
v -0.01300000 0.00614952 0.03937500
v -0.01300000 0.00625000 0.03900000
v -0.01400000 0.00260000 0.04240000
v -0.01400000 -0.00130000 0.04240000
v -0.01400000 0.00260000 0.04080000
v -0.01400000 -0.00130000 0.04080000
v 0.00224353 -0.00530000 0.03929435
v 0.00224353 0.00530000 0.03929435
v 0.00192736 -0.00530000 0.04018981
v 0.00192736 0.00530000 0.04018981
v 0.00149290 -0.00530000 0.04103423
v 0.00149290 0.00530000 0.04103423
v 0.00094815 -0.00530000 0.04181208
v 0.00094815 0.00530000 0.04181208
v 0.00030313 -0.00530000 0.04250904
v 0.00030313 0.00530000 0.04250904
v -0.00043029 -0.00530000 0.04311229
v -0.00043029 0.00530000 0.04311229
v -0.00123860 -0.00530000 0.04361071
v -0.00123860 0.00530000 0.04361071
v -0.00210695 -0.00530000 0.04399513
v -0.00210695 0.00530000 0.04399513
v -0.00301933 -0.00530000 0.04425851
v -0.00301933 0.00530000 0.04425851
v -0.00395896 -0.00530000 0.04439596
v -0.00395896 0.00530000 0.04439596
v -0.00490855 -0.00530000 0.04440496
v -0.00490855 0.00530000 0.04440496
v -0.00585063 -0.00530000 0.04428536
v -0.00585063 0.00530000 0.04428536
v 0.00183554 0.00547321 0.04015019
v 0.00140729 0.00547321 0.04098255
v 0.00087032 0.00547321 0.04174929
v 0.00023451 0.00547321 0.04243629
v -0.00048843 0.00547321 0.04303092
v -0.00128520 0.00547321 0.04352223
v -0.00214113 0.00547321 0.04390117
v -0.00304048 0.00547321 0.04416076
v -0.00396669 0.00547321 0.04429626
v -0.00490272 0.00547321 0.04430514
v 0.00221771 0.00540000 0.03928716
v 0.00190276 0.00540000 0.04017920
v 0.00146996 0.00540000 0.04102039
v 0.00092730 0.00540000 0.04179526
v 0.00028475 0.00540000 0.04248954
v -0.00044587 0.00540000 0.04309048
v -0.00125109 0.00540000 0.04358700
v -0.00211610 0.00540000 0.04396996
v -0.00302500 0.00540000 0.04423231
v -0.00396103 0.00540000 0.04436924
v -0.00490699 0.00540000 0.04437821
v 0.00221771 -0.00540000 0.03928716
v 0.00190276 -0.00540000 0.04017920
v 0.00146996 -0.00540000 0.04102039
v 0.00092730 -0.00540000 0.04179526
v 0.00028475 -0.00540000 0.04248954
v -0.00044587 -0.00540000 0.04309048
v -0.00125109 -0.00540000 0.04358700
v -0.00211610 -0.00540000 0.04396996
v -0.00302500 -0.00540000 0.04423231
v -0.00396103 -0.00540000 0.04436924
v -0.00490699 -0.00540000 0.04437821
v -0.00584546 -0.00540000 0.04425907
v 0.00183554 -0.00547320 0.04015019
v 0.00140729 -0.00547320 0.04098255
v 0.00087032 -0.00547320 0.04174929
v 0.00023451 -0.00547320 0.04243629
v -0.00048843 -0.00547320 0.04303092
v -0.00128520 -0.00547320 0.04352223
v -0.00214113 -0.00547320 0.04390117
v -0.00304048 -0.00547320 0.04416076
v -0.00396669 -0.00547320 0.04429626
v -0.00490272 -0.00547320 0.04430514
f 86 116 114
f 101 95 17
f 85 111 115
f 85 115 117
f 5 89 87
f 17 95 21
f 110 115 111
f 111 78 110
f 114 84 83
f 83 82 114
f 113 86 114
f 72 78 69
f 88 2 5
f 5 87 88
f 7 9 95
f 18 101 17
f 148 147 91
f 91 147 146
f 91 87 89
f 146 87 91
f 82 83 151
f 96 89 5
f 114 82 112
f 112 113 114
f 78 72 77
f 115 110 77
f 77 110 78
f 124 166 122
f 74 84 114
f 56 88 142
f 145 87 146
f 145 144 87
f 143 88 87
f 87 144 143
f 142 88 143
f 143 144 154
f 6 7 95
f 6 61 26
f 59 61 6
f 60 59 6
f 2 60 6
f 5 2 6
f 22 6 23
f 7 6 22
f 11 10 44
f 101 15 3
f 3 10 11
f 30 31 95
f 95 31 32
f 32 31 21
f 101 18 20
f 80 111 85
f 85 105 80
f 80 105 71
f 148 91 149
f 81 91 89
f 81 112 82
f 113 112 81
f 162 151 83
f 139 137 162
f 162 83 84
f 84 139 162
f 100 99 86
f 86 96 100
f 73 96 86
f 89 96 73
f 86 113 73
f 113 81 73
f 73 81 89
f 164 122 165
f 165 122 166
f 88 56 57
f 57 60 2
f 2 88 57
f 58 61 59
f 58 57 56
f 26 61 58
f 58 59 60
f 60 57 58
f 144 145 155
f 127 125 155
f 154 144 155
f 125 123 155
f 155 123 154
f 157 145 146
f 146 147 157
f 27 35 23
f 23 6 27
f 27 6 26
f 9 7 8
f 11 44 48
f 16 3 15
f 1 65 67
f 4 1 67
f 3 1 4
f 71 105 4
f 95 9 29
f 29 30 95
f 28 21 95
f 95 32 28
f 28 32 21
f 85 107 106
f 106 105 85
f 19 15 101
f 101 20 19
f 67 65 66
f 66 175 67
f 68 70 71
f 68 4 67
f 71 4 68
f 79 78 111
f 111 80 79
f 71 70 79
f 79 80 71
f 150 149 90
f 90 149 91
f 90 151 150
f 82 151 90
f 90 81 82
f 91 81 90
f 148 149 160
f 160 149 150
f 160 137 135
f 161 162 137
f 161 160 150
f 137 160 161
f 150 151 161
f 151 162 161
f 120 122 164
f 123 121 153
f 154 123 153
f 153 143 154
f 142 143 153
f 153 121 119
f 119 152 153
f 153 56 142
f 127 155 156
f 156 155 145
f 145 157 156
f 156 129 127
f 156 157 129
f 35 27 36
f 36 152 35
f 26 58 36
f 36 27 26
f 118 120 164
f 46 44 10
f 11 48 49
f 44 50 47
f 47 48 44
f 159 160 135
f 135 133 159
f 148 160 159
f 126 166 124
f 69 70 180
f 184 77 72
f 76 75 115
f 115 77 76
f 141 139 84
f 84 74 141
f 177 165 166
f 35 152 43
f 31 30 42
f 42 40 31
f 41 152 42
f 42 152 119
f 119 40 42
f 119 118 33
f 55 153 152
f 152 36 55
f 55 36 58
f 55 58 56
f 56 153 55
f 163 118 164
f 163 50 44
f 44 46 163
f 163 47 50
f 163 46 51
f 12 3 11
f 11 49 12
f 12 49 3
f 63 49 48
f 48 47 63
f 63 66 65
f 164 175 63
f 175 66 63
f 169 130 132
f 128 130 169
f 184 172 173
f 138 174 173
f 173 174 76
f 77 184 173
f 173 76 77
f 173 136 138
f 173 172 136
f 140 174 138
f 75 76 140
f 76 174 140
f 180 169 181
f 69 180 181
f 165 177 176
f 176 175 164
f 164 165 176
f 67 175 176
f 176 68 67
f 176 177 68
f 178 177 166
f 68 177 178
f 30 29 39
f 39 42 30
f 17 21 34
f 34 33 17
f 21 31 34
f 31 40 34
f 34 40 119
f 119 33 34
f 52 33 118
f 17 33 52
f 3 49 64
f 49 63 64
f 64 63 65
f 65 1 64
f 64 1 3
f 47 163 62
f 62 63 47
f 62 163 164
f 164 63 62
f 133 131 158
f 158 159 133
f 158 147 148
f 148 159 158
f 158 157 147
f 158 131 129
f 129 157 158
f 183 72 69
f 183 184 72
f 183 172 184
f 132 134 170
f 170 169 132
f 170 181 169
f 167 126 128
f 166 126 167
f 167 178 166
f 38 29 9
f 38 39 29
f 41 42 37
f 42 39 37
f 23 35 37
f 37 38 23
f 39 38 37
f 35 43 37
f 37 152 41
f 37 43 152
f 118 163 54
f 54 18 17
f 69 181 182
f 182 183 69
f 128 169 168
f 168 167 128
f 178 167 168
f 168 169 180
f 9 8 24
f 24 38 9
f 23 38 24
f 51 46 45
f 45 163 51
f 45 54 163
f 45 20 18
f 18 54 45
f 53 52 118
f 118 54 53
f 17 52 53
f 53 54 17
f 171 170 134
f 181 170 171
f 171 182 181
f 171 134 136
f 136 172 171
f 172 183 171
f 183 182 171
f 179 168 180
f 179 180 70
f 178 168 179
f 70 68 179
f 68 178 179
f 25 8 7
f 25 24 8
f 7 22 25
f 25 22 23
f 23 24 25
f 14 46 10
f 14 45 46
f 10 3 14
f 3 16 13
f 13 14 3
f 13 16 15
f 45 14 13
f 15 19 13
f 13 19 20
f 20 45 13
f 116 86 117
f 117 86 85
f 114 116 117
f 117 115 114
f 85 86 99
f 99 107 85
f 99 108 107
f 98 108 99
f 104 94 95
f 95 101 104
f 94 104 93
f 93 104 103
f 93 103 102
f 102 92 93
f 97 108 98
f 97 109 108
f 97 92 102
f 102 109 97
f 123 125 124
f 124 122 123
f 95 94 100
f 100 97 98
f 98 99 100
f 94 93 100
f 100 96 5
f 5 6 100
f 100 93 92
f 92 97 100
f 100 6 95
f 114 115 75
f 75 74 114
f 106 104 101
f 102 103 106
f 107 108 106
f 106 109 102
f 108 109 106
f 103 104 106
f 101 3 106
f 3 4 106
f 106 4 105
f 79 70 69
f 69 78 79
f 139 138 136
f 136 137 139
f 120 123 122
f 120 121 123
f 121 120 118
f 119 121 118
f 124 125 126
f 126 125 127
f 129 128 126
f 127 129 126
f 132 133 134
f 134 133 135
f 137 136 134
f 135 137 134
f 131 128 129
f 131 130 128
f 131 133 132
f 132 130 131
f 74 75 140
f 140 141 74
f 140 138 139
f 139 141 140