# https://github.com/mikedh/trimesh
v -0.00503212 0.01722403 0.00691304
v -0.00507556 0.01724662 0.00687804
v -0.00518207 0.01649681 0.00685901
v -0.00497255 0.01722174 0.00695735
v -0.00504974 0.01604684 0.00698947
v -0.00505676 0.01600550 0.00698622
v -0.00532009 0.01552453 0.00678922
v -0.00505653 0.01599361 0.00698699
v -0.00502306 0.01551096 0.00703341
v -0.00490624 0.01617769 0.00708872
v -0.00468255 0.01622451 0.00723722
v -0.00468255 0.01728148 0.00714789
v -0.00496209 0.01722373 0.00696473
v -0.00497777 0.01614475 0.00703836
v -0.00502703 0.01609338 0.00700423
v -0.00458255 0.01979568 0.00675594
v -0.00471331 0.01979711 0.00667256
v -0.00458254 0.01974649 0.00676822
v -0.00472417 0.01972028 0.00668474
v -0.00467249 0.02008448 0.00662416
v -0.00458278 0.02071758 0.00650173
v -0.00418255 0.02313777 0.00588472
v -0.00418255 0.02353394 0.00571901
v -0.00424012 0.02312874 0.00585515
v 0.00453224 0.02478677 0.00482547
v 0.00457587 0.02480896 0.00476890
v 0.00431720 0.02600311 0.00434961
v -0.00373254 0.02638827 0.00455471
v -0.00373241 0.02670318 0.00437536
v -0.00377813 0.02638126 0.00453254
v -0.00426660 0.02621374 0.00427115
v -0.00423717 0.02625401 0.00427334
v -0.00396663 0.02730424 0.00384989
v -0.00419170 0.02629069 0.00429075
v -0.00402563 0.02633752 0.00439375
v -0.00386187 0.02728082 0.00394391
v -0.00412625 0.02631713 0.00432906
v -0.00387953 0.02727846 0.00393267
v -0.00393112 0.02728396 0.00389068
v -0.00373254 0.02730385 0.00401695
v -0.00749480 0.00669056 0.00485223
v -0.00748901 0.00767687 0.00420614
v -0.00748159 0.00839998 0.00370778
v -0.00746866 0.00916566 0.00313988
v -0.00745082 0.00984246 0.00258674
v -0.00741734 0.01066147 0.00182345
v -0.00737352 0.01136149 0.00105283
v -0.00737237 0.01137657 0.00103462
v 0.00181018 0.01643051 -0.00877104
v 0.00199697 0.01636095 -0.00876056
v 0.00110255 0.00890652 -0.01045070
v 0.00240611 0.01627089 -0.00871602
v 0.00241332 0.00881939 -0.01029980
v 0.00176056 0.00887287 -0.01039244
v 0.00109877 0.01647590 -0.00883519
v -0.00000000 0.00892483 -0.01048242
v -0.00000000 0.01650209 -0.00887189
v 0.00306097 0.01618448 -0.00860426
v 0.00301623 0.00875093 -0.01018122
v 0.00352762 0.01610573 -0.00849311
v 0.00368072 0.00864985 -0.01000615
v 0.00372174 0.01606799 -0.00843564
v 0.00434400 0.00851321 -0.00976947
v 0.00436290 0.01591737 -0.00817980
v 0.00442887 0.00849239 -0.00973343
v 0.00495897 0.01572859 -0.00780637
v 0.00499501 0.00832726 -0.00944740
v -0.00132498 0.01646383 -0.00881824
v -0.00199697 0.01636095 -0.00876056
v -0.00132114 0.00889748 -0.01043506
v -0.00240611 0.01627089 -0.00871602
v -0.00229623 0.00883051 -0.01031906
v -0.00241332 0.00881939 -0.01029980
v -0.00066115 0.00891882 -0.01047201
v -0.00181018 0.01643051 -0.00877104
v -0.00499501 0.00832726 -0.00944740
v -0.00495897 0.01572859 -0.00780637
v -0.00493440 0.00834751 -0.00948249
v -0.00477923 0.01579189 -0.00793743
v -0.00436432 0.00850830 -0.00976098
v -0.00436984 0.01591549 -0.00817634
v -0.00372174 0.01606799 -0.00843564
v -0.00370275 0.00864595 -0.00999940
v -0.00352762 0.01610573 -0.00849311
v -0.00301637 0.00875091 -0.01018119
v -0.00598555 0.00787288 -0.00866040
v 0.00567825 0.00804224 -0.00895374
v 0.00552820 0.00811465 -0.00907915
v 0.00519809 0.00825386 -0.00932027
v 0.00714425 0.00657735 -0.00641647
v 0.00695783 0.00696775 -0.00709268
v 0.00632837 0.00764150 -0.00825963
v 0.00666290 0.00734797 -0.00775123
v 0.00672331 0.00728319 -0.00763902
v 0.00688167 0.00708445 -0.00729479
v 0.00580597 0.00797554 -0.00883819
v 0.00598552 0.00787291 -0.00866044
v 0.00623254 0.00771166 -0.00838116
v -0.00609562 0.00780420 -0.00854144
v -0.00620731 0.00772936 -0.00841180
v -0.00656601 0.00744274 -0.00791537
v -0.00636454 0.00761370 -0.00821149
v -0.00688167 0.00708445 -0.00729480
v -0.00666289 0.00734797 -0.00775123
v -0.00714425 0.00657735 -0.00641647
v -0.00703678 0.00682485 -0.00684515
v -0.00695357 0.00697477 -0.00710482
v -0.00691463 0.00703607 -0.00721100
v -0.00564704 0.00805781 -0.00898071
v -0.00549665 0.00812911 -0.00910420
v 0.00749480 0.00669056 0.00485223
v 0.00749080 0.00743169 0.00436939
v 0.00748159 0.00839998 0.00370778
v 0.00746932 0.00913452 0.00316403
v 0.00745082 0.00984246 0.00258674
v 0.00744697 0.00995838 0.00248575
v 0.00741255 0.01075295 0.00172999
v 0.00737352 0.01136149 0.00105283
v 0.00594865 0.01529763 -0.00656960
v 0.00610365 0.01517266 -0.00625919
v 0.00604775 0.01522014 -0.00637660
v 0.00574117 0.01543894 -0.00691928
v 0.00556253 0.01554432 -0.00717128
v 0.00548829 0.01558472 -0.00726476
v 0.00519460 0.01572886 -0.00758090
v 0.00514411 0.01575143 -0.00762775
v 0.00464825 0.01593680 -0.00798503
v 0.00415184 0.01608301 -0.00823814
v 0.00403455 0.01611209 -0.00828608
v 0.00320549 0.01627094 -0.00853639
v -0.00323416 0.01626660 -0.00852978
v -0.00610081 0.01517514 -0.00626532
v -0.00604775 0.01522014 -0.00637660
v -0.00408231 0.01610047 -0.00826702
v -0.00484564 0.01586678 -0.00785555
v -0.00514411 0.01575143 -0.00762775
v -0.00550548 0.01557553 -0.00724366
v -0.00574627 0.01543574 -0.00691146
v -0.00594865 0.01529763 -0.00656960
v 0.00749646 0.00209320 0.00512923
v 0.00747826 0.00413909 -0.00541647
v 0.00749520 0.00290676 -0.00541647
v 0.00749646 0.00194465 -0.00541647
v 0.00749670 0.00545798 0.00518530
v 0.00749675 0.00589202 0.00515968
v 0.00749669 0.00601778 0.00513509
v 0.00749656 0.00615731 0.00509829
v 0.00745394 0.00471037 -0.00541647
v 0.00736405 0.00558963 -0.00556014
v 0.00739785 0.00534320 -0.00547944
v 0.00740727 0.00526317 -0.00546061
v 0.00744517 0.00484530 -0.00541647
v 0.00749533 0.00656067 0.00492948
v 0.00560000 -0.00390600 0.00242739
v 0.00560000 -0.00405891 0.00189538
v 0.00560000 -0.00386417 0.00254300
v 0.00560000 -0.00347366 0.00331388
v 0.00560000 -0.00295928 0.00391776
v 0.00560000 -0.00417043 0.00131184
v 0.00560000 -0.00426992 0.00001746
v 0.00560000 -0.00231134 0.00438531
v 0.00560000 -0.00184181 0.00461140
v 0.00715751 0.00654045 -0.00635512
v 0.00505147 0.01571617 -0.00772593
v 0.00749646 -0.00153129 -0.00503300
v 0.00749646 -0.00131084 -0.00510480
v 0.00749646 -0.00135322 0.00478332
v 0.00749646 -0.00426991 0.00001370
v 0.00749646 -0.00424997 -0.00072344
v 0.00749646 -0.00388409 -0.00269023
v 0.00749646 -0.00369519 -0.00314792
v 0.00749646 -0.00347238 -0.00354919
v 0.00749646 -0.00417042 0.00130947
v 0.00749646 -0.00417633 -0.00144270
v 0.00749646 -0.00392408 -0.00257125
v 0.00749646 -0.00295928 0.00391755
v 0.00749646 -0.00347366 0.00331331
v 0.00749646 -0.00231134 0.00438527
v 0.00749646 -0.00386417 0.00254182
v 0.00749646 -0.00184181 0.00461139
v 0.00749646 -0.00390599 0.00242611
v 0.00749646 -0.00405890 0.00189360
v 0.00749646 -0.00294168 -0.00419679
v 0.00749646 -0.00229780 -0.00468129
v 0.00749646 -0.00091003 0.00489943
v 0.00749646 0.00029444 0.00507581
v 0.00749646 0.00134699 -0.00541713
v 0.00749646 -0.00017888 -0.00533614
v 0.00653911 -0.00390600 0.00242676
v 0.00653911 -0.00386417 0.00254242
v 0.00653911 -0.00347366 0.00331360
v 0.00653911 -0.00295928 0.00391765
v 0.00653911 -0.00231134 0.00438529
v 0.00653911 -0.00426992 0.00001562
v 0.00653911 -0.00417042 0.00131067
v 0.00653911 -0.00405891 0.00189451
v 0.00477748 0.01585133 -0.00791727
v -0.00749646 0.00194465 -0.00541647
v -0.00749520 0.00290675 -0.00541647
v -0.00747826 0.00413909 -0.00541647
v -0.00745394 0.00471037 -0.00541647
v -0.00749646 0.00615706 0.00507634
v -0.00749646 0.00589444 0.00508131
v -0.00749646 0.00563201 0.00508624
v -0.00749646 0.00510860 0.00509582
v -0.00749646 0.00407313 0.00511279
v -0.00749646 0.00281885 0.00512667
v -0.00749646 0.00209320 0.00512923
v -0.00560000 -0.00390600 0.00242739
v -0.00560000 -0.00405891 0.00189538
v -0.00560000 -0.00417043 0.00131184
v -0.00560000 -0.00426992 0.00001746
v -0.00560000 -0.00231134 0.00438531
v -0.00560000 -0.00295928 0.00391776
v -0.00560000 -0.00347366 0.00331388
v -0.00560000 -0.00386417 0.00254300
v -0.00560000 -0.00184181 0.00461140
v -0.00744517 0.00484530 -0.00541647
v -0.00740697 0.00526581 -0.00546118
v -0.00737560 0.00551121 -0.00553059
v -0.00749637 0.00623004 0.00507497
v -0.00749508 0.00662463 0.00489302
v -0.00505147 0.01571617 -0.00772593
v -0.00749646 -0.00417042 0.00130947
v -0.00749646 -0.00295928 0.00391755
v -0.00749646 -0.00231134 0.00438527
v -0.00749646 -0.00184181 0.00461139
v -0.00749646 -0.00135322 0.00478332
v -0.00749646 -0.00405890 0.00189360
v -0.00749646 -0.00390599 0.00242611
v -0.00749646 -0.00386417 0.00254182
v -0.00749646 -0.00347366 0.00331331
v -0.00749646 -0.00392408 -0.00257125
v -0.00749646 -0.00417633 -0.00144270
v -0.00749646 -0.00424997 -0.00072344
v -0.00749646 -0.00426991 0.00001370
v -0.00749646 -0.00369519 -0.00314792
v -0.00749646 -0.00388409 -0.00269023
v -0.00749646 -0.00131084 -0.00510480
v -0.00749646 -0.00153129 -0.00503300
v -0.00749646 -0.00229780 -0.00468129
v -0.00749646 -0.00294168 -0.00419679
v -0.00749646 -0.00347238 -0.00354919
v -0.00749646 0.00029444 0.00507581
v -0.00749646 -0.00091003 0.00489943
v -0.00749646 -0.00017888 -0.00533614
v -0.00749646 0.00134699 -0.00541713
v -0.00653911 -0.00390600 0.00242676
v -0.00653911 -0.00405891 0.00189451
v -0.00653911 -0.00417042 0.00131067
v -0.00653911 -0.00426992 0.00001562
v -0.00653911 -0.00231134 0.00438529
v -0.00653911 -0.00295928 0.00391765
v -0.00653911 -0.00347366 0.00331360
v -0.00653911 -0.00386417 0.00254242
v 0.00736800 0.01151517 0.00110122
v 0.00734920 0.00754120 0.00509613
v -0.00720589 0.00751159 0.00535064
v -0.00727456 0.00753562 0.00527629
v -0.00731685 0.00760652 0.00518117
v -0.00734818 0.00754665 0.00509896
v -0.00724733 0.00758468 0.00530674
v -0.00724058 0.00756818 0.00531668
v -0.00722042 0.00758660 0.00533591
v -0.00675775 0.00809814 0.00575399
v -0.00628263 0.00865610 0.00615873
v -0.00732845 0.01088816 0.00325655
v -0.00734185 0.00932995 0.00410441
v -0.00732725 0.01097093 0.00321274
v -0.00717774 0.01418427 0.00179800
v -0.00719749 0.01414356 0.00169895
v -0.00731146 0.01175826 0.00280638
v -0.00728549 0.01254206 0.00242276
v -0.00719267 0.01421549 0.00166775
v -0.00719336 0.01440921 0.00095661
v -0.00713826 0.01471026 -0.00022915
v -0.00727494 0.01305296 0.00031192
v -0.00730831 0.01283739 0.00108358
v -0.00717649 0.01453476 0.00045114
v -0.00731276 0.01272471 0.00164320
v -0.00734946 0.01194190 0.00200980
v -0.00732503 0.01223238 0.00061878
v -0.00735226 0.01203808 0.00141576
v -0.00736800 0.01151517 0.00110122
v -0.00718265 0.01363418 -0.00083454
v -0.00705283 0.01413671 -0.00209448
v -0.00712499 0.01476315 -0.00042540
v -0.00691929 0.01534506 -0.00251508
v -0.00678578 0.01558806 -0.00338983
v -0.00655442 0.01589452 -0.00447313
v -0.00628929 0.01512278 -0.00575166
v -0.00638616 0.01502262 -0.00550567
v -0.00624863 0.01617861 -0.00542456
v -0.00586855 0.01643523 -0.00622911
v -0.00446342 0.01613332 -0.00803967
v 0.00447263 0.01613094 -0.00803459
v 0.00569294 0.01561102 -0.00692718
v 0.00586855 0.01643523 -0.00622911
v 0.00624863 0.01617862 -0.00542456
v 0.00636690 0.01504209 -0.00556691
v 0.00655441 0.01589453 -0.00447313
v 0.00718265 0.01363418 -0.00083454
v 0.00705283 0.01413671 -0.00209448
v 0.00687089 0.01461094 -0.00337932
v 0.00732502 0.01223239 0.00061878
v 0.00726294 0.01322360 0.00025019
v 0.00713826 0.01471026 -0.00022916
v 0.00706651 0.01496787 -0.00116615
v 0.00695252 0.01527261 -0.00225479
v 0.00678578 0.01558806 -0.00338983
v 0.00719749 0.01414356 0.00169895
v 0.00728549 0.01254206 0.00242276
v 0.00731275 0.01272472 0.00164320
v 0.00719336 0.01440922 0.00095660
v 0.00719267 0.01421549 0.00166775
v 0.00730831 0.01283740 0.00108358
v 0.00717649 0.01453477 0.00045113
v 0.00735226 0.01203809 0.00141576
v 0.00734946 0.01194190 0.00200979
v 0.00732725 0.01097093 0.00321274
v 0.00734185 0.00933054 0.00410408
v 0.00732845 0.01088816 0.00325655
v 0.00693454 0.01675716 -0.00075282
v 0.00702001 0.01645094 0.00073507
v 0.00680177 0.01871284 -0.00012819
v 0.00679401 0.01878418 -0.00015356
v 0.00676651 0.01706089 -0.00238288
v 0.00639482 0.01743524 -0.00424199
v 0.00615741 0.01934636 -0.00399291
v 0.00661288 0.01724582 -0.00332108
v 0.00636548 0.01923849 -0.00324374
v 0.00651256 0.01913586 -0.00250202
v 0.00368616 0.02932745 -0.00391833
v 0.00340355 0.02968601 -0.00397135
v 0.00395026 0.03020987 -0.00288169
v 0.00415562 0.02994464 -0.00286145
v 0.00460577 0.02913390 -0.00278961
v 0.00429709 0.02905726 -0.00330755
v 0.00509683 0.02768831 -0.00263509
v 0.00480903 0.02766448 -0.00317206
v 0.00393593 0.02889624 -0.00386585
v 0.00441147 0.02763993 -0.00378068
v 0.00354710 0.02877164 -0.00431172
v 0.00312182 0.02944655 -0.00437185
v 0.00289602 0.02928165 -0.00457846
v 0.00241489 0.02955782 -0.00468192
v 0.00168642 0.02986120 -0.00476879
v 0.00270151 0.03029331 -0.00406488
v 0.00250758 0.02996714 -0.00445888
v 0.00173385 0.03036446 -0.00453182
v 0.00186212 0.03073100 -0.00413004
v 0.00229470 0.03053679 -0.00410178
v 0.00356871 0.03059724 -0.00290815
v 0.00314189 0.03092136 -0.00292710
v 0.00267645 0.03118487 -0.00293995
v 0.00217908 0.03139045 -0.00294814
v 0.00094826 0.03096281 -0.00415937
v 0.00111479 0.03164216 -0.00295544
v -0.00000000 0.03102734 -0.00416528
v -0.00000000 0.03171637 -0.00295640
v 0.00088339 0.03057932 -0.00457144
v 0.00086268 0.03003622 -0.00481973
v -0.00000000 0.03063933 -0.00458253
v -0.00000000 0.03008600 -0.00483630
v -0.00111479 0.03164216 -0.00295544
v -0.00094826 0.03096281 -0.00415937
v -0.00217909 0.03139045 -0.00294815
v -0.00186213 0.03073100 -0.00413004
v -0.00088340 0.03057932 -0.00457144
v -0.00086269 0.03003622 -0.00481973
v -0.00173386 0.03036446 -0.00453182
v -0.00168642 0.02986120 -0.00476879
v -0.00267645 0.03118487 -0.00293995
v -0.00229470 0.03053679 -0.00410178
v -0.00314725 0.03091784 -0.00292691
v -0.00270151 0.03029331 -0.00406488
v -0.00357600 0.03059084 -0.00290775
v -0.00340355 0.02968601 -0.00397135
v -0.00395025 0.03020987 -0.00288168
v -0.00250758 0.02996714 -0.00445888
v -0.00241490 0.02955782 -0.00468192
v -0.00312183 0.02944655 -0.00437185
v -0.00289603 0.02928165 -0.00457846
v -0.00480903 0.02766448 -0.00317206
v -0.00509683 0.02768831 -0.00263509
v -0.00484363 0.02852082 -0.00272730
v -0.00441148 0.02763993 -0.00378068
v -0.00417150 0.02834840 -0.00381845
v -0.00393594 0.02889624 -0.00386585
v -0.00460577 0.02913390 -0.00278961
v -0.00368617 0.02932745 -0.00391833
v -0.00415563 0.02994464 -0.00286145
v -0.00354710 0.02877164 -0.00431172
v -0.00615741 0.01934636 -0.00399291
v -0.00639482 0.01743524 -0.00424198
v -0.00651256 0.01913586 -0.00250202
v -0.00636548 0.01923849 -0.00324374
v -0.00693454 0.01675716 -0.00075282
v -0.00676651 0.01706089 -0.00238288
v -0.00684855 0.01822706 0.00016059
v -0.00702821 0.01624615 0.00092190
v -0.00717323 0.01425591 0.00176640
v -0.00679483 0.01874763 -0.00002354
v -0.00680177 0.01871284 -0.00012819
v -0.00702001 0.01645094 0.00073506
v -0.00679401 0.01878418 -0.00015356
v -0.00678722 0.01881900 -0.00004821
v -0.00653002 0.02093670 -0.00069887
v -0.00642697 0.01997326 0.00160430
v -0.00626035 0.01918855 0.00363974
v -0.00621114 0.02308465 -0.00120040
v -0.00616215 0.02204733 0.00117650
v -0.00604204 0.02118056 0.00327564
v -0.00620648 0.02305373 -0.00135128
v -0.00653149 0.02090256 -0.00082829
v -0.00619321 0.02313580 -0.00136860
v -0.00581657 0.02540454 -0.00162326
v -0.00588421 0.02503452 -0.00156191
v -0.00579874 0.02440630 0.00075398
v -0.00619812 0.02316663 -0.00121696
v -0.00532747 0.02666406 0.00040010
v -0.00533102 0.02765748 -0.00195051
v -0.00556724 0.02665474 -0.00181437
v -0.00571105 0.02351101 0.00284057
v -0.00525186 0.02580074 0.00243125
v -0.00531485 0.02762205 -0.00216617
v -0.00580469 0.02537376 -0.00179671
v -0.00522152 0.02769866 -0.00236474
v -0.00529325 0.02770392 -0.00217874
v -0.00426373 0.03004629 -0.00260439
v -0.00453615 0.02970875 -0.00246133
v -0.00410079 0.03033930 -0.00253054
v -0.00472590 0.02919647 -0.00253367
v -0.00485619 0.02904382 -0.00237394
v -0.00409122 0.03035063 -0.00253158
v -0.00408161 0.03036192 -0.00253260
v -0.00531331 0.02772471 -0.00207125
v -0.00530946 0.02773960 -0.00196101
v -0.00411033 0.03034918 -0.00250048
v -0.00412301 0.03036323 -0.00244689
v -0.00413295 0.03037709 -0.00236244
v -0.00456422 0.02973949 -0.00231290
v -0.00488057 0.02906997 -0.00224367
v -0.00411777 0.03037626 -0.00218784
v -0.00455075 0.02974773 -0.00215957
v -0.00487114 0.02908292 -0.00210953
v -0.00473805 0.02838484 0.00021536
v -0.00465834 0.02760718 0.00215848
v -0.00429663 0.02833887 0.00207213
v -0.00390443 0.02893355 0.00201933
v -0.00404514 0.02874000 0.00203431
v -0.00496983 0.02677896 0.00227519
v -0.00410074 0.03036053 -0.00250145
v -0.00411348 0.03037468 -0.00244777
v -0.00412344 0.03038858 -0.00236314
v -0.00410827 0.03038754 -0.00218816
v -0.00409114 0.03037189 -0.00250243
v -0.00410390 0.03038611 -0.00244864
v -0.00411388 0.03040003 -0.00236382
v -0.00409872 0.03039882 -0.00218846
v -0.00371684 0.03080812 -0.00238294
v -0.00368400 0.03076398 -0.00256243
v -0.00226688 0.03164025 -0.00238775
v -0.00224653 0.03158407 -0.00257915
v -0.00277807 0.03142932 -0.00239068
v -0.00275211 0.03137606 -0.00258016
v -0.00326641 0.03115300 -0.00239057
v -0.00323589 0.03110369 -0.00257658
v -0.00226108 0.03162082 -0.00218827
v -0.00277002 0.03141192 -0.00219309
v -0.00325540 0.03113927 -0.00219652
v -0.00370308 0.03079989 -0.00219589
v -0.00347584 0.02941428 0.00199453
v -0.00301718 0.02979202 0.00199175
v -0.00253611 0.03007861 0.00200440
v -0.00204030 0.03028589 0.00202590
v -0.00224958 0.03162478 -0.00218818
v -0.00000000 0.03192020 -0.00257786
v -0.00111953 0.03184769 -0.00257767
v -0.00223518 0.03158798 -0.00257911
v -0.00168019 0.03174583 -0.00257804
v -0.00169433 0.03180447 -0.00238507
v -0.00225546 0.03164420 -0.00238769
v -0.00169021 0.03178383 -0.00218401
v -0.00112551 0.03188653 -0.00218127
v -0.00112816 0.03190790 -0.00238355
v -0.00000000 0.03195943 -0.00217939
v -0.00000000 0.03198144 -0.00238271
v -0.00000000 0.03056362 0.00209518
v -0.00000000 0.03117379 0.00023770
v -0.00102723 0.03051056 0.00207240
v -0.00100000 0.03112444 0.00021545
v -0.00000000 0.03132865 -0.00023772
v -0.00100000 0.03127557 -0.00024882
v -0.00100000 0.03120003 -0.00001667
v 0.00113230 0.03188559 -0.00218130
v 0.00100000 0.03127557 -0.00024882
v 0.00100000 0.03120003 -0.00001667
v 0.00100000 0.03112444 0.00021545
v 0.00102723 0.03051056 0.00207240
v 0.00167772 0.03178669 -0.00218393
v 0.00204029 0.03028589 0.00202590
v 0.00203889 0.03169224 -0.00218643
v 0.00224959 0.03162478 -0.00218818
v 0.00225647 0.03164648 -0.00233136
v 0.00225456 0.03164197 -0.00240738
v 0.00204327 0.03170994 -0.00240632
v 0.00204207 0.03170348 -0.00223042
v 0.00168022 0.03179827 -0.00222811
v 0.00113389 0.03189752 -0.00222570
v 0.00112628 0.03184676 -0.00257767
v 0.00113461 0.03190459 -0.00240356
v 0.00166780 0.03174866 -0.00257802
v 0.00168121 0.03180503 -0.00240490
v 0.00202616 0.03165497 -0.00257860
v 0.00223517 0.03158798 -0.00257911
v 0.00224652 0.03158406 -0.00257914
v 0.00347584 0.02941428 0.00199453
v 0.00316157 0.03119867 -0.00219608
v 0.00301718 0.02979202 0.00199175
v 0.00275997 0.03141674 -0.00219300
v 0.00253611 0.03007861 0.00200440
v 0.00226107 0.03162081 -0.00218828
v 0.00390442 0.02893355 0.00201933
v 0.00411777 0.03037626 -0.00218784
v 0.00410826 0.03038754 -0.00218815
v 0.00409872 0.03039882 -0.00218846
v 0.00389287 0.03062204 -0.00219346
v 0.00226792 0.03164252 -0.00233141
v 0.00317172 0.03121400 -0.00229053
v 0.00317198 0.03121327 -0.00239104
v 0.00316165 0.03119546 -0.00248941
v 0.00225165 0.03159845 -0.00254915
v 0.00410513 0.03040206 -0.00222084
v 0.00411241 0.03040445 -0.00227742
v 0.00390601 0.03063046 -0.00228207
v 0.00411388 0.03040003 -0.00236382
v 0.00390750 0.03062715 -0.00237574
v 0.00408161 0.03036193 -0.00253261
v 0.00389650 0.03061163 -0.00246754
v 0.00387455 0.03058577 -0.00255087
v 0.00314223 0.03116308 -0.00257792
v 0.00412417 0.03037938 -0.00222009
v 0.00411467 0.03039074 -0.00222047
v 0.00413145 0.03038161 -0.00227643
v 0.00412195 0.03039305 -0.00227693
v 0.00413294 0.03037709 -0.00236244
v 0.00412344 0.03038858 -0.00236314
v 0.00410079 0.03033930 -0.00253054
v 0.00409122 0.03035063 -0.00253158
v 0.00455074 0.02974773 -0.00215957
v 0.00456422 0.02973949 -0.00231290
v 0.00488057 0.02906997 -0.00224367
v 0.00487113 0.02908292 -0.00210953
v 0.00531331 0.02772471 -0.00207125
v 0.00530946 0.02773960 -0.00196101
v 0.00453615 0.02970875 -0.00246133
v 0.00485619 0.02904382 -0.00237394
v 0.00529325 0.02770392 -0.00217873
v 0.00522152 0.02769866 -0.00236474
v 0.00472590 0.02919647 -0.00253367
v 0.00426372 0.03004629 -0.00260439
v 0.00429662 0.02833887 0.00207213
v 0.00473805 0.02838484 0.00021536
v 0.00532746 0.02666406 0.00040010
v 0.00533102 0.02765748 -0.00195051
v 0.00456101 0.02782502 0.00213084
v 0.00465159 0.02762284 0.00215645
v 0.00511262 0.02631647 0.00234687
v 0.00525185 0.02580074 0.00243125
v 0.00579874 0.02440630 0.00075398
v 0.00616197 0.02204492 0.00118213
v 0.00621114 0.02308465 -0.00120040
v 0.00619812 0.02316663 -0.00121696
v 0.00604105 0.02413015 -0.00140247
v 0.00568985 0.02606330 -0.00172699
v 0.00571105 0.02351102 0.00284057
v 0.00604204 0.02118056 0.00327564
v 0.00531484 0.02762205 -0.00216617
v 0.00619321 0.02313580 -0.00136860
v 0.00580469 0.02537376 -0.00179671
v 0.00642697 0.01997326 0.00160430
v 0.00653001 0.02093671 -0.00069887
v 0.00679482 0.01874763 -0.00002354
v 0.00678722 0.01881900 -0.00004821
v 0.00626034 0.01918855 0.00363974
v 0.00620648 0.02305373 -0.00135127
v 0.00653149 0.02090256 -0.00082829
v 0.00717323 0.01425591 0.00176640
v 0.00715362 0.01455824 0.00163390
v 0.00698163 0.01679931 0.00070039
v 0.00717774 0.01418427 0.00179800
v 0.00731669 0.00760689 0.00518157
v 0.00627227 0.00862854 0.00617512
v 0.00623839 0.00855934 0.00620679
v 0.00722981 0.00760056 0.00532387
v 0.00727431 0.00753603 0.00527670
v 0.00722525 0.00753921 0.00533408
v 0.00621889 0.00866809 0.00622027
v 0.00613112 0.00863730 0.00629395
v 0.00496712 0.00930366 0.00705544
v 0.00561291 0.00905602 0.00667877
v 0.00567753 0.00902525 0.00663424
v 0.00557226 0.00896010 0.00670048
v 0.00455889 0.00941913 0.00723451
v 0.00401016 0.00954075 0.00741918
v 0.00302253 0.00969353 0.00764129
v 0.00358456 0.00961528 0.00752879
v 0.00433266 0.01108184 0.00745528
v 0.00382139 0.01108887 0.00764964
v 0.00319682 0.01109591 0.00782178
v 0.00299314 0.00969710 0.00764638
v 0.00150189 0.00982684 0.00782940
v -0.00000000 0.00987064 0.00789039
v 0.00244679 0.01110272 0.00796470
v 0.00168482 0.01110794 0.00806110
v -0.00000000 0.01111301 0.00814348
v -0.00169460 0.01110788 0.00806011
v -0.00319682 0.01109592 0.00782177
v -0.00310108 0.01038140 0.00774376
v -0.00246025 0.01110261 0.00796260
v -0.00299314 0.00969709 0.00764638
v -0.00150189 0.00982684 0.00782940
v -0.00302253 0.00969353 0.00764129
v -0.00401015 0.00954075 0.00741918
v -0.00496712 0.00930366 0.00705544
v -0.00493306 0.00921386 0.00705890
v -0.00423847 0.01029088 0.00742341
v -0.00379535 0.01108919 0.00765808
v -0.00432717 0.01108192 0.00745770
v -0.00557226 0.00896010 0.00670048
v -0.00613112 0.00863730 0.00629395
v -0.00533796 0.00917337 0.00685395
v -0.00561291 0.00905602 0.00667877
v -0.00599095 0.00885458 0.00640052
v -0.00375189 0.01296112 0.00773178
v -0.00451903 0.01321264 0.00739534
v -0.00234095 0.01127920 0.00800169
v -0.00257511 0.01134629 0.00796413
v -0.00321731 0.01127972 0.00783610
v -0.00001237 0.01127976 0.00816581
v -0.00001830 0.01127979 0.00816580
v -0.00452412 0.01127991 0.00737818
v -0.00418746 0.01128010 0.00753135
v -0.00389261 0.01127890 0.00764234
v -0.00498699 0.01127900 0.00710568
v -0.00007170 0.01127988 0.00816564
v -0.00118969 0.01127976 0.00812489
v -0.00041108 0.01132820 0.00816061
v -0.00019111 0.01129447 0.00816465
v -0.00322693 0.01275579 0.00787924
v -0.00170477 0.01151480 0.00808109
v -0.00172704 0.01208229 0.00809622
v -0.00217726 0.01229232 0.00805251
v -0.00241159 0.01240006 0.00802379
v -0.00457892 0.01322921 0.00736132
v -0.00467496 0.01325467 0.00730401
v -0.00434050 0.01118222 0.00745905
v -0.00380756 0.01118535 0.00766293
v -0.00320739 0.01118863 0.00782930
v -0.00490804 0.01117862 0.00715410
v -0.00246852 0.01119212 0.00797222
v -0.00170037 0.01119525 0.00807102
v 0.00000000 0.01119822 0.00815529
v 0.00000000 0.01127978 0.00816582
v 0.00115951 0.01127949 0.00812693
v 0.00082860 0.01127839 0.00814586
v 0.00169053 0.01119500 0.00807197
v 0.00030329 0.01127969 0.00816314
v 0.00038744 0.01127896 0.00816139
v 0.00245499 0.01119188 0.00797431
v 0.00320732 0.01118803 0.00782927
v 0.00321732 0.01127987 0.00783611
v 0.00256084 0.01127930 0.00796706
v 0.00222438 0.01127977 0.00801850
v 0.00124149 0.01127909 0.00812114
v 0.00172516 0.01256731 0.00812347
v 0.00157009 0.01263636 0.00814304
v -0.00240206 0.01352236 0.00803625
v -0.00161456 0.01314137 0.00813504
v -0.00138951 0.01356446 0.00816976
v -0.00478232 0.01374361 0.00723428
v -0.00478624 0.01374717 0.00723169
v -0.00483280 0.01381056 0.00720028
v -0.00485645 0.01388894 0.00718373
v -0.00470162 0.01369708 0.00728618
v -0.00456781 0.01368014 0.00736626
v -0.00436114 0.01373314 0.00747603
v -0.00257552 0.01357112 0.00800718
v -0.00263624 0.01361111 0.00799606
v -0.00318896 0.01384494 0.00787842
v -0.00374564 0.01388963 0.00772326
v 0.00128076 0.01276844 0.00817571
v 0.00069358 0.01304902 0.00822737
v -0.00004768 0.01342550 0.00826556
v -0.00037343 0.01359707 0.00827257
v 0.00416833 0.01127970 0.00753916
v 0.00435842 0.01127973 0.00745753
v 0.00453193 0.01127978 0.00737423
v 0.00486819 0.01127974 0.00718384
v -0.00249283 0.01353256 0.00802151
v -0.00090188 0.01358094 0.00822204
v -0.00487969 0.01407195 0.00716662
v -0.00498545 0.01441816 0.00708694
v -0.00491917 0.01440492 0.00713596
v -0.00494993 0.01469150 0.00710981
v -0.00497679 0.01496576 0.00708447
v 0.00434591 0.01118153 0.00745659
v 0.00469123 0.01352157 0.00729769
v 0.00437260 0.01359684 0.00748267
v 0.00203844 0.01343273 0.00808928
v 0.00166784 0.01355216 0.00813076
v 0.00295505 0.01378413 0.00797084
v 0.00336657 0.01389901 0.00789928
v 0.00347421 0.01386243 0.00786433
v 0.00412196 0.01366352 0.00760752
v 0.00027914 0.01358645 0.00823952
v 0.00121387 0.01356552 0.00817311
v 0.00487970 0.01407291 0.00716880
v 0.00485636 0.01388979 0.00718644
v 0.00483082 0.01380773 0.00720469
v 0.00478452 0.01374682 0.00723625
v 0.00499163 0.01449480 0.00708306
v 0.00502516 0.01553857 0.00703300
v 0.00530580 0.01552529 0.00680410
v 0.00471430 0.01370320 0.00728200
v 0.00458600 0.01368133 0.00736117
v 0.00436188 0.01373614 0.00748601
v 0.00387534 0.01388427 0.00770789
v 0.00550291 0.01660460 0.00649538
v 0.00580900 0.01674196 0.00600578
v 0.00516839 0.01649277 0.00687225
v 0.00520177 0.01650271 0.00683966
v 0.00468255 0.01728186 0.00714911
v 0.00468255 0.01622497 0.00723867
v 0.00496204 0.01722425 0.00696638
v 0.00490623 0.01617819 0.00709031
v 0.00501423 0.01722158 0.00692930
v 0.00493383 0.01616976 0.00707093
v 0.00503927 0.01722712 0.00690999
v 0.00499161 0.01613418 0.00703033
v 0.00506258 0.01723768 0.00689063
v 0.00503436 0.01608199 0.00700089
v 0.00505334 0.01603311 0.00698894
v 0.00505653 0.01599409 0.00698850
v 0.00501704 0.01962731 0.00645585
v 0.00506054 0.01957866 0.00642635
v 0.00527654 0.02028905 0.00595383
v 0.00511374 0.01732846 0.00683308
v 0.00512232 0.01799136 0.00672485
v 0.00515212 0.01826387 0.00664589
v 0.00509040 0.01949197 0.00642002
v 0.00509375 0.01726600 0.00685930
v 0.00510880 0.01729677 0.00684171
v 0.00495098 0.01966422 0.00650822
v 0.00465875 0.02008088 0.00663564
v 0.00469895 0.01979781 0.00668339
v 0.00494158 0.01966699 0.00651610
v 0.00470950 0.01972358 0.00669516
v 0.00508283 0.01953282 0.00641649
v 0.00544586 0.01836778 0.00628633
v 0.00574073 0.01851065 0.00577447
v 0.00613463 0.01890238 0.00447232
v 0.00596587 0.01868263 0.00517685
v 0.00539086 0.02034282 0.00577165
v 0.00577573 0.02062658 0.00483820
v 0.00499063 0.02097400 0.00605038
v 0.00489140 0.02199399 0.00576341
v 0.00498103 0.02249856 0.00544355
v 0.00488605 0.02204403 0.00574862
v 0.00500735 0.02077560 0.00610319
v 0.00500655 0.02074888 0.00611341
v 0.00499640 0.02071824 0.00613478
v 0.00497468 0.02069218 0.00616634
v 0.00493278 0.02067317 0.00621503
v 0.00486843 0.02067638 0.00627588
v 0.00458255 0.02061650 0.00653356
v 0.00458255 0.02074492 0.00649324
v 0.00465390 0.02303493 0.00556014
v 0.00471668 0.02300046 0.00551400
v 0.00478972 0.02366477 0.00512330
v 0.00418250 0.02343386 0.00576305
v 0.00422547 0.02313128 0.00586413
v 0.00464146 0.02303864 0.00557031
v 0.00475792 0.02295768 0.00549096
v 0.00478242 0.02291397 0.00548485
v 0.00479275 0.02287423 0.00549168
v 0.00463239 0.02410764 0.00507492
v 0.00462724 0.02407540 0.00509634
v 0.00463122 0.02412296 0.00506844
v 0.00460446 0.02404145 0.00513620
v 0.00455759 0.02401925 0.00519278
v 0.00449713 0.02402199 0.00524750
v 0.00418255 0.02409052 0.00546485
v 0.00525395 0.02269255 0.00494546
v 0.00546178 0.02290674 0.00436657
v 0.00561120 0.02317344 0.00367453
v 0.00468048 0.02486881 0.00461909
v 0.00516343 0.02546573 0.00321152
v 0.00502815 0.02519683 0.00383706
v 0.00483573 0.02498194 0.00434411
v 0.00458253 0.01980062 0.00675606
v 0.00458255 0.01974655 0.00676942
v 0.00423793 0.02625320 0.00427316
v 0.00426660 0.02621373 0.00427116
v 0.00396634 0.02730515 0.00384953
v 0.00412893 0.02631654 0.00432727
v 0.00419250 0.02629022 0.00429035
v 0.00390846 0.02727933 0.00391077
v 0.00395453 0.02729583 0.00386491
v 0.00386084 0.02728102 0.00394453
v 0.00401912 0.02633879 0.00439775
v 0.00412625 0.02631713 0.00432906
v 0.00373254 0.02730385 0.00401694
v 0.00373254 0.02660184 0.00443384
v 0.00376354 0.02638362 0.00453997
v 0.00376507 0.02834346 0.00325656
v 0.00372155 0.02819154 0.00343303
v 0.00404837 0.02768492 0.00350551
v 0.00398745 0.02739293 0.00377470
v 0.00432920 0.02693165 0.00374192
v 0.00399133 0.02737159 0.00378556
v 0.00398727 0.02733787 0.00381116
v 0.00427967 0.02616917 0.00428584
v 0.00458241 0.02733123 0.00284794
v 0.00448057 0.02710284 0.00336003
v 0.00416078 0.02785937 0.00317857
v 0.00381635 0.02852894 0.00296855
v 0.00373254 0.02638843 0.00455520
v 0.00418255 0.02313836 0.00588658
v 0.00343914 0.02882654 0.00312419
v 0.00298195 0.02950505 0.00271232
v 0.00302078 0.02946547 0.00273227
v 0.00307530 0.02939752 0.00277900
v 0.00340987 0.02902452 0.00290900
v 0.00285074 0.02958274 0.00273929
v 0.00292778 0.02954470 0.00271104
v 0.00273628 0.02961018 0.00282234
v 0.00249330 0.02969816 0.00290871
v 0.00258052 0.02959020 0.00299164
v 0.00254620 0.02957301 0.00303812
v 0.00201022 0.03007525 0.00261453
v 0.00200284 0.02990620 0.00293760
v 0.00201872 0.02963603 0.00324198
v 0.00206672 0.02922811 0.00353878
v 0.00102445 0.02969236 0.00343748
v 0.00107014 0.02907279 0.00384269
v 0.00176453 0.02898580 0.00377516
v 0.00100993 0.03029804 0.00266780
v -0.00000000 0.03034851 0.00269353
v 0.00100669 0.03006304 0.00308434
v -0.00000000 0.03011073 0.00311330
v -0.00000000 0.02973474 0.00347185
v -0.00000000 0.02910503 0.00388654
v 0.00128513 0.02858666 0.00410349
v 0.00076860 0.02828080 0.00433654
v 0.00020921 0.02814700 0.00443937
v -0.00000000 0.02813686 0.00444717
v -0.00089607 0.02908438 0.00385527
v -0.00102445 0.02969236 0.00343748
v -0.00100670 0.03006304 0.00308434
v -0.00100993 0.03029804 0.00266780
v -0.00176453 0.02898580 0.00377516
v -0.00206672 0.02922812 0.00353877
v -0.00201872 0.02963603 0.00324198
v -0.00200285 0.02990620 0.00293760
v -0.00201023 0.03007525 0.00261453
v -0.00128513 0.02858666 0.00410349
v -0.00060708 0.02822499 0.00437941
v -0.00113902 0.02847567 0.00418762
v -0.00289575 0.02956269 0.00271939
v -0.00281472 0.02959485 0.00276098
v -0.00249331 0.02969816 0.00290871
v -0.00268451 0.02961182 0.00287186
v -0.00254620 0.02957301 0.00303812
v -0.00307615 0.02939663 0.00277940
v -0.00302078 0.02946547 0.00273227
v -0.00300312 0.02948507 0.00272047
v -0.00295527 0.02952630 0.00270877
v -0.00340987 0.02902452 0.00290900
v -0.00381636 0.02852894 0.00296854
v -0.00343928 0.02882645 0.00312414
v -0.00376507 0.02834346 0.00325656
v -0.00372167 0.02819195 0.00343260
v -0.00239598 0.02947478 0.00322611
v -0.00431720 0.02600315 0.00434960
v -0.00457587 0.02480896 0.00476890
v -0.00453218 0.02478673 0.00482555
v -0.00516343 0.02546573 0.00321152
v -0.00502815 0.02519683 0.00383706
v -0.00476891 0.02621171 0.00358454
v -0.00416079 0.02785937 0.00317857
v -0.00427961 0.02616918 0.00428589
v -0.00432920 0.02693165 0.00374192
v -0.00398147 0.02732261 0.00382592
v -0.00399236 0.02735797 0.00379370
v -0.00404837 0.02768492 0.00350551
v -0.00398850 0.02739269 0.00377397
v -0.00468048 0.02486881 0.00461909
v -0.00483573 0.02498194 0.00434411
v -0.00448057 0.02710284 0.00336003
v -0.00525396 0.02269254 0.00494546
v -0.00497890 0.02251244 0.00543996
v -0.00527654 0.02028905 0.00595383
v -0.00539086 0.02034282 0.00577165
v -0.00577573 0.02062658 0.00483820
v -0.00546178 0.02290674 0.00436657
v -0.00561120 0.02317344 0.00367453
v -0.00418255 0.02409052 0.00546485
v -0.00449707 0.02402200 0.00524755
v -0.00461767 0.02405649 0.00511547
v -0.00463073 0.02408836 0.00508629
v -0.00477928 0.02292127 0.00548489
v -0.00479153 0.02288242 0.00548931
v -0.00479275 0.02287421 0.00549168
v -0.00488593 0.02204512 0.00574830
v -0.00458534 0.02402853 0.00516147
v -0.00475380 0.02296310 0.00549280
v -0.00470940 0.02300598 0.00551882
v -0.00463122 0.02412293 0.00506845
v -0.00464147 0.02303864 0.00557030
v -0.00453216 0.02401725 0.00521769
v -0.00499145 0.02071030 0.00614271
v -0.00500504 0.02074135 0.00611763
v -0.00496095 0.02068319 0.00618344
v -0.00490879 0.02067087 0.00623928
v -0.00486836 0.02067640 0.00627593
v -0.00458033 0.02074496 0.00649490
v -0.00500729 0.02077562 0.00610325
v -0.00498282 0.02106251 0.00602656
v -0.00489143 0.02199358 0.00576354
v -0.00550291 0.01660460 0.00649538
v -0.00544587 0.01836778 0.00628633
v -0.00561477 0.01664947 0.00633762
v -0.00574074 0.01851065 0.00577447
v -0.00613463 0.01890238 0.00447232
v -0.00596588 0.01868263 0.00517685
v -0.00580900 0.01674196 0.00600578
v -0.00512192 0.01825475 0.00667727
v -0.00509034 0.01949200 0.00642008
v -0.00508990 0.01949838 0.00641877
v -0.00508093 0.01953808 0.00641697
v -0.00505888 0.01958102 0.00642737
v -0.00494152 0.01966701 0.00651615
v -0.00501123 0.01963189 0.00646021
v -0.00509195 0.01726331 0.00686127
v -0.00510753 0.01729273 0.00684339
v -0.00511379 0.01732844 0.00683304
v -0.00512233 0.01799254 0.00672464
v 0.00216995 0.02232474 0.00649907
v 0.00185782 0.02249221 0.00649575
v 0.00165317 0.02261423 0.00648222
v 0.00110010 0.02299089 0.00640448
v 0.00082479 0.02319765 0.00634628
v 0.00027704 0.02363178 0.00620158
v -0.00058056 0.02431409 0.00591681
v 0.00191048 0.02442192 0.00573152
v 0.00253044 0.01814928 0.00747760
v 0.00052007 0.01936053 0.00745530
v 0.00132288 0.01880074 0.00752784
v 0.00194094 0.01843516 0.00752965
v 0.00216787 0.01831777 0.00751642
v -0.00130444 0.02074348 0.00708832
v -0.00052761 0.02017473 0.00727105
v -0.00011183 0.01984807 0.00735455
v -0.00193731 0.02113550 0.00690979
v -0.00251784 0.02141514 0.00671524
v -0.00206335 0.02329629 0.00616747
v -0.00147382 0.02295427 0.00638224
v -0.00073081 0.02242232 0.00661870
v 0.00019962 0.02167750 0.00686683
v 0.00106757 0.02100616 0.00703289
v 0.00166113 0.02060694 0.00709079
v 0.00219728 0.02031781 0.00709232
v -0.00225010 0.01912056 0.00735809
v 0.00134193 0.01677535 0.00779445
v 0.00108880 0.01692642 0.00779845
v 0.00048260 0.01731373 0.00778488
v 0.00015056 0.01753959 0.00776445
v -0.00151472 0.01870106 0.00753237
v -0.00140000 0.01862682 0.00755521
v -0.00172236 0.01659681 0.00777702
v -0.00234070 0.01693447 0.00766318
f 183 184 145
f 83 84 85
f 85 240 83
f 83 240 80
f 78 240 76
f 80 240 78
f 246 102 239
f 76 240 239
f 80 78 81
f 370 75 372
f 186 185 145
f 145 171 172
f 172 183 145
f 170 171 145
f 145 175 170
f 145 169 174
f 174 175 145
f 72 75 70
f 68 75 370
f 70 75 68
f 68 74 70
f 107 247 198
f 246 104 101
f 101 102 246
f 138 102 101
f 100 239 102
f 76 239 110
f 76 110 79
f 79 78 76
f 79 81 78
f 134 81 383
f 80 81 134
f 245 625 244
f 624 625 245
f 227 213 217
f 762 766 765
f 58 59 53
f 51 184 56
f 51 54 184
f 56 184 241
f 241 74 56
f 70 74 241
f 240 72 241
f 241 72 70
f 145 176 177
f 168 169 145
f 73 240 85
f 73 72 240
f 85 71 73
f 73 71 72
f 89 197 66
f 296 345 127
f 246 247 108
f 247 107 108
f 289 290 105
f 105 220 289
f 107 290 292
f 292 108 107
f 138 101 139
f 104 133 139
f 139 101 104
f 86 239 99
f 239 100 99
f 109 239 86
f 109 110 239
f 109 86 136
f 291 292 293
f 293 292 290
f 433 390 386
f 136 86 137
f 86 99 137
f 137 99 100
f 137 102 138
f 137 100 102
f 136 137 388
f 388 137 387
f 388 386 390
f 383 81 295
f 81 79 295
f 82 134 383
f 82 381 84
f 383 381 82
f 80 134 82
f 82 83 80
f 84 83 82
f 372 71 131
f 84 381 131
f 131 381 372
f 85 84 131
f 131 71 85
f 69 372 75
f 69 71 372
f 75 72 69
f 72 71 69
f 433 386 434
f 434 386 428
f 244 626 633
f 7 932 263
f 620 625 624
f 622 245 623
f 624 245 622
f 145 185 167
f 225 215 253
f 215 214 253
f 253 226 225
f 214 226 253
f 227 226 252
f 252 213 227
f 252 214 213
f 252 226 214
f 41 272 42
f 219 220 105
f 288 289 219
f 219 289 220
f 201 277 285
f 761 762 765
f 765 766 795
f 763 766 764
f 766 762 764
f 764 257 763
f 186 602 604
f 699 604 700
f 700 604 602
f 3 932 7
f 18 12 975
f 612 613 185
f 123 98 124
f 124 342 123
f 98 166 97
f 97 166 96
f 97 124 98
f 145 184 165
f 165 166 145
f 165 53 59
f 184 54 165
f 54 53 165
f 88 166 89
f 89 66 88
f 88 66 164
f 225 232 254
f 254 215 225
f 254 216 215
f 232 216 254
f 145 177 179
f 145 182 173
f 173 168 145
f 173 159 160
f 511 512 513
f 513 512 514
f 496 499 501
f 362 49 55
f 54 51 55
f 55 49 54
f 52 53 54
f 58 53 52
f 74 68 57
f 57 68 370
f 370 364 57
f 56 74 57
f 57 364 362
f 362 55 57
f 57 51 56
f 57 55 51
f 62 129 63
f 345 129 62
f 861 860 852
f 970 955 956
f 969 966 970
f 969 956 869
f 970 956 969
f 475 867 476
f 476 867 862
f 842 502 849
f 569 570 565
f 308 303 309
f 308 309 323
f 91 90 141
f 141 142 91
f 63 129 64
f 296 127 64
f 64 345 296
f 561 557 558
f 123 342 340
f 338 340 342
f 197 127 343
f 343 66 197
f 164 66 343
f 106 107 198
f 105 290 106
f 106 290 107
f 106 201 105
f 106 200 201
f 44 200 199
f 199 41 42
f 199 106 198
f 200 106 199
f 46 200 45
f 45 200 44
f 282 277 201
f 201 200 282
f 103 104 246
f 246 108 103
f 103 292 291
f 108 292 103
f 290 397 395
f 394 293 395
f 395 293 290
f 395 427 394
f 397 427 395
f 385 386 138
f 428 386 385
f 294 139 133
f 133 293 294
f 294 293 428
f 428 385 294
f 138 139 294
f 294 385 138
f 426 293 394
f 428 293 426
f 394 427 426
f 387 137 384
f 384 388 387
f 386 388 384
f 138 386 384
f 384 137 138
f 393 295 79
f 372 381 371
f 475 471 474
f 488 485 487
f 448 901 892
f 448 452 901
f 631 634 244
f 244 633 631
f 631 633 634
f 264 265 7
f 7 263 264
f 635 632 634
f 7 265 266
f 266 632 7
f 265 632 266
f 623 245 614
f 185 613 614
f 614 167 185
f 979 696 978
f 981 696 979
f 979 959 981
f 645 628 629
f 629 628 625
f 627 628 626
f 625 628 627
f 627 626 244
f 244 625 627
f 621 620 624
f 624 622 621
f 178 176 145
f 260 937 261
f 105 201 218
f 218 219 105
f 288 219 218
f 201 285 218
f 276 285 277
f 277 279 276
f 748 761 765
f 796 766 797
f 796 795 766
f 593 764 762
f 257 764 593
f 762 597 593
f 593 597 145
f 603 140 600
f 603 602 186
f 186 140 603
f 600 140 144
f 144 140 186
f 144 186 145
f 410 273 272
f 12 949 13
f 948 949 932
f 932 3 948
f 884 40 885
f 966 969 22
f 975 966 16
f 16 18 975
f 16 17 18
f 981 964 980
f 981 959 965
f 965 964 981
f 185 186 606
f 186 605 606
f 186 604 601
f 601 605 186
f 601 604 699
f 611 606 610
f 610 606 605
f 976 977 718
f 962 713 714
f 342 124 125
f 125 97 96
f 124 97 125
f 92 166 98
f 92 98 123
f 61 165 59
f 63 165 61
f 61 62 63
f 65 165 63
f 63 64 65
f 89 166 67
f 166 165 67
f 165 65 67
f 67 65 64
f 67 64 127
f 67 197 89
f 67 127 197
f 143 91 142
f 96 166 87
f 166 88 87
f 87 88 164
f 155 159 196
f 196 159 182
f 232 231 255
f 255 216 232
f 255 209 216
f 255 231 209
f 181 182 145
f 145 179 181
f 181 196 182
f 155 196 181
f 158 157 192
f 192 157 176
f 176 178 192
f 192 178 158
f 182 159 195
f 195 173 182
f 159 173 195
f 194 173 160
f 168 173 194
f 509 514 512
f 524 551 525
f 346 130 58
f 345 62 346
f 362 364 361
f 513 514 515
f 54 49 50
f 50 52 54
f 60 59 58
f 58 130 60
f 60 61 59
f 62 61 60
f 130 346 60
f 60 346 62
f 954 955 970
f 973 951 952
f 957 953 952
f 952 830 957
f 951 830 952
f 864 863 860
f 885 40 864
f 864 40 29
f 29 28 864
f 28 863 864
f 868 863 28
f 862 867 866
f 866 861 862
f 848 847 855
f 501 502 503
f 503 509 501
f 523 502 521
f 524 527 518
f 522 502 842
f 522 521 502
f 522 520 519
f 519 521 522
f 873 867 475
f 873 866 867
f 491 476 862
f 862 489 491
f 499 489 500
f 489 849 500
f 501 499 500
f 500 502 501
f 500 849 502
f 850 849 489
f 850 489 862
f 850 861 852
f 862 861 850
f 851 850 852
f 849 850 851
f 563 524 828
f 563 551 524
f 551 563 564
f 564 563 567
f 569 565 564
f 556 565 566
f 566 565 576
f 571 565 570
f 571 576 565
f 27 794 25
f 573 588 587
f 588 332 587
f 327 332 588
f 327 309 310
f 588 309 327
f 310 90 301
f 90 91 301
f 317 306 307
f 325 307 308
f 325 317 307
f 324 317 325
f 310 309 304
f 304 151 310
f 309 151 304
f 152 309 303
f 152 151 309
f 152 303 308
f 90 151 152
f 117 141 118
f 141 305 118
f 128 129 345
f 345 64 128
f 128 64 129
f 545 551 552
f 553 558 552
f 552 558 557
f 339 558 560
f 560 298 339
f 345 346 349
f 349 350 352
f 349 346 350
f 348 349 352
f 337 557 561
f 340 338 337
f 337 339 340
f 561 558 337
f 558 339 337
f 336 338 333
f 557 337 336
f 336 337 338
f 336 334 335
f 333 334 336
f 344 334 333
f 333 343 344
f 345 349 344
f 344 127 345
f 344 343 127
f 344 348 334
f 349 348 344
f 43 199 42
f 44 199 43
f 42 272 43
f 272 273 43
f 43 273 44
f 198 202 221
f 221 199 198
f 260 261 221
f 221 259 260
f 202 263 221
f 263 259 221
f 281 45 44
f 44 273 281
f 281 273 280
f 277 282 278
f 278 279 277
f 47 200 46
f 132 103 291
f 291 293 132
f 132 293 133
f 132 133 104
f 104 103 132
f 399 289 288
f 290 289 396
f 396 397 290
f 289 399 396
f 418 427 416
f 416 427 397
f 397 396 416
f 416 396 414
f 429 434 428
f 428 426 429
f 423 426 427
f 423 419 421
f 77 79 110
f 136 388 389
f 389 393 136
f 389 391 393
f 389 388 390
f 390 391 389
f 392 430 379
f 379 378 392
f 378 391 392
f 392 391 390
f 486 485 488
f 374 376 375
f 468 373 375
f 375 373 374
f 377 378 379
f 377 376 378
f 377 375 376
f 378 376 382
f 383 295 382
f 295 393 382
f 382 391 378
f 393 391 382
f 374 371 380
f 380 376 374
f 380 371 381
f 380 382 376
f 380 381 383
f 383 382 380
f 490 489 499
f 496 487 497
f 23 28 909
f 30 28 29
f 30 909 28
f 930 931 903
f 929 923 930
f 927 931 930
f 930 926 927
f 943 940 945
f 924 923 929
f 945 926 925
f 925 943 945
f 923 943 925
f 926 930 925
f 925 930 923
f 450 881 880
f 692 12 11
f 12 13 11
f 208 632 265
f 244 634 208
f 634 632 208
f 262 263 932
f 932 259 262
f 262 259 263
f 228 614 245
f 167 614 228
f 227 217 228
f 696 648 649
f 667 694 670
f 625 620 619
f 619 629 625
f 620 621 619
f 638 621 618
f 623 648 618
f 618 622 623
f 618 621 622
f 145 167 180
f 180 178 145
f 901 452 891
f 890 900 891
f 891 894 901
f 891 900 894
f 889 891 452
f 890 891 889
f 889 907 890
f 412 424 419
f 412 411 408
f 419 411 412
f 279 278 275
f 275 280 274
f 275 278 280
f 406 399 288
f 288 218 286
f 286 218 285
f 312 113 114
f 114 319 312
f 114 115 319
f 141 115 114
f 114 142 141
f 113 142 114
f 316 305 306
f 306 317 316
f 147 153 257
f 257 593 147
f 142 153 147
f 147 143 142
f 763 257 321
f 321 322 763
f 257 153 321
f 153 322 321
f 112 142 113
f 112 113 312
f 762 761 731
f 731 597 762
f 731 761 730
f 730 597 731
f 798 27 26
f 26 27 25
f 25 794 793
f 793 794 782
f 950 951 973
f 973 974 950
f 950 830 951
f 974 830 950
f 782 830 783
f 783 793 782
f 784 793 783
f 735 734 714
f 725 144 145
f 594 144 725
f 787 781 786
f 939 940 933
f 933 949 939
f 932 949 933
f 274 410 401
f 273 410 270
f 3 1 2
f 949 948 2
f 2 1 4
f 4 13 2
f 2 13 949
f 880 881 882
f 882 884 885
f 927 926 944
f 944 926 945
f 944 940 939
f 945 940 944
f 12 18 19
f 18 17 19
f 19 949 12
f 939 949 19
f 19 944 939
f 17 944 19
f 968 969 869
f 869 22 968
f 968 22 969
f 928 16 966
f 928 931 927
f 928 921 931
f 963 980 964
f 970 966 963
f 963 966 975
f 975 980 963
f 972 959 973
f 972 965 959
f 973 952 972
f 972 952 953
f 608 606 611
f 185 606 608
f 615 608 611
f 605 601 697
f 697 610 605
f 673 610 714
f 677 711 678
f 677 713 711
f 678 675 677
f 675 713 677
f 694 718 717
f 717 718 977
f 978 696 717
f 717 977 978
f 693 718 694
f 693 676 678
f 678 711 693
f 714 734 958
f 958 962 714
f 976 713 961
f 713 962 961
f 961 977 976
f 961 962 974
f 164 343 126
f 126 87 164
f 126 125 96
f 96 87 126
f 342 125 341
f 341 343 333
f 341 126 343
f 125 126 341
f 341 338 342
f 333 338 341
f 145 166 188
f 188 94 95
f 93 94 188
f 166 92 188
f 188 92 93
f 224 212 211
f 231 230 248
f 209 231 248
f 248 210 209
f 248 230 210
f 249 230 229
f 210 230 249
f 249 211 210
f 229 211 249
f 189 181 179
f 179 154 189
f 189 154 155
f 155 181 189
f 157 156 191
f 191 156 177
f 191 177 176
f 176 157 191
f 190 156 154
f 190 154 179
f 190 179 177
f 177 156 190
f 251 224 236
f 251 212 224
f 510 509 512
f 510 512 488
f 510 496 501
f 501 509 510
f 488 487 510
f 510 487 496
f 526 527 524
f 524 525 526
f 350 346 347
f 362 361 347
f 347 361 350
f 52 50 347
f 58 52 347
f 347 346 58
f 347 49 362
f 347 50 49
f 370 372 369
f 372 371 369
f 369 364 370
f 352 350 351
f 350 361 351
f 507 515 514
f 507 505 506
f 856 953 957
f 957 830 856
f 856 830 782
f 782 855 856
f 847 854 856
f 856 855 847
f 860 861 865
f 861 866 865
f 885 864 865
f 865 864 860
f 869 854 859
f 860 863 859
f 863 868 859
f 852 860 853
f 860 859 853
f 853 859 854
f 504 502 523
f 504 503 502
f 531 536 538
f 839 522 842
f 839 838 522
f 520 522 836
f 522 838 836
f 866 873 875
f 885 865 875
f 875 865 866
f 875 873 874
f 875 882 885
f 477 476 484
f 476 491 484
f 485 486 484
f 842 849 843
f 849 851 843
f 843 851 844
f 843 839 842
f 551 564 554
f 553 552 554
f 554 552 551
f 554 564 565
f 554 556 553
f 565 556 554
f 577 571 570
f 576 571 575
f 575 581 576
f 567 563 825
f 795 796 800
f 821 27 798
f 794 27 813
f 340 339 122
f 122 339 298
f 122 92 123
f 93 92 122
f 310 301 330
f 330 327 310
f 332 327 330
f 300 301 91
f 300 91 95
f 308 323 326
f 326 325 308
f 326 323 309
f 326 309 588
f 312 586 320
f 320 112 312
f 763 322 320
f 320 586 763
f 320 322 153
f 163 151 90
f 163 90 310
f 310 149 163
f 302 152 308
f 308 307 302
f 307 306 302
f 540 531 538
f 537 540 538
f 557 549 547
f 547 552 557
f 545 552 547
f 353 541 335
f 335 334 353
f 334 348 353
f 353 542 541
f 335 549 562
f 562 336 335
f 562 549 557
f 557 336 562
f 41 199 222
f 199 221 222
f 222 221 261
f 48 282 200
f 200 47 48
f 48 47 282
f 283 278 282
f 283 47 46
f 280 278 283
f 283 281 280
f 46 45 283
f 45 281 283
f 408 411 415
f 415 411 414
f 415 406 408
f 399 406 415
f 414 396 415
f 415 396 399
f 420 419 418
f 420 411 419
f 418 416 420
f 414 411 420
f 420 416 414
f 434 429 443
f 446 442 443
f 443 442 434
f 417 427 418
f 417 423 427
f 418 419 417
f 419 423 417
f 421 446 438
f 446 443 438
f 136 393 223
f 393 77 223
f 223 109 136
f 110 109 223
f 223 77 110
f 135 393 79
f 79 77 135
f 135 77 393
f 466 373 468
f 373 466 367
f 470 471 475
f 475 476 470
f 482 484 486
f 477 484 482
f 368 371 374
f 368 367 366
f 368 369 371
f 366 369 368
f 374 373 368
f 373 367 368
f 880 882 876
f 876 875 874
f 882 875 876
f 475 474 872
f 872 876 874
f 877 876 872
f 872 873 475
f 874 873 872
f 494 487 485
f 499 496 498
f 496 497 498
f 493 497 487
f 487 494 493
f 493 498 497
f 493 490 499
f 499 498 493
f 929 930 904
f 904 924 929
f 903 905 904
f 904 930 903
f 905 933 904
f 904 940 941
f 904 933 940
f 379 430 432
f 472 474 471
f 468 375 462
f 375 377 462
f 431 390 433
f 433 434 431
f 434 442 431
f 431 392 390
f 430 392 431
f 892 881 449
f 449 448 892
f 7 632 9
f 704 635 634
f 692 11 688
f 688 636 692
f 637 688 687
f 687 688 11
f 643 633 626
f 643 688 637
f 206 264 263
f 265 264 258
f 264 206 258
f 617 648 623
f 623 614 617
f 617 614 613
f 613 667 617
f 667 670 617
f 696 649 650
f 650 649 648
f 648 617 650
f 665 664 669
f 664 617 669
f 669 617 670
f 638 618 663
f 663 618 648
f 663 652 638
f 648 652 663
f 162 180 167
f 180 162 161
f 894 900 899
f 899 900 903
f 936 261 937
f 936 410 272
f 906 936 937
f 902 905 903
f 903 900 902
f 902 906 905
f 907 906 902
f 902 900 890
f 890 907 902
f 425 452 421
f 425 889 452
f 424 889 425
f 421 419 425
f 419 424 425
f 908 889 424
f 907 889 908
f 908 906 907
f 407 412 408
f 408 406 407
f 400 401 409
f 412 407 409
f 398 406 288
f 288 286 398
f 404 276 279
f 404 407 406
f 406 398 404
f 116 141 117
f 116 115 141
f 319 115 116
f 314 317 324
f 314 316 317
f 305 316 318
f 117 118 318
f 318 116 117
f 319 116 318
f 145 143 146
f 143 147 146
f 146 593 145
f 146 147 593
f 767 768 776
f 769 781 787
f 795 781 769
f 765 795 769
f 769 748 765
f 769 767 748
f 768 767 769
f 790 26 25
f 798 26 790
f 790 781 798
f 788 781 790
f 730 749 733
f 732 725 733
f 715 735 714
f 729 735 715
f 714 610 715
f 610 697 715
f 594 725 595
f 600 144 595
f 595 144 594
f 723 603 600
f 761 748 752
f 747 746 752
f 756 758 776
f 785 786 781
f 781 780 785
f 787 786 785
f 785 780 787
f 784 768 770
f 787 780 770
f 770 769 787
f 768 769 770
f 935 933 905
f 935 906 937
f 905 906 935
f 935 937 260
f 260 259 935
f 934 259 932
f 932 933 934
f 405 401 400
f 279 275 405
f 405 275 274
f 274 401 405
f 405 404 279
f 400 404 405
f 273 270 271
f 274 280 271
f 280 273 271
f 947 948 3
f 883 882 881
f 884 882 883
f 883 881 892
f 927 944 20
f 20 944 17
f 17 16 20
f 966 22 967
f 967 928 966
f 22 928 967
f 24 928 22
f 921 928 24
f 24 22 23
f 983 980 975
f 981 980 983
f 975 12 983
f 654 655 638
f 638 652 654
f 964 965 971
f 965 972 971
f 970 963 971
f 971 963 964
f 971 954 970
f 953 954 971
f 971 972 953
f 607 615 612
f 608 615 607
f 607 612 185
f 185 608 607
f 666 667 613
f 666 694 667
f 666 693 694
f 676 693 666
f 616 615 675
f 613 612 616
f 612 615 616
f 616 666 613
f 676 666 616
f 698 601 699
f 611 610 672
f 610 673 672
f 674 672 673
f 674 713 675
f 674 673 714
f 674 615 611
f 611 672 674
f 714 713 674
f 695 717 696
f 694 717 695
f 695 670 694
f 695 669 670
f 665 669 695
f 712 693 711
f 718 693 712
f 711 713 712
f 712 713 976
f 976 718 712
f 978 977 960
f 977 961 960
f 960 979 978
f 959 979 960
f 973 959 960
f 960 974 973
f 960 961 974
f 187 143 145
f 145 188 187
f 91 143 187
f 95 91 187
f 187 188 95
f 229 224 250
f 250 211 229
f 224 211 250
f 527 526 534
f 528 518 527
f 527 534 528
f 528 534 536
f 520 518 528
f 519 520 528
f 363 361 364
f 364 369 363
f 363 369 366
f 357 351 361
f 361 363 357
f 352 351 355
f 869 956 858
f 858 956 955
f 858 854 869
f 869 859 870
f 870 859 868
f 23 22 870
f 870 22 869
f 870 28 23
f 870 868 28
f 844 851 846
f 846 854 847
f 846 853 854
f 846 851 852
f 852 853 846
f 846 845 844
f 846 847 848
f 848 845 846
f 503 504 508
f 508 504 505
f 509 503 508
f 505 507 508
f 514 509 508
f 508 507 514
f 506 531 532
f 531 540 532
f 541 542 532
f 532 540 541
f 521 531 529
f 523 521 529
f 506 505 529
f 529 531 506
f 529 504 523
f 505 504 529
f 530 521 519
f 530 531 521
f 536 531 530
f 519 528 530
f 530 528 536
f 833 518 520
f 815 811 814
f 811 818 814
f 814 845 815
f 814 818 845
f 841 843 844
f 839 843 841
f 844 845 841
f 576 581 579
f 574 571 573
f 574 575 571
f 573 587 574
f 581 575 580
f 580 574 587
f 575 574 580
f 580 587 332
f 332 330 580
f 568 825 569
f 567 825 568
f 569 564 568
f 568 564 567
f 799 570 569
f 569 825 799
f 799 825 826
f 826 800 799
f 797 577 799
f 799 577 570
f 799 796 797
f 799 800 796
f 826 825 827
f 827 563 828
f 827 825 563
f 801 800 826
f 826 821 801
f 801 821 798
f 795 800 801
f 798 781 801
f 801 781 795
f 812 811 815
f 815 816 812
f 794 813 812
f 812 816 794
f 120 300 95
f 95 94 120
f 123 340 297
f 297 122 123
f 340 122 297
f 331 330 301
f 581 580 331
f 331 580 330
f 111 320 153
f 112 320 111
f 111 153 142
f 142 112 111
f 324 325 584
f 324 584 591
f 591 584 582
f 571 577 572
f 573 571 572
f 151 163 150
f 150 163 149
f 310 151 150
f 150 149 310
f 148 302 306
f 152 302 148
f 306 305 148
f 148 305 141
f 141 90 148
f 90 152 148
f 541 540 539
f 335 541 539
f 540 537 539
f 538 536 535
f 535 537 538
f 536 534 535
f 548 547 549
f 545 547 548
f 542 353 354
f 354 353 348
f 354 348 352
f 352 355 354
f 354 355 542
f 282 47 284
f 284 283 282
f 47 283 284
f 426 423 437
f 437 429 426
f 437 443 429
f 437 438 443
f 480 367 464
f 464 367 466
f 463 470 469
f 469 476 477
f 469 470 476
f 465 470 463
f 463 464 465
f 465 464 466
f 471 470 465
f 465 466 468
f 483 482 480
f 480 464 483
f 483 464 463
f 477 482 483
f 483 469 477
f 463 469 483
f 480 482 481
f 481 367 480
f 366 367 481
f 481 482 486
f 511 360 478
f 488 512 478
f 512 511 478
f 871 872 474
f 877 872 871
f 489 490 492
f 492 491 489
f 490 493 492
f 485 484 492
f 492 484 491
f 40 884 36
f 29 40 36
f 884 883 897
f 897 883 892
f 892 901 897
f 901 894 897
f 909 37 886
f 886 899 887
f 894 899 886
f 909 30 35
f 35 37 909
f 35 30 29
f 29 36 35
f 942 904 941
f 924 904 942
f 941 940 942
f 940 943 942
f 942 943 923
f 923 924 942
f 888 886 887
f 909 886 888
f 23 909 910
f 909 888 910
f 910 24 23
f 921 24 910
f 460 472 461
f 461 459 460
f 881 450 451
f 451 449 881
f 451 450 444
f 448 449 447
f 452 448 447
f 447 446 421
f 421 452 447
f 8 3 7
f 7 9 8
f 707 9 632
f 632 635 707
f 706 11 707
f 635 704 707
f 707 704 706
f 626 628 644
f 644 630 626
f 644 628 645
f 645 636 644
f 636 688 644
f 688 643 644
f 626 630 658
f 658 643 626
f 630 644 658
f 658 644 643
f 705 704 634
f 706 704 705
f 705 11 706
f 637 687 656
f 656 643 637
f 205 206 263
f 207 258 206
f 207 208 265
f 265 258 207
f 696 650 647
f 647 617 664
f 647 650 617
f 645 629 659
f 659 640 645
f 629 640 659
f 629 619 660
f 660 640 629
f 651 636 645
f 645 640 651
f 638 655 639
f 655 651 639
f 639 651 640
f 178 180 193
f 180 161 193
f 193 161 158
f 158 178 193
f 920 899 903
f 887 899 920
f 920 888 887
f 261 936 268
f 268 936 267
f 268 222 261
f 267 222 268
f 269 936 272
f 267 936 269
f 272 41 269
f 41 222 269
f 269 222 267
f 413 908 424
f 410 936 413
f 424 412 413
f 412 409 413
f 413 401 410
f 413 409 401
f 936 906 413
f 906 908 413
f 400 409 403
f 403 409 407
f 403 404 400
f 407 404 403
f 276 404 287
f 287 404 398
f 287 398 286
f 285 276 287
f 287 286 285
f 315 314 324
f 324 591 315
f 256 118 305
f 305 318 256
f 256 318 118
f 792 793 784
f 25 793 792
f 598 733 725
f 598 725 145
f 734 735 736
f 599 725 600
f 600 595 599
f 599 595 725
f 600 725 724
f 724 723 600
f 735 726 719
f 719 724 735
f 723 724 719
f 603 723 719
f 760 752 748
f 747 752 760
f 748 773 760
f 760 773 747
f 755 752 746
f 776 758 755
f 784 783 778
f 778 783 830
f 776 768 778
f 778 768 784
f 784 770 779
f 779 770 780
f 779 792 784
f 933 935 938
f 938 934 933
f 938 935 259
f 259 934 938
f 402 270 410
f 402 271 270
f 402 410 274
f 274 271 402
f 946 2 948
f 948 947 946
f 3 2 946
f 946 947 3
f 16 928 21
f 21 20 16
f 21 928 927
f 927 20 21
f 691 983 12
f 690 983 691
f 691 12 692
f 691 651 690
f 692 636 691
f 636 651 691
f 982 696 981
f 981 983 982
f 680 654 653
f 653 654 652
f 653 652 648
f 668 616 675
f 676 616 668
f 668 675 678
f 678 676 668
f 609 697 601
f 675 615 671
f 671 674 675
f 615 674 671
f 543 551 545
f 543 525 551
f 544 526 525
f 544 534 526
f 525 543 544
f 544 535 534
f 358 360 511
f 358 511 513
f 513 357 358
f 359 363 366
f 359 357 363
f 360 358 359
f 359 358 357
f 356 355 351
f 351 357 356
f 513 515 356
f 356 357 513
f 857 856 854
f 854 858 857
f 857 954 953
f 953 856 857
f 955 954 857
f 857 858 955
f 520 836 837
f 836 833 837
f 828 524 835
f 524 518 835
f 845 818 831
f 831 841 845
f 828 835 831
f 838 839 840
f 839 841 840
f 841 831 840
f 555 556 566
f 566 576 555
f 576 579 555
f 553 556 555
f 329 579 581
f 822 821 820
f 822 805 821
f 27 821 824
f 821 805 824
f 819 821 826
f 826 827 819
f 820 821 819
f 819 818 820
f 782 794 829
f 794 816 829
f 829 855 782
f 848 855 829
f 829 816 815
f 829 845 848
f 815 845 829
f 820 818 809
f 809 810 820
f 809 818 811
f 811 812 809
f 809 812 813
f 813 810 809
f 119 122 298
f 93 122 119
f 325 326 585
f 585 584 325
f 582 584 585
f 585 572 582
f 586 591 578
f 578 591 582
f 578 577 797
f 578 572 577
f 582 572 578
f 763 586 578
f 797 766 578
f 578 766 763
f 550 539 537
f 550 548 549
f 537 548 550
f 550 549 335
f 335 539 550
f 537 535 546
f 546 548 537
f 545 548 546
f 546 543 545
f 535 544 546
f 546 544 543
f 422 437 423
f 438 437 422
f 422 423 421
f 421 438 422
f 467 465 468
f 471 465 467
f 468 462 467
f 467 462 461
f 467 472 471
f 461 472 467
f 479 481 486
f 479 478 360
f 479 486 488
f 488 478 479
f 879 871 474
f 877 871 879
f 495 493 494
f 495 492 493
f 495 494 485
f 485 492 495
f 33 37 39
f 37 35 39
f 898 897 894
f 884 897 898
f 898 39 884
f 33 39 898
f 917 919 921
f 888 920 917
f 916 919 915
f 903 931 916
f 916 915 903
f 931 921 916
f 921 919 916
f 915 919 918
f 461 462 458
f 458 459 461
f 456 459 444
f 456 460 459
f 444 450 456
f 450 460 456
f 473 460 450
f 472 460 473
f 474 472 473
f 473 450 880
f 880 876 473
f 473 877 474
f 473 876 877
f 445 451 444
f 449 451 445
f 444 441 445
f 445 441 442
f 445 447 449
f 445 442 446
f 446 447 445
f 10 707 11
f 9 707 10
f 10 11 13
f 10 13 4
f 643 656 661
f 633 643 661
f 634 633 661
f 661 646 634
f 204 205 263
f 641 695 696
f 665 695 641
f 641 664 665
f 641 647 664
f 690 651 689
f 655 701 689
f 689 651 655
f 640 660 662
f 662 639 640
f 662 619 621
f 662 660 619
f 662 621 638
f 638 639 662
f 592 586 312
f 590 591 586
f 590 315 591
f 316 314 313
f 314 315 313
f 319 318 313
f 313 318 316
f 312 319 313
f 748 767 771
f 767 773 771
f 774 746 747
f 747 773 774
f 774 773 767
f 791 790 25
f 25 792 791
f 791 780 781
f 791 779 780
f 792 779 791
f 730 733 596
f 733 598 596
f 596 597 730
f 145 597 596
f 596 598 145
f 753 742 732
f 749 742 753
f 732 733 753
f 740 738 732
f 732 742 740
f 727 726 735
f 735 728 727
f 727 709 726
f 700 709 727
f 716 698 699
f 697 698 716
f 716 735 729
f 716 728 735
f 729 715 716
f 716 715 697
f 732 738 739
f 721 700 602
f 602 603 721
f 757 756 802
f 802 759 757
f 758 756 757
f 757 759 758
f 734 759 803
f 803 759 802
f 803 958 734
f 962 958 803
f 974 962 803
f 803 802 974
f 777 756 776
f 776 778 777
f 802 756 777
f 974 802 777
f 777 830 974
f 777 778 830
f 696 982 702
f 702 648 696
f 702 653 648
f 708 698 697
f 697 609 708
f 601 698 708
f 708 609 601
f 533 507 506
f 515 507 533
f 542 355 533
f 506 532 533
f 533 532 542
f 832 833 520
f 520 837 832
f 832 837 833
f 518 833 834
f 834 835 518
f 834 836 838
f 834 833 836
f 834 831 835
f 838 840 834
f 834 840 831
f 828 831 817
f 817 831 818
f 818 819 817
f 817 827 828
f 817 819 827
f 559 555 579
f 560 558 559
f 559 579 560
f 559 558 553
f 553 555 559
f 579 329 299
f 560 579 299
f 299 298 560
f 300 120 299
f 301 300 299
f 581 331 328
f 328 329 581
f 328 331 301
f 301 299 328
f 328 299 329
f 820 810 806
f 121 119 298
f 298 299 121
f 121 299 120
f 121 120 94
f 121 94 93
f 93 119 121
f 572 585 583
f 583 588 573
f 573 572 583
f 583 326 588
f 583 585 326
f 366 481 365
f 481 479 365
f 365 479 360
f 365 359 366
f 360 359 365
f 474 877 878
f 878 879 474
f 877 879 878
f 38 36 884
f 884 39 38
f 38 35 36
f 38 39 35
f 896 898 894
f 921 910 922
f 922 917 921
f 922 910 888
f 888 917 922
f 919 917 911
f 912 918 911
f 911 918 919
f 911 920 912
f 911 917 920
f 913 918 912
f 915 918 913
f 444 459 455
f 455 441 444
f 457 458 462
f 439 432 430
f 14 8 9
f 9 10 14
f 14 1 3
f 4 1 14
f 14 10 4
f 657 682 646
f 646 661 657
f 657 661 656
f 657 656 687
f 203 263 202
f 203 204 263
f 696 647 642
f 642 641 696
f 647 641 642
f 315 590 311
f 311 592 312
f 312 313 311
f 311 313 315
f 772 773 748
f 748 771 772
f 772 771 773
f 746 774 775
f 776 755 775
f 775 755 746
f 775 767 776
f 775 774 767
f 788 790 789
f 790 791 789
f 789 781 788
f 789 791 781
f 754 733 749
f 749 753 754
f 754 753 733
f 750 740 742
f 750 742 749
f 738 740 750
f 750 736 738
f 734 736 750
f 750 759 734
f 730 761 750
f 750 749 730
f 699 700 710
f 700 727 710
f 710 727 728
f 710 716 699
f 728 716 710
f 735 724 737
f 724 739 737
f 737 736 735
f 738 736 737
f 737 739 738
f 722 719 726
f 722 721 719
f 726 709 722
f 722 709 700
f 700 721 722
f 603 719 720
f 720 721 603
f 719 721 720
f 690 689 679
f 679 689 701
f 679 701 655
f 681 982 983
f 681 702 982
f 681 983 690
f 690 679 681
f 680 653 681
f 653 702 681
f 681 679 655
f 655 654 681
f 681 654 680
f 355 356 517
f 517 533 355
f 823 822 820
f 820 806 823
f 806 808 823
f 804 824 805
f 804 823 808
f 27 824 804
f 804 808 27
f 805 822 804
f 822 823 804
f 807 813 27
f 27 808 807
f 807 808 806
f 807 810 813
f 807 806 810
f 915 913 914
f 903 915 914
f 914 920 903
f 912 920 914
f 914 913 912
f 441 455 440
f 442 441 440
f 440 431 442
f 430 431 440
f 440 439 430
f 436 457 462
f 436 377 379
f 436 462 377
f 15 14 3
f 8 14 15
f 703 682 705
f 703 705 634
f 634 646 703
f 646 685 703
f 686 657 687
f 682 657 686
f 705 682 686
f 686 687 11
f 11 705 686
f 592 311 589
f 589 311 590
f 586 592 589
f 589 590 586
f 758 759 751
f 759 750 751
f 751 755 758
f 752 755 751
f 761 752 751
f 751 750 761
f 741 739 724
f 732 739 741
f 516 356 515
f 516 517 356
f 515 533 516
f 533 517 516
f 34 886 37
f 34 32 886
f 34 37 33
f 31 896 894
f 31 32 896
f 454 440 455
f 459 458 454
f 454 455 459
f 458 439 454
f 439 440 454
f 379 432 435
f 435 436 379
f 432 439 435
f 457 436 435
f 5 15 3
f 8 15 5
f 684 703 685
f 684 685 646
f 745 741 724
f 745 724 725
f 745 725 732
f 732 744 745
f 896 32 895
f 32 34 895
f 895 34 33
f 33 898 895
f 898 896 895
f 886 32 893
f 32 31 893
f 894 886 893
f 893 31 894
f 457 435 453
f 453 435 439
f 458 457 453
f 453 439 458
f 3 8 6
f 6 5 3
f 8 5 6
f 646 682 683
f 683 684 646
f 682 703 683
f 703 684 683
f 743 745 744
f 741 745 743
f 743 744 732
f 732 741 743
f 237 243 172
f 171 237 172
f 242 172 243
f 183 172 242
f 183 242 241
f 184 183 241
f 234 169 235
f 234 174 169
f 175 174 234
f 234 233 175
f 238 237 171
f 171 170 238
f 175 233 238
f 238 170 175
f 235 169 168
f 168 236 235
f 157 158 214
f 157 214 215
f 209 210 154
f 154 210 155
f 156 157 215
f 215 216 156
f 209 154 156
f 216 209 156
f 155 210 211
f 211 159 155
f 160 159 211
f 211 212 160
f 236 168 251
f 168 194 251
f 160 212 251
f 251 194 160
f 167 228 162
f 162 228 217
f 214 158 161
f 213 214 161
f 161 162 217
f 161 217 213
f 203 243 237
f 203 241 242
f 225 226 203
f 246 239 203
f 203 242 243
f 198 247 203
f 203 247 246
f 203 245 244
f 203 239 240
f 235 236 203
f 203 202 198
f 203 234 235
f 237 238 203
f 244 208 203
f 203 226 227
f 229 230 203
f 240 241 203
f 233 234 203
f 203 238 233
f 203 224 229
f 203 232 225
f 203 231 232
f 236 224 203
f 203 230 231
f 227 228 203
f 203 228 245
f 208 207 203
f 206 205 203
f 203 207 206
f 205 204 203