# https://github.com/mikedh/trimesh
v 0.00511594 -0.02331063 0.02774494
v 0.00510739 -0.02330671 0.02825745
v 0.00673771 -0.02165025 0.01471738
v 0.00648165 -0.02198691 0.01520008
v 0.00655996 -0.02189138 0.01465710
v 0.00676435 -0.02161116 0.01472740
v 0.00708669 -0.02120193 0.01244601
v 0.00711257 -0.02116424 0.01245875
v 0.00746721 -0.02066066 0.01020012
v 0.00749274 -0.02062359 0.01021578
v 0.00811675 -0.01962450 0.00679506
v 0.00814127 -0.01958854 0.00681507
v 0.00778381 -0.02017175 0.00847557
v 0.00864609 -0.01870730 0.00453290
v 0.00862549 -0.01873858 0.00451212
v 0.01075960 -0.01424241 -0.00313239
v 0.01049702 -0.01473650 -0.00320996
v 0.01127146 -0.01268771 -0.00509553
v 0.01115935 -0.01288163 -0.00549986
v 0.01134850 -0.01240931 -0.00543192
v 0.01021699 -0.01523383 -0.00328768
v 0.01094171 -0.01335568 -0.00556781
v 0.01030987 -0.01507450 -0.00326280
v 0.01101447 -0.01320420 -0.00554612
v 0.01040821 -0.01489937 -0.00323544
v 0.01109108 -0.01303734 -0.00552220
v 0.00981963 -0.01621427 -0.00142193
v 0.01023181 -0.01554428 -0.00131388
v 0.01070640 -0.01438401 -0.00294391
v 0.01016243 -0.01570155 -0.00107913
v 0.00953371 -0.01702861 0.00107668
v 0.00918019 -0.01754247 0.00099408
v 0.00988274 -0.01631143 -0.00013053
v 0.01005080 -0.01594931 -0.00070146
v 0.00906222 -0.01771308 0.00096693
v 0.00870384 -0.01842972 0.00264738
v 0.00857705 -0.01860203 0.00262070
v 0.00825699 -0.01922560 0.00434238
v 0.00812318 -0.01939914 0.00431656
v 0.00893133 -0.01789566 0.00093796
v 0.00970619 -0.01639374 -0.00145068
v 0.00959905 -0.01655656 -0.00147672
v 0.00948495 -0.01672258 -0.00150322
v 0.01011807 -0.01539674 -0.00331307
v 0.01086382 -0.01351103 -0.00559002
v 0.01001925 -0.01555276 -0.00333733
v 0.01078577 -0.01366027 -0.00561134
v 0.00935826 -0.01689871 -0.00153125
v 0.00949115 -0.01661042 -0.00205330
v 0.00962257 -0.01631627 -0.00257244
v 0.00796614 -0.01959480 0.00428756
v 0.00851110 -0.01859004 0.00186893
v 0.00782705 -0.01946373 0.00257561
v 0.01001933 -0.01535539 -0.00418527
v 0.01008942 -0.01517052 -0.00448264
v 0.01015800 -0.01498379 -0.00477921
v 0.01023108 -0.01477756 -0.00510249
v 0.01030196 -0.01456914 -0.00542486
v 0.01056098 -0.01370241 -0.00672258
v 0.01050059 -0.01392409 -0.00639688
v 0.01045002 -0.01409892 -0.00613709
v 0.01043671 -0.01414356 -0.00607034
v 0.01040056 -0.01426216 -0.00589212
v 0.01036353 -0.01438010 -0.00571364
v 0.01035747 -0.01439908 -0.00568480
v 0.01034773 -0.01442939 -0.00563867
v 0.01033330 -0.01447394 -0.00557071
v 0.01039392 -0.01433234 -0.00570688
v 0.01040292 -0.01431810 -0.00570486
v 0.01039295 -0.01434331 -0.00567692
v 0.01037948 -0.01435510 -0.00571010
v 0.01037325 -0.01437437 -0.00568132
v 0.01035714 -0.01441469 -0.00563661
v 0.01037695 -0.01438361 -0.00563219
v 0.01035280 -0.01444393 -0.00556503
v 0.01032443 -0.01458886 -0.00523441
v 0.01040201 -0.01439687 -0.00545177
v 0.01045281 -0.01426808 -0.00559622
v 0.01048416 -0.01418727 -0.00568632
v 0.01036324 -0.01455501 -0.00512826
v 0.01018135 -0.01498875 -0.00462360
v 0.01048017 -0.01426129 -0.00546256
v 0.01041945 -0.01441541 -0.00528786
v 0.01055123 -0.01407603 -0.00567053
v 0.01025457 -0.01487501 -0.00460663
v 0.00986319 -0.01574892 -0.00353899
v 0.00988398 -0.01569784 -0.00362395
v 0.00990467 -0.01564660 -0.00370883
v 0.00996240 -0.01550159 -0.00394732
v 0.01061661 -0.01396457 -0.00565469
v 0.01054713 -0.01414929 -0.00544647
v 0.01043272 -0.01444225 -0.00511177
v 0.00982467 -0.01584265 -0.00338225
v 0.00980477 -0.01589060 -0.00330165
v 0.00977279 -0.01596701 -0.00317257
v 0.00972722 -0.01607458 -0.00298953
v 0.00972453 -0.01608090 -0.00297873
v 0.00964364 -0.01626817 -0.00265610
v 0.00983985 -0.01583996 -0.00329393
v 0.00986100 -0.01580913 -0.00328915
v 0.00981475 -0.01590661 -0.00316340
v 0.00979337 -0.01593747 -0.00316819
v 0.00974499 -0.01605175 -0.00297419
v 0.00976839 -0.01601818 -0.00296894
v 0.00988980 -0.01574792 -0.00336760
v 0.00986879 -0.01577873 -0.00337237
v 0.00975940 -0.01603110 -0.00297096
v 0.00982894 -0.01588599 -0.00316019
v 0.00983778 -0.01587309 -0.00315818
v 0.00987505 -0.01578854 -0.00328596
v 0.00988380 -0.01577565 -0.00328396
v 0.00990376 -0.01572734 -0.00336441
v 0.00991245 -0.01571447 -0.00336242
v 0.01070116 -0.01381552 -0.00563347
v 0.01072683 -0.01376909 -0.00562686
v 0.01074043 -0.01374428 -0.00562332
v 0.01077410 -0.01368209 -0.00561445
v 0.00936475 -0.01688988 -0.00152985
v 0.00937123 -0.01688105 -0.00152844
v 0.00935875 -0.01690511 -0.00149348
v 0.00943354 -0.01682346 -0.00135580
v 0.00934723 -0.01692727 -0.00146118
v 0.00922786 -0.01721913 -0.00076177
v 0.00925826 -0.01711043 -0.00113885
v 0.00935124 -0.01698324 -0.00111900
v 0.00931991 -0.01698041 -0.00138076
v 0.00932324 -0.01697334 -0.00139383
v 0.00897210 -0.01769565 -0.00000978
v 0.00914776 -0.01733976 -0.00070453
v 0.00916566 -0.01730292 -0.00077497
v 0.00934076 -0.01693608 -0.00146257
v 0.00934916 -0.01691815 -0.00149554
v 0.00935226 -0.01691394 -0.00149488
v 0.00874588 -0.01814080 0.00089919
v 0.00885867 -0.01792053 0.00044349
v 0.00872220 -0.01818666 0.00099563
v 0.00868439 -0.01825960 0.00115015
v 0.00863218 -0.01835982 0.00136483
v 0.00862792 -0.01836797 0.00138241
v 0.00853525 -0.01854436 0.00176764
v 0.00874673 -0.01815514 0.00100049
v 0.00876164 -0.01813588 0.00100353
v 0.00871357 -0.01822220 0.00115587
v 0.00869855 -0.01824147 0.00115284
v 0.00864188 -0.01835020 0.00138520
v 0.00865826 -0.01832926 0.00138849
v 0.00879179 -0.01808153 0.00090855
v 0.00877694 -0.01810079 0.00090550
v 0.00865197 -0.01833732 0.00138722
v 0.00872355 -0.01820933 0.00115790
v 0.00872978 -0.01820127 0.00115917
v 0.00877155 -0.01812301 0.00100556
v 0.00877773 -0.01811496 0.00100683
v 0.00880165 -0.01806867 0.00091058
v 0.00880781 -0.01806062 0.00091185
v 0.00797501 -0.01958396 0.00428917
v 0.00843645 -0.01878572 0.00259234
v 0.00693920 -0.02133963 0.01004998
v 0.00668063 -0.02160004 0.00974040
v 0.00704229 -0.02117703 0.00936150
v 0.00677804 -0.02143789 0.00902840
v 0.00714989 -0.02100341 0.00867640
v 0.00687468 -0.02127168 0.00833935
v 0.00686029 -0.02128238 0.00833465
v 0.00676222 -0.02145108 0.00903417
v 0.00666613 -0.02161094 0.00973603
v 0.00702530 -0.02098748 0.00719928
v 0.00705020 -0.02095772 0.00713398
v 0.00721222 -0.02065668 0.00607736
v 0.00753216 -0.02036090 0.00647147
v 0.00796152 -0.01960692 0.00434158
v 0.00794910 -0.01962803 0.00439000
v 0.00792331 -0.01967179 0.00449097
v 0.00801591 -0.01958326 0.00474399
v 0.00787593 -0.01975665 0.00471891
v 0.00784897 -0.01986655 0.00543254
v 0.00773540 -0.02000619 0.00541319
v 0.00760939 -0.02026585 0.00647459
v 0.00753396 -0.02035780 0.00646180
v 0.00746299 -0.02050515 0.00714528
v 0.00794468 -0.01963342 0.00438921
v 0.00795497 -0.01961491 0.00434041
v 0.00741633 -0.02026667 0.00482647
v 0.00727047 -0.02054639 0.00571112
v 0.00739425 -0.02029180 0.00486569
v 0.00726847 -0.02054811 0.00571027
v 0.00724123 -0.02060189 0.00589411
v 0.00721124 -0.02065646 0.00606985
v 0.00724046 -0.02060127 0.00588553
v 0.01056347 -0.01369292 -0.00673643
v 0.01056800 -0.01367556 -0.00676175
v 0.01062989 -0.01342718 -0.00712142
v 0.01060785 -0.01351829 -0.00699006
v 0.01058669 -0.01360290 -0.00686747
v 0.01065252 -0.01333017 -0.00726061
v 0.01064741 -0.01335243 -0.00722874
v 0.01067131 -0.01325055 -0.00737075
v 0.01083912 -0.01291598 -0.00744757
v 0.01088050 -0.01284229 -0.00743815
v 0.01087227 -0.01285706 -0.00744004
v 0.01068692 -0.01322475 -0.00736751
v 0.01068263 -0.01329424 -0.00722131
v 0.01068302 -0.01333923 -0.00711036
v 0.01071220 -0.01325812 -0.00718252
v 0.01062161 -0.01352895 -0.00690321
v 0.01064910 -0.01339551 -0.00711771
v 0.01066736 -0.01336531 -0.00711377
v 0.01071609 -0.01323819 -0.00721403
v 0.01070064 -0.01326417 -0.00721741
v 0.01062554 -0.01357434 -0.00676769
v 0.01064737 -0.01353806 -0.00676284
v 0.01066184 -0.01351382 -0.00675960
v 0.01067085 -0.01349865 -0.00675757
v 0.01079842 -0.01304883 -0.00731172
v 0.01081873 -0.01301329 -0.00730713
v 0.01083220 -0.01298955 -0.00730407
v 0.01084059 -0.01297470 -0.00730216
v 0.01077484 -0.01318459 -0.00708529
v 0.01076620 -0.01319958 -0.00708725
v 0.01075234 -0.01322353 -0.00709039
v 0.01073142 -0.01325939 -0.00709507
v 0.01091738 -0.01277539 -0.00742961
v 0.01093489 -0.01274317 -0.00742549
v 0.01095374 -0.01270819 -0.00742102
v 0.01094651 -0.01272166 -0.00742274
v 0.01101886 -0.01258463 -0.00740524
v 0.01107237 -0.01247975 -0.00739184
v 0.01112429 -0.01237480 -0.00737843
v 0.01119109 -0.01223471 -0.00736053
v 0.01113178 -0.01245869 -0.00712103
v 0.01094479 -0.01309507 -0.00643226
v 0.01086326 -0.01334727 -0.00615560
v 0.01120075 -0.01231135 -0.00710187
v 0.01124836 -0.01210952 -0.00734454
v 0.01125750 -0.01208906 -0.00734192
v 0.01115274 -0.01241460 -0.00711530
v 0.01094247 -0.01319436 -0.00613439
v 0.01116383 -0.01239105 -0.00711224
v 0.01102109 -0.01294359 -0.00641155
v 0.01098022 -0.01302554 -0.00642276
v 0.01090003 -0.01327709 -0.00614587
v 0.01121129 -0.01219112 -0.00735496
v 0.01122197 -0.01216784 -0.00735199
v 0.01131831 -0.01194932 -0.00732407
v 0.01135600 -0.01185924 -0.00731256
v 0.01136736 -0.01183150 -0.00730902
v 0.01137865 -0.01180369 -0.00730546
v 0.01143465 -0.01166132 -0.00728728
v 0.01149260 -0.01150544 -0.00726736
v 0.01154331 -0.01136066 -0.00724887
v 0.01159495 -0.01120357 -0.00722880
v 0.01163826 -0.01106282 -0.00721086
v 0.01167895 -0.01092153 -0.00719285
v 0.01146499 -0.00924076 -0.00032914
v 0.01166544 -0.00660408 -0.00664114
v 0.01160560 -0.00639214 -0.00661408
v 0.01180925 -0.00722161 -0.00672003
v 0.01181646 -0.00757341 -0.00611309
v 0.01180776 -0.00816513 -0.00514449
v 0.00852641 -0.01890882 0.00696730
v 0.01184103 -0.01021593 -0.00710257
v 0.01186470 -0.01007882 -0.00708504
v 0.01155417 -0.01176283 -0.00495909
v 0.01181494 -0.01035255 -0.00712003
v 0.01147386 -0.01206341 -0.00500350
v 0.01095438 -0.01371334 -0.00283824
v 0.01169706 -0.01109621 -0.00486078
v 0.01193956 -0.00947217 -0.00700765
v 0.01196675 -0.00885634 -0.00692985
v 0.01179713 -0.01041866 -0.00475948
v 0.01086730 -0.01401414 0.00181200
v 0.01081001 -0.01417225 0.00211668
v 0.01195605 -0.00840208 -0.00687185
v 0.01189583 -0.00941428 -0.00539128
v 0.01196463 -0.00862887 -0.00690080
v 0.01184418 -0.00991137 -0.00468244
v 0.01177089 -0.01045663 -0.00390353
v 0.01134996 -0.01247003 -0.00087682
v 0.01144937 -0.01208244 -0.00148999
v 0.01159395 -0.01144442 -0.00246232
v 0.01123601 -0.01287775 -0.00020865
v 0.01109065 -0.01335406 0.00060646
v 0.01095788 -0.01375542 0.00132764
v 0.01193261 -0.00807718 -0.00682942
v 0.01189642 -0.00775362 -0.00678805
v 0.01189376 -0.00812620 -0.00618811
v 0.01186709 -0.00874751 -0.00522943
v 0.01185700 -0.00748696 -0.00675396
v 0.01064004 -0.01461895 0.00301606
v 0.01065715 -0.01457541 0.00292567
v 0.01068448 -0.01450521 0.00278123
v 0.01072536 -0.01439871 0.00256508
v 0.01026457 -0.01550630 0.00501428
v 0.00989234 -0.01627266 0.00705503
v 0.00984037 -0.01637147 0.00734652
v 0.00939963 -0.01713257 0.00989778
v 0.00815856 -0.01953847 0.00889998
v 0.00781673 -0.02007336 0.01085705
v 0.00832350 -0.01929787 0.00691436
v 0.00794340 -0.01992872 0.00885010
v 0.00759301 -0.02046527 0.01081053
v 0.00727150 -0.02091424 0.01278994
v 0.00891269 -0.01823709 0.00424302
v 0.01178445 -0.01049772 -0.00713861
v 0.01175123 -0.01064233 -0.00715712
v 0.01137707 -0.01238153 -0.00505044
v 0.01083618 -0.01405540 -0.00289205
v 0.01171637 -0.01078220 -0.00717501
v 0.00952101 -0.01705908 0.00164186
v 0.00938616 -0.01732004 0.00160083
v 0.00945974 -0.01717548 0.00133812
v 0.00947922 -0.01714473 0.00162844
v 0.00949520 -0.01710526 0.00121246
v 0.00951889 -0.01705816 0.00112886
v 0.00905763 -0.01794858 0.00281010
v 0.00874261 -0.01852871 0.00404084
v 0.00860611 -0.01870355 0.00391997
v 0.00854142 -0.01881699 0.00415250
v 0.00847849 -0.01892720 0.00438707
v 0.00931955 -0.01744965 0.00184089
v 0.00921386 -0.01765295 0.00222685
v 0.00868353 -0.01863478 0.00427583
v 0.00870333 -0.01860450 0.00429634
v 0.00876149 -0.01849959 0.00406097
v 0.00868514 -0.01864612 0.00457353
v 0.00872290 -0.01858439 0.00461454
v 0.00877701 -0.01848549 0.00437697
v 0.00883159 -0.01838508 0.00414014
v 0.00829639 -0.01934415 0.00690797
v 0.00827302 -0.01938313 0.00690258
v 0.00886212 -0.01833200 0.00422895
v 0.00823340 -0.01944741 0.00689365
v 0.00826021 -0.01940176 0.00676314
v 0.00828714 -0.01935571 0.00663278
v 0.00860703 -0.01879394 0.00513273
v 0.00889351 -0.01827374 0.00423760
v 0.00818796 -0.01951824 0.00685420
v 0.00754132 -0.02055128 0.01024635
v 0.00758875 -0.02047845 0.01027718
v 0.00804685 -0.01975929 0.00782058
v 0.00813942 -0.01960580 0.00735614
v 0.00793789 -0.01993826 0.00858784
v 0.00793348 -0.01994534 0.00861102
v 0.00752063 -0.02057679 0.01090339
v 0.00724073 -0.02097501 0.01231957
v 0.00721883 -0.02099674 0.01276079
v 0.00754597 -0.02053750 0.01090811
v 0.00724454 -0.02095716 0.01276517
v 0.00795791 -0.01990628 0.00861615
v 0.00796231 -0.01989920 0.00859297
v 0.00681516 -0.02153476 0.01474696
v 0.00697283 -0.01827035 0.04564688
v 0.00701844 -0.01803903 0.04563931
v 0.00705989 -0.01781357 0.04563239
v 0.00710263 -0.01756634 0.04562537
v 0.00714058 -0.01733661 0.04561941
v 0.00704255 -0.01487027 0.04813133
v 0.00704082 -0.01489442 0.04813131
v 0.00719589 -0.01575738 0.04687450
v 0.00719849 -0.01573836 0.04686698
v 0.00725459 -0.01662398 0.04561240
v 0.00725692 -0.01659971 0.04561245
v 0.00705658 -0.01463155 0.04813138
v 0.00705984 -0.01464539 0.04811161
v 0.00706307 -0.01465923 0.04809184
v 0.00723384 -0.01566145 0.04663158
v 0.00727430 -0.01624482 0.04578129
v 0.00726772 -0.01648005 0.04561268
v 0.00703160 -0.01453215 0.04827711
v 0.00702505 -0.01465128 0.04827697
v 0.00701792 -0.01477035 0.04827686
v 0.00703041 -0.01482030 0.04820412
v 0.00702869 -0.01484444 0.04820410
v 0.00701621 -0.01479449 0.04827685
v 0.00700232 -0.01498086 0.04827669
v 0.00698721 -0.01516712 0.04827654
v 0.00699894 -0.01521706 0.04820377
v 0.00702614 -0.01508076 0.04813114
v 0.00701033 -0.01526702 0.04813096
v 0.00715214 -0.01612958 0.04687394
v 0.00710872 -0.01646287 0.04688560
v 0.00713083 -0.01629097 0.04688332
v 0.00716884 -0.01716175 0.04561527
v 0.00714119 -0.01620831 0.04688232
v 0.00714802 -0.01615316 0.04688169
v 0.00698414 -0.01554685 0.04813141
v 0.00700024 -0.01537868 0.04813109
v 0.00700759 -0.01529784 0.04813099
v 0.00707832 -0.01668876 0.04688898
v 0.00696121 -0.01576794 0.04813204
v 0.00704349 -0.01693195 0.04689308
v 0.00693414 -0.01600610 0.04813297
v 0.00700939 -0.01715391 0.04689722
v 0.00690710 -0.01622361 0.04813406
v 0.00697169 -0.01738185 0.04690182
v 0.00687684 -0.01644718 0.04813539
v 0.00692505 -0.01849559 0.04565474
v 0.00693257 -0.01760115 0.04690660
v 0.00684516 -0.01666247 0.04813689
v 0.00677052 -0.01913439 0.04567967
v 0.00681494 -0.01896216 0.04567254
v 0.00684144 -0.01805762 0.04691760
v 0.00680414 -0.01822712 0.04692208
v 0.00677169 -0.01710493 0.04814062
v 0.00674106 -0.01727083 0.04814226
v 0.00687090 -0.01873298 0.04566352
v 0.00688811 -0.01783227 0.04691198
v 0.00680934 -0.01688698 0.04813868
v 0.00719187 -0.01721193 0.04529663
v 0.00725529 -0.01684059 0.04529693
v 0.00723708 -0.01740105 0.04439910
v 0.00721664 -0.01766003 0.04396556
v 0.00725561 -0.01673228 0.04545467
v 0.00742059 -0.01239506 0.04618411
v 0.00713577 -0.01140192 0.04780878
v 0.00715163 -0.01206003 0.04780211
v 0.00667125 -0.01028945 0.04954136
v 0.00652833 -0.01000918 0.04996756
v 0.00655531 -0.01032256 0.04996183
v 0.00657923 -0.01063543 0.04995645
v 0.00690206 -0.01135243 0.04888906
v 0.00687729 -0.01073679 0.04885344
v 0.00706507 -0.01120507 0.04812091
v 0.00743959 -0.01248041 0.04603975
v 0.00749244 -0.01274164 0.04559229
v 0.00665484 -0.01231952 0.04992836
v 0.00728133 -0.01458542 0.04670029
v 0.00694156 -0.01308804 0.04886971
v 0.00715000 -0.01384615 0.04779263
v 0.00665748 -0.01251400 0.04992508
v 0.00726339 -0.01500734 0.04670376
v 0.00713770 -0.01425818 0.04779267
v 0.00693682 -0.01348919 0.04886631
v 0.00665878 -0.01270883 0.04992180
v 0.00726456 -0.01572448 0.04631376
v 0.00665864 -0.01291697 0.04991826
v 0.00724149 -0.01548698 0.04666514
v 0.00711403 -0.01467744 0.04782210
v 0.00692230 -0.01390733 0.04887710
v 0.00665688 -0.01312531 0.04991473
v 0.00725651 -0.01583879 0.04631551
v 0.00723384 -0.01560054 0.04666658
v 0.00710801 -0.01478831 0.04782239
v 0.00693914 -0.01445073 0.04870506
v 0.00698903 -0.01464772 0.04844192
v 0.00691834 -0.01401548 0.04887632
v 0.00691427 -0.01411530 0.04887564
v 0.00665356 -0.01332765 0.04991133
v 0.00664864 -0.01352999 0.04990792
v 0.00685577 -0.01415361 0.04909772
v 0.00726153 -0.01576845 0.04631442
v 0.00723861 -0.01553066 0.04666568
v 0.00711177 -0.01472009 0.04782220
v 0.00692083 -0.01394893 0.04887680
v 0.00665634 -0.01316577 0.04991405
v 0.00664726 -0.01357689 0.04990714
v 0.00662181 -0.01417157 0.04989719
v 0.00664311 -0.01370279 0.04990503
v 0.00663739 -0.01385108 0.04990255
v 0.00660897 -0.01438414 0.04989363
v 0.00659279 -0.01461339 0.04988979
v 0.00657580 -0.01482301 0.04988628
v 0.00655605 -0.01503872 0.04988267
v 0.00653473 -0.01524670 0.04987919
v 0.00654566 -0.01514282 0.04988093
v 0.00651000 -0.01546387 0.04987556
v 0.00652267 -0.01535543 0.04987737
v 0.00650856 -0.01547588 0.04987536
v 0.00648368 -0.01567313 0.04987205
v 0.00646227 -0.01583011 0.04986943
v 0.00647315 -0.01575172 0.04987074
v 0.00643925 -0.01598793 0.04986678
v 0.00670858 -0.01743735 0.04814404
v 0.00644459 -0.01595223 0.04986738
v 0.00645381 -0.01588935 0.04986843
v 0.00672400 -0.01930702 0.04568715
v 0.00676484 -0.01839713 0.04692680
v 0.00517084 -0.02316238 0.03158432
v 0.00519621 -0.02312471 0.03207899
v 0.00544207 -0.02280152 0.03480764
v 0.00570884 -0.02241298 0.03721046
v 0.00549188 -0.02273317 0.03527708
v 0.00546800 -0.02276653 0.03504206
v 0.00575863 -0.02233260 0.03764533
v 0.00573370 -0.02237322 0.03742798
v 0.00602325 -0.02187182 0.03919924
v 0.00594898 -0.02199282 0.03929336
v 0.00622274 -0.02143457 0.04089878
v 0.00613993 -0.02157103 0.04102276
v 0.00626078 -0.02133723 0.04124165
v 0.00615753 -0.02152503 0.04119773
v 0.00617477 -0.02147831 0.04137256
v 0.00640570 -0.02098620 0.04170740
v 0.00647323 -0.02078372 0.04230286
v 0.00638614 -0.02096143 0.04246338
v 0.00628630 -0.02112199 0.04262086
v 0.00649429 -0.02050268 0.04377408
v 0.00637654 -0.02068836 0.04396234
v 0.00633643 -0.02091118 0.04329333
v 0.00651024 -0.02065999 0.04264866
v 0.00651938 -0.02062767 0.04273691
v 0.00659923 -0.02030239 0.04358197
v 0.00654036 -0.02055034 0.04294474
v 0.00653811 -0.02055885 0.04292208
v 0.00637744 -0.02068263 0.04397873
v 0.00649006 -0.02050568 0.04379990
v 0.00659709 -0.02030320 0.04360542
v 0.00660063 -0.02029576 0.04359844
v 0.00521449 -0.02308892 0.03279062
v 0.00549010 -0.02270218 0.03616591
v 0.00528120 -0.02299629 0.03379575
v 0.00574734 -0.02229645 0.03848667
v 0.00618488 -0.02135862 0.04211612
v 0.00608491 -0.02161912 0.04125728
v 0.00598043 -0.02185485 0.04039581
v 0.00637906 -0.02067173 0.04401039
v 0.00634932 -0.02079261 0.04372623
v 0.00638675 -0.02061781 0.04416463
v 0.00638790 -0.02060987 0.04418650
v 0.00660193 -0.02028953 0.04361387
v 0.00649109 -0.02049996 0.04381523
v 0.00659838 -0.02029699 0.04362085
v 0.00660324 -0.02028327 0.04362938
v 0.00649755 -0.02048476 0.04382181
v 0.00662022 -0.02019799 0.04383810
v 0.00665832 -0.01996992 0.04437504
v 0.00642907 -0.02036352 0.04476663
v 0.00666919 -0.01989010 0.04455622
v 0.00643988 -0.02028327 0.04494815
v 0.00643922 -0.02028901 0.04493503
v 0.00643808 -0.02029709 0.04491725
v 0.00643519 -0.02031912 0.04486754
v 0.00666390 -0.01993012 0.04446580
v 0.00670687 -0.01946769 0.04545704
v 0.00647821 -0.01985708 0.04585004
v 0.00669620 -0.01962882 0.04512562
v 0.00646250 -0.02007502 0.04540135
v 0.00668465 -0.01975607 0.04485297
v 0.00667550 -0.01983898 0.04467050
v 0.00670840 -0.01943750 0.04551747
v 0.00670968 -0.01940967 0.04557273
v 0.00648110 -0.01979840 0.04596669
v 0.00671199 -0.01935042 0.04568909
v 0.00648345 -0.01973941 0.04608230
v 0.00671051 -0.01888639 0.04655304
v 0.00648361 -0.01927140 0.04694430
v 0.00671565 -0.01912215 0.04612308
v 0.00648749 -0.01949573 0.04654282
v 0.00664909 -0.01825462 0.04765218
v 0.00643536 -0.01860930 0.04801975
v 0.00667304 -0.01842721 0.04735727
v 0.00646250 -0.01889602 0.04757275
v 0.00669584 -0.01864951 0.04697216
v 0.00670604 -0.01879586 0.04671451
v 0.00664442 -0.01822497 0.04770254
v 0.00663666 -0.01817790 0.04778233
v 0.00662421 -0.01810714 0.04790191
v 0.00641493 -0.01843680 0.04827610
v 0.00659509 -0.01795924 0.04815058
v 0.00639456 -0.01828487 0.04849452
v 0.00663023 -0.01808144 0.04790186
v 0.00664699 -0.01821418 0.04770246
v 0.00664334 -0.01814975 0.04778210
v 0.00663700 -0.01805276 0.04790136
v 0.00662047 -0.01784946 0.04814908
v 0.00661394 -0.01787802 0.04814947
v 0.00660787 -0.01790437 0.04814982
v 0.00666784 -0.01763443 0.04814634
v 0.00671082 -0.01827027 0.04735456
v 0.00671591 -0.01856872 0.04697105
v 0.00671391 -0.01876494 0.04671413
v 0.00671801 -0.01932872 0.04568812
v 0.00671159 -0.01942613 0.04551693
v 0.00671579 -0.01938763 0.04557218
v 0.00672755 -0.01951888 0.04511994
v 0.00670137 -0.01969877 0.04484987
v 0.00668202 -0.01981695 0.04466930
v 0.00673204 -0.01964503 0.04465737
v 0.00663221 -0.02015939 0.04383599
v 0.00667535 -0.01995723 0.04416551
v 0.00514047 -0.02331243 0.02662266
v 0.00516617 -0.02330537 0.02580569
v 0.00513531 -0.02331399 0.02677517
v 0.00535696 -0.02318628 0.02225501
v 0.00528193 -0.02323985 0.02343561
v 0.00527951 -0.02324329 0.02322939
v 0.00545884 -0.02310479 0.02065939
v 0.00536009 -0.02318450 0.02199502
v 0.00547350 -0.02309311 0.02066130
v 0.00574313 -0.02284129 0.01763008
v 0.00562466 -0.02295767 0.01887317
v 0.00558572 -0.02299206 0.01914164
v 0.00589751 -0.02268241 0.01774319
v 0.00604361 -0.02250604 0.01786125
v 0.00602872 -0.02252068 0.01801877
v 0.00581610 -0.02271544 0.02037076
v 0.00595708 -0.02258924 0.01878719
v 0.00698555 -0.02129517 0.01035911
v 0.00703809 -0.02121695 0.01006498
v 0.00729321 -0.02088761 0.01010564
v 0.00691427 -0.02143052 0.01235565
v 0.00630828 -0.02221942 0.01517854
v 0.00626039 -0.02227527 0.01564423
v 0.00654699 -0.02191504 0.01302504
v 0.00678313 -0.02158900 0.01153994
v 0.00690312 -0.02141633 0.01083063
v 0.00761018 -0.02039628 0.00836702
v 0.00783629 -0.02002788 0.00721079
v 0.00794671 -0.01984341 0.00667412
v 0.00760438 -0.02032923 0.00716932
v 0.00698880 -0.02127843 0.01005746
v 0.00701249 -0.02124895 0.01006106
v 0.00673354 -0.02165112 0.01153285
v 0.00682974 -0.02150778 0.01081981
v 0.00685365 -0.02147814 0.01082332
v 0.00689644 -0.02140591 0.01034573
v 0.00693619 -0.02135678 0.01035166
v 0.00664173 -0.02178350 0.01224808
v 0.00675739 -0.02162135 0.01153625
v 0.00687744 -0.02144850 0.01082682
v 0.00695992 -0.02132724 0.01035523
v 0.00648055 -0.02191438 0.01125539
v 0.00629157 -0.02218673 0.01275308
v 0.00640836 -0.02207386 0.01287116
v 0.00646769 -0.02192293 0.01123862
v 0.00627713 -0.02219780 0.01274942
v 0.00599821 -0.02255534 0.01510227
v 0.00599066 -0.02257014 0.01530029
v 0.00575905 -0.02282500 0.01747078
v 0.00632725 -0.02218341 0.01356963
v 0.00590574 -0.02267415 0.01765499
v 0.00575107 -0.02283319 0.01755042
v 0.01099076 -0.01261216 -0.00747268
v 0.01095757 -0.01267458 -0.00748087
v 0.01104569 -0.01250638 -0.00745880
v 0.01101839 -0.01255935 -0.00746575
v 0.01109900 -0.01240053 -0.00744490
v 0.01107251 -0.01245354 -0.00745186
v 0.01116760 -0.01225920 -0.00742634
v 0.01113360 -0.01233000 -0.00743563
v 0.01120205 -0.01218586 -0.00741670
v 0.01123582 -0.01211225 -0.00740703
v 0.01126739 -0.01204185 -0.00739778
v 0.01129832 -0.01197122 -0.00738850
v 0.01133707 -0.01188030 -0.00737654
v 0.01131781 -0.01192586 -0.00738253
v 0.01136036 -0.01182424 -0.00736917
v 0.01134876 -0.01185230 -0.00737286
v 0.01141794 -0.01168056 -0.00735027
v 0.01138949 -0.01175248 -0.00735973
v 0.01147758 -0.01152320 -0.00732955
v 0.01144817 -0.01160197 -0.00733992
v 0.01152979 -0.01137700 -0.00731028
v 0.01150404 -0.01145018 -0.00731992
v 0.01158300 -0.01121834 -0.00728935
v 0.01155681 -0.01129777 -0.00729983
v 0.01166961 -0.01093338 -0.00725176
v 0.01162765 -0.01107616 -0.00727060
v 0.01174417 -0.01065124 -0.00721454
v 0.01170820 -0.01079259 -0.00723319
v 0.01180994 -0.01035836 -0.00717592
v 0.01177846 -0.01050510 -0.00719527
v 0.01186134 -0.01008171 -0.00713947
v 0.01183689 -0.01022029 -0.00715773
v 0.01196315 -0.00905913 -0.00700528
v 0.01196728 -0.00884696 -0.00697742
v 0.01196707 -0.00885151 -0.00695436
v 0.01193317 -0.00946181 -0.00709072
v 0.01195674 -0.00838834 -0.00691756
v 0.01196531 -0.00861734 -0.00694745
v 0.01196502 -0.00862288 -0.00692500
v 0.01195645 -0.00839491 -0.00689571
v 0.01189626 -0.00773318 -0.00683239
v 0.01193305 -0.00805995 -0.00687487
v 0.01180749 -0.00719586 -0.00676285
v 0.01185614 -0.00746384 -0.00679753
v 0.01173974 -0.00688298 -0.00672251
v 0.01166085 -0.00657227 -0.00668244
v 0.01166319 -0.00658817 -0.00666179
v 0.01153363 -0.00614529 -0.00662757
v 0.01159982 -0.00635827 -0.00665494
v 0.01148833 -0.00600872 -0.00661008
v 0.01144103 -0.00587295 -0.00659268
v 0.01106767 -0.00497570 -0.00647816
v 0.01125777 -0.00539980 -0.00653221
v 0.01127759 -0.00546015 -0.00649382
v 0.01099423 -0.00482577 -0.00645910
v 0.01091816 -0.00467675 -0.00644300
v 0.01084765 -0.00454482 -0.00642615
v 0.01119480 -0.01086473 0.00297752
v 0.01122892 -0.01071318 0.00264286
v 0.01128061 -0.01046523 0.00210950
v 0.01135084 -0.01008136 0.00131429
v 0.01116193 -0.01100303 0.00328915
v 0.01114577 -0.01106857 0.00343905
v 0.01112799 -0.01113894 0.00360167
v 0.00691177 -0.00513472 0.04367720
v 0.00709070 -0.00549550 0.04274222
v 0.00669476 -0.00483310 0.04485490
v 0.00680802 -0.00498590 0.04426744
v 0.00661495 -0.00473070 0.04523870
v 0.00619488 -0.00424687 0.04695714
v 0.00637326 -0.00444252 0.04628004
v 0.00645396 -0.00453547 0.04595012
v 0.00648569 -0.00460692 0.04588612
v 0.00655926 -0.00471928 0.04561552
v 0.00654142 -0.00469166 0.04568216
v 0.00718080 -0.00588571 0.04271425
v 0.00771206 -0.01042298 0.04231415
v 0.00752579 -0.01293105 0.04526205
v 0.00761684 -0.01365994 0.04393430
v 0.00757000 -0.01322779 0.04473216
v 0.00699480 -0.01025920 0.04813020
v 0.00643550 -0.00910971 0.04998197
v 0.00648485 -0.00955895 0.04997461
v 0.00692839 -0.00949210 0.04811697
v 0.00634139 -0.00836906 0.04999430
v 0.00639036 -0.00873893 0.04998815
v 0.00750397 -0.00951640 0.04428390
v 0.00649713 -0.00720962 0.04876260
v 0.00726564 -0.00878716 0.04576465
v 0.00609111 -0.00681415 0.05002034
v 0.00669232 -0.00754589 0.04814001
v 0.00695079 -0.00804737 0.04719750
v 0.00717716 -0.00856023 0.04621061
v 0.00557877 -0.00466004 0.05013043
v 0.00564145 -0.00488454 0.05012682
v 0.00570105 -0.00510983 0.05012319
v 0.00585191 -0.00573683 0.05011322
v 0.00599782 -0.00642992 0.05010232
v 0.00602717 -0.00658081 0.05009997
v 0.00605578 -0.00673196 0.05009761
v 0.00631179 -0.00831394 0.05007298
v 0.00619312 -0.00752149 0.05008531
v 0.00640761 -0.00906719 0.05006123
v 0.00636169 -0.00869013 0.05006710
v 0.00651529 -0.00999538 0.05000733
v 0.00650192 -0.00998148 0.05004692
v 0.00645775 -0.00952386 0.05005408
v 0.00651581 -0.01000638 0.05000871
v 0.00652900 -0.01029939 0.05004194
v 0.00654271 -0.01032373 0.05000383
v 0.00655304 -0.01061714 0.05003695
v 0.00656552 -0.01062572 0.04999917
v 0.00655597 -0.01033546 0.04996290
v 0.00652913 -0.01002056 0.04996813
v 0.00662798 -0.01232889 0.05001005
v 0.00660216 -0.01146970 0.05002374
v 0.00663032 -0.01252614 0.05000693
v 0.00662848 -0.01314581 0.04999717
v 0.00663072 -0.01293467 0.05000050
v 0.00662468 -0.01335081 0.04999394
v 0.00661920 -0.01355582 0.04999071
v 0.00660699 -0.01388105 0.04998558
v 0.00659030 -0.01420573 0.04998046
v 0.00658373 -0.01431347 0.04997876
v 0.00655075 -0.01475968 0.04997174
v 0.00654149 -0.01486583 0.04997008
v 0.00653135 -0.01497526 0.04996835
v 0.00652062 -0.01508449 0.04996664
v 0.00649812 -0.01529538 0.04996334
v 0.00650965 -0.01519004 0.04996499
v 0.00647202 -0.01551567 0.04995990
v 0.00648539 -0.01540565 0.04996161
v 0.00647050 -0.01552785 0.04995970
v 0.00645766 -0.01562805 0.04995815
v 0.00644426 -0.01572800 0.04995659
v 0.00642466 -0.01608283 0.04986519
v 0.00638206 -0.01614358 0.04995013
v 0.00640952 -0.01617766 0.04986361
v 0.00636616 -0.01623960 0.04994863
v 0.00637442 -0.01638491 0.04986013
v 0.00639231 -0.01628134 0.04986187
v 0.00650449 -0.01754040 0.04879811
v 0.00651798 -0.01764169 0.04867975
v 0.00655910 -0.01780068 0.04841553
v 0.00633237 -0.01661370 0.04985631
v 0.00643920 -0.01713065 0.04927110
v 0.00635382 -0.01649938 0.04985822
v 0.00648047 -0.01737667 0.04898817
v 0.00637037 -0.01640782 0.04985975
v 0.00636381 -0.01644445 0.04985914
v 0.00650387 -0.01759092 0.04876353
v 0.00649979 -0.01756135 0.04879817
v 0.00649791 -0.01756982 0.04879810
v 0.00646854 -0.01743093 0.04898816
v 0.00642781 -0.01718458 0.04927080
v 0.00641713 -0.01723432 0.04927053
v 0.00634153 -0.01705312 0.04959083
v 0.00636325 -0.01716491 0.04946529
v 0.00644566 -0.01739580 0.04908156
v 0.00646365 -0.01745325 0.04898793
v 0.00648039 -0.01750911 0.04889711
v 0.00633058 -0.01699907 0.04965132
v 0.00631242 -0.01671602 0.04985459
v 0.00629318 -0.01682445 0.04984593
v 0.00647591 -0.01739755 0.04898816
v 0.00643484 -0.01715139 0.04927099
v 0.00632209 -0.01666692 0.04985542
v 0.00632844 -0.01663418 0.04985596
v 0.00635347 -0.01713860 0.04950795
v 0.00633778 -0.01709583 0.04957578
v 0.00633530 -0.01708213 0.04959051
v 0.00633433 -0.01708636 0.04959062
v 0.00632441 -0.01702804 0.04965096
v 0.00632016 -0.01704785 0.04965072
v 0.00631744 -0.01704059 0.04966209
v 0.00633914 -0.01706428 0.04959071
v 0.00632822 -0.01701022 0.04965118
v 0.00644347 -0.01740728 0.04907972
v 0.00651515 -0.01764632 0.04868479
v 0.00629414 -0.01768171 0.04929954
v 0.00635109 -0.01755011 0.04923879
v 0.00633802 -0.01792433 0.04898709
v 0.00642489 -0.01779081 0.04884194
v 0.00637009 -0.01812004 0.04872407
v 0.00646426 -0.01895279 0.04748988
v 0.00648170 -0.01927483 0.04694623
v 0.00648600 -0.01951302 0.04651741
v 0.00643240 -0.02032702 0.04485950
v 0.00515153 -0.02318238 0.03147674
v 0.00536696 -0.02286071 0.03515691
v 0.00512911 -0.02322081 0.03078690
v 0.00554539 -0.00362071 0.04898462
v 0.00568881 -0.00377706 0.04862941
v 0.00575555 -0.00385230 0.04845814
v 0.00579930 -0.00390252 0.04834369
v 0.00582634 -0.00393394 0.04827205
v 0.00592372 -0.00404947 0.04800822
v 0.00607314 -0.00423462 0.04758412
v 0.00628286 -0.00451262 0.04694366
v 0.00659534 -0.00497493 0.04586601
v 0.00666643 -0.00508997 0.04559479
v 0.00743638 -0.00673630 0.04150065
v 0.00726347 -0.00627886 0.04268896
v 0.00705154 -0.00580099 0.04388337
v 0.00671799 -0.00664317 0.04722745
v 0.00628467 -0.00593130 0.04865177
v 0.00617990 -0.00546997 0.04866236
v 0.00697759 -0.00684894 0.04579689
v 0.00662824 -0.00616285 0.04724102
v 0.00557528 -0.00458302 0.05005763
v 0.00605502 -0.00503084 0.04873140
v 0.00551680 -0.00438785 0.05006091
v 0.00689824 -0.00638520 0.04585689
v 0.00653947 -0.00573455 0.04725438
v 0.00652447 -0.00571027 0.04730583
v 0.00652179 -0.00570596 0.04731496
v 0.00607654 -0.00505916 0.04867247
v 0.00690794 -0.00640515 0.04581338
v 0.00548781 -0.00432456 0.05009901
v 0.00545830 -0.00426144 0.05013695
v 0.00551290 -0.00446281 0.05015389
v 0.00634808 -0.01634455 0.04994700
v 0.00708687 -0.00631901 0.04439020
v -0.01735000 0.00181098 0.04732499
v -0.01735000 0.00181111 0.04853459
v -0.01735000 0.00160510 0.05106202
v -0.01735000 0.00171472 0.05021511
v -0.01735000 -0.00206461 0.05540173
v -0.01735000 -0.00102182 0.05508258
v -0.01735000 0.00077883 0.05357674
v -0.01735000 0.00109712 0.05294865
v -0.01735000 0.00139731 0.05205469
v -0.01735000 -0.00728603 0.05568828
v -0.01735000 -0.00503930 0.05569671
v -0.01735000 -0.00317367 0.05558042
v -0.01735000 -0.02272877 0.04038494
v -0.01735000 -0.02269201 0.04160627
v -0.01735000 -0.02250148 0.04430117
v -0.01735000 -0.00945600 0.05555221
v -0.01735000 -0.01153631 0.05528560
v -0.01735000 -0.00066404 0.05491683
v -0.01735000 0.00001566 0.05446859
v -0.01735000 0.00030232 0.05420069
v -0.01735000 -0.02011794 0.05121922
v -0.01735000 -0.02080903 0.05029908
v -0.01735000 -0.02226937 0.04601160
v -0.01735000 -0.02188356 0.04777058
v -0.01735000 -0.02168609 0.04841432
v -0.01735000 -0.01938942 0.05195142
v -0.01735000 -0.01841027 0.05272213
v -0.01735000 -0.01730770 0.05340748
v -0.01735000 -0.01625414 0.05393402
v -0.01735000 -0.02143838 0.04907487
v -0.01735000 -0.02135251 0.04927497
v -0.01735000 -0.01477365 0.05450837
v -0.01735000 -0.01320337 0.05495173
v -0.01750904 -0.02123083 0.04038494
v -0.01750904 -0.02247991 0.04038494
v -0.01475600 -0.02550366 0.03528608
v -0.01502127 -0.02534465 0.03557037
v -0.01549280 -0.02499518 0.03613196
v -0.01595622 -0.02456033 0.03677111
v -0.01655394 -0.02386734 0.03777780
v -0.01702172 -0.02323221 0.03880167
v -0.01737712 -0.02269486 0.03986051
v -0.01391345 -0.02586887 0.03450410
v -0.01319888 -0.02606673 0.03395810
v -0.01078902 -0.02642693 0.03269397
v -0.01096580 -0.02640997 0.03276143
v -0.01213672 -0.02626470 0.03330366
v -0.01294265 -0.02612235 0.03378429
v 0.00115323 -0.02480095 0.04437102
v 0.00075122 -0.02532998 0.03969707
v 0.00043329 -0.02546921 0.03887258
v -0.00731746 -0.02656871 0.03402741
v -0.00849622 -0.02656305 0.03415018
v -0.01002246 -0.02649873 0.03457695
v -0.00965136 -0.02652078 0.03444347
v -0.01188529 -0.02631239 0.03559177
v -0.01109320 -0.02640873 0.03508296
v -0.01051787 -0.02646223 0.03478763
v -0.01327908 -0.02605434 0.03687456
v -0.01244263 -0.02622545 0.03603490
v -0.01208440 -0.02628337 0.03574111
v -0.01476291 -0.02550177 0.03870181
v -0.01680598 -0.02353730 0.03871897
v -0.01611655 -0.02440272 0.03870948
v -0.01527000 -0.02487539 0.04420628
v -0.01584381 -0.02441129 0.04421262
v -0.01527000 -0.02505264 0.04223494
v -0.01551234 -0.02490550 0.04165149
v -0.01370220 -0.02593940 0.03740893
v -0.01398761 -0.02584547 0.03782853
v -0.01459530 -0.02558114 0.03897526
v -0.01545363 -0.02504174 0.03870406
v -0.01486790 -0.02542166 0.03969681
v -0.01498978 -0.02533808 0.04010807
v -0.01519108 -0.02517054 0.04109921
v -0.00461357 -0.02645012 0.03439571
v -0.00577022 -0.02652301 0.03412499
v -0.00696029 -0.02656342 0.03402391
v -0.00705838 -0.02656519 0.03402332
v -0.00041500 -0.02575674 0.03740834
v -0.00106472 -0.02592793 0.03662187
v -0.00194811 -0.02611373 0.03580721
v -0.00220598 -0.02615956 0.03561038
v -0.00321264 -0.02630836 0.03497954
v -0.00430634 -0.02642458 0.03449821
v -0.00452084 -0.02644271 0.03442524
v -0.00013463 -0.02567134 0.03781994
v -0.00031247 -0.02572643 0.03755271
v 0.00084006 -0.02528518 0.03998879
v 0.00115323 -0.02502427 0.04223494
v 0.00112506 -0.02508736 0.04155532
v 0.00094248 -0.02522806 0.04038647
v -0.01617213 -0.02427083 0.04165955
v -0.01685670 -0.02341045 0.04167741
v -0.01687603 -0.02319618 0.04426225
v -0.01674682 -0.02337237 0.04425317
v -0.01527000 0.00209204 0.04865775
v -0.01527000 0.00200850 0.05027616
v -0.01527000 0.00180981 0.05171186
v -0.01527000 0.00171490 0.05215132
v -0.01527000 0.00142876 0.05310061
v -0.01527000 0.00100400 0.05398851
v -0.01611597 -0.02199981 0.05064563
v -0.01598028 -0.02207098 0.05069619
v -0.01586506 -0.02128816 0.05163739
v -0.01527000 -0.00100122 0.05562699
v -0.01527000 -0.00057146 0.05543575
v -0.01681678 -0.00069869 0.05510412
v -0.01527000 0.00014107 0.05498001
v -0.01527000 0.00029819 0.05484628
v -0.01670531 0.00018409 0.05454742
v -0.01527000 0.00051491 0.05463419
v -0.01647176 -0.01203750 0.05555431
v -0.01527000 -0.00870445 0.05623586
v -0.01668581 -0.01007518 0.05573480
v -0.01527000 -0.00638517 0.05627718
v -0.01697491 -0.00628564 0.05582947
v -0.01527000 -0.00398955 0.05618985
v -0.01702206 -0.00458634 0.05578365
v -0.01527000 -0.00344123 0.05614363
v -0.01699855 -0.00308385 0.05567697
v -0.01527000 -0.00201893 0.05592848
v -0.01692312 -0.00178679 0.05546551
v -0.01527000 -0.01349589 0.05567515
v -0.01527000 -0.01305849 0.05576006
v -0.01527000 -0.01093232 0.05606733
v -0.01527000 -0.01979339 0.05313333
v -0.01527000 -0.01850383 0.05390548
v -0.01547229 -0.01896531 0.05356739
v -0.01527000 -0.01683206 0.05468777
v -0.01571944 -0.01744960 0.05425689
v -0.01527000 -0.01520094 0.05525495
v -0.01597534 -0.01577712 0.05482729
v -0.01623021 -0.01395941 0.05525831
v -0.01527000 -0.02096365 0.05226651
v -0.01527000 -0.02200535 0.05130479
v -0.01527000 -0.02236705 0.05091044
v -0.01684201 -0.02007404 0.05191770
v -0.01718220 -0.02051082 0.05103375
v -0.01650472 -0.02109941 0.05127414
v -0.01724208 -0.01883416 0.05252258
v -0.01715461 -0.01575362 0.05426839
v -0.01679324 -0.01740043 0.05374648
v -0.01644906 -0.01887853 0.05312009
v -0.01613474 -0.02017545 0.05241227
v -0.01665745 -0.02165017 0.05040011
v -0.01626326 -0.02191579 0.05058629
v -0.01694256 -0.02104893 0.05075464
v -0.01694674 -0.02103978 0.05075966
v -0.01674960 -0.02303788 0.04648086
v -0.01720494 -0.02131306 0.04979300
v -0.01733062 -0.02171906 0.04840296
v -0.01667677 -0.02184170 0.05007130
v -0.01710007 -0.02114499 0.05032772
v -0.01669915 -0.02209286 0.04957520
v -0.01673375 -0.02260173 0.04824482
v 0.00132570 -0.00042920 0.05358537
v 0.00115323 -0.00064934 0.05421841
v 0.00134095 -0.00073577 0.05413781
v 0.00115323 -0.00016005 0.05323110
v 0.00167151 -0.00031683 0.05277038
v 0.00115323 0.00031426 0.05184480
v 0.00135395 0.00088379 0.04806886
v 0.00156031 0.00036423 0.05072104
v 0.00115323 0.00083225 0.04933306
v 0.00115323 0.00103282 0.04727523
v 0.00115323 0.00046999 0.05124941
v 0.00174765 -0.00093446 0.05393285
v 0.00115323 -0.02448566 0.04629808
v 0.00115323 -0.02429683 0.04713455
v 0.00115323 -0.02387332 0.04853684
v 0.00115323 -0.02366036 0.04908011
v 0.00150463 -0.02290200 0.05030631
v 0.00115323 -0.02307874 0.05024626
v 0.00134641 -0.02255737 0.05093963
v 0.00115323 -0.02235818 0.05130813
v 0.00127318 -0.02215958 0.05149733
v 0.00115323 -0.02219464 0.05151128
v 0.00176915 -0.02199990 0.05142839
v 0.00197766 -0.02219681 0.05103841
v 0.00203293 -0.02152539 0.05181012
v 0.00187454 -0.00128147 0.05425635
v 0.00193316 -0.00145662 0.05438740
v 0.00190916 -0.00124037 0.05415881
v 0.00214919 -0.00220439 0.05478846
v 0.00208357 -0.00174842 0.05449803
v 0.00206899 -0.00190599 0.05465342
v 0.00126136 -0.00111435 0.05474966
v 0.00192102 -0.01903766 0.05384815
v 0.00169313 -0.02032340 0.05307196
v 0.00115323 -0.00077702 0.05441986
v 0.00115323 -0.00108551 0.05482130
v 0.00142677 -0.02137055 0.05228253
v 0.00115323 -0.02003599 0.05350300
v 0.00115323 -0.02120284 0.05255427
v 0.00115323 -0.02139678 0.05237161
v 0.00115323 -0.01531373 0.05576517
v 0.00115323 -0.01691309 0.05521364
v 0.00206859 -0.01754115 0.05456264
v 0.00115323 -0.01843860 0.05449810
v 0.00115323 -0.01127625 0.05646890
v 0.00115323 -0.01335365 0.05620679
v 0.00115323 -0.01360628 0.05616185
v 0.00216930 -0.01212474 0.05590653
v 0.00212142 -0.01018890 0.05606602
v 0.00115323 -0.00924620 0.05657030
v 0.00163776 -0.00367685 0.05585280
v 0.00115323 -0.00550665 0.05642238
v 0.00179185 -0.00499324 0.05599930
v 0.00115323 -0.00730602 0.05654649
v 0.00192874 -0.00655047 0.05608752
v 0.00134051 -0.00174688 0.05525117
v 0.00115323 -0.00232646 0.05572688
v 0.00148114 -0.00259793 0.05561437
v 0.00115323 -0.00285396 0.05593365
v 0.00115323 -0.00383652 0.05618779
v 0.00115323 -0.00128850 0.05503201
v 0.00115323 -0.00163469 0.05532209
v 0.00115323 -0.01871873 0.05434387
v -0.01595882 -0.02287666 0.04953311
v -0.01527000 -0.02311961 0.04992809
v -0.01527000 -0.02400940 0.04816782
v -0.01527000 -0.02385710 0.04854944
v -0.01589840 -0.02354185 0.04815634
v -0.01527000 -0.02371323 0.04887117
v -0.01527000 -0.02331363 0.04962040
v -0.01527000 -0.02431190 0.04723755
v -0.01586803 -0.02404696 0.04640837
v -0.01527000 -0.02451099 0.04643926
v -0.01527000 -0.02482929 0.04457954
v 0.00500000 0.00124084 -0.01818170
v 0.00381919 0.00176120 -0.01812153
v 0.00300000 -0.00236796 0.05406466
v 0.00300000 -0.02366337 0.04669488
v 0.00300000 -0.02407435 0.04446284
v 0.00300000 0.00003272 0.04822530
v 0.00300000 0.00024315 0.04632597
v 0.00300000 0.00030277 0.04505166
v 0.00300000 -0.01540896 0.05496202
v 0.00300000 -0.01363097 0.05534733
v 0.00300000 -0.01165492 0.05557668
v 0.00300000 -0.00964975 0.05564226
v 0.00300000 -0.00747652 0.05554172
v 0.00300000 -0.00568967 0.05531333
v 0.00300000 -0.02451463 0.03950995
v 0.00300000 -0.02438053 0.04159207
v 0.00300000 -0.01954546 0.05308092
v 0.00300000 -0.01831450 0.05382082
v 0.00300000 -0.01680754 0.05450328
v 0.00300000 -0.00413671 0.05495319
v 0.00300000 -0.00308770 0.05453066
v 0.00300000 -0.02151586 0.05132257
v 0.00300000 -0.02062215 0.05223844
v 0.00300000 -0.02338997 0.04771873
v 0.00300000 -0.02292837 0.04899599
v 0.00300000 -0.02284879 0.04917736
v 0.00300000 -0.02224026 0.05032269
v 0.00300000 -0.00032565 0.05007468
v 0.00300000 -0.00080036 0.05165271
v 0.00300000 -0.00129258 0.05275512
v 0.00300000 -0.00176793 0.05346705
v -0.00526671 -0.02664594 0.03132854
v -0.00530448 -0.02665253 0.03231978
v -0.00778291 -0.02671050 0.03130420
v -0.00663798 -0.02670626 0.03218165
v -0.00780472 -0.02671812 0.03219981
v 0.00250086 -0.02483810 0.03824146
v 0.00184595 -0.02517943 0.03705324
v -0.00500620 -0.02663472 0.03237438
v -0.00468840 -0.02661326 0.03244239
v -0.00377454 -0.02653565 0.03269642
v -0.00253833 -0.02638620 0.03318886
v -0.00235193 -0.02635850 0.03327935
v -0.00136941 -0.02618623 0.03383568
v -0.00054904 -0.02600341 0.03441679
v -0.00002929 -0.02586576 0.03485101
v 0.00044427 -0.02572321 0.03530018
v 0.00132414 -0.02540655 0.03630836
v 0.00308696 -0.01138652 0.05552652
v 0.00311303 -0.01432055 0.05513727
v 0.00320739 -0.01542334 0.05480520
v 0.00323283 -0.01292895 0.05526908
v 0.00316859 -0.01035797 0.05549834
v 0.00303020 -0.00788119 0.05554746
v 0.00449319 -0.02352621 0.03850742
v 0.00349759 -0.02426356 0.03845821
v 0.00365273 -0.02434191 0.03148148
v 0.00621961 -0.02071151 0.04479155
v 0.00329503 -0.02388682 0.04448058
v 0.00538976 -0.02267550 0.03851795
v 0.00527178 -0.02253772 0.04175347
v 0.00424050 -0.02316238 0.04455226
v 0.00499129 -0.02241924 0.04462715
v 0.00604375 -0.02158571 0.04179204
v 0.00580393 -0.02137871 0.04472928
v 0.00442877 -0.02378984 0.03149477
v 0.00310084 -0.02354341 0.04692348
v 0.00653829 -0.01453442 0.05006320
v 0.00660250 -0.01266325 0.05009303
v 0.00595301 -0.01328835 0.05157278
v 0.00642494 -0.00946136 0.05014409
v 0.00633018 -0.00864458 0.05015711
v 0.00565556 -0.00827881 0.05174745
v 0.00400804 -0.00799244 0.05450891
v 0.00638729 -0.01590609 0.05004133
v 0.00425120 -0.01302576 0.05426097
v 0.00420934 -0.01551755 0.05384520
v 0.00515727 -0.01314710 0.05301822
v 0.00509038 -0.01563947 0.05265949
v 0.00585482 -0.01578184 0.05127625
v 0.00417607 -0.01046008 0.05446602
v 0.00507667 -0.01058524 0.05319480
v 0.00587183 -0.01073129 0.05171835
v 0.00658589 -0.01176468 0.05010737
v 0.00488253 -0.00812489 0.05323095
v 0.00377121 -0.00579478 0.05443819
v 0.00460878 -0.00593706 0.05316840
v 0.00534850 -0.00609906 0.05169452
v 0.00594194 -0.00626700 0.05019503
v 0.00574282 -0.00536174 0.05020946
v 0.00528040 -0.00378003 0.05023469
v 0.00521523 -0.00438451 0.05101585
v 0.00343368 -0.00399434 0.05435511
v 0.00322687 -0.00164211 0.05286131
v 0.00400536 -0.00098194 0.04869673
v 0.00339453 -0.00084330 0.05062149
v 0.00416855 -0.00181682 0.05072577
v 0.00574137 -0.00355635 0.04806503
v 0.00614613 -0.00392873 0.04666643
v 0.00584575 -0.00286790 0.04511108
v 0.00637907 -0.00416896 0.04572429
v 0.00648296 -0.00425034 0.04515474
v 0.00650542 -0.00430956 0.04515647
v 0.00518795 -0.00346582 0.05015512
v 0.00516319 -0.00332489 0.05004749
v 0.00475383 -0.00296379 0.05088041
v 0.00519070 -0.00347794 0.05016170
v 0.00515876 -0.00324737 0.04995032
v 0.00516121 -0.00321160 0.04988746
v 0.00518703 -0.00315429 0.04970216
v 0.00526291 -0.00317167 0.04944102
v 0.00560064 -0.00327395 0.04816269
v 0.00497224 -0.00208101 0.04808624
v 0.00418668 -0.00104392 0.04803148
v 0.00370532 -0.00271724 0.05315473
v 0.00468164 -0.00424384 0.05225526
v 0.00408838 -0.00411491 0.05337371
v 0.00484346 -0.00139274 0.04506863
v 0.00401805 -0.00050147 0.04505536
v 0.00534855 -0.02311915 0.01642832
v 0.00585095 -0.02240942 0.01135356
v 0.00526082 -0.02321982 0.01745412
v 0.00644023 -0.02119968 0.00570526
v 0.00553988 -0.02178187 0.00568744
v 0.00496755 -0.02299889 0.01130243
v 0.00448031 -0.02371391 0.01635828
v 0.00439450 -0.02381621 0.01738358
v 0.00530027 -0.00282215 -0.02108297
v 0.00604894 -0.00295905 -0.02066299
v 0.00586920 -0.00473760 -0.02083709
v 0.00520812 -0.00168988 -0.02090459
v 0.00511390 -0.00099815 -0.02072142
v 0.00571752 -0.00119757 -0.02040490
v 0.00533541 -0.00394256 -0.02115080
v 0.00575871 -0.00521776 -0.02086006
v 0.00532157 -0.00506525 -0.02112409
v 0.00680498 -0.00248542 -0.01995515
v 0.00683119 -0.00347659 -0.02011564
v 0.00673195 -0.00450861 -0.02022369
v 0.00649403 -0.00555352 -0.02028629
v 0.00666658 -0.00156304 -0.01973521
v 0.00598858 -0.00129511 -0.02023722
v 0.00419789 0.00141311 -0.01889861
v 0.00475367 0.00120506 -0.01871736
v 0.00497714 0.00097806 -0.01896935
v 0.00444521 0.00107656 -0.01939850
v 0.00504175 0.00079043 -0.01925371
v 0.00456349 0.00086730 -0.01963551
v 0.00526597 0.00027579 -0.01972790
v 0.00475181 0.00043991 -0.02001015
v 0.00551151 -0.00039536 -0.02010697
v 0.00496037 -0.00024118 -0.02042128
v 0.00552914 0.00086275 -0.01840651
v 0.00564266 0.00072697 -0.01854782
v 0.00579747 0.00051952 -0.01873263
v 0.00612975 -0.00003359 -0.01911133
v 0.00643218 -0.00073704 -0.01945163
v 0.00500000 0.00131649 -0.01786087
v 0.00500000 0.00145484 -0.01697251
v 0.00541850 0.00128171 -0.01675799
v 0.00500000 0.00148772 -0.01661651
v 0.00645357 0.00081973 -0.01399207
v 0.00500000 0.00152634 -0.01507584
v 0.00536888 0.00133418 -0.01399207
v 0.00746821 0.00016307 -0.01399207
v 0.00646132 0.00067509 -0.01669862
v 0.00593007 0.00080840 -0.01774203
v 0.00500000 0.00131039 -0.01788952
v -0.00761778 -0.02662868 0.02680408
v -0.00735876 -0.02646417 0.02231041
v -0.00725578 -0.02639466 0.02095742
v -0.00707099 -0.02626973 0.01894228
v -0.00679064 -0.02608354 0.01659170
v -0.00665044 -0.02599091 0.01562647
v -0.00612499 -0.02560263 0.01247517
v -0.00591489 -0.02542553 0.01134303
v -0.00388963 -0.02527088 0.01080366
v -0.00531573 -0.02485927 0.00840143
v -0.00331910 -0.02409580 0.00551373
v -0.00477713 -0.02429220 0.00603461
v -0.00464761 -0.02415065 0.00549663
v -0.00440341 -0.02604422 0.01669393
v -0.00377934 -0.02317650 0.00214057
v -0.00364208 -0.02301977 0.00164443
v -0.00265456 -0.02250025 0.00015964
v -0.00263630 -0.02185560 -0.00176345
v -0.00219053 -0.02133071 -0.00316426
v -0.00158021 -0.02060100 -0.00499146
v 0.00025739 -0.02038961 -0.00499146
v 0.00598728 -0.02022565 0.00018136
v 0.00343646 -0.02276133 0.00564362
v 0.00626651 -0.01847358 -0.00499146
v 0.00389653 -0.02118208 0.00017588
v 0.00433940 -0.01935668 -0.00499146
v 0.00165358 -0.02185435 0.00016991
v 0.00229048 -0.01998457 -0.00499146
v -0.00058297 -0.02228091 0.00016423
v 0.00115910 -0.02344345 0.00559582
v -0.00114262 -0.02387326 0.00555040
v 0.00633330 -0.01756358 -0.00735073
v -0.00064223 -0.01943899 -0.00762462
v -0.00013510 -0.01877456 -0.00897195
v 0.00084452 -0.01836140 -0.00957225
v 0.00181316 -0.01579969 -0.01374279
v 0.00396369 -0.01524749 -0.01372643
v 0.00160933 -0.01615178 -0.01327019
v 0.00284752 -0.01685787 -0.01168637
v 0.00129534 -0.01667259 -0.01253093
v 0.00112570 -0.01719781 -0.01169155
v 0.00083288 -0.01739655 -0.01141608
v 0.00070803 -0.01758401 -0.01110950
v 0.00606370 -0.01428334 -0.01371433
v 0.00625022 -0.01551871 -0.01167813
v 0.00459207 -0.01631085 -0.01168157
v 0.00633398 -0.01659537 -0.00956828
v 0.00456146 -0.01742360 -0.00956929
v 0.00269114 -0.01800016 -0.00957072
v 0.00382188 -0.01162204 -0.01812710
v 0.00382733 -0.01222205 -0.01750446
v 0.00362054 -0.01211172 -0.01770809
v 0.00462136 -0.00936357 -0.01975098
v 0.00477369 -0.00936583 -0.01966696
v 0.00430048 -0.01035179 -0.01910668
v 0.00504889 -0.01020589 -0.01882554
v 0.00294852 -0.01361408 -0.01627816
v 0.00391086 -0.01376886 -0.01570476
v 0.00256325 -0.01440054 -0.01543544
v 0.00576880 -0.01287924 -0.01567748
v 0.00541076 -0.01145726 -0.01743450
v 0.00420882 -0.01060945 -0.01892083
v 0.00611675 -0.00658873 -0.02029821
v 0.00529068 -0.00568847 -0.02106443
v 0.00487664 -0.00840944 -0.02025670
v 0.00493761 -0.00814531 -0.02037660
v 0.00564976 -0.00761297 -0.02020542
v 0.00514568 -0.00703995 -0.02078328
v 0.00517489 -0.00683813 -0.02084007
v 0.00516020 -0.00860486 -0.01996415
v 0.00236451 -0.02479790 0.01720986
v 0.00289901 -0.02397984 0.01117664
v 0.00014103 -0.02545637 0.01702016
v 0.00064376 -0.02465048 0.01103941
v -0.00215520 -0.02585177 0.01683977
v -0.00166389 -0.02506332 0.01090900
v -0.00488651 -0.02647748 0.02376487
v -0.00296554 -0.02644389 0.03136174
v -0.00063509 -0.02604131 0.03140212
v 0.00160942 -0.02536503 0.03144394
v 0.00434251 -0.02387465 0.01803884
v 0.00394375 -0.02422518 0.02424936
v 0.00191828 -0.02522543 0.02412788
v -0.00261209 -0.02628401 0.02386781
v -0.00030541 -0.02588918 0.02399475
v 0.00971015 -0.00258520 -0.00799207
v 0.01016345 -0.00316453 -0.00806687
v 0.01039802 -0.00349626 -0.00818194
v 0.01071445 -0.00399289 -0.00847833
v 0.01078602 -0.00411580 -0.00858195
v 0.01098619 -0.00449240 -0.00902209
v 0.01103913 -0.00460493 -0.00921338
v 0.01112044 -0.00480959 -0.00976906
v 0.01112574 -0.00486591 -0.01027278
v 0.01100907 -0.00486591 -0.01171135
v 0.01107461 -0.00486591 -0.01107467
v 0.00929375 -0.00211545 -0.00799207
v 0.00976163 -0.00258520 -0.01399207
v 0.01004261 -0.00315646 -0.01391937
v 0.01040076 -0.00390755 -0.01356959
v 0.01013506 -0.00335082 -0.01385972
v 0.01069056 -0.00446597 -0.01300146
v 0.01047408 -0.00405631 -0.01345419
v 0.01090147 -0.00478450 -0.01231527
v 0.01086862 -0.00474366 -0.01244802
v 0.00907063 -0.00146303 -0.01399207
v 0.00830467 -0.00056710 -0.01399207
v 0.00311772 -0.00013518 0.04868044
v 0.00462569 -0.02216564 0.04719251
v 0.00337569 -0.02139875 0.05106640
v 0.00412621 -0.02178786 0.04935659
v 0.00350411 -0.02248977 0.04912945
v 0.00571634 -0.01811136 0.05039759
v 0.00620933 -0.01712902 0.04989164
v 0.00622552 -0.01688807 0.04998745
v 0.00627075 -0.01658908 0.05003043
v 0.00644751 -0.01893193 0.04757908
v 0.00620865 -0.01944574 0.04768785
v 0.00637027 -0.01824443 0.04861487
v 0.00577047 -0.02043138 0.04752024
v 0.00386386 -0.01776051 0.05336843
v 0.00349264 -0.01970074 0.05255769
v 0.00456590 -0.01786047 0.05250861
v 0.00411117 -0.01981622 0.05179049
v 0.00518173 -0.01797951 0.05151413
v 0.00464010 -0.01995812 0.05089377
v 0.00544048 -0.01915135 0.05014310
v 0.00508767 -0.02011454 0.04987699
v 0.00623571 -0.01749037 0.04959721
v 0.00465180 -0.02099483 0.04961039
v 0.00524392 -0.02134005 0.04735271
v 0.00714850 -0.00737323 -0.01907035
v 0.00761029 -0.00628004 -0.01905310
v 0.00810448 -0.00838015 -0.01749613
v 0.00864905 -0.00718883 -0.01747845
v 0.00894319 -0.00949806 -0.01567436
v 0.00956233 -0.00819233 -0.01566117
v 0.00962044 -0.01061461 -0.01370727
v 0.01030214 -0.00920291 -0.01370009
v 0.00654847 -0.00843835 -0.01902182
v 0.00736655 -0.00953375 -0.01748419
v 0.00808609 -0.01076440 -0.01567647
v 0.00866756 -0.01198824 -0.01370961
v 0.00585125 -0.00942879 -0.01890087
v 0.00646505 -0.01058883 -0.01744815
v 0.00701931 -0.01191729 -0.01567372
v 0.00747236 -0.01323931 -0.01371076
v 0.01016139 -0.01448861 -0.00629384
v 0.00994526 -0.01504796 -0.00556962
v 0.01087856 -0.01279396 -0.00756202
v 0.01075027 -0.01302944 -0.00756561
v 0.01057105 -0.01338245 -0.00746814
v 0.01042705 -0.01372840 -0.00720588
v 0.01111897 -0.01233277 -0.00750348
v 0.01134892 -0.01182171 -0.00743860
v 0.01172226 -0.01069677 -0.00729578
v 0.01187706 -0.00762608 -0.00690595
v 0.01191357 -0.00791643 -0.00694282
v 0.01195433 -0.00909656 -0.00709264
v 0.01181845 -0.01026575 -0.00724106
v 0.00760953 -0.01989545 0.00371302
v 0.00811068 -0.01893493 0.00125710
v 0.00968626 -0.01567065 -0.00470399
v 0.00926790 -0.01660297 -0.00327380
v 0.00885882 -0.01745619 -0.00179804
v 0.00863958 -0.01789769 -0.00095980
v 0.00977205 -0.01546905 -0.00499152
v 0.00654265 -0.00435264 0.04497992
v 0.00699498 -0.00495420 0.04236872
v 0.00653223 -0.00434050 0.04502977
v 0.01145275 -0.00575196 -0.00818845
v 0.01095338 -0.00449360 -0.00818600
v 0.01120959 -0.00511650 -0.01029568
v 0.01043511 -0.00401385 -0.01357466
v 0.01116794 -0.00854590 -0.01202739
v 0.01069466 -0.00782433 -0.01368485
v 0.01082346 -0.00649684 -0.01365978
v 0.01072483 -0.00522512 -0.01362351
v 0.01152977 -0.00642179 -0.01030562
v 0.01150398 -0.00923268 -0.01031811
v 0.01164197 -0.00779604 -0.01031301
v 0.01083356 -0.01014972 -0.01167213
v 0.01117382 -0.01102874 -0.00956650
v 0.00802988 -0.00040373 -0.01509734
v 0.00875441 -0.00129678 -0.01519149
v 0.01020438 -0.00377820 -0.01423723
v 0.00971768 -0.00334632 -0.01542326
v 0.00751892 -0.00121270 -0.01833166
v 0.00800081 -0.00084094 -0.01674334
v 0.00848515 -0.00172825 -0.01693262
v 0.00931326 -0.00228179 -0.01530848
v 0.00662701 0.00023743 -0.01780432
v 0.00712615 -0.00042828 -0.01806243
v 0.00883158 -0.00270226 -0.01711167
v 0.00780511 -0.00210128 -0.01857172
v 0.00736620 -0.00005048 -0.01658062
v 0.00789542 -0.00518435 -0.01899644
v 0.00897553 -0.00600712 -0.01743442
v 0.00992453 -0.00690956 -0.01563232
v 0.00801078 -0.00410841 -0.01890111
v 0.00909851 -0.00485591 -0.01736137
v 0.01005064 -0.00566882 -0.01558481
v 0.00797460 -0.00307359 -0.01876143
v 0.00904239 -0.00374952 -0.01725517
v 0.00997143 -0.00447833 -0.01551599
v 0.01040955 -0.01257412 -0.00956739
v 0.00947154 -0.01583528 -0.00499146
v 0.00945379 -0.01498047 -0.00735066
v 0.00907787 -0.01309099 -0.01167614
v 0.00778409 -0.01441378 -0.01167663
v 0.01010366 -0.01163981 -0.01167515
v 0.00933126 -0.01407706 -0.00956769
v 0.00796429 -0.01544749 -0.00956783
v 0.00803520 -0.01638418 -0.00735067
v 0.00801908 -0.01726762 -0.00499146
v 0.00799629 -0.01878950 0.00018623
v 0.00704225 -0.01955123 0.00018396
v 0.00471317 -0.02368719 0.02429319
v 0.00511314 -0.02334912 0.01810145
v -0.00019896 0.00274000 -0.01400000
v 0.00139109 0.00244972 -0.01400000
v -0.00217771 0.00274000 -0.01790000
v -0.00019896 0.00274000 -0.01790000
v -0.00350000 -0.00396049 -0.01790000
v -0.00350000 -0.00000000 -0.01790000
v -0.00315214 0.00152119 -0.01790000
v 0.00139109 0.00244972 -0.01790000
v -0.00217771 0.00274000 0.01873388
v -0.00019896 0.00274000 0.01873388
v 0.00158505 0.00237126 0.01873388
v -0.01750000 -0.00107217 0.01873388
v -0.01750000 -0.01196000 0.04773387
v -0.01750000 0.00151117 0.04170763
v -0.01750000 -0.00402973 0.04773387
v -0.01750000 -0.00716000 0.01873388
v -0.01750000 -0.00773403 0.01884806
v -0.01750000 -0.00822066 0.01917321
v -0.01750000 -0.00260896 0.04747304
v -0.01750000 -0.00137347 0.04672457
v -0.01750000 -0.00048440 0.04558606
v -0.01650000 -0.01371000 0.01900182
v -0.01650000 -0.01444205 0.01973387
v -0.01650000 -0.02101000 0.03143387
v -0.00350000 -0.00896000 -0.01598355
v -0.00350000 -0.00679138 -0.01703964
f 1486 1484 889
f 889 1492 1493
f 1493 1486 889
f 1071 977 975
f 1481 952 1482
f 857 856 1486
f 857 952 856
f 1491 1492 889
f 889 1487 1491
f 1484 1479 1478
f 1213 1478 1479
f 998 883 999
f 882 999 883
f 883 1485 882
f 1475 1479 1484
f 1484 1486 1475
f 1486 856 1475
f 856 952 1475
f 859 1486 858
f 859 857 1486
f 1494 1489 1498
f 1494 1495 1490
f 1490 1489 1494
f 971 969 1061
f 884 883 998
f 884 1485 883
f 884 887 1485
f 864 954 858
f 858 1486 864
f 860 1491 1487
f 1498 1306 1497
f 1497 1494 1498
f 1495 1494 1497
f 1477 1488 1484
f 1484 1478 1477
f 1498 1489 1477
f 1477 1489 1488
f 982 999 1000
f 997 884 998
f 887 884 997
f 1461 1467 1466
f 1466 1298 1463
f 1250 1092 1204
f 1204 1360 1250
f 1237 1475 1235
f 1216 1213 1479
f 1479 1475 1216
f 1216 1214 1213
f 1063 1071 975
f 1071 1063 1064
f 957 1015 956
f 955 864 956
f 954 864 955
f 953 1482 952
f 953 1021 1482
f 953 954 1020
f 1020 1021 953
f 952 857 953
f 857 859 953
f 858 954 953
f 953 859 858
f 1018 1021 1020
f 1092 1021 1018
f 1093 1092 1250
f 1482 1021 1483
f 1483 1021 1092
f 1092 1093 1483
f 1319 1477 1321
f 1498 1477 1319
f 1287 1497 1296
f 1296 1288 1287
f 1273 1497 1286
f 1286 1497 1287
f 1286 1274 1273
f 1287 1288 1286
f 1286 1288 1274
f 1325 1326 1327
f 1338 1328 1326
f 1337 1328 1338
f 1478 1213 1219
f 1219 1477 1478
f 1213 1214 1219
f 990 982 1000
f 990 991 1050
f 986 997 998
f 1079 1075 1010
f 1000 999 996
f 996 993 1000
f 999 882 996
f 890 1489 1490
f 1490 1495 890
f 1488 1489 890
f 890 886 877
f 890 882 1485
f 1076 1075 1081
f 1010 1075 1008
f 1057 981 980
f 1466 1467 1300
f 1300 1298 1466
f 1400 1463 1297
f 1297 1463 1298
f 1465 1461 1466
f 1466 1463 1465
f 1464 1396 1391
f 1350 1360 1203
f 1360 1204 1203
f 1341 1359 1340
f 1340 1185 1341
f 1340 1203 1185
f 1339 1360 1350
f 1339 1359 1360
f 1339 1340 1359
f 1350 1203 1339
f 1203 1340 1339
f 1342 1343 1351
f 1351 1359 1342
f 1342 1359 1341
f 1341 1185 1342
f 1360 1359 1437
f 1250 1360 1437
f 1223 1214 1222
f 1457 1440 1458
f 1458 1454 1457
f 1087 1228 1480
f 1086 1228 1087
f 1480 1228 1476
f 1247 1093 1250
f 1247 1483 1093
f 1475 1237 1217
f 1217 1216 1475
f 1225 1386 1316
f 1450 1454 1451
f 1451 1386 1450
f 1386 1225 1450
f 1316 1386 1385
f 1388 1386 1451
f 1451 1452 1388
f 1387 1385 1388
f 1388 1385 1386
f 1065 971 1061
f 1066 1064 1063
f 1066 1065 1139
f 1063 1065 1066
f 964 1073 1072
f 1040 1042 1067
f 1067 1072 1073
f 1182 1115 1179
f 967 1072 1047
f 956 1015 1017
f 1017 955 956
f 1474 1248 1480
f 1474 1483 1248
f 1482 1483 1474
f 1474 1473 1482
f 975 977 976
f 875 1493 1492
f 1302 1292 1301
f 1274 1288 1302
f 1302 1281 1274
f 1318 1306 1498
f 1498 1319 1318
f 1497 1312 1289
f 1310 1497 1305
f 1310 1312 1497
f 1311 1312 1310
f 1310 1304 1311
f 1305 1304 1310
f 1295 1497 1293
f 1295 1296 1497
f 1305 1497 1303
f 1497 1315 1303
f 1303 1304 1305
f 1303 1315 1314
f 1314 1304 1303
f 1308 1497 1306
f 1308 1315 1497
f 1264 1265 1266
f 1266 1265 1495
f 1273 1274 1272
f 1272 1497 1273
f 896 1496 895
f 1262 1328 1267
f 1267 1257 1258
f 1267 1328 1337
f 1337 1338 1331
f 1330 1267 1337
f 1257 1267 1330
f 1262 1261 1263
f 1263 1265 1264
f 1264 1262 1263
f 893 1496 1263
f 1495 1265 1263
f 1263 1496 1495
f 1260 1261 1262
f 1262 1267 1260
f 891 1260 898
f 1261 1260 891
f 1329 1262 1264
f 1329 1328 1262
f 1326 1328 1329
f 1329 1327 1326
f 912 901 1121
f 1050 991 1051
f 1332 1331 1338
f 1122 1123 1333
f 1324 1326 1325
f 1324 1338 1326
f 1141 1151 1140
f 1140 1101 1141
f 1321 1477 1322
f 1477 1317 1322
f 1322 1316 1321
f 1322 1317 1316
f 1221 1317 1477
f 1477 1219 1221
f 1215 1219 1214
f 1215 1221 1219
f 999 982 984
f 998 999 984
f 984 986 998
f 997 986 988
f 887 997 988
f 988 989 887
f 1010 886 885
f 885 890 880
f 886 890 885
f 1006 886 1010
f 1010 1008 1006
f 1006 1008 1009
f 877 886 1006
f 1006 1009 877
f 881 996 882
f 882 890 881
f 993 996 881
f 960 990 1000
f 991 990 960
f 1000 993 960
f 993 995 960
f 925 891 898
f 1495 1496 897
f 897 890 1495
f 897 1496 896
f 1255 1330 1254
f 1255 1254 902
f 902 1254 901
f 424 425 719
f 274 287 693
f 280 413 279
f 413 410 279
f 267 270 280
f 280 279 267
f 267 279 263
f 1191 1179 1200
f 1182 1179 1191
f 1201 1191 1200
f 991 960 992
f 1002 1008 1075
f 1049 990 1050
f 982 990 1049
f 1103 1375 1374
f 985 988 986
f 981 1057 1056
f 1061 969 1056
f 969 981 1056
f 1104 1103 1374
f 1279 1302 1301
f 1281 1302 1279
f 1313 1297 1311
f 1311 1304 1313
f 1313 1304 1314
f 1400 1297 1313
f 1311 1297 1290
f 1290 1312 1311
f 1292 1289 1290
f 1290 1289 1312
f 1462 1465 1463
f 1462 1463 1400
f 1400 1396 1462
f 1462 1396 1464
f 1389 1391 1395
f 1395 1391 1396
f 1091 1204 1092
f 1020 1019 1091
f 1091 1018 1020
f 1092 1018 1091
f 1114 1115 1182
f 1185 1203 1198
f 1198 1197 1185
f 1198 1180 1182
f 1442 1437 1438
f 1438 1437 1359
f 1438 1359 1351
f 1351 1444 1438
f 1227 1222 1214
f 1351 1343 1344
f 1351 1347 1349
f 1455 1454 1458
f 1451 1454 1455
f 1455 1452 1451
f 1458 1440 1439
f 1439 1431 1458
f 1480 1248 1246
f 1246 1087 1480
f 1475 1476 1233
f 1235 1475 1233
f 1233 1234 1235
f 1232 1234 1233
f 1248 1483 1249
f 1249 1247 1248
f 1483 1247 1249
f 1392 1391 1389
f 973 1063 975
f 973 1065 1063
f 971 1065 973
f 973 974 971
f 975 976 973
f 973 976 974
f 1098 1066 1139
f 1064 1066 1098
f 962 1073 964
f 964 963 962
f 963 961 962
f 977 961 978
f 978 976 977
f 860 976 978
f 1071 1064 1062
f 1088 1106 1200
f 1088 1042 1040
f 1040 1106 1088
f 1015 957 1013
f 1015 1013 1012
f 1012 1013 1014
f 1047 1072 1043
f 1115 1012 1023
f 1023 1012 1014
f 964 1072 965
f 1072 967 965
f 954 955 1022
f 955 1017 1022
f 1020 954 1022
f 1022 1019 1020
f 867 976 860
f 974 976 867
f 867 860 1487
f 980 981 968
f 968 979 980
f 968 989 979
f 1485 871 865
f 1492 1491 873
f 1486 1493 862
f 1493 875 862
f 862 967 957
f 862 875 967
f 1470 1209 1275
f 1418 1468 1417
f 1417 1468 1460
f 1467 1461 1460
f 1460 1468 1467
f 1325 1209 1210
f 1288 1296 1294
f 1294 1302 1288
f 1292 1302 1294
f 1296 1295 1294
f 1293 1292 1294
f 1294 1295 1293
f 1293 1497 1291
f 1497 1289 1291
f 1291 1292 1293
f 1291 1289 1292
f 1314 1315 1309
f 1315 1308 1309
f 1309 1398 1314
f 1309 1397 1398
f 1309 1308 1306
f 1264 1266 1268
f 1268 1270 1264
f 1269 1270 1268
f 1268 1266 1495
f 1495 1497 1268
f 1497 1269 1268
f 1264 1270 1282
f 1282 1272 1274
f 1271 1270 1269
f 1271 1269 1497
f 1497 1272 1271
f 1272 1282 1271
f 1271 1282 1270
f 1117 1330 1337
f 1337 1331 1117
f 1117 1331 1125
f 1117 1254 1330
f 1259 1267 1258
f 1259 1260 1267
f 1258 898 1259
f 898 1260 1259
f 893 1263 892
f 892 1263 1261
f 1261 891 892
f 901 912 911
f 911 902 901
f 913 912 1121
f 1026 1077 1082
f 1082 1077 1079
f 1075 1079 1080
f 1081 1075 1080
f 1029 1076 1081
f 1081 1080 1029
f 1141 1101 1100
f 1100 1122 1141
f 1101 1122 1100
f 1123 1122 945
f 945 1122 1101
f 945 1101 904
f 1338 1324 1336
f 1333 1332 1336
f 1336 1332 1338
f 1336 1324 1334
f 1141 1122 1142
f 1142 1151 1141
f 1142 1122 1333
f 1224 1214 1223
f 1224 1215 1214
f 1225 1215 1224
f 1224 1450 1225
f 1317 1221 1220
f 1221 1215 1220
f 1220 1215 1225
f 1316 1317 1220
f 1220 1225 1316
f 979 989 987
f 989 988 987
f 988 985 987
f 987 1052 979
f 994 995 993
f 877 1009 994
f 891 925 926
f 1007 885 880
f 890 870 878
f 869 870 890
f 1121 901 900
f 1255 902 1256
f 1256 1330 1255
f 1257 1330 1256
f 1348 1349 1432
f 259 719 287
f 693 287 254
f 254 719 693
f 287 719 254
f 709 425 693
f 693 719 709
f 709 719 425
f 280 270 277
f 20 306 18
f 281 306 265
f 306 20 265
f 263 279 278
f 281 265 278
f 278 265 263
f 278 279 410
f 278 411 281
f 410 411 278
f 1146 1140 1145
f 1145 512 1146
f 698 677 1422
f 1196 1183 1197
f 1197 1198 1196
f 1196 1198 1182
f 713 725 716
f 716 725 724
f 723 724 837
f 838 720 723
f 723 716 724
f 837 724 845
f 1172 1201 1202
f 1171 1172 1202
f 1200 1106 1202
f 1202 1201 1200
f 1173 1201 1172
f 1172 1158 1173
f 1173 1174 1175
f 1008 1002 1001
f 1003 1009 1001
f 1009 1008 1001
f 1001 995 1003
f 1001 1002 995
f 1075 1076 959
f 1076 992 959
f 959 992 960
f 959 960 995
f 1375 1103 1102
f 983 984 982
f 986 984 983
f 983 985 986
f 1061 1056 1060
f 1053 1104 1052
f 1052 987 1053
f 1053 987 985
f 1053 983 1055
f 985 983 1053
f 1277 1470 1275
f 1468 1470 1277
f 1281 1279 1278
f 1278 1277 1275
f 1279 1277 1278
f 1400 1313 1399
f 1398 1395 1399
f 1314 1398 1399
f 1399 1313 1314
f 1399 1396 1400
f 1399 1395 1396
f 1299 1297 1298
f 1299 1290 1297
f 1299 1300 1301
f 1298 1300 1299
f 1301 1292 1299
f 1292 1290 1299
f 1461 1465 1406
f 1459 1462 1464
f 1465 1462 1459
f 1464 1436 1459
f 1459 1406 1465
f 1405 1406 1459
f 1323 1318 1319
f 1398 1397 1394
f 1394 1395 1398
f 1394 1387 1389
f 1389 1395 1394
f 1199 1203 1204
f 1199 1198 1203
f 1180 1198 1199
f 1113 1091 1019
f 1017 1114 1113
f 1019 1022 1113
f 1113 1022 1017
f 1016 1017 1015
f 1016 1114 1017
f 1015 1012 1016
f 1115 1114 1016
f 1016 1012 1115
f 1185 684 687
f 687 688 1185
f 1343 1342 1425
f 1342 688 1425
f 688 687 1425
f 1425 687 684
f 1425 1344 1343
f 684 685 1425
f 685 1344 1425
f 689 1342 1185
f 1185 688 689
f 689 688 1342
f 1214 1216 1218
f 1218 1227 1214
f 1216 1217 1218
f 1218 1217 1237
f 1226 1227 1242
f 1222 1227 1226
f 1226 1448 1222
f 1449 1437 1442
f 1240 1445 1241
f 1241 1234 1240
f 1240 1234 1232
f 1441 1226 1242
f 1448 1226 1441
f 1223 1222 1456
f 1222 1448 1456
f 1351 1344 1345
f 1345 1344 685
f 1348 1353 1354
f 1354 1349 1348
f 1353 1439 1354
f 1431 1432 1430
f 1458 1431 1430
f 1430 1455 1458
f 1452 1455 1430
f 1431 1355 1358
f 1356 1353 1348
f 1229 1228 1086
f 1231 1476 1228
f 1231 1233 1476
f 1228 1229 1231
f 1231 1229 1230
f 1231 1230 1232
f 1232 1233 1231
f 1390 1392 1389
f 1390 1388 1452
f 1389 1387 1390
f 1387 1388 1390
f 1433 668 663
f 665 1412 666
f 861 961 963
f 861 978 961
f 963 873 861
f 860 978 861
f 1491 860 861
f 861 873 1491
f 1099 1062 1064
f 1105 1062 1099
f 1064 1098 1099
f 1171 1105 1099
f 1071 1062 1070
f 977 1071 1070
f 1070 961 977
f 1200 1179 1116
f 1116 1088 1200
f 1116 1179 1115
f 1115 1023 1116
f 1042 1088 1041
f 1041 1067 1042
f 1072 1067 1041
f 1014 1013 1046
f 1046 1023 1014
f 1047 1043 1046
f 1046 1043 1037
f 1037 1023 1046
f 1046 1013 957
f 1046 967 1047
f 957 967 1046
f 970 968 981
f 970 981 969
f 969 865 970
f 970 865 871
f 872 871 1485
f 872 970 871
f 968 970 872
f 969 971 972
f 972 865 969
f 971 974 972
f 964 965 966
f 966 963 964
f 967 875 966
f 966 965 967
f 874 875 1492
f 1492 873 874
f 874 966 875
f 874 873 963
f 963 966 874
f 863 864 1486
f 1486 862 863
f 956 864 863
f 863 957 956
f 863 862 957
f 1469 1470 1468
f 1211 1324 1325
f 1325 1210 1211
f 1264 1282 1284
f 1284 1329 1264
f 1283 1327 1284
f 1327 1329 1284
f 894 1496 893
f 894 895 1496
f 1125 1331 1126
f 1331 1127 1126
f 1254 1117 1120
f 1120 907 1121
f 1374 1375 1377
f 1143 1373 1384
f 1364 1112 1365
f 1363 1112 1364
f 915 902 916
f 902 911 916
f 1121 910 909
f 909 913 1121
f 932 931 904
f 904 1024 908
f 908 907 904
f 908 1024 910
f 908 910 1121
f 1121 907 908
f 939 938 904
f 1127 938 939
f 939 1126 1127
f 1128 938 1127
f 1128 1332 1129
f 1331 1332 1128
f 1128 1127 1331
f 1026 1082 1025
f 1025 1109 1026
f 1084 1024 1025
f 1025 1082 1084
f 1079 1077 1078
f 1078 1080 1079
f 1031 992 1076
f 1076 1029 1031
f 1027 1029 1080
f 1080 1078 1027
f 1027 1077 1026
f 1027 1078 1077
f 1050 1051 1048
f 1333 1123 1133
f 1133 1132 1333
f 1131 1332 1333
f 1333 1132 1131
f 1335 1336 1334
f 1333 1336 1335
f 1335 1142 1333
f 993 881 876
f 876 994 993
f 877 994 876
f 876 890 877
f 876 881 890
f 1003 995 1004
f 995 994 1004
f 1004 1009 1003
f 1004 994 1009
f 924 925 898
f 899 924 898
f 914 924 899
f 899 898 1258
f 1258 1257 899
f 917 892 891
f 891 926 917
f 880 890 879
f 890 878 879
f 879 1007 880
f 1005 879 878
f 890 897 868
f 868 869 890
f 868 897 896
f 896 895 918
f 287 274 275
f 275 273 287
f 669 1432 674
f 1410 1432 676
f 1426 1349 1347
f 1426 1432 1349
f 286 259 287
f 287 273 286
f 708 677 698
f 719 259 834
f 834 835 719
f 677 708 257
f 257 708 835
f 1171 1099 1159
f 1159 1099 1098
f 1159 1098 1139
f 1139 1166 1159
f 276 277 270
f 276 274 693
f 304 267 263
f 263 305 304
f 660 1409 659
f 1433 1436 1435
f 1435 1436 1464
f 1464 1391 1435
f 1391 1392 1435
f 308 305 263
f 263 265 308
f 660 659 308
f 308 659 305
f 503 294 502
f 1208 1210 1209
f 1209 1470 1208
f 427 425 424
f 1421 685 684
f 1421 1422 685
f 1421 700 1422
f 1422 678 256
f 255 1422 677
f 1175 1174 729
f 729 1174 838
f 731 720 838
f 719 835 721
f 417 716 714
f 724 725 850
f 850 845 724
f 841 848 838
f 841 723 837
f 838 723 841
f 837 845 841
f 846 845 833
f 846 841 845
f 1178 1105 1171
f 1171 1202 1178
f 1106 1105 1178
f 1178 1202 1106
f 1191 1201 1177
f 1177 1176 1191
f 1177 1173 1175
f 1201 1173 1177
f 1157 1158 1156
f 426 421 748
f 958 1002 1075
f 1075 959 958
f 995 1002 958
f 958 959 995
f 1375 1102 1108
f 1108 1377 1375
f 1363 1377 1108
f 1050 1048 1108
f 1044 1102 1103
f 1049 1102 1044
f 979 1052 1058
f 980 979 1058
f 1058 1057 980
f 1103 1104 1054
f 1104 1053 1054
f 1055 1103 1054
f 1054 1053 1055
f 1285 1300 1467
f 1467 1468 1285
f 1468 1277 1285
f 1301 1300 1285
f 1285 1279 1301
f 1285 1277 1279
f 1281 1278 1280
f 1274 1281 1280
f 1280 1282 1274
f 1280 1278 1283
f 1283 1284 1280
f 1280 1284 1282
f 1283 1278 1276
f 1276 1209 1325
f 1275 1209 1276
f 1276 1278 1275
f 1325 1327 1276
f 1276 1327 1283
f 1402 1460 1461
f 1405 1459 1404
f 1403 1436 1407
f 1403 1459 1436
f 1403 1404 1459
f 1307 1323 1397
f 1307 1309 1306
f 1397 1309 1307
f 1306 1318 1307
f 1318 1323 1307
f 1320 1323 1319
f 1321 1316 1320
f 1320 1319 1321
f 1316 1385 1320
f 1180 1199 1361
f 1361 1113 1180
f 1091 1113 1361
f 1204 1091 1361
f 1361 1199 1204
f 1180 1113 1181
f 1181 1113 1114
f 1182 1180 1181
f 1181 1114 1182
f 1236 1218 1237
f 1227 1218 1236
f 1242 1227 1236
f 1236 1241 1242
f 1236 1234 1241
f 1236 1237 1235
f 1235 1234 1236
f 1250 1437 1251
f 1437 1449 1251
f 1251 1247 1250
f 1251 1449 1445
f 1232 1230 1239
f 1239 1240 1232
f 1445 1240 1239
f 1242 1241 1446
f 1446 1441 1242
f 1241 1445 1446
f 1442 1441 1446
f 1446 1449 1442
f 1445 1449 1446
f 1448 1441 1443
f 1443 1441 1442
f 1442 1438 1443
f 1443 1438 1444
f 1453 1457 1454
f 1453 1456 1457
f 1454 1450 1453
f 1223 1456 1453
f 1453 1224 1223
f 1450 1224 1453
f 1346 1347 1351
f 1351 1345 1346
f 1346 1426 1347
f 1351 1349 1352
f 1349 1354 1352
f 1352 1444 1351
f 1440 1444 1352
f 1352 1439 1440
f 1352 1354 1439
f 1434 1430 1432
f 1434 668 1433
f 1434 1412 668
f 666 1412 1434
f 1432 669 1434
f 1433 1435 1428
f 1428 1435 1392
f 1428 1434 1433
f 1430 1434 1428
f 1357 1356 1348
f 1348 1432 1357
f 1357 1358 1355
f 1355 1356 1357
f 1357 1432 1431
f 1431 1358 1357
f 1427 1439 1353
f 1353 1356 1427
f 1431 1439 1427
f 1427 1355 1431
f 1427 1356 1355
f 1086 1087 1253
f 1087 1243 1253
f 1087 1246 1244
f 1244 1243 1087
f 1433 663 1413
f 268 663 668
f 268 276 270
f 668 1412 268
f 1412 665 268
f 268 665 274
f 274 276 268
f 1068 1067 1073
f 1073 962 1068
f 1068 962 961
f 961 1070 1068
f 1069 1062 1105
f 1069 1070 1062
f 1069 1068 1070
f 1069 1105 1106
f 1067 1068 1069
f 1069 1106 1040
f 1040 1067 1069
f 1039 1023 1037
f 1037 1116 1039
f 1039 1116 1023
f 1038 1043 1072
f 1072 1041 1038
f 1037 1043 1038
f 1038 1116 1037
f 1088 1116 1038
f 1038 1041 1088
f 1485 887 888
f 888 872 1485
f 887 989 888
f 989 968 888
f 968 872 888
f 866 972 974
f 865 972 866
f 974 867 866
f 866 867 1487
f 866 1487 1485
f 1485 865 866
f 1334 1324 1212
f 1324 1211 1212
f 923 930 922
f 922 930 929
f 927 894 893
f 927 930 923
f 923 948 927
f 929 930 927
f 893 892 927
f 927 917 929
f 892 917 927
f 1119 1120 1121
f 1254 1120 1119
f 1121 900 1119
f 901 1254 1119
f 1119 900 901
f 1090 1024 904
f 904 1101 1090
f 1365 1109 1362
f 1384 1364 1362
f 1362 1364 1365
f 1365 1112 1111
f 1029 1027 1111
f 1363 1364 1383
f 1384 1373 1383
f 1383 1364 1384
f 933 932 904
f 1120 932 933
f 1118 932 1120
f 1118 1120 1117
f 931 932 1118
f 904 936 935
f 935 945 904
f 943 945 935
f 904 938 937
f 937 936 904
f 1129 936 937
f 937 1128 1129
f 938 1128 937
f 940 939 904
f 1126 939 940
f 1125 1126 940
f 992 1031 1033
f 1033 1051 991
f 991 992 1033
f 1033 1048 1051
f 1030 1031 1029
f 1034 1031 1030
f 946 945 947
f 947 1133 946
f 1123 945 946
f 946 1133 1123
f 1129 1332 1130
f 1332 1131 1130
f 1130 936 1129
f 1130 935 936
f 943 935 1130
f 906 1131 1132
f 1151 1142 1471
f 1142 1335 1471
f 1151 2 823
f 1151 1471 583
f 915 914 903
f 914 899 903
f 903 902 915
f 903 1256 902
f 1257 1256 903
f 903 899 1257
f 929 917 928
f 928 917 926
f 928 922 929
f 1011 1079 1010
f 1007 879 1011
f 879 1005 1011
f 1010 885 1011
f 885 1007 1011
f 870 869 949
f 918 948 949
f 869 868 949
f 949 868 896
f 896 918 949
f 921 948 923
f 923 922 921
f 919 918 895
f 919 948 918
f 895 894 919
f 894 927 919
f 919 927 948
f 671 275 269
f 269 275 274
f 274 665 269
f 672 669 674
f 273 275 672
f 672 275 671
f 671 669 672
f 674 1432 1411
f 1424 678 677
f 1432 1426 1424
f 1426 1346 1424
f 1424 1346 1345
f 1424 1345 685
f 685 683 1424
f 284 286 273
f 284 672 674
f 273 672 284
f 674 285 284
f 285 286 284
f 258 834 259
f 259 286 258
f 258 286 285
f 835 834 258
f 258 257 835
f 675 257 676
f 676 1432 675
f 677 257 675
f 675 1424 677
f 1432 1424 675
f 367 696 711
f 711 441 367
f 280 696 367
f 431 443 360
f 431 712 710
f 425 427 710
f 710 427 431
f 693 425 710
f 437 712 431
f 431 360 437
f 693 710 692
f 692 710 712
f 692 276 693
f 277 276 692
f 690 712 711
f 1170 1172 1171
f 1171 1159 1170
f 1170 1158 1172
f 662 659 1409
f 662 1413 661
f 661 304 662
f 662 1409 1433
f 1433 1413 662
f 662 304 305
f 305 659 662
f 1146 512 487
f 487 515 1146
f 487 489 515
f 511 1140 509
f 510 1145 1140
f 412 397 283
f 488 298 297
f 296 494 493
f 488 297 296
f 167 1208 168
f 1205 1212 1211
f 409 411 410
f 410 354 409
f 409 354 411
f 412 411 352
f 352 397 412
f 355 354 410
f 417 421 422
f 713 716 422
f 422 716 417
f 462 444 450
f 682 1422 680
f 682 683 1422
f 680 1424 682
f 682 1424 683
f 685 1422 686
f 686 683 685
f 1422 683 686
f 698 1422 697
f 1422 700 697
f 1187 684 1185
f 1187 1421 684
f 833 700 699
f 700 1421 699
f 679 678 1422
f 1422 255 679
f 677 678 679
f 679 255 677
f 829 1183 828
f 829 830 1183
f 843 829 828
f 830 829 843
f 1190 1191 1189
f 1189 1196 1190
f 1191 1194 1195
f 1195 1194 1196
f 1182 1191 1195
f 1195 1196 1182
f 838 1174 730
f 730 731 838
f 1174 731 730
f 1174 1173 734
f 734 1173 1158
f 720 722 734
f 734 1158 1157
f 1157 733 734
f 716 723 718
f 718 714 716
f 718 723 720
f 725 721 855
f 855 721 835
f 845 850 855
f 848 841 847
f 841 846 847
f 852 825 1176
f 1176 1177 852
f 1177 853 852
f 1176 825 824
f 824 1196 1189
f 1183 1196 824
f 824 825 1183
f 1157 1156 735
f 735 1156 714
f 714 718 735
f 417 714 715
f 714 1156 715
f 420 421 417
f 420 748 421
f 426 748 1169
f 1036 1048 1034
f 1107 1036 1034
f 1107 1112 1363
f 1363 1108 1107
f 1107 1108 1048
f 1048 1036 1107
f 1045 1102 1049
f 1045 1108 1102
f 1045 1049 1050
f 1050 1108 1045
f 1074 1103 1055
f 1074 1044 1103
f 1049 1044 1074
f 982 1049 1074
f 1074 983 982
f 1055 983 1074
f 1139 1065 1097
f 1097 1065 1061
f 1061 1060 1097
f 1417 1460 1416
f 1461 1406 1401
f 1401 1402 1461
f 1397 1323 1393
f 1323 1320 1393
f 1393 1320 1385
f 1393 1394 1397
f 1393 1385 1387
f 1387 1394 1393
f 1230 1229 1238
f 1238 1239 1230
f 1238 1229 1086
f 1448 1443 1447
f 1457 1456 1447
f 1447 1456 1448
f 1440 1457 1447
f 1447 1444 1440
f 1447 1443 1444
f 666 1434 670
f 671 269 670
f 670 669 671
f 670 1434 669
f 1429 1428 1392
f 1429 1390 1452
f 1392 1390 1429
f 1452 1430 1429
f 1430 1428 1429
f 1252 1253 1243
f 1252 1251 1445
f 1086 1253 1252
f 1252 1238 1086
f 1445 1239 1252
f 1239 1238 1252
f 1243 1244 1245
f 1245 1252 1243
f 1251 1252 1245
f 1245 1244 1246
f 1247 1251 1245
f 1248 1247 1245
f 1245 1246 1248
f 262 268 270
f 663 268 262
f 270 267 262
f 267 261 262
f 262 261 663
f 663 261 664
f 661 1413 664
f 664 1413 663
f 267 304 264
f 264 261 267
f 264 304 661
f 661 664 264
f 264 664 261
f 1414 1208 1470
f 1470 1469 1414
f 1024 1090 1089
f 1089 1025 1024
f 1109 1025 1089
f 513 496 1150
f 1150 1143 1384
f 1384 1362 1150
f 513 1149 514
f 515 489 514
f 1146 515 514
f 514 1149 1146
f 499 1150 496
f 488 296 490
f 490 296 493
f 1110 1109 1365
f 1365 1111 1110
f 1026 1109 1110
f 1110 1027 1026
f 1110 1111 1027
f 1379 1377 1363
f 1363 1383 1379
f 1380 1378 1379
f 1379 1378 1377
f 904 907 934
f 934 933 904
f 907 1120 934
f 1120 933 934
f 1125 931 1124
f 931 1118 1124
f 1124 1117 1125
f 1124 1118 1117
f 904 931 941
f 941 940 904
f 941 931 1125
f 1125 940 941
f 1034 1048 1032
f 1048 1033 1032
f 1032 1031 1034
f 1032 1033 1031
f 1028 1030 1029
f 1112 1030 1028
f 1029 1111 1028
f 1028 1111 1112
f 905 906 1132
f 945 906 905
f 1131 906 942
f 943 1130 942
f 942 1130 1131
f 942 945 943
f 942 906 945
f 482 510 483
f 483 510 480
f 582 1471 585
f 585 511 582
f 480 511 585
f 821 1140 1151
f 1151 823 821
f 509 1140 821
f 1 2 1151
f 1151 583 1
f 581 1471 582
f 581 583 1471
f 582 511 581
f 581 511 509
f 509 479 581
f 581 1 583
f 479 1 581
f 870 949 950
f 950 878 870
f 950 1005 878
f 1005 921 1083
f 1079 1011 1083
f 1083 1011 1005
f 1084 1082 1083
f 1083 1082 1079
f 1084 1083 1085
f 1085 1083 921
f 1085 924 914
f 1085 914 915
f 915 916 1085
f 1085 916 911
f 1085 911 912
f 912 913 1085
f 913 909 1085
f 1085 909 910
f 1085 1024 1084
f 910 1024 1085
f 673 1410 676
f 1432 1410 673
f 673 1411 1432
f 673 285 674
f 674 1411 673
f 681 1424 680
f 678 1424 681
f 681 256 678
f 680 1422 681
f 1422 256 681
f 288 258 285
f 288 673 676
f 285 673 288
f 676 257 288
f 257 258 288
f 361 413 280
f 280 362 361
f 361 367 441
f 362 367 361
f 368 362 280
f 280 367 368
f 368 367 362
f 712 437 435
f 711 712 435
f 366 360 441
f 694 690 711
f 277 690 694
f 280 277 694
f 691 692 712
f 712 690 691
f 277 692 691
f 691 690 277
f 1167 1159 1166
f 1167 1170 1159
f 1167 1166 1163
f 1163 1155 1167
f 529 539 538
f 576 536 538
f 575 536 576
f 481 510 482
f 512 1145 481
f 1145 510 481
f 486 298 488
f 488 489 486
f 489 487 486
f 822 511 480
f 480 510 822
f 1140 511 822
f 822 510 1140
f 282 306 281
f 281 411 282
f 282 411 412
f 412 283 282
f 406 401 575
f 575 576 578
f 578 406 575
f 578 580 289
f 494 296 295
f 295 500 494
f 295 294 503
f 260 297 299
f 260 296 297
f 260 295 296
f 411 354 353
f 353 352 411
f 356 410 413
f 356 355 410
f 432 427 424
f 431 427 432
f 369 432 429
f 429 432 424
f 415 725 713
f 415 721 725
f 1155 753 752
f 752 1154 1155
f 369 444 445
f 376 445 444
f 375 445 376
f 1186 1187 1185
f 833 699 701
f 701 699 1421
f 825 843 826
f 1183 825 826
f 839 843 1175
f 1175 729 839
f 839 729 838
f 838 848 839
f 1175 843 728
f 1193 1194 1191
f 1191 1190 1193
f 1196 1194 1193
f 1193 1190 1196
f 732 734 722
f 732 731 1174
f 1174 734 732
f 720 731 732
f 732 722 720
f 717 718 720
f 720 734 717
f 717 734 733
f 717 733 1157
f 840 850 725
f 725 855 840
f 840 855 850
f 835 708 836
f 836 855 835
f 836 708 698
f 698 697 836
f 836 697 700
f 836 700 833
f 833 845 836
f 845 855 836
f 842 843 844
f 851 843 825
f 825 852 851
f 844 843 851
f 1192 824 1189
f 1176 824 1192
f 1189 1191 1192
f 1191 1176 1192
f 743 1169 748
f 426 1169 747
f 747 1169 1154
f 1035 1030 1112
f 1112 1107 1035
f 1034 1030 1035
f 1035 1107 1034
f 1052 1104 1094
f 1094 1058 1052
f 1057 1058 1095
f 1095 1094 1135
f 1058 1094 1095
f 1095 1056 1057
f 1095 1059 1056
f 1161 1164 1163
f 1163 1166 1161
f 1460 1402 1420
f 1420 1416 1460
f 54 1416 1420
f 666 670 667
f 667 670 269
f 667 665 666
f 667 269 665
f 51 1414 1415
f 1469 1415 53
f 53 1414 1469
f 1415 1414 53
f 163 167 168
f 48 1418 1417
f 1376 1378 1164
f 1374 1377 1376
f 1377 1378 1376
f 462 1153 757
f 757 758 462
f 1153 758 757
f 386 387 376
f 1152 1362 1109
f 1109 1089 1152
f 494 500 495
f 493 494 495
f 495 490 493
f 495 499 496
f 503 497 495
f 497 499 495
f 492 496 513
f 492 495 496
f 490 495 492
f 513 514 492
f 1380 1379 1381
f 1381 1379 1383
f 1381 1383 1373
f 1132 1133 944
f 944 905 1132
f 944 1133 947
f 947 945 944
f 945 905 944
f 586 585 1471
f 478 479 509
f 509 821 478
f 2 1 478
f 478 1 479
f 478 823 2
f 478 821 823
f 948 921 951
f 951 949 948
f 951 950 949
f 951 921 1005
f 1005 950 951
f 920 921 922
f 920 1085 921
f 920 928 926
f 922 928 920
f 920 926 925
f 925 924 920
f 924 1085 920
f 441 360 359
f 359 361 441
f 380 361 359
f 387 386 359
f 359 443 379
f 359 360 443
f 451 441 711
f 711 435 451
f 451 366 441
f 435 366 451
f 360 366 442
f 711 696 695
f 695 694 711
f 695 696 280
f 280 694 695
f 1168 1167 1155
f 1155 1154 1168
f 1154 1169 1168
f 1169 743 1168
f 1158 1170 1168
f 1170 1167 1168
f 1168 1156 1158
f 658 655 1436
f 658 1436 1433
f 19 247 20
f 19 20 18
f 19 239 233
f 26 239 19
f 233 235 244
f 1373 1143 537
f 1143 529 537
f 535 1373 537
f 537 529 538
f 537 536 535
f 538 536 537
f 579 580 525
f 525 580 526
f 526 524 525
f 526 527 524
f 484 487 512
f 487 484 351
f 500 295 501
f 501 495 500
f 60 1401 1406
f 1405 1404 197
f 197 195 1405
f 206 192 196
f 196 192 1405
f 1405 195 196
f 1404 1403 198
f 202 196 195
f 206 196 202
f 230 226 227
f 226 635 227
f 216 198 1403
f 1472 1335 1334
f 1472 1471 1335
f 1334 1212 1472
f 1212 1205 1472
f 1205 1207 1472
f 1205 627 628
f 413 361 383
f 383 356 413
f 361 356 383
f 575 401 400
f 400 573 575
f 534 536 575
f 575 573 534
f 535 536 534
f 431 432 438
f 414 429 424
f 416 429 414
f 414 415 416
f 721 415 414
f 424 719 414
f 719 721 414
f 421 416 423
f 416 415 423
f 423 422 421
f 713 422 423
f 423 415 713
f 1154 752 750
f 369 445 370
f 371 370 445
f 375 376 378
f 379 443 378
f 702 830 831
f 1187 1186 1188
f 827 843 828
f 827 826 843
f 828 1183 827
f 1183 826 827
f 849 839 848
f 843 839 849
f 848 831 849
f 831 830 849
f 830 843 849
f 727 728 843
f 727 1177 1175
f 1175 728 727
f 736 717 1157
f 718 717 736
f 1157 735 736
f 736 735 718
f 748 420 744
f 744 743 748
f 1156 1168 741
f 741 1168 743
f 1136 1104 1374
f 1136 1094 1104
f 1135 1094 1136
f 1059 1095 1096
f 1096 1097 1060
f 1096 1060 1056
f 1056 1059 1096
f 1137 1095 1135
f 1135 1161 1137
f 1137 1096 1095
f 54 85 46
f 289 28 29
f 1402 1401 58
f 1208 167 164
f 167 163 164
f 164 165 1208
f 168 170 180
f 303 260 299
f 295 260 303
f 303 312 294
f 294 295 303
f 333 337 334
f 330 333 334
f 49 48 1417
f 294 312 309
f 18 306 266
f 266 307 18
f 306 282 266
f 266 282 283
f 283 307 266
f 1366 1378 1380
f 376 387 377
f 379 378 377
f 377 378 376
f 1380 1381 1371
f 1371 1381 1373
f 1148 1150 1362
f 513 1150 1148
f 1146 1149 1148
f 1148 1149 513
f 1146 1148 1147
f 1362 1152 1147
f 1147 1148 1362
f 1147 1140 1146
f 1101 1140 1147
f 506 499 497
f 497 524 506
f 491 514 489
f 491 492 514
f 490 492 491
f 491 489 488
f 488 490 491
f 596 483 480
f 482 483 596
f 584 1471 588
f 584 586 1471
f 585 586 584
f 480 585 584
f 388 359 379
f 387 359 388
f 379 377 388
f 388 377 387
f 452 442 366
f 452 435 437
f 452 366 435
f 452 437 360
f 360 442 452
f 651 652 1436
f 1436 655 656
f 656 653 1436
f 1433 1409 657
f 657 658 1433
f 657 1409 660
f 233 239 238
f 228 229 230
f 230 227 228
f 1407 640 228
f 639 640 1407
f 1407 641 639
f 639 641 229
f 639 228 640
f 229 228 639
f 245 19 233
f 233 244 245
f 1407 1436 642
f 642 641 1407
f 642 243 641
f 1143 518 519
f 519 527 1143
f 1143 527 820
f 539 529 528
f 580 578 533
f 533 526 580
f 578 528 533
f 527 526 533
f 481 594 485
f 485 594 603
f 512 481 485
f 485 484 512
f 508 520 507
f 502 508 507
f 507 497 503
f 503 502 507
f 504 295 503
f 504 501 295
f 503 495 504
f 495 501 504
f 193 192 206
f 193 1406 1405
f 1405 192 193
f 209 202 1404
f 201 197 1404
f 1404 202 201
f 195 197 201
f 201 202 195
f 203 209 204
f 202 209 203
f 638 635 1407
f 638 227 635
f 224 633 226
f 1404 198 214
f 1472 591 592
f 590 1472 1207
f 590 591 1472
f 593 591 590
f 631 628 603
f 603 594 631
f 631 594 593
f 593 590 631
f 573 400 574
f 574 400 476
f 574 541 573
f 543 541 574
f 453 443 431
f 431 438 453
f 447 450 444
f 446 444 369
f 446 447 444
f 450 447 446
f 450 439 433
f 369 429 433
f 433 439 369
f 754 753 1155
f 1155 1153 754
f 450 457 460
f 1154 434 430
f 426 747 430
f 436 434 1154
f 450 433 448
f 448 750 752
f 459 457 450
f 459 754 457
f 375 378 358
f 358 373 375
f 357 373 358
f 443 357 358
f 358 378 443
f 705 1186 704
f 704 703 705
f 1186 703 704
f 1184 703 1186
f 1184 702 831
f 831 703 1184
f 1197 1183 1184
f 1183 830 1184
f 830 702 1184
f 1185 1197 1184
f 1184 1186 1185
f 1421 1187 1423
f 1187 1188 1423
f 833 701 706
f 706 1423 1188
f 706 701 1421
f 1421 1423 706
f 726 853 1177
f 1177 727 726
f 726 852 853
f 726 851 852
f 726 842 844
f 844 851 726
f 843 842 726
f 726 727 843
f 739 715 1156
f 1156 737 739
f 739 737 715
f 746 737 740
f 1156 741 738
f 738 741 740
f 738 737 1156
f 740 737 738
f 745 420 417
f 1162 1161 1135
f 1135 1136 1162
f 1164 1161 1162
f 1162 1136 1374
f 1374 1376 1162
f 1162 1376 1164
f 1097 1096 1134
f 1134 1137 1161
f 1096 1137 1134
f 56 1420 1402
f 175 183 1414
f 174 176 175
f 169 170 168
f 179 170 169
f 178 609 610
f 178 176 609
f 178 170 179
f 610 180 178
f 178 180 170
f 11 15 12
f 334 337 12
f 12 15 334
f 334 15 335
f 329 330 334
f 329 335 299
f 334 335 329
f 118 49 119
f 48 49 118
f 1419 1415 1469
f 1468 1418 1419
f 1419 1469 1468
f 129 1419 1418
f 52 51 1415
f 33 309 312
f 271 307 283
f 271 272 307
f 578 272 271
f 406 578 271
f 271 283 397
f 397 406 271
f 292 272 578
f 307 272 292
f 1368 1369 1165
f 1378 1366 1165
f 1165 1366 1368
f 1164 1378 1165
f 1165 1155 1163
f 1163 1164 1165
f 1165 1153 1155
f 390 386 376
f 390 359 386
f 390 392 359
f 543 574 572
f 572 574 476
f 397 352 402
f 402 403 397
f 571 403 477
f 1144 1152 1089
f 1144 1147 1152
f 1144 1089 1090
f 1144 1090 1101
f 1101 1147 1144
f 499 506 517
f 517 506 498
f 1150 499 517
f 517 498 1150
f 516 518 1143
f 1143 1150 516
f 595 481 482
f 595 594 481
f 593 594 595
f 589 591 593
f 593 596 589
f 589 592 591
f 589 596 480
f 480 584 589
f 589 584 588
f 1436 653 654
f 654 651 1436
f 653 656 250
f 250 656 655
f 660 308 253
f 253 657 660
f 253 308 265
f 230 229 236
f 229 238 236
f 236 239 230
f 236 238 239
f 234 235 233
f 233 243 234
f 243 642 234
f 242 243 233
f 233 238 242
f 242 238 229
f 229 641 242
f 641 243 242
f 1407 228 637
f 637 228 227
f 637 638 1407
f 227 638 637
f 247 19 246
f 19 245 246
f 1436 652 1408
f 532 820 527
f 527 533 532
f 532 533 528
f 539 528 577
f 577 528 578
f 577 578 576
f 538 539 577
f 577 576 538
f 1206 1211 1210
f 1206 1205 1211
f 1210 1208 1206
f 1208 165 1206
f 623 628 627
f 522 520 523
f 522 507 520
f 522 523 525
f 525 524 522
f 522 524 497
f 497 507 522
f 206 202 207
f 202 203 207
f 207 193 206
f 237 241 231
f 231 224 226
f 231 226 230
f 636 635 226
f 226 633 636
f 1407 635 636
f 636 1403 1407
f 636 633 1403
f 1403 633 634
f 633 224 634
f 1404 214 208
f 208 209 1404
f 204 209 208
f 198 216 215
f 215 214 198
f 628 631 629
f 1205 628 629
f 629 1207 1205
f 540 534 573
f 573 541 540
f 535 534 540
f 543 544 542
f 542 541 543
f 542 1373 535
f 542 544 1373
f 535 540 542
f 542 540 541
f 365 357 443
f 443 453 365
f 365 453 438
f 365 438 432
f 369 439 454
f 454 446 369
f 454 439 450
f 450 446 454
f 755 754 1153
f 457 754 755
f 755 460 457
f 461 1153 462
f 461 460 1153
f 462 450 461
f 450 460 461
f 749 747 1154
f 1154 430 749
f 749 430 747
f 751 750 440
f 440 436 751
f 1154 750 751
f 751 436 1154
f 434 436 428
f 428 430 434
f 440 433 428
f 428 436 440
f 426 430 428
f 428 421 426
f 428 416 421
f 428 429 416
f 428 433 429
f 449 456 450
f 450 448 449
f 449 448 752
f 449 752 753
f 753 456 449
f 440 750 455
f 750 448 455
f 455 433 440
f 455 448 433
f 450 456 458
f 458 459 450
f 458 456 753
f 753 754 458
f 754 459 458
f 375 373 374
f 374 445 375
f 374 371 445
f 372 373 357
f 370 371 372
f 371 374 372
f 372 374 373
f 707 706 1188
f 707 1186 705
f 707 1188 1186
f 715 737 418
f 737 746 418
f 417 715 418
f 418 746 417
f 740 741 742
f 743 744 742
f 742 741 743
f 742 744 420
f 420 745 742
f 1138 1161 1166
f 1138 1134 1161
f 1097 1134 1138
f 1138 1166 1139
f 1139 1097 1138
f 17 29 28
f 28 25 17
f 28 30 21
f 26 19 16
f 16 19 18
f 16 17 47
f 29 17 16
f 18 307 16
f 307 29 16
f 237 22 45
f 47 241 45
f 45 241 237
f 45 16 47
f 22 16 45
f 1402 58 57
f 57 56 1402
f 54 1420 55
f 1420 56 55
f 1401 60 61
f 92 17 25
f 1208 1414 185
f 1414 183 185
f 177 175 176
f 177 178 179
f 176 178 177
f 179 169 177
f 184 183 177
f 183 175 177
f 1414 51 182
f 174 175 173
f 173 175 1414
f 135 1419 128
f 1419 129 128
f 39 174 156
f 317 37 316
f 316 37 36
f 156 51 157
f 51 52 157
f 157 39 156
f 157 52 37
f 31 312 314
f 31 33 312
f 294 309 293
f 309 33 293
f 293 28 289
f 293 30 28
f 525 523 293
f 293 579 525
f 523 520 293
f 289 580 293
f 580 579 293
f 293 520 508
f 293 502 294
f 293 508 502
f 30 293 34
f 34 293 33
f 291 292 578
f 291 29 307
f 307 292 291
f 392 390 464
f 464 390 376
f 557 556 563
f 556 562 563
f 473 564 563
f 1366 812 1382
f 1372 1366 1380
f 560 559 1372
f 1372 559 776
f 549 562 555
f 555 562 556
f 477 403 569
f 403 402 569
f 549 551 569
f 569 562 549
f 569 563 562
f 473 563 569
f 819 1371 1373
f 819 548 1371
f 1373 544 819
f 543 572 547
f 548 819 547
f 547 572 476
f 547 544 543
f 547 819 544
f 476 400 547
f 547 400 401
f 401 406 547
f 352 353 407
f 407 402 352
f 473 569 407
f 407 569 402
f 554 571 553
f 498 506 521
f 518 516 521
f 521 519 518
f 521 506 524
f 524 527 521
f 527 519 521
f 482 596 597
f 597 595 482
f 597 596 593
f 593 595 597
f 1472 592 587
f 592 589 587
f 1471 1472 587
f 588 1471 587
f 587 589 588
f 249 654 653
f 653 250 249
f 651 654 249
f 249 250 20
f 252 265 20
f 252 253 265
f 658 657 252
f 657 253 252
f 645 245 244
f 649 1408 652
f 530 528 529
f 530 532 528
f 530 529 1143
f 1143 820 530
f 337 333 332
f 333 330 332
f 11 12 13
f 301 486 487
f 298 486 301
f 608 609 11
f 11 13 608
f 608 13 607
f 610 609 608
f 608 607 610
f 162 180 610
f 610 607 162
f 162 163 168
f 168 180 162
f 484 485 3
f 603 628 602
f 626 627 1205
f 626 623 627
f 1205 1206 626
f 59 60 1406
f 218 231 213
f 218 215 216
f 214 215 218
f 232 231 241
f 213 231 232
f 232 241 47
f 230 239 240
f 240 231 230
f 239 237 240
f 237 231 240
f 1403 222 199
f 223 222 1403
f 632 590 1207
f 1207 629 632
f 632 631 590
f 632 629 631
f 363 432 369
f 369 370 363
f 370 372 363
f 363 372 357
f 1153 460 756
f 756 755 1153
f 460 755 756
f 833 706 832
f 706 707 832
f 832 707 705
f 832 831 848
f 832 703 831
f 705 703 832
f 848 847 832
f 832 846 833
f 832 847 846
f 740 742 419
f 419 742 745
f 419 746 740
f 417 746 419
f 419 745 417
f 44 46 85
f 85 21 44
f 44 41 46
f 44 21 30
f 26 16 24
f 24 16 22
f 24 239 26
f 24 237 239
f 24 22 237
f 76 57 58
f 81 55 56
f 81 57 85
f 56 57 81
f 81 85 54
f 54 55 81
f 62 63 1401
f 1401 61 62
f 67 58 1401
f 1401 66 67
f 1401 63 64
f 23 92 25
f 23 25 28
f 28 21 23
f 23 21 85
f 85 92 23
f 184 177 187
f 187 177 169
f 187 189 184
f 174 173 172
f 186 189 1208
f 184 189 186
f 1208 185 186
f 186 183 184
f 186 185 183
f 1208 189 188
f 168 1208 188
f 188 169 168
f 188 187 169
f 189 187 188
f 14 335 15
f 14 325 335
f 14 323 325
f 54 46 89
f 89 1416 54
f 89 88 1416
f 113 89 46
f 88 89 113
f 50 49 1417
f 126 124 1418
f 130 129 1418
f 1418 124 130
f 124 126 125
f 37 317 38
f 174 39 38
f 38 157 37
f 39 157 38
f 11 609 38
f 38 15 11
f 38 319 15
f 609 176 38
f 38 176 174
f 1415 1419 134
f 134 1419 135
f 41 44 27
f 27 33 41
f 27 34 33
f 30 34 27
f 27 44 30
f 290 578 289
f 290 291 578
f 289 29 290
f 29 291 290
f 462 758 463
f 463 444 462
f 463 376 444
f 759 758 1153
f 759 463 758
f 778 399 474
f 557 563 561
f 561 563 564
f 561 559 557
f 564 559 561
f 473 407 405
f 1368 1366 1367
f 1366 1382 1367
f 813 1382 812
f 1380 1371 558
f 558 1372 1380
f 560 1372 558
f 558 559 560
f 557 559 558
f 1371 548 818
f 818 817 1371
f 398 353 354
f 398 407 353
f 404 405 398
f 398 405 407
f 570 571 477
f 570 553 571
f 551 553 570
f 477 569 570
f 570 569 551
f 498 521 505
f 505 521 516
f 1150 498 505
f 505 516 1150
f 652 651 248
f 651 249 248
f 248 649 652
f 247 649 248
f 20 247 248
f 248 249 20
f 20 250 251
f 251 252 20
f 251 250 655
f 655 658 251
f 658 252 251
f 644 244 235
f 647 246 245
f 247 246 647
f 820 532 531
f 531 530 820
f 532 530 531
f 300 301 339
f 299 297 300
f 300 297 298
f 298 301 300
f 302 301 487
f 163 162 161
f 165 164 161
f 161 164 163
f 624 623 622
f 623 626 622
f 5 3 4
f 603 602 4
f 4 602 5
f 4 485 603
f 4 3 485
f 630 602 628
f 630 623 624
f 628 623 630
f 60 59 210
f 224 231 217
f 231 218 217
f 217 218 216
f 222 223 217
f 217 199 222
f 217 216 1403
f 220 208 214
f 364 365 432
f 432 363 364
f 357 365 364
f 364 363 357
f 83 92 80
f 80 76 83
f 80 92 85
f 85 57 80
f 57 76 80
f 84 61 60
f 65 66 1401
f 1401 64 65
f 156 174 171
f 174 172 171
f 171 172 182
f 171 51 156
f 171 182 51
f 182 172 181
f 181 172 173
f 1414 182 181
f 181 173 1414
f 316 323 322
f 322 317 316
f 322 14 15
f 323 14 322
f 335 325 326
f 326 331 335
f 325 323 324
f 324 323 316
f 1417 95 96
f 96 97 1417
f 46 41 104
f 104 109 46
f 119 49 43
f 123 130 124
f 124 125 123
f 129 130 123
f 123 128 129
f 123 31 314
f 123 125 31
f 319 38 318
f 318 38 317
f 317 322 318
f 15 319 318
f 318 322 15
f 316 36 315
f 315 324 316
f 328 324 315
f 315 331 328
f 321 331 315
f 140 52 1415
f 1415 139 140
f 37 52 140
f 1415 137 138
f 138 139 1415
f 136 137 1415
f 1415 134 136
f 465 464 376
f 376 463 465
f 779 1369 777
f 779 782 1369
f 779 778 782
f 772 778 773
f 399 778 408
f 780 405 404
f 404 408 780
f 780 408 778
f 795 1369 1368
f 796 795 1368
f 854 772 773
f 470 399 396
f 396 471 470
f 567 559 564
f 776 559 567
f 776 565 568
f 568 564 473
f 568 565 564
f 791 778 798
f 791 780 778
f 815 1372 776
f 815 816 1372
f 550 558 1371
f 550 551 549
f 549 555 550
f 550 555 556
f 550 556 557
f 557 558 550
f 548 547 545
f 545 571 554
f 545 547 406
f 403 571 545
f 545 406 397
f 397 403 545
f 546 553 817
f 817 818 546
f 554 553 546
f 546 545 554
f 546 818 548
f 548 545 546
f 354 355 395
f 395 398 354
f 404 398 395
f 395 408 404
f 1408 644 643
f 643 642 1436
f 1436 1408 643
f 643 644 235
f 235 234 643
f 643 234 642
f 646 645 244
f 244 644 646
f 1408 645 646
f 646 644 1408
f 245 645 648
f 648 647 245
f 648 645 1408
f 1408 647 648
f 650 649 247
f 247 647 650
f 1408 649 650
f 650 647 1408
f 344 338 339
f 339 338 343
f 343 300 339
f 343 338 13
f 348 302 487
f 166 1206 165
f 625 626 1206
f 625 622 626
f 1206 166 625
f 600 599 607
f 600 13 9
f 607 13 600
f 160 162 607
f 607 599 160
f 160 161 162
f 604 630 624
f 602 630 604
f 5 602 604
f 1406 193 194
f 60 210 211
f 224 217 225
f 225 217 223
f 225 634 224
f 1403 634 225
f 225 223 1403
f 1403 199 200
f 200 217 1403
f 199 217 200
f 219 218 213
f 213 220 219
f 214 218 219
f 219 220 214
f 204 208 221
f 208 220 221
f 221 203 204
f 221 213 203
f 221 220 213
f 92 91 115
f 60 213 90
f 90 84 60
f 213 232 90
f 90 91 84
f 299 335 336
f 335 331 336
f 336 303 299
f 336 331 321
f 312 303 336
f 336 321 312
f 327 324 328
f 328 331 327
f 331 326 327
f 327 326 325
f 325 324 327
f 86 93 1416
f 93 86 106
f 98 104 50
f 1417 97 98
f 98 50 1417
f 1418 48 132
f 132 131 1418
f 127 126 1418
f 1418 131 127
f 119 43 121
f 49 50 42
f 42 43 49
f 42 104 41
f 50 104 42
f 42 121 43
f 41 33 42
f 33 31 42
f 31 125 42
f 125 121 42
f 314 312 313
f 312 311 313
f 321 315 35
f 37 140 146
f 141 136 134
f 1369 782 781
f 781 854 1369
f 772 854 781
f 782 778 781
f 778 772 781
f 473 405 774
f 405 780 774
f 773 778 770
f 771 854 773
f 773 770 771
f 771 770 769
f 1369 854 771
f 474 399 475
f 399 470 475
f 564 565 566
f 566 567 564
f 566 565 776
f 776 567 566
f 794 796 1368
f 795 796 794
f 794 779 777
f 1368 1367 807
f 807 794 1368
f 810 813 792
f 792 791 810
f 810 791 813
f 816 815 814
f 814 812 1366
f 814 813 812
f 814 815 813
f 1366 1372 814
f 1372 816 814
f 792 813 793
f 813 815 793
f 793 774 780
f 1371 817 1370
f 1370 550 1371
f 355 356 393
f 393 395 355
f 393 356 361
f 399 408 393
f 408 395 393
f 301 302 347
f 339 301 347
f 347 344 339
f 302 348 347
f 338 344 10
f 9 13 10
f 13 338 10
f 340 13 12
f 487 351 346
f 346 348 487
f 9 601 605
f 161 160 159
f 165 161 159
f 159 166 165
f 622 625 159
f 159 625 166
f 205 194 193
f 210 194 205
f 205 211 210
f 193 207 205
f 205 207 203
f 191 194 210
f 1406 194 191
f 116 115 232
f 92 115 116
f 17 92 116
f 232 115 114
f 114 90 232
f 114 115 91
f 91 90 114
f 82 92 83
f 82 91 92
f 84 91 82
f 63 62 79
f 79 62 61
f 61 84 79
f 84 82 79
f 79 82 78
f 1416 88 87
f 87 86 1416
f 1416 93 94
f 1417 1416 94
f 94 95 1417
f 109 104 108
f 104 101 108
f 103 98 97
f 97 96 103
f 103 96 95
f 48 118 133
f 133 132 48
f 128 123 40
f 123 35 40
f 135 128 40
f 40 155 135
f 40 36 37
f 40 315 36
f 40 35 315
f 321 35 320
f 312 321 320
f 32 123 314
f 32 35 123
f 314 313 32
f 32 313 311
f 139 138 145
f 145 140 139
f 145 138 137
f 148 141 134
f 148 134 135
f 137 136 144
f 37 146 151
f 151 40 37
f 464 465 762
f 762 761 464
f 1153 1165 762
f 1165 761 762
f 469 767 471
f 394 468 469
f 396 394 469
f 469 471 396
f 464 761 467
f 392 464 467
f 763 468 764
f 764 761 1165
f 764 467 761
f 811 815 776
f 795 794 799
f 1369 795 799
f 809 807 805
f 794 807 809
f 792 793 786
f 786 791 792
f 551 550 552
f 550 1370 552
f 552 1370 817
f 552 553 551
f 817 553 552
f 389 394 396
f 342 343 13
f 13 340 342
f 341 12 337
f 341 340 12
f 337 332 341
f 341 332 330
f 330 329 341
f 8 10 344
f 348 346 345
f 344 347 345
f 345 347 348
f 345 8 344
f 346 8 345
f 606 600 9
f 9 605 606
f 618 604 624
f 601 604 618
f 618 605 601
f 622 159 616
f 211 205 212
f 212 213 60
f 60 211 212
f 203 213 212
f 212 205 203
f 190 210 59
f 190 191 210
f 190 59 1406
f 1406 191 190
f 117 232 47
f 117 116 232
f 47 17 117
f 17 116 117
f 72 65 64
f 75 67 66
f 58 67 75
f 109 110 111
f 111 113 46
f 46 109 111
f 105 111 110
f 105 106 86
f 86 87 105
f 95 94 102
f 102 101 104
f 99 108 101
f 93 106 99
f 99 94 93
f 101 102 99
f 99 102 94
f 104 98 107
f 98 103 107
f 107 102 104
f 107 103 95
f 95 102 107
f 120 118 119
f 120 133 118
f 119 121 120
f 120 121 125
f 310 320 35
f 35 32 310
f 310 32 311
f 310 311 312
f 312 320 310
f 149 145 137
f 137 144 149
f 149 144 146
f 149 146 140
f 140 145 149
f 147 148 135
f 136 141 143
f 143 144 136
f 146 144 143
f 760 762 465
f 463 759 760
f 760 465 463
f 760 759 1153
f 1153 762 760
f 767 469 766
f 466 764 468
f 467 764 466
f 392 467 466
f 466 394 392
f 466 468 394
f 775 811 776
f 775 568 473
f 776 568 775
f 473 774 775
f 474 475 1160
f 769 770 1160
f 1160 475 470
f 1160 1165 1369
f 1369 771 1160
f 1160 771 769
f 1160 470 471
f 471 767 1160
f 767 766 1160
f 1160 764 1165
f 763 764 1160
f 777 1369 800
f 1369 799 800
f 800 794 777
f 800 799 794
f 1382 813 788
f 813 791 788
f 797 793 780
f 797 786 793
f 780 791 797
f 791 786 797
f 381 389 361
f 394 389 381
f 391 393 361
f 361 389 391
f 391 389 396
f 396 399 391
f 399 393 391
f 350 342 340
f 350 329 299
f 299 300 350
f 350 341 329
f 340 341 350
f 6 346 351
f 6 8 346
f 3 8 6
f 6 351 484
f 484 3 6
f 9 10 7
f 10 8 7
f 7 601 9
f 5 604 7
f 7 604 601
f 7 3 5
f 7 8 3
f 599 600 598
f 600 606 598
f 158 159 160
f 158 616 159
f 622 616 614
f 63 79 69
f 69 68 63
f 69 79 78
f 78 70 69
f 70 68 69
f 70 72 71
f 71 68 70
f 71 72 64
f 71 64 63
f 63 68 71
f 74 72 70
f 112 105 87
f 88 113 112
f 112 87 88
f 113 111 112
f 111 105 112
f 109 108 100
f 108 99 100
f 100 110 109
f 100 99 106
f 106 105 100
f 100 105 110
f 133 120 122
f 131 132 122
f 132 133 122
f 122 127 131
f 122 120 125
f 122 125 126
f 126 127 122
f 135 155 154
f 154 147 135
f 148 147 152
f 150 143 141
f 150 151 146
f 146 143 150
f 785 793 815
f 768 1160 770
f 768 770 778
f 763 1160 765
f 765 1160 766
f 765 766 469
f 765 468 763
f 765 469 468
f 806 807 1367
f 1367 804 806
f 805 807 806
f 802 804 1367
f 802 1367 1382
f 1382 801 802
f 789 809 805
f 794 809 789
f 789 802 801
f 778 779 789
f 779 794 789
f 787 791 798
f 787 788 791
f 790 801 1382
f 1382 788 790
f 788 787 790
f 790 787 798
f 798 778 790
f 778 789 790
f 790 789 801
f 382 361 380
f 382 381 361
f 394 381 382
f 392 394 382
f 343 342 349
f 342 350 349
f 300 343 349
f 349 350 300
f 616 158 611
f 611 158 160
f 605 618 619
f 619 606 605
f 624 622 613
f 622 614 613
f 613 618 624
f 613 619 618
f 614 615 613
f 75 74 77
f 77 70 78
f 77 74 70
f 77 82 83
f 78 82 77
f 83 76 77
f 77 76 58
f 58 75 77
f 72 74 73
f 66 65 73
f 65 72 73
f 73 75 66
f 73 74 75
f 142 152 151
f 142 150 141
f 151 150 142
f 141 148 142
f 148 152 142
f 147 154 153
f 153 152 147
f 153 154 155
f 151 152 153
f 155 40 153
f 40 151 153
f 811 775 783
f 815 811 783
f 783 785 815
f 783 775 774
f 474 1160 472
f 1160 768 472
f 472 778 474
f 472 768 778
f 808 789 805
f 805 806 808
f 802 789 808
f 380 359 385
f 359 392 385
f 612 160 599
f 612 611 160
f 620 598 606
f 606 619 620
f 620 613 615
f 619 613 620
f 598 620 621
f 621 620 615
f 599 598 621
f 621 612 599
f 617 614 616
f 617 615 614
f 617 621 615
f 616 611 617
f 611 612 617
f 612 621 617
f 784 783 774
f 785 783 784
f 774 793 784
f 793 785 784
f 803 806 804
f 803 808 806
f 804 802 803
f 802 808 803
f 392 382 384
f 384 385 392
f 384 382 380
f 380 385 384
f 1475 952 1481
f 1484 1488 890
f 889 1484 890
f 890 1487 889
f 1485 1487 890
f 1481 1482 1476
f 1476 1475 1481
f 1474 1476 1473
f 1480 1476 1474